<svg width="240" height="191" viewBox="0 0 240 191" fill="none" xmlns="http://www.w3.org/2000/svg">
<g clip-path="url(#clip0)">
<path opacity="0.1" d="M140.751 32.2781C125.565 31.7496 111.099 26.8428 97.2881 21.4733C83.4771 16.1038 69.7976 10.1542 54.9753 7.30971C45.4419 5.47995 34.5381 5.22157 26.8583 10.3374C19.4648 15.27 17.0761 23.7611 15.7927 31.6486C14.8259 37.5818 14.2581 43.8251 16.9072 49.3802C18.7444 53.237 22.0083 56.4784 24.2632 60.1849C32.1166 73.0379 26.5674 88.888 18.0569 101.438C14.068 107.327 9.43389 112.947 6.3554 119.209C3.27691 125.472 1.8503 132.657 4.54397 139.05C7.21653 145.392 13.5823 150.146 20.4761 153.493C34.4818 160.293 50.9794 162.238 67.0781 163.34C102.704 165.78 138.517 164.723 174.236 163.666C187.456 163.274 200.732 162.877 213.736 160.831C220.958 159.694 228.412 157.893 233.657 153.538C240.311 148.011 241.961 138.651 237.502 131.722C230.02 120.097 209.345 117.211 204.108 104.733C201.232 97.8677 204.188 90.2198 208.369 83.8497C217.342 70.1887 232.38 58.2025 233.173 42.5873C233.718 31.86 226.486 21.121 215.308 16.0451C203.592 10.7062 187.341 11.3826 178.701 20.1885C169.799 29.2622 154.158 32.7432 140.751 32.2781Z" fill="#0C572C"/>
<path d="M102.174 162.189L21.861 161.797L13.8809 143.06L42.0988 141.01L37.1807 120.466L92.9924 113.225L39.5482 94.6267L44.2692 93.5039L130.206 107.538L125.474 139.598L118.709 157.217L102.174 162.189Z" fill="#0C572C"/>
<path d="M23.0938 153.949C23.0938 153.949 28.0212 153.16 30.9777 156.645C30.9777 156.645 28.8096 158.355 24.1449 155.988L23.0938 153.949Z" fill="#0C572C"/>
<path d="M22.5771 153.871C22.5771 153.871 19.4329 157.744 20.9815 162.057C20.9815 162.057 23.5438 161.03 23.823 155.802L22.5771 153.871Z" fill="#0C572C"/>
<path d="M19.752 147.504C19.752 147.504 21.7229 143.884 29.6069 148.951C29.6069 148.951 28.5557 151.384 25.0736 151.187C21.5915 150.989 20.6717 149.411 19.752 147.504Z" fill="#0C572C"/>
<path d="M19.2422 147.243C19.2422 147.243 15.1524 146.773 14.7559 156.145C14.7559 156.145 17.3486 156.683 19.1906 153.719C21.0325 150.755 20.277 149.092 19.2422 147.243Z" fill="#0C572C"/>
<path d="M16.8613 139.767C16.8613 139.767 19.1608 133.388 27.5046 137.926C27.5046 137.926 25.5994 143.779 17.7154 141.937L16.8613 139.767Z" fill="#0C572C"/>
<path d="M14.2988 130.23C14.2988 130.23 18.635 123.784 26.3218 129.76C26.3218 129.76 23.6281 135.811 14.9558 132.522L14.2988 130.23Z" fill="#0C572C"/>
<path d="M13.3789 121.154C13.3789 121.154 18.4378 115.233 26.0495 121.154C26.0495 121.154 21.2535 126.35 13.3789 122.667V121.154Z" fill="#0C572C"/>
<path d="M12.5898 112.339C12.5898 112.339 17.7144 106.157 25.007 112.01C25.007 112.01 19.2255 117.469 12.5898 113.786V112.339Z" fill="#0C572C"/>
<path d="M13.0508 104.513C13.0508 104.513 18.4475 96.5549 25.2709 101.948C25.2709 101.948 19.4893 108.788 13.0508 106.025V104.513Z" fill="#0C572C"/>
<path d="M14.2988 95.3703C14.2988 95.3703 20.0147 87.4782 26.6503 93.5288C26.6503 93.5288 19.8833 100.369 14.2988 96.8172V95.3703Z" fill="#0C572C"/>
<path d="M16.2038 87.1993C16.2038 87.1993 22.9709 79.7816 28.8745 82.7364C28.8745 82.7364 21.8235 90.6145 15.9082 89.1676L16.2038 87.1993Z" fill="#0C572C"/>
<path d="M18.5694 79.4533C18.5694 79.4533 26.3782 70.3679 30.9209 73.4026C30.9209 73.4026 25.1675 80.4492 18.0156 81.1538L18.5694 79.4533Z" fill="#0C572C"/>
<path d="M21.9839 70.4676C21.9839 70.4676 28.8189 63.0499 33.8121 64.8914C33.8121 64.8914 27.9648 72.5863 21.0664 72.7836L21.9839 70.4676Z" fill="#0C572C"/>
<path d="M25.0726 62.0633C25.0726 62.0633 32.6281 54.9604 35.913 56.21C35.913 56.21 30.46 64.1021 24.7441 63.6418L25.0726 62.0633Z" fill="#0C572C"/>
<path d="M28.0957 54.3036C28.0957 54.3036 34.5999 45.8171 38.1501 46.4748C38.1501 46.4748 34.2057 54.0405 28.0957 55.1656V54.3036Z" fill="#0C572C"/>
<path d="M31.3757 43.8395C31.3757 43.8395 37.1244 37.3355 40.231 37.3496C40.231 37.3496 35.6931 46.0404 31.1387 45.9606L31.3757 43.8395Z" fill="#0C572C"/>
<path d="M33.3195 36.8724L38.8735 23.3242C38.8735 23.3242 39.1504 35.5712 32.6133 39.3857L33.3195 36.8724Z" fill="#0C572C"/>
<path d="M35.5747 21.9315C35.5747 21.9315 36.4944 10.617 35.9031 9.69629C35.9031 9.69629 39.8733 19.1035 35.5371 26.9299L35.5747 21.9315Z" fill="#0C572C"/>
<path d="M16.6467 139.616C16.6467 139.616 10.8886 136.044 7.16016 144.784C7.16016 144.784 12.2847 148.19 17.3248 141.845L16.6467 139.616Z" fill="#0C572C"/>
<path d="M14.1134 129.867C14.1134 129.867 7.05076 126.642 3.625 135.767C3.625 135.767 9.0804 139.525 14.7564 132.173L14.1134 129.867Z" fill="#0C572C"/>
<path d="M13.0515 121.697C13.0515 121.697 7.99261 115.776 0.380859 121.697C0.380859 121.697 5.17692 126.893 13.0515 123.21V121.697Z" fill="#0C572C"/>
<path d="M12.4172 112.339C12.4172 112.339 7.29264 106.157 0 112.01C0 112.01 5.78155 117.469 12.4172 113.786V112.339Z" fill="#0C572C"/>
<path d="M13.0508 104.738C13.0508 104.738 9.45612 95.8244 1.64258 99.6577C1.64258 99.6577 5.86611 107.562 12.7317 106.218L13.0508 104.738Z" fill="#0C572C"/>
<path d="M14.7533 95.3265C14.7533 95.3265 11.1797 86.2575 3.25586 90.462C3.25586 90.462 8.10823 98.7746 14.4013 96.7264L14.7533 95.3265Z" fill="#0C572C"/>
<path d="M16.9661 87.2441C16.9661 87.2441 15.5582 77.3014 8.98828 76.4111C8.98828 76.4111 10.382 86.8965 16.0815 89.0363L16.9661 87.2441Z" fill="#0C572C"/>
<path d="M18.7369 79.4715C18.7369 79.4715 18.1878 67.4923 12.7559 67.0742C12.7559 67.0742 12.9389 76.1667 18.1244 81.1674L18.7369 79.4715Z" fill="#0C572C"/>
<path d="M22.5468 70.1323C22.5468 70.1323 20.9277 60.1708 15.7422 58.9541C15.7422 58.9541 16.3851 68.6009 22.0329 72.5775L22.5468 70.1323Z" fill="#0C572C"/>
<path d="M25.6883 62.1458C25.6883 62.1458 25.6343 51.7686 22.4667 50.2441C22.4667 50.2441 20.5027 59.6396 24.7709 63.4706L25.6883 62.1458Z" fill="#0C572C"/>
<path d="M28.3378 54.1857C28.3378 54.1857 27.8943 43.5007 24.614 41.9951C24.614 41.9951 23.4924 50.451 27.8474 54.8857L28.3378 54.1857Z" fill="#0C572C"/>
<path d="M31.8344 44.6915C31.8344 44.6915 31.8156 36.0007 29.4739 33.9619C29.4739 33.9619 27.1462 43.4819 30.6119 46.4391L31.8344 44.6915Z" fill="#0C572C"/>
<path d="M33.0434 36.4448L30.7651 21.9805C30.7651 21.9805 27.6702 33.8328 33.1514 39.0567L33.0434 36.4448Z" fill="#0C572C"/>
<path d="M33.4872 22.0675C33.4872 22.0675 27.64 12.3432 27.7596 11.2627C27.7596 11.2627 28.3814 21.4544 35.7374 26.5303L33.4872 22.0675Z" fill="#0C572C"/>
<path d="M34.1735 19.195C34.1735 19.195 28.6548 5.38368 26.1582 4.26562C26.1582 4.26562 34.0421 8.27748 34.6334 18.8004L34.1735 19.195Z" fill="#0C572C"/>
<path d="M31.1102 46.0422L30.7324 45.9271C35.39 30.7229 36.5515 21.0292 34.0057 18.5981L34.2755 18.3115C36.9762 20.8765 35.8804 30.4645 31.1102 46.0422Z" fill="#444053"/>
<path d="M18.285 81.642L17.7266 81.4423C18.2217 80.0495 18.7543 78.6354 19.3127 77.2426C24.1745 65.1131 28.3136 53.8291 30.9673 45.1665L31.4531 44.9316C28.7946 53.6107 24.7282 65.3268 19.8618 77.4728C19.3057 78.8398 18.7754 80.2468 18.285 81.642Z" fill="#444053"/>
<path d="M30.0366 165.327C29.9615 165.244 22.4131 156.734 17.1501 142.207C14.0663 133.701 12.3501 124.76 12.0655 115.716C11.7041 104.411 14.074 91.7884 18.1333 80.3213L18.5744 80.838C9.46095 106.575 13.0815 128.628 17.8846 141.908C23.0912 156.305 30.5552 164.721 30.6279 164.805L30.0366 165.327Z" fill="#444053"/>
<path d="M147.995 147.259C147.995 147.259 142.676 153.758 146.899 163.583L104.429 182.022L100.354 182.877L98.4766 174.656L99.7319 164.281V158.611L147.995 147.259Z" fill="#D5D6DB"/>
<path d="M13.8809 143.06L72.6631 132.333L150.552 144.754L102.174 162.189L13.8809 143.06Z" fill="#0C572C"/>
<path d="M13.8809 143.06L72.6631 132.333L150.552 144.754L102.174 162.189L13.8809 143.06Z" fill="#0C572C"/>
<path d="M13.8809 143.058C13.8809 143.058 8.38323 153.484 14.7185 163.115L101.888 182.023C101.888 182.023 96.4768 173.717 102.167 162.189L13.8809 143.058Z" fill="#0C572C"/>
<path opacity="0.1" d="M13.8809 143.058C13.8809 143.058 8.38323 153.484 14.7185 163.115L101.888 182.023C101.888 182.023 96.4768 173.717 102.167 162.189L13.8809 143.058Z" fill="black"/>
<path opacity="0.1" d="M16.4784 146.672C16.4784 146.672 13.3366 154.301 16.4784 159.238V146.672Z" fill="black"/>
<path d="M101.888 182.023L150.552 161.235C150.552 161.235 153.274 161.823 151.514 163.819C149.755 165.816 102.826 184.019 102.826 184.019L14.7188 163.114L101.888 182.023Z" fill="#0C572C"/>
<path opacity="0.1" d="M101.888 182.023L150.552 161.235C150.552 161.235 153.274 161.823 151.514 163.819C149.755 165.816 102.826 184.019 102.826 184.019L14.7188 163.114L101.888 182.023Z" fill="black"/>
<path opacity="0.1" d="M97.8982 164.289C97.8982 164.289 93.2054 169.926 97.8982 178.382V164.289Z" fill="black"/>
<path opacity="0.1" d="M120.62 164.194L99.5703 171.224L99.6446 171.446L120.694 164.416L120.62 164.194Z" fill="black"/>
<path opacity="0.1" d="M124.835 163.493L99.5625 173.113L99.6459 173.333L124.918 163.713L124.835 163.493Z" fill="black"/>
<path opacity="0.1" d="M128.708 163.46L99.7051 175.344L99.794 175.561L128.797 163.677L128.708 163.46Z" fill="black"/>
<path opacity="0.1" d="M132.918 162.442L100.043 177.309L100.14 177.523L133.015 162.657L132.918 162.442Z" fill="black"/>
<path opacity="0.1" d="M136.455 162.447L100.303 178.266L100.397 178.481L136.549 162.662L136.455 162.447Z" fill="black"/>
<path opacity="0.1" d="M144.192 161.132L100.848 179.872L100.941 180.088L144.285 161.347L144.192 161.132Z" fill="black"/>
<path opacity="0.3" d="M35.7188 144.205L77.0155 135.515L102.174 140.33L68.3338 151.252L35.7188 144.205Z" fill="white"/>
<path d="M150.553 144.754C150.553 144.754 152.688 145.616 151.435 146.948C150.183 148.28 102.168 162.189 102.168 162.189L150.553 144.754Z" fill="#0C572C"/>
<path d="M171.292 124.668C171.292 124.668 165.975 131.165 170.198 140.993L127.728 159.431L123.653 160.291L121.775 152.07L123.049 141.697V136.02L171.292 124.668Z" fill="#D5D6DB"/>
<path d="M37.1797 120.466L95.9596 109.741L173.851 122.162L125.473 139.598L37.1797 120.466Z" fill="#3A3768"/>
<path d="M37.1716 120.466C37.1716 120.466 31.6716 130.892 38.0069 140.523L125.176 159.431C125.176 159.431 119.767 151.118 125.465 139.595L37.1716 120.466Z" fill="#3A3768"/>
<path opacity="0.1" d="M37.1716 120.466C37.1716 120.466 31.6716 130.892 38.0069 140.523L125.176 159.431C125.176 159.431 119.767 151.118 125.465 139.595L97.899 133.622L37.1716 120.466Z" fill="black"/>
<path opacity="0.1" d="M39.7762 124.081C39.7762 124.081 36.6367 131.708 39.7762 136.647V124.081Z" fill="black"/>
<path d="M125.187 159.431L173.854 138.644C173.854 138.644 176.573 139.231 174.813 141.227C173.053 143.224 126.125 161.428 126.125 161.428L38.0176 140.523L125.187 159.431Z" fill="#3A3768"/>
<path opacity="0.1" d="M125.187 159.431L173.854 138.644C173.854 138.644 176.573 139.231 174.813 141.227C173.053 143.224 126.125 161.428 126.125 161.428L38.0176 140.523L125.187 159.431Z" fill="black"/>
<path opacity="0.1" d="M121.197 141.697C121.197 141.697 116.504 147.335 121.197 155.79V141.697Z" fill="black"/>
<path opacity="0.1" d="M143.917 141.605L122.867 148.635L122.941 148.858L143.991 141.828L143.917 141.605Z" fill="black"/>
<path opacity="0.1" d="M148.137 140.904L122.865 150.524L122.949 150.744L148.221 141.124L148.137 140.904Z" fill="black"/>
<path opacity="0.1" d="M152.005 140.867L123.002 152.751L123.091 152.968L152.094 141.085L152.005 140.867Z" fill="black"/>
<path opacity="0.1" d="M156.219 139.85L123.344 154.716L123.44 154.93L156.315 140.064L156.219 139.85Z" fill="black"/>
<path opacity="0.1" d="M159.754 139.852L123.602 155.671L123.696 155.886L159.848 140.068L159.754 139.852Z" fill="black"/>
<path opacity="0.1" d="M167.491 138.536L124.146 157.276L124.24 157.492L167.584 138.752L167.491 138.536Z" fill="black"/>
<path opacity="0.45" d="M59.0195 121.615L100.316 112.924L125.475 117.739L91.6346 128.661L59.0195 121.615Z" fill="white"/>
<path d="M173.853 122.162C173.853 122.162 175.986 123.024 174.735 124.354C173.484 125.683 125.475 139.595 125.475 139.595L173.853 122.162Z" fill="#3A3768"/>
<path d="M173.497 98.8232C173.497 98.8232 168.178 110.49 172.402 120.315L129.932 133.586L125.865 134.448L123.988 126.227L125.244 115.852V110.175L173.497 98.8232Z" fill="#D5D6DB"/>
<path d="M39.3945 94.6237L98.1767 83.8965L176.068 96.3173L127.688 113.753L39.3945 94.6237Z" fill="#0C572C"/>
<path d="M39.3933 94.6211C39.3933 94.6211 33.8863 105.048 40.2216 114.678L127.391 133.586C127.391 133.586 121.98 125.274 127.677 113.753L39.3933 94.6211Z" fill="#0C572C"/>
<path opacity="0.1" d="M39.3933 94.6211C39.3933 94.6211 33.8863 105.048 40.2216 114.678L127.391 133.586C127.391 133.586 121.98 125.274 127.677 113.753L39.3933 94.6211Z" fill="black"/>
<path opacity="0.1" d="M41.9901 98.2363C41.9901 98.2363 38.8483 105.865 41.9901 110.803V98.2363Z" fill="black"/>
<path d="M127.4 133.587L176.064 117.967C176.064 117.967 178.786 118.554 177.026 120.551C175.266 122.547 128.338 135.584 128.338 135.584L40.2305 114.679L127.4 133.587Z" fill="#0C572C"/>
<path opacity="0.1" d="M127.4 133.587L176.064 117.967C176.064 117.967 178.786 118.554 177.026 120.551C175.266 122.547 128.338 135.584 128.338 135.584L40.2305 114.679L127.4 133.587Z" fill="black"/>
<path opacity="0.1" d="M123.412 115.853C123.412 115.853 118.719 121.49 123.412 129.946V115.853Z" fill="black"/>
<path opacity="0.1" d="M146.133 115.76L125.084 122.79L125.158 123.013L146.208 115.983L146.133 115.76Z" fill="black"/>
<path opacity="0.1" d="M150.35 115.06L125.078 124.68L125.162 124.899L150.434 115.279L150.35 115.06Z" fill="black"/>
<path opacity="0.1" d="M154.218 115.024L125.215 126.908L125.304 127.126L154.307 115.242L154.218 115.024Z" fill="black"/>
<path opacity="0.1" d="M158.434 114.005L125.559 128.871L125.655 129.085L158.53 114.219L158.434 114.005Z" fill="black"/>
<path opacity="0.1" d="M161.971 114.009L125.818 129.827L125.912 130.042L162.064 114.224L161.971 114.009Z" fill="black"/>
<path opacity="0.1" d="M169.708 112.695L126.363 131.436L126.456 131.651L169.801 112.911L169.708 112.695Z" fill="black"/>
<path opacity="0.3" d="M61.2324 95.7699L102.529 87.0791L127.687 91.8943L93.8475 102.816L61.2324 95.7699Z" fill="white"/>
<path d="M176.066 96.3174C176.066 96.3174 178.201 97.1794 176.948 98.5112C175.695 99.843 127.688 113.753 127.688 113.753L176.066 96.3174Z" fill="#0C572C"/>
<path d="M72.8362 25.0155C72.8362 25.0155 63.9198 24.4776 64.9616 30.7396C64.9616 30.7396 64.7528 31.8459 65.7547 32.3486C65.7547 32.3486 65.7711 31.8788 66.6698 32.0409C66.9905 32.0961 67.3167 32.1118 67.6412 32.0879C68.0787 32.0579 68.4945 31.8864 68.8262 31.5993C68.8262 31.5993 71.3345 30.5611 72.3106 26.4553C72.3106 26.4553 73.0333 25.5604 73.0145 25.3302L71.5034 25.9738C71.5034 25.9738 72.0173 27.0613 71.6137 27.9656C71.6137 27.9656 71.5644 26.0137 71.2735 26.0584C71.2148 26.0584 70.4921 26.4365 70.4921 26.4365C70.4921 26.4365 71.3767 28.3321 70.708 29.7085C70.708 29.7085 70.9614 27.3737 70.2152 26.5728L69.1547 27.1929C69.1547 27.1929 70.1894 29.1495 69.4878 30.7467C69.4878 30.7467 69.6685 28.2968 68.9317 27.3432L67.9697 28.0948C67.9697 28.0948 68.9435 30.0232 68.3498 31.348C68.3498 31.348 68.2724 28.4965 67.7632 28.2804C67.7632 28.2804 66.9209 29.0226 66.7942 29.328C66.7942 29.328 67.4605 30.7373 67.0452 31.4678C67.0452 31.4678 66.7942 29.5676 66.576 29.5582C66.576 29.5582 65.7383 30.8171 65.6515 31.6721C65.692 30.875 65.9404 30.1025 66.3718 29.4313C65.889 29.5228 65.4436 29.7539 65.0907 30.096C65.0907 30.096 65.2197 29.2058 66.5806 29.1283C66.5806 29.1283 67.2728 28.1723 67.4582 28.116C67.4582 28.116 66.1043 28.0009 65.2854 28.3649C65.2854 28.3649 66.0081 27.5264 67.7046 27.8952L68.6431 27.12C68.6431 27.12 66.8646 26.8852 66.109 27.1459C66.109 27.1459 66.9795 26.4036 68.8989 26.9439L69.9337 26.3261C69.9337 26.3261 68.4155 25.9996 67.5122 26.1171C67.5122 26.1171 68.4648 25.6027 70.2363 26.1594L70.9731 25.8282C70.9731 25.8282 69.8633 25.6097 69.5371 25.5745C69.211 25.5393 69.1945 25.45 69.1945 25.45C69.899 25.3342 70.6217 25.4155 71.2828 25.6849C71.2828 25.6849 72.8667 25.1141 72.8362 25.0155Z" fill="#0C572C"/>
<path opacity="0.1" d="M198.276 50.7537C198.276 50.7537 189.359 50.2159 190.401 56.4779C190.401 56.4779 190.192 57.5842 191.194 58.0869C191.194 58.0869 191.211 57.6171 192.109 57.7792C192.43 57.833 192.756 57.8488 193.081 57.8262C193.514 57.7942 193.926 57.6228 194.254 57.3376C194.254 57.3376 196.765 56.2994 197.738 52.1936C197.738 52.1936 198.461 51.2987 198.442 51.0685L196.936 51.7121C196.936 51.7121 197.45 52.7996 197.046 53.7039C197.046 53.7039 196.997 51.752 196.708 51.7966C196.65 51.7966 195.925 52.1748 195.925 52.1748C195.925 52.1748 196.809 54.0703 196.143 55.4468C196.143 55.4468 196.396 53.112 195.648 52.311L194.587 52.9311C194.587 52.9311 195.622 54.8877 194.92 56.485C194.92 56.485 195.101 54.0351 194.364 53.0815L193.404 53.8331C193.404 53.8331 194.376 55.7615 193.782 57.0863C193.782 57.0863 193.705 54.2348 193.196 54.0187C193.196 54.0187 192.356 54.7609 192.227 55.0663C192.227 55.0663 192.893 56.4756 192.48 57.2061C192.48 57.2061 192.227 55.3058 192.011 55.2964C192.011 55.2964 191.173 56.5554 191.086 57.4104C191.127 56.613 191.376 55.8403 191.809 55.1696C191.326 55.2613 190.879 55.4923 190.525 55.8343C190.525 55.8343 190.657 54.9441 192.015 54.8666C192.015 54.8666 192.708 53.9106 192.893 53.8519C192.893 53.8519 191.541 53.7392 190.72 54.1032C190.72 54.1032 191.443 53.2647 193.139 53.6335L194.078 52.8583C194.078 52.8583 192.297 52.6234 191.544 52.8842C191.544 52.8842 192.412 52.1419 194.334 52.6822L195.366 52.0644C195.366 52.0644 193.848 51.7379 192.945 51.8554C192.945 51.8554 193.897 51.341 195.669 51.8976L196.408 51.5665C196.408 51.5665 195.296 51.348 194.97 51.3128C194.643 51.2775 194.627 51.1883 194.627 51.1883C195.331 51.071 196.054 51.1523 196.715 51.4232C196.715 51.4232 198.304 50.8524 198.276 50.7537Z" fill="#0C572C"/>
<path opacity="0.1" d="M87.8555 63.7011C87.8555 63.7011 83.9699 55.6374 79.0237 59.6117C79.0237 59.6117 77.9561 59.9687 78.0077 61.0891C78.0077 61.0891 78.4183 60.8754 78.7116 61.7398C78.8212 62.0453 78.9661 62.337 79.1433 62.6088C79.3834 62.9773 79.7367 63.2576 80.1499 63.4074C80.1499 63.4074 82.2781 65.0939 86.3351 63.943C86.3351 63.943 87.4684 64.1379 87.6538 64.0017L86.3585 62.9987C86.3585 62.9987 85.6546 63.9782 84.6738 64.0651C84.6738 64.0651 86.3538 63.0716 86.1732 62.8414C86.1356 62.7944 85.4692 62.3411 85.4692 62.3411C85.4692 62.3411 84.2468 64.0393 82.7216 64.1262C82.7216 64.1262 84.8803 63.2101 85.2135 62.1649L84.1576 61.5401C84.1576 61.5401 82.9539 63.4004 81.2199 63.5648C81.2199 63.5648 83.4443 62.529 83.9159 61.4203L82.7943 60.9505C82.7943 60.9505 81.5859 62.7404 80.1406 62.8696C80.1406 62.8696 82.5902 61.4109 82.5292 60.8589C82.5292 60.8589 81.471 60.4878 81.1425 60.523C81.1425 60.523 80.2461 61.7891 79.4014 61.7891C79.4014 61.7891 80.9336 60.6405 80.8398 60.4549C80.8398 60.4549 79.3334 60.3375 78.5403 60.6898C79.255 60.3342 80.0502 60.1723 80.8468 60.22C80.5308 59.8428 80.1116 59.5661 79.6408 59.4238C79.6408 59.4238 80.4808 59.1043 81.2105 60.2529C81.2105 60.2529 82.3837 60.3915 82.5222 60.5254C82.5222 60.5254 81.9614 59.2899 81.2457 58.752C81.2457 58.752 82.3298 58.9705 82.8248 60.6311L83.9629 61.0821C83.9629 61.0821 83.3082 59.4097 82.7052 58.8812C82.7052 58.8812 83.7751 59.2782 84.2421 61.2301L85.2839 61.8314C85.2839 61.8314 84.831 60.3445 84.2867 59.614C84.2867 59.614 85.1994 60.1966 85.5772 62.0146L86.2271 62.4984C86.2271 62.4984 85.8752 61.4203 85.7579 61.1197C85.6405 60.819 85.6992 60.7579 85.6992 60.7579C86.1456 61.3156 86.4283 61.9865 86.5157 62.6957C86.5157 62.6957 87.7711 63.7715 87.8555 63.7011Z" fill="#0C572C"/>
<path opacity="0.1" d="M177.904 39.3622C177.904 39.3622 174.021 31.2986 169.072 35.2728C169.072 35.2728 168.007 35.6299 168.056 36.7503C168.056 36.7503 168.469 36.5389 168.76 37.4009C168.87 37.7077 169.015 38.0003 169.194 38.2723C169.434 38.6401 169.786 38.9197 170.199 39.0686C170.199 39.0686 172.329 40.7551 176.384 39.6065C176.384 39.6065 177.517 39.7991 177.705 39.6629L176.417 38.6575C176.417 38.6575 175.713 39.6394 174.734 39.7263C174.734 39.7263 176.412 38.7304 176.231 38.5002C176.194 38.4532 175.527 37.9999 175.527 37.9999C175.527 37.9999 174.307 39.6981 172.78 39.785C172.78 39.785 174.941 38.8689 175.274 37.826L174.202 37.2059C174.202 37.2059 173 39.0639 171.264 39.2307C171.264 39.2307 173.488 38.1925 173.962 37.0838L172.838 36.614C172.838 36.614 171.63 38.4062 170.187 38.5331C170.187 38.5331 172.634 37.0744 172.573 36.5248C172.573 36.5248 171.517 36.1513 171.189 36.1889C171.189 36.1889 170.292 37.4526 169.445 37.4526C169.445 37.4526 170.98 36.304 170.886 36.1184C170.886 36.1184 169.38 36.001 168.584 36.3533C169.299 35.9976 170.094 35.8357 170.891 35.8835C170.576 35.506 170.157 35.2292 169.687 35.0873C169.687 35.0873 170.527 34.7678 171.257 35.9164C171.257 35.9164 172.43 36.0574 172.568 36.1912C172.568 36.1912 172.008 34.9534 171.29 34.4155C171.29 34.4155 172.374 34.6363 172.869 36.3063L174.009 36.7573C174.009 36.7573 173.355 35.0826 172.752 34.5541C172.752 34.5541 173.821 34.951 174.286 36.9029L175.33 37.5043C175.33 37.5043 174.875 36.0198 174.331 35.2869C174.331 35.2869 175.246 35.8694 175.621 37.6875L176.271 38.1713C176.271 38.1713 175.922 37.0932 175.802 36.7925C175.682 36.4919 175.743 36.4332 175.743 36.4332C176.188 36.9914 176.47 37.6621 176.557 38.371C176.557 38.371 177.831 39.4374 177.904 39.3622Z" fill="#0C572C"/>
<path opacity="0.1" d="M190.316 79.2481C190.316 79.2481 186.432 71.1821 181.477 75.1564C181.477 75.1564 180.411 75.5134 180.461 76.6338C180.461 76.6338 180.874 76.4224 181.165 77.2844C181.273 77.5912 181.418 77.8837 181.596 78.1559C181.836 78.5237 182.188 78.8033 182.601 78.9521C182.601 78.9521 184.731 80.641 188.788 79.49C188.788 79.49 189.919 79.685 190.107 79.5464L188.812 78.5434C188.812 78.5434 188.108 79.5253 187.127 79.6122C187.127 79.6122 188.805 78.6163 188.624 78.3861C188.586 78.3391 187.92 77.8858 187.92 77.8858C187.92 77.8858 186.7 79.584 185.172 79.6732C185.172 79.6732 187.333 78.7548 187.666 77.7119L186.608 77.0871C186.608 77.0871 185.407 78.9474 183.671 79.1119C183.671 79.1119 185.895 78.0737 186.369 76.965L185.245 76.4952C185.245 76.4952 184.037 78.2851 182.594 78.4143C182.594 78.4143 185.043 76.9556 184.982 76.4036C184.982 76.4036 183.924 76.0302 183.595 76.0677C183.595 76.0677 182.699 77.3314 181.852 77.3314C181.852 77.3314 183.387 76.1828 183.293 75.9973C183.293 75.9973 181.786 75.8798 180.991 76.2322C181.706 75.8767 182.502 75.7147 183.3 75.7624C182.985 75.3843 182.565 75.1074 182.094 74.9661C182.094 74.9661 182.934 74.6443 183.664 75.7953C183.664 75.7953 184.837 75.9338 184.975 76.0677C184.975 76.0677 184.414 74.8322 183.699 74.292C183.699 74.292 184.783 74.5128 185.278 76.1828L186.416 76.6338C186.416 76.6338 185.761 74.9591 185.158 74.4329C185.158 74.4329 186.228 74.8275 186.693 76.7818L187.737 77.3807C187.737 77.3807 187.282 75.8963 186.737 75.1634C186.737 75.1634 187.652 75.7459 188.03 77.5663L188.68 78.0361C188.68 78.0361 188.328 76.958 188.211 76.6573C188.094 76.3566 188.152 76.2979 188.152 76.2979C188.598 76.8555 188.88 77.5266 188.966 78.2357C188.966 78.2357 190.243 79.3186 190.316 79.2481Z" fill="#0C572C"/>
<path opacity="0.1" d="M47.3846 184.189C50.3639 184.189 52.779 183.918 52.779 183.585C52.779 183.252 50.3639 182.981 47.3846 182.981C44.4054 182.981 41.9902 183.252 41.9902 183.585C41.9902 183.918 44.4054 184.189 47.3846 184.189Z" fill="#0C572C"/>
<path opacity="0.1" d="M12.0233 173.929C15.0025 173.929 17.4177 173.659 17.4177 173.325C17.4177 172.992 15.0025 172.722 12.0233 172.722C9.04406 172.722 6.62891 172.992 6.62891 173.325C6.62891 173.659 9.04406 173.929 12.0233 173.929Z" fill="#0C572C"/>
<path opacity="0.1" d="M74.3417 191.002C77.3209 191.002 79.7361 190.732 79.7361 190.399C79.7361 190.065 77.3209 189.795 74.3417 189.795C71.3624 189.795 68.9473 190.065 68.9473 190.399C68.9473 190.732 71.3624 191.002 74.3417 191.002Z" fill="#0C572C"/>
<path opacity="0.1" d="M212.474 176.16C215.454 176.16 217.869 175.89 217.869 175.557C217.869 175.223 215.454 174.953 212.474 174.953C209.495 174.953 207.08 175.223 207.08 175.557C207.08 175.89 209.495 176.16 212.474 176.16Z" fill="#0C572C"/>
<path opacity="0.1" d="M167.586 173.231C170.565 173.231 172.98 172.96 172.98 172.627C172.98 172.294 170.565 172.023 167.586 172.023C164.607 172.023 162.191 172.294 162.191 172.627C162.191 172.96 164.607 173.231 167.586 173.231Z" fill="#0C572C"/>
<path opacity="0.1" d="M138.546 187.517C142.069 187.517 144.926 187.026 144.926 186.42C144.926 185.814 142.069 185.323 138.546 185.323C135.022 185.323 132.166 185.814 132.166 186.42C132.166 187.026 135.022 187.517 138.546 187.517Z" fill="#0C572C"/>
<path d="M141.392 175.395C141.392 175.395 132.508 179.989 137.098 185.401C137.098 185.401 137.53 186.575 138.778 186.493C138.778 186.493 138.529 186.037 139.482 185.673C139.821 185.542 140.143 185.371 140.441 185.163C140.845 184.884 141.146 184.481 141.3 184.015C141.3 184.015 143.116 181.581 141.709 177.079C141.709 177.079 141.892 175.806 141.732 175.599L140.653 177.081C140.653 177.081 141.767 177.83 141.896 178.932C141.896 178.932 140.723 177.083 140.488 177.288C140.437 177.33 139.953 178.098 139.953 178.098C139.953 178.098 141.887 179.411 142.03 181.116C142.03 181.116 140.941 178.728 139.766 178.387L139.092 179.59C139.092 179.59 141.204 180.877 141.439 182.812C141.439 182.812 140.212 180.358 138.959 179.862L138.463 181.133C138.463 181.133 140.5 182.429 140.688 184.041C140.688 184.041 138.984 181.347 138.372 181.431C138.372 181.431 137.987 182.624 138.039 182.993C138.039 182.993 139.477 183.956 139.503 184.903C139.503 184.903 138.175 183.223 137.971 183.334C137.971 183.334 137.886 185.023 138.294 185.901C138.294 185.901 137.591 184.647 137.706 183.334C137.294 183.698 136.998 184.175 136.854 184.705C136.854 184.705 136.471 183.778 137.731 182.923C137.731 182.923 137.851 181.61 137.997 181.448C137.997 181.448 136.633 182.115 136.054 182.932C136.054 182.932 136.267 181.713 138.116 181.107L138.585 179.82C138.585 179.82 136.736 180.604 136.166 181.295C136.166 181.295 136.577 180.085 138.731 179.505L139.369 178.331C139.369 178.331 137.727 178.885 136.924 179.505C136.924 179.505 137.546 178.464 139.566 177.985L140.085 177.245C140.085 177.245 138.893 177.671 138.56 177.823C138.226 177.976 138.161 177.901 138.161 177.901C138.77 177.385 139.51 177.048 140.298 176.928C140.298 176.928 141.474 175.474 141.392 175.395Z" fill="#0C572C"/>
<path d="M167.759 88.6204C166.225 84.4464 157.778 84.0542 154.113 85.1182C151.508 85.8769 146.018 86.7319 143.085 87.1617L142.895 86.9809C143.275 86.8681 143.284 86.591 143.237 86.1799C143.21 85.6382 143.218 85.0952 143.261 84.5545C145.058 85.1135 146.658 83.7911 146.658 83.7911C148.77 82.8516 148.202 78.8303 148.606 77.7311C148.908 76.909 149.235 72.0656 149.38 69.651H149.411L149.427 68.8406C149.448 68.4906 149.457 68.2863 149.457 68.2863C149.457 68.2863 149.664 62.3812 150.068 61.1857C150.443 60.0864 150.748 54.5478 150.795 53.6693C150.795 53.5942 150.795 53.5542 150.795 53.5542L150.764 53.0422C150.786 52.6687 150.795 52.253 150.793 51.8161C150.793 49.8078 150.584 47.2781 150.558 46.8694C150.558 46.8106 150.558 46.7402 150.558 46.6556C150.574 45.7983 150.466 41.5046 146.818 39.8815C145.473 39.2802 143.857 38.5638 142.292 37.8662C141.888 34.3781 140.966 30.9089 141.046 27.395C141.046 26.8665 141.093 26.338 141.144 25.8118C141.144 25.9645 141.128 26.1195 141.125 26.2816C141.125 26.6222 141.125 26.9651 141.125 27.3057C141.264 22.911 142.923 18.4928 142.768 14.192C142.754 14.6125 142.723 15.0352 142.683 15.458C142.764 14.0034 142.612 12.5451 142.233 11.1385C142.092 10.6429 141.902 10.1308 141.496 9.79963C141.112 9.5329 140.672 9.35847 140.21 9.28993C139.1 9.00543 137.972 8.79513 136.834 8.66044C136.661 8.13047 136.404 7.63167 136.074 7.183C133.694 3.91339 130.17 0.841075 126.003 0.136417C123.912 -0.215912 121.507 0.0776952 120.085 1.57392C119.937 1.70536 119.797 1.84661 119.667 1.99672C118.903 2.91042 118.574 4.11069 117.79 5.02205C117.739 5.08312 117.68 5.13949 117.624 5.19821C116.089 6.5723 113.698 6.85886 111.992 8.09201C111.692 8.31338 111.41 8.55929 111.15 8.82721C110.463 9.50906 109.846 10.2591 109.31 11.0657C108.543 12.1461 107.755 13.2713 107.511 14.5608C107.02 17.1445 108.778 19.5944 109.104 22.1946C109.831 28.0127 103.4 33.1755 104.618 38.9161C104.943 40.3264 105.66 41.6157 106.687 42.6344C104.179 44.9081 102.044 47.1137 102.044 47.1137V47.2452H101.647L101.687 47.715H101.647L101.865 50.2635L101.647 53.9747C101.647 53.9747 101.647 54.0146 101.647 54.0898V54.1086V54.2096C101.647 54.2096 101.647 54.2495 101.647 54.3247H101.661C101.734 55.6847 102.022 60.575 102.365 61.6061C102.769 62.8017 102.973 68.7067 102.973 68.7067C102.973 68.7067 103.419 77.0522 103.827 78.1562C104.235 79.2602 103.656 83.2697 105.774 84.2163C106.394 84.6922 107.128 84.9968 107.903 85.0994C107.795 85.9779 107.863 86.6144 108.212 86.8141C108.362 86.9022 108.532 86.9507 108.705 86.955C108.561 87.1685 108.433 87.3922 108.323 87.6245C107.482 87.5366 106.655 87.3416 105.864 87.0443C103.588 86.1048 96.0344 83.9908 93.8405 85.4776C91.6467 86.9644 86.3672 88.3127 88.8051 94.2976C91.2431 100.282 92.3787 100.433 92.3787 100.433C93.1291 100.978 93.7874 101.64 94.3286 102.394C95.0607 103.496 101.882 106.016 103.588 106.016C104.313 106.005 105.038 106.041 105.758 106.124C105.758 106.124 103.907 107.75 104.153 108.694C104.399 109.638 103.59 117.197 103.59 117.197C103.59 117.197 105.467 119.09 106.269 116.607L106.298 116.645C106.448 116.849 107.26 117.772 108.787 116.607C109.412 116.132 110.076 115.711 110.772 115.348L118.168 114.3C118.939 114.252 119.712 114.247 120.484 114.284C121.657 114.38 122.809 113.685 123.534 113.147C125.067 113.73 126.789 114.366 127.608 114.599C129.269 115.069 136.904 117.119 138.69 116.478C139.061 116.33 139.391 116.095 139.652 115.792L141.355 115.846L140.558 116.006C140.558 116.006 142.111 116.032 144.223 116.06L144.133 116.111L146.783 116.088C150.659 116.123 155.014 116.135 155.586 116.006C156.483 115.806 161.14 115.947 162.513 116.006H162.895C162.895 116.006 168.013 114.984 165.901 109.786C164.277 105.793 159.287 104.633 157.072 104.313C157.696 104.189 158.233 104.092 158.59 104.036C160.136 103.801 163.139 102.392 163.383 101.91C163.627 101.429 166.145 100.031 166.795 99.2349C167.445 98.4386 169.301 92.7943 167.759 88.6204ZM125.372 100.301L125.121 100.383L124.952 100.44L124.628 100.759C124.37 100.585 124.093 100.402 123.804 100.214C124.313 100.245 124.837 100.275 125.372 100.301Z" fill="url(#paint0_linear)"/>
<path d="M140.332 75.5349C140.332 75.5349 143.922 84.9304 145.963 83.9908C148.005 83.0513 147.451 79.0582 147.841 77.9636C148.23 76.8691 148.662 68.5682 148.662 68.5682C148.662 68.5682 148.859 62.696 149.248 61.5075C149.61 60.4153 149.903 54.9072 149.952 54.0405C149.952 53.9653 149.952 53.9254 149.952 53.9254L149.565 47.1137L147.374 46.5664L142.291 48.4455L141.587 52.4691L141.313 54.0405L141.196 54.7099L140.332 75.5349Z" fill="#BE6F72"/>
<path opacity="0.1" d="M141.514 73.9609C141.514 73.9609 144.939 76.7678 145.972 77.0145C147.004 77.2611 147.638 79.4502 147.638 79.4502" fill="black"/>
<path d="M112.257 75.946C112.257 75.946 108.667 85.3415 106.626 84.4019C104.584 83.4624 105.138 79.4693 104.748 78.3748C104.359 77.2802 103.927 68.9793 103.927 68.9793C103.927 68.9793 103.73 63.1072 103.341 61.9186C102.979 60.8264 102.686 55.3183 102.637 54.4516C102.637 54.3764 102.637 54.3365 102.637 54.3365L103.026 47.5248L105.218 46.9775L110.3 48.8566L111.004 52.8802L111.279 54.4516L111.396 55.121L112.257 75.946Z" fill="#BE6F72"/>
<path d="M135.634 25.666H127.621V38.169H135.634V25.666Z" fill="#3E373A"/>
<path opacity="0.1" d="M135.634 25.666H127.621V38.169H135.634V25.666Z" fill="black"/>
<path d="M110.849 85.3041C110.849 85.3041 108.11 88.3177 109.126 88.865C110.142 89.4123 116.715 99.6697 116.715 99.6697C116.715 99.6697 138.302 102.331 142.373 98.3379C146.444 94.3449 146.362 87.2114 146.362 87.2114C146.362 87.2114 143.091 87.916 142.734 87.5332C142.377 87.1503 140.418 85.3041 140.418 85.3041C140.418 85.3041 112.726 83.6223 110.849 85.3041Z" fill="#4B4B5B"/>
<path opacity="0.02" d="M110.849 85.3041C110.849 85.3041 108.11 88.3177 109.126 88.865C110.142 89.4123 116.715 99.6697 116.715 99.6697C116.715 99.6697 138.302 102.331 142.373 98.3379C146.444 94.3449 146.362 87.2114 146.362 87.2114C146.362 87.2114 143.091 87.916 142.734 87.5332C142.377 87.1503 140.418 85.3041 140.418 85.3041C140.418 85.3041 112.726 83.6223 110.849 85.3041Z" fill="black"/>
<path d="M149.71 47.2123L142.67 52.8495L140.542 53.0046L139.761 53.0609L126.637 54.024L113.028 53.028L111.003 52.8801L108.422 52.6922L103.025 47.5247C103.025 47.5247 106.845 43.4282 110.191 40.6636C111.51 39.5714 112.756 38.6882 113.664 38.3406L113.819 38.2866C114.39 38.0636 114.9 37.7077 115.307 37.2484C117.949 34.5214 120.391 27.7919 120.391 27.7919C120.391 27.7919 132.046 21.7647 130.638 29.671C129.23 37.5772 135.877 35.623 135.877 35.623L138.069 36.6236L138.935 37.0206L141.143 38.0329L146.124 40.3207C150.033 42.1223 149.71 47.2123 149.71 47.2123Z" fill="#BE6F72"/>
<path opacity="0.1" d="M126.091 34.2298C131.88 34.2298 136.572 29.5323 136.572 23.7375C136.572 17.9427 131.88 13.2451 126.091 13.2451C120.302 13.2451 115.609 17.9427 115.609 23.7375C115.609 29.5323 120.302 34.2298 126.091 34.2298Z" fill="black"/>
<path opacity="0.1" d="M149.727 54.6863H102.637C102.637 54.6111 102.637 54.5712 102.637 54.5712L103.026 47.7595C103.026 47.7595 106.846 43.6631 110.192 40.8985L139.757 39.7241L141.132 38.2725L146.113 40.5603C150.025 42.3595 149.71 47.4495 149.71 47.4495C149.71 47.4495 150.245 53.3475 149.727 54.6863Z" fill="black"/>
<path d="M149.727 54.451H102.637C102.637 54.3758 102.637 54.3359 102.637 54.3359L103.026 47.5242C103.026 47.5242 106.846 43.4277 110.192 40.6631L139.757 39.4887L141.132 38.0371L146.113 40.3249C150.025 42.1241 149.71 47.2141 149.71 47.2141C149.71 47.2141 150.245 53.1121 149.727 54.451Z" fill="#E7C7CA"/>
<path opacity="0.1" d="M118.542 35.3501C118.542 35.3501 125.971 44.8254 135.866 35.1552C145.761 25.4849 136.962 56.7248 136.962 56.7248L115.609 59.2615L118.542 35.3501Z" fill="black"/>
<path d="M118.542 35.8198C118.542 35.8198 125.971 45.2951 135.866 35.6249C145.761 25.9546 136.962 57.1945 136.962 57.1945L115.609 59.7312L118.542 35.8198Z" fill="#E7C7CA"/>
<path opacity="0.1" d="M138.924 37.4833L139.71 49.4836L140.552 53.4767L141.195 56.5302C141.195 56.5302 142.838 80.0188 142.368 81.1932C141.899 82.3677 142.603 83.3072 142.702 83.932C142.8 84.5568 142.603 86.1258 142.68 86.8305C142.758 87.5351 142.68 87.8475 140.883 87.5962C139.086 87.3449 136.58 86.908 136.58 86.908C136.58 86.908 130.245 87.3778 128.055 86.5956C125.866 85.8134 121.72 85.8111 121.72 85.8111C121.72 85.8111 115.462 85.9685 113.43 85.7336C111.398 85.4987 110.3 88.2398 108.972 87.4553C107.644 86.6708 110.535 79.0792 111.473 76.8854C112.412 74.6916 110.223 69.1342 110.223 69.1342L113.038 53.4978L113.665 49.9534V38.8104L113.82 38.7563C114.391 38.5334 114.901 38.1775 115.307 37.7181L116.011 48.9316L138.067 49.7161V37.0957" fill="black"/>
<path d="M138.924 37.0135L139.71 49.0139L140.552 53.0069L141.195 56.0605C141.195 56.0605 142.838 79.5491 142.368 80.7235C141.899 81.8979 142.603 82.8375 142.702 83.4623C142.8 84.0871 142.603 85.6561 142.68 86.3608C142.758 87.0654 142.68 87.3778 140.883 87.1265C139.086 86.8752 136.58 86.4383 136.58 86.4383C136.58 86.4383 130.245 86.908 128.055 86.1259C125.866 85.3437 121.72 85.3414 121.72 85.3414C121.72 85.3414 115.462 85.4987 113.43 85.2638C111.398 85.029 110.3 87.7701 108.972 86.9856C107.644 86.201 110.535 78.6095 111.473 76.4157C112.412 74.2218 110.223 68.6644 110.223 68.6644L113.038 53.0281L113.665 49.4836V38.3406L113.82 38.2866C114.391 38.0636 114.901 37.7078 115.307 37.2484L116.011 48.4619L138.067 49.2464V36.626" fill="#E7C7CA"/>
<path opacity="0.1" d="M141.461 11.9693C141.327 11.4784 141.142 10.9687 140.757 10.6399C140.39 10.3757 139.965 10.2019 139.518 10.1325C138.448 9.8508 137.36 9.64206 136.262 9.50773C136.105 8.98616 135.867 8.49241 135.558 8.04438C133.258 4.79356 129.856 1.7283 125.853 1.03539C123.758 0.671312 121.329 0.997803 119.987 2.6514C119.25 3.56041 118.933 4.76538 118.189 5.65794C116.756 7.3914 114.168 7.60515 112.361 8.94635C111.397 9.65101 110.697 10.6728 110.015 11.664C109.275 12.7374 108.515 13.8555 108.281 15.1379C107.811 17.7006 109.503 20.1434 109.815 22.7295C110.519 28.5147 104.325 33.647 105.495 39.3547C106.178 42.683 109.25 45.0272 112.427 46.2157C113.546 46.6362 114.825 47.0543 115.348 48.13C115.583 48.5998 115.623 49.1424 115.843 49.6169C116.585 51.2 119.022 51.2611 120.332 50.1078C121.641 48.9545 122.054 47.0895 122.209 45.349C122.838 37.7481 119.797 30.2388 120.151 22.6191C120.257 20.3148 120.904 17.7006 122.967 16.6577C125.743 15.2483 129.082 17.5972 132.137 17.1486C133.582 20.6698 133.889 24.5561 133.014 28.261C132.528 30.2881 131.688 32.2541 131.627 34.3446C131.536 37.5273 133.251 40.4352 134.734 43.2491C135.052 43.7753 135.265 44.3585 135.361 44.9661C135.384 45.5826 135.269 46.1966 135.025 46.763C134.187 49.0203 132.742 51.1154 132.578 53.5183C132.53 53.7988 132.593 54.087 132.754 54.3216C132.919 54.4782 133.132 54.5742 133.359 54.5941C135.893 55.0286 138.085 52.7808 139.321 50.5235C140.7 48.0304 141.503 45.2598 141.672 42.4153C141.928 37.633 140.215 32.9282 140.321 28.1412C140.443 22.6989 142.9 17.219 141.461 11.9693Z" fill="black"/>
<path d="M141.696 11.735C141.562 11.244 141.376 10.7343 140.992 10.4055C140.624 10.1414 140.2 9.96757 139.753 9.89815C138.682 9.61643 137.594 9.40768 136.496 9.27335C136.339 8.75179 136.101 8.25803 135.792 7.81001C133.492 4.55919 130.09 1.49392 126.087 0.801011C123.992 0.436937 121.563 0.763428 120.221 2.41703C119.484 3.32604 119.168 4.531 118.424 5.42357C116.99 7.15703 114.402 7.37078 112.595 8.71198C111.631 9.41664 110.932 10.4384 110.249 11.4296C109.51 12.503 108.75 13.6211 108.515 14.9036C108.046 17.4662 109.737 19.909 110.05 22.4951C110.753 28.2803 104.559 33.4126 105.73 39.1203C106.413 42.4487 109.484 44.7928 112.661 45.9814C113.78 46.4018 115.059 46.8199 115.582 47.8957C115.817 48.3655 115.857 48.908 116.077 49.3825C116.819 50.9657 119.257 51.0267 120.566 49.8734C121.875 48.7201 122.288 46.8551 122.443 45.1146C123.072 37.5137 120.031 30.0044 120.385 22.3847C120.491 20.0805 121.139 17.4662 123.201 16.4233C125.977 15.014 129.316 17.3628 132.371 16.9142C133.817 20.4355 134.123 24.3217 133.248 28.0267C132.763 30.0537 131.923 32.0197 131.862 34.1102C131.77 37.2929 133.485 40.2008 134.968 43.0148C135.287 43.541 135.499 44.1241 135.595 44.7318C135.618 45.3483 135.504 45.9622 135.259 46.5286C134.422 48.7859 132.976 50.8811 132.812 53.284C132.764 53.5645 132.827 53.8527 132.988 54.0873C133.153 54.2439 133.367 54.3399 133.593 54.3598C136.127 54.7943 138.319 52.5464 139.556 50.2892C140.934 47.7961 141.738 45.0255 141.907 42.1809C142.162 37.3986 140.45 32.6939 140.555 27.9069C140.677 22.4646 143.134 16.9847 141.696 11.735Z" fill="#3E373A"/>
<path d="M136.512 115.735L145.82 116.033L144.485 109.123L137.354 109.802L136.512 115.735Z" fill="#C3C7D9"/>
<path d="M165.353 99.3565C164.726 100.139 162.303 101.548 162.068 102.018C161.833 102.488 158.94 103.897 157.453 104.132C155.965 104.367 151.274 105.386 150.413 105.933C149.796 106.328 144.843 107.578 141.588 108.27C140.707 108.479 139.815 108.64 138.916 108.752C137.508 108.829 122.102 103.584 122.102 103.584L125.072 100.531L125.236 100.475C126.076 100.19 129.957 98.8773 132.111 98.2525C134.538 97.5479 137.353 94.6517 137.353 94.6517C137.353 94.6517 141.497 93.2424 142.046 93.085C142.595 92.9277 140.638 87.6051 140.638 87.6051C140.638 87.6051 149.632 86.3555 153.152 85.2962C156.671 84.2369 164.806 84.6291 166.291 88.7796C167.777 92.93 165.989 98.5743 165.353 99.3565Z" fill="#4B4B5B"/>
<path d="M124.369 112.588C124.369 112.588 122.571 114.467 120.772 114.312C118.972 114.157 112.679 114.781 112.679 114.781C111.538 115.237 110.47 115.856 109.509 116.621C108.038 117.781 107.256 116.855 107.111 116.658L107.085 116.621C106.301 119.089 104.504 117.208 104.504 117.208C104.504 117.208 105.285 109.691 105.046 108.752C104.807 107.812 106.592 106.199 106.592 106.199L108.704 105.661L114.054 104.289L121.719 106.95L124.369 112.588Z" fill="#E7C7CA"/>
<path opacity="0.1" d="M108.695 105.661L107.111 116.658L107.085 116.621C106.301 119.09 104.504 117.208 104.504 117.208C104.504 117.208 105.285 109.692 105.046 108.752C104.807 107.813 106.592 106.199 106.592 106.199L108.695 105.661Z" fill="black"/>
<path opacity="0.1" d="M119.766 74.3789C119.766 74.3789 123.909 75.7882 127.509 74.3789H119.766Z" fill="black"/>
<path opacity="0.1" d="M133.912 77.043C133.912 77.043 135.632 77.9027 136.962 77.043H133.912Z" fill="black"/>
<path opacity="0.1" d="M133.912 79.0811C133.912 79.0811 136.805 79.4687 137.354 78.6865L133.912 79.0811Z" fill="black"/>
<path opacity="0.1" d="M132.973 83.4616C132.973 83.4616 138.407 82.7569 139.756 81.8174L132.973 83.4616Z" fill="black"/>
<path opacity="0.1" d="M116.393 81.8174C116.393 81.8174 119.443 83.5391 121.712 83.4616L116.393 81.8174Z" fill="black"/>
<path opacity="0.1" d="M141.586 108.271C140.705 108.48 139.813 108.641 138.914 108.753C137.506 108.83 122.1 103.585 122.1 103.585L125.07 100.532L125.234 100.476C125.704 100.807 126.088 101.091 126.363 101.307C127.656 102.326 128.904 100.995 129.373 100.995C129.843 100.995 133.909 104.361 133.909 104.361C133.909 104.361 137.663 105.223 138.29 106.005C138.916 106.787 141.105 106.632 141.495 107.179C141.612 107.348 141.626 107.764 141.586 108.271Z" fill="black"/>
<path d="M112.68 87.9243C112.68 87.9243 108.884 88.1427 106.694 87.2196C104.505 86.2965 97.2313 84.1661 95.1195 85.6623C93.0078 87.1585 87.9231 88.4809 90.2695 94.433C92.6159 100.385 93.7117 100.54 93.7117 100.54C94.4377 101.085 95.0715 101.743 95.5888 102.49C96.2927 103.586 102.863 106.09 104.505 106.09C106.148 106.09 109.041 106.09 113.107 108.909C117.173 111.728 120.85 112.042 120.85 112.042C120.85 112.042 126.012 114.156 127.62 114.626C129.227 115.096 136.571 117.13 138.293 116.505C140.016 115.88 141.109 111.963 141.109 111.963C141.109 111.963 141.891 108.439 141.499 107.892C141.107 107.345 138.918 107.5 138.293 106.718C137.669 105.935 133.913 105.073 133.913 105.073C133.913 105.073 129.856 101.705 129.386 101.705C128.917 101.705 127.669 103.035 126.376 102.017C123.801 100.108 121.095 98.3812 118.279 96.8499C115.308 95.2833 112.68 87.9243 112.68 87.9243Z" fill="#4B4B5B"/>
<path opacity="0.1" d="M105.047 90.1963C105.723 90.058 106.422 90.0779 107.089 90.2543C107.756 90.4307 108.373 90.7589 108.893 91.2133C110.77 92.78 117.086 95.9251 117.086 95.9251" fill="black"/>
<path opacity="0.1" d="M151.979 90.0977C151.979 90.0977 143.61 91.366 142.047 93.0877L151.979 90.0977Z" fill="black"/>
<path d="M161.599 116.033H161.231C159.908 115.986 155.424 115.845 154.56 116.033C153.544 116.268 140.09 116.033 140.09 116.033L142.72 115.486C142.72 115.486 141.744 112.061 142.364 111.777C142.364 111.777 138.844 109.457 141.498 107.89C144.151 106.323 147.012 106.983 147.012 106.983L153.673 104.724L154.952 104.289C154.952 104.289 162.461 104.681 164.493 109.849C166.525 115.016 161.599 116.033 161.599 116.033Z" fill="#E7C7CA"/>
<path opacity="0.1" d="M161.6 116.034H161.232C163.416 114.23 168.358 108.739 153.674 104.736L154.953 104.302C154.953 104.302 162.461 104.694 164.493 109.862C166.525 115.029 161.6 116.034 161.6 116.034Z" fill="black"/>
<path d="M147.795 109.945C148.022 109.945 148.206 109.761 148.206 109.534C148.206 109.307 148.022 109.123 147.795 109.123C147.569 109.123 147.385 109.307 147.385 109.534C147.385 109.761 147.569 109.945 147.795 109.945Z" fill="#4B4B5B"/>
<path d="M145.409 110.625C145.635 110.625 145.819 110.441 145.819 110.214C145.819 109.987 145.635 109.803 145.409 109.803C145.182 109.803 144.998 109.987 144.998 110.214C144.998 110.441 145.182 110.625 145.409 110.625Z" fill="#4B4B5B"/>
<g opacity="0.1">
<path opacity="0.1" d="M133.785 23.3507C133.876 20.7672 133.417 18.1938 132.438 15.8015C129.388 16.2572 126.047 13.9013 123.269 15.3106C121.213 16.3535 120.568 18.9678 120.453 21.272C120.425 21.8804 120.42 22.4887 120.432 23.0971C120.432 22.881 120.432 22.6625 120.453 22.4464C120.561 20.1422 121.206 17.5279 123.269 16.485C126.047 15.0757 129.383 17.4246 132.438 16.9759C133.267 19.0023 133.723 21.1619 133.785 23.3507Z" fill="black"/>
<path opacity="0.1" d="M110.146 22.921C110.186 22.4092 110.176 21.8947 110.115 21.3849C109.867 19.3179 108.738 17.3425 108.534 15.3271C108.271 17.7582 109.817 20.093 110.115 22.5593C110.146 22.6861 110.146 22.7989 110.146 22.921Z" fill="black"/>
<path opacity="0.1" d="M122.509 43.9998C122.364 45.7427 121.953 47.6053 120.632 48.7609C119.311 49.9166 116.878 49.8532 116.144 48.27C115.909 47.8003 115.874 47.253 115.646 46.7832C115.125 45.7074 113.844 45.2893 112.725 44.8689C109.546 43.678 106.479 41.3456 105.796 38.0079C105.735 37.7055 105.693 37.3995 105.672 37.0918C105.614 37.791 105.656 38.4949 105.796 39.1823C106.479 42.5106 109.55 44.8524 112.725 46.0433C113.844 46.4638 115.125 46.8818 115.646 47.9576C115.881 48.4274 115.921 48.97 116.144 49.4445C116.883 51.0276 119.321 51.0887 120.632 49.9354C121.944 48.7821 122.352 46.9171 122.509 45.1742C122.581 44.2569 122.605 43.3365 122.582 42.4167C122.582 42.9499 122.552 43.476 122.509 43.9998Z" fill="black"/>
<path opacity="0.1" d="M140.633 26.7939C140.633 27.1345 140.633 27.4728 140.633 27.811C140.764 23.4421 142.364 19.0497 142.207 14.7725C142.085 18.7279 140.722 22.7727 140.633 26.7939Z" fill="black"/>
<path opacity="0.1" d="M135.599 44.4671C135.656 44.1884 135.674 43.903 135.653 43.6192C135.558 43.0113 135.345 42.4279 135.026 41.9022C133.67 39.3184 132.123 36.6736 131.94 33.8057C131.94 33.9278 131.924 34.0405 131.922 34.1721C131.828 37.3524 133.543 40.2627 135.026 43.0766C135.278 43.5124 135.471 43.9801 135.599 44.4671Z" fill="black"/>
<path opacity="0.1" d="M141.983 41.0674C141.808 43.9131 140.999 46.6835 139.615 49.1757C138.376 51.433 136.187 53.6808 133.651 53.2463C133.424 53.2267 133.21 53.1297 133.045 52.9715C132.998 52.9177 132.96 52.8556 132.935 52.7882C132.907 52.9715 132.884 53.157 132.869 53.3449C132.821 53.6247 132.884 53.9123 133.045 54.1459C133.21 54.3041 133.424 54.4011 133.651 54.4207C136.187 54.8552 138.376 52.6074 139.615 50.3501C140.999 47.858 141.808 45.0876 141.983 42.2419C142.011 41.6922 142.013 41.1449 141.997 40.5977C141.992 40.755 141.992 40.9101 141.983 41.0674Z" fill="black"/>
</g>
<path opacity="0.1" d="M142.363 111.777C142.363 111.777 148.302 114.272 152.218 108.752" stroke="black" stroke-miterlimit="10"/>
<path opacity="0.1" d="M143.531 116.137C143.531 116.137 148.381 112.98 154.559 116.034" stroke="black" stroke-miterlimit="10"/>
<path opacity="0.1" d="M111.068 115.42C111.068 115.42 113.105 110.821 118.544 114.328" stroke="black" stroke-miterlimit="10"/>
<path opacity="0.1" d="M104.465 47.407L108.618 43.6489C108.618 43.6489 124.721 42.5919 125.388 48.0718C125.388 48.0718 131.097 41.5748 143.103 43.0217L148.183 47.0712L134.142 53.2393L120.498 57.9769L110.448 53.4741L104.465 47.407Z" fill="black"/>
<path d="M104.465 47.6424L108.618 43.8842C108.618 43.8842 124.721 42.8272 125.388 48.3071C125.388 48.3071 131.097 41.8102 143.103 43.2571L148.183 47.3065L134.142 53.4746L120.498 58.2123L110.448 53.7095L104.465 47.6424Z" fill="#D5D6DB"/>
<path opacity="0.1" d="M102.627 48.1113L104.464 70.1131L123.939 71.0926L123.095 49.1848L123.078 48.816L102.627 48.1113Z" fill="black"/>
<path d="M102.627 47.6416L104.464 69.6434L123.939 70.6229L123.095 48.715L123.078 48.3463L102.627 47.6416Z" fill="#0C572C"/>
<path opacity="0.1" d="M149.074 47.6416L128.984 50.6575V72.758L148.617 69.9182L149.074 47.6416Z" fill="black"/>
<path d="M149.074 47.1719L128.984 50.1878V72.2883L148.617 69.4485L149.074 47.1719Z" fill="#0C572C"/>
<path opacity="0.3" d="M144.337 52.5654L133.484 53.7727L133.721 57.4745L144.329 56.3142L144.337 52.5654Z" fill="white"/>
<path d="M105.52 81.4254L106.626 84.4014C106.626 84.4014 108.268 85.8107 110.065 85.1061C111.863 84.4014 113.43 84.0514 114.212 83.3656C114.993 82.6797 116.089 79.2339 116.089 79.2339C116.089 79.2339 117.184 75.4758 118.278 74.5362C119.371 73.5967 122.267 60.6521 118.278 61.9181C114.289 63.1842 111.239 74.9285 111.239 74.9285C111.239 74.9285 110.535 75.7882 109.519 75.868C108.503 75.9479 106.468 75.7106 106.077 76.5727C105.685 77.4347 104.347 79.7037 105.52 81.4254Z" fill="#BE6F72"/>
<path opacity="0.1" d="M128.986 50.655C127.957 50.887 126.888 50.8748 125.865 50.6195C124.842 50.3642 123.893 49.8728 123.094 49.1846L123.941 71.09C123.941 71.09 125.935 73.251 128.986 72.7577V50.655Z" fill="black"/>
<path d="M128.986 50.1852C127.957 50.4172 126.888 50.4051 125.865 50.1498C124.842 49.8945 123.893 49.4031 123.094 48.7148L123.941 70.6203C123.941 70.6203 125.935 72.7813 128.986 72.288V50.1852Z" fill="#0C572C"/>
<path opacity="0.1" d="M128.986 50.1852C127.957 50.4172 126.888 50.4051 125.865 50.1498C124.842 49.8945 123.893 49.4031 123.094 48.7148L123.941 70.6203C123.941 70.6203 125.935 72.7813 128.986 72.288V50.1852Z" fill="black"/>
<path opacity="0.1" d="M129.453 47.7174C129.453 47.7174 137.626 45.2159 139.756 45.5682L129.453 47.7174Z" fill="black"/>
<path opacity="0.1" d="M120.313 46.6247C120.313 46.6247 112.392 44.7457 111.068 45.2788L120.313 46.6247Z" fill="black"/>
<path opacity="0.1" d="M134.607 48.0291C134.607 48.0291 140.072 46.0232 142.048 46.9769L134.607 48.0291Z" fill="black"/>
<path opacity="0.1" d="M131.854 98.3486C132.7 97.712 133.602 97.1515 134.547 96.6739C135.955 95.995 138.536 94.2334 138.536 94.2334" fill="black"/>
<path opacity="0.1" d="M111.067 74.3789C111.067 74.3789 107.639 77.1858 106.609 77.4324C105.579 77.6791 104.943 79.8682 104.943 79.8682" fill="black"/>
<path d="M147.058 81.0072L145.965 83.9903C145.965 83.9903 144.322 85.3996 142.522 84.6949C140.723 83.9903 139.16 83.6403 138.376 82.9544C137.593 82.2686 136.499 78.8228 136.499 78.8228C136.499 78.8228 135.406 75.0646 134.31 74.1251C133.214 73.1855 130.321 60.241 134.31 61.507C138.299 62.773 141.349 74.5173 141.349 74.5173C141.349 74.5173 142.053 75.377 143.069 75.4569C144.085 75.5367 146.119 75.2995 146.511 76.1615C146.903 77.0236 148.231 79.2926 147.058 81.0072Z" fill="#BE6F72"/>
<path opacity="0.1" d="M145.141 75.5205C145.141 75.5205 147.381 76.9627 147.372 78.6868L145.141 75.5205Z" fill="black"/>
<path d="M126.13 33.7152C131.919 33.7152 136.611 29.0176 136.611 23.2228C136.611 17.4281 131.919 12.7305 126.13 12.7305C120.341 12.7305 115.648 17.4281 115.648 23.2228C115.648 29.0176 120.341 33.7152 126.13 33.7152Z" fill="#BE6F72"/>
<path d="M119.547 20.4067C120.819 20.207 121.934 19.4671 123.149 19.042C125.869 18.086 128.877 18.7413 131.629 19.6033C132.685 19.9345 133.757 20.308 134.865 20.308C135.972 20.308 137.148 19.8547 137.713 18.8987C138.234 18.0202 138.133 16.8787 137.695 15.9556C137.256 15.0325 136.521 14.2902 135.78 13.5903C133.34 11.2837 130.313 9.12742 126.964 9.36231C125.618 9.45861 124.329 9.94013 123.091 10.4733C121.531 11.1463 120.012 11.9118 118.543 12.7658C117.415 13.4211 115.324 14.2973 114.674 15.4952C113.196 18.194 117.248 20.7684 119.547 20.4067Z" fill="#3E373A"/>
<path opacity="0.1" d="M137.712 17.9121C137.147 18.868 135.971 19.3214 134.864 19.3214C133.756 19.3214 132.684 18.962 131.626 18.6308C128.873 17.7688 125.868 17.1111 123.146 18.0694C121.933 18.4946 120.816 19.2439 119.544 19.4318C117.69 19.723 114.706 18.107 114.382 16.0518C114.018 18.4265 117.479 20.4606 119.544 20.1364C120.816 19.9368 121.933 19.1969 123.146 18.7741C125.868 17.8158 128.873 18.4734 131.626 19.3355C132.684 19.6667 133.754 20.0401 134.864 20.026C135.974 20.0119 137.147 19.575 137.712 18.6167C138.005 18.0954 138.121 17.4926 138.041 16.8997C138.004 17.2566 137.892 17.6017 137.712 17.9121Z" fill="black"/>
<path d="M222.772 145.209C222.772 145.209 224.164 147.029 222.129 149.78C220.095 152.53 218.42 154.851 219.096 156.566C219.096 156.566 222.165 151.459 224.661 151.386C227.158 151.314 225.515 148.279 222.772 145.209Z" fill="#0C572C"/>
<path opacity="0.1" d="M222.773 145.209C222.894 145.385 222.99 145.577 223.057 145.78C225.492 148.645 226.792 151.321 224.448 151.386C222.266 151.45 219.65 155.356 219.023 156.34C219.043 156.42 219.068 156.498 219.096 156.575C219.096 156.575 222.165 151.469 224.662 151.396C227.158 151.323 225.516 148.279 222.773 145.209Z" fill="black"/>
<path d="M225.353 147.53C225.353 148.171 225.28 148.69 225.193 148.69C225.106 148.69 225.031 148.171 225.031 147.53C225.031 146.889 225.12 147.192 225.21 147.192C225.299 147.192 225.353 146.889 225.353 147.53Z" fill="#FFD037"/>
<path d="M226.243 148.296C225.682 148.601 225.192 148.787 225.149 148.709C225.107 148.632 225.527 148.319 226.088 148.004C226.649 147.69 226.428 147.92 226.47 148.004C226.513 148.089 226.806 147.988 226.243 148.296Z" fill="#FFD037"/>
<path d="M215.42 145.209C215.42 145.209 214.028 147.029 216.063 149.78C218.097 152.53 219.772 154.851 219.094 156.566C219.094 156.566 216.027 151.459 213.528 151.386C211.029 151.314 212.684 148.279 215.42 145.209Z" fill="#0C572C"/>
<path opacity="0.1" d="M215.42 145.209C215.298 145.385 215.203 145.577 215.136 145.78C212.7 148.645 211.4 151.321 213.744 151.386C215.924 151.45 218.543 155.356 219.169 156.34C219.149 156.42 219.124 156.499 219.094 156.575C219.094 156.575 216.027 151.469 213.528 151.396C211.029 151.323 212.684 148.279 215.42 145.209Z" fill="black"/>
<path d="M212.832 147.53C212.832 148.171 212.902 148.69 212.992 148.69C213.081 148.69 213.153 148.171 213.153 147.53C213.153 146.889 213.062 147.192 212.975 147.192C212.888 147.192 212.832 146.889 212.832 147.53Z" fill="#FFD037"/>
<path d="M211.947 148.296C212.508 148.601 212.998 148.787 213.04 148.709C213.083 148.632 212.663 148.319 212.102 148.004C211.541 147.69 211.762 147.92 211.719 148.004C211.677 148.089 211.384 147.988 211.947 148.296Z" fill="#FFD037"/>
<path opacity="0.1" d="M219.097 170.499C227.131 170.499 233.644 169.499 233.644 168.265C233.644 167.031 227.131 166.031 219.097 166.031C211.062 166.031 204.549 167.031 204.549 168.265C204.549 169.499 211.062 170.499 219.097 170.499Z" fill="#0C572C"/>
<path d="M226.583 154.111L226.513 154.679L226.415 155.483L226.375 155.819L226.276 156.622L226.234 156.958L226.138 157.759L225.023 166.896C224.925 167.711 223.594 168.347 221.987 168.347H216.203C214.596 168.347 213.268 167.711 213.167 166.896L212.052 157.759L211.954 156.958L211.914 156.622L211.815 155.819L211.773 155.483L211.677 154.679L211.606 154.111C211.552 153.641 212.27 153.261 213.181 153.261H225.011C225.919 153.261 226.64 153.648 226.583 154.111Z" fill="#65617D"/>
<path d="M226.512 154.68L226.416 155.483H211.774L211.676 154.68H226.512Z" fill="#9D9CB5"/>
<path d="M226.374 155.818L226.278 156.622H211.913L211.814 155.818H226.374Z" fill="#9D9CB5"/>
<path d="M226.235 156.958L226.137 157.761H212.051L211.955 156.958H226.235Z" fill="#9D9CB5"/>
</g>
<defs>
<linearGradient id="paint0_linear" x1="128.265" y1="117.894" x2="128.265" y2="0.000182312" gradientUnits="userSpaceOnUse">
<stop stop-color="#808080" stop-opacity="0.25"/>
<stop offset="0.54" stop-color="#808080" stop-opacity="0.12"/>
<stop offset="1" stop-color="#808080" stop-opacity="0.1"/>
</linearGradient>
<clipPath id="clip0">
<rect width="240" height="191" fill="white"/>
</clipPath>
</defs>
</svg>
