<svg width="259" height="236" viewBox="0 0 259 236" fill="none" xmlns="http://www.w3.org/2000/svg">
<path d="M65.9648 69H68.4848V59.028H65.9648V69ZM67.2428 57.84C68.1248 57.84 68.7908 57.192 68.7908 56.364C68.7908 55.536 68.1248 54.888 67.2428 54.888C66.3428 54.888 65.6948 55.536 65.6948 56.364C65.6948 57.192 66.3428 57.84 67.2428 57.84ZM71.2445 69H73.7645V55.68H71.2445V69ZM76.5243 69H79.0443V55.68H76.5243V69ZM91.2181 59.028H88.6801V64.518C88.6801 66.12 87.8161 66.984 86.4481 66.984C85.1161 66.984 84.2341 66.12 84.2341 64.518V59.028H81.7141V64.878C81.7141 67.614 83.3881 69.126 85.7101 69.126C86.9521 69.126 88.0501 68.586 88.6801 67.74V69H91.2181V59.028ZM101.714 66.156C101.642 62.502 96.1165 63.636 96.1165 61.818C96.1165 61.242 96.6025 60.864 97.5385 60.864C98.5285 60.864 99.1405 61.386 99.2125 62.16H101.624C101.48 60.18 100.022 58.866 97.6105 58.866C95.1445 58.866 93.6685 60.198 93.6685 61.854C93.6685 65.508 99.3025 64.374 99.3025 66.156C99.3025 66.732 98.7625 67.182 97.7725 67.182C96.7645 67.182 96.0625 66.606 95.9725 65.85H93.4345C93.5425 67.704 95.2885 69.162 97.7905 69.162C100.22 69.162 101.714 67.866 101.714 66.156ZM104.449 65.904C104.449 68.19 105.727 69 107.635 69H109.219V66.876H108.049C107.257 66.876 106.987 66.588 106.987 65.922V61.098H109.219V59.028H106.987V56.562H104.449V59.028H103.261V61.098H104.449V65.904ZM113.822 64.032C113.822 62.106 114.722 61.53 116.216 61.53H116.882V58.884C115.496 58.884 114.452 59.55 113.822 60.576V59.028H111.302V69H113.822V64.032ZM118.201 63.978C118.201 67.092 120.217 69.162 122.737 69.162C124.321 69.162 125.455 68.406 126.049 67.542V69H128.587V59.028H126.049V60.45C125.455 59.622 124.357 58.866 122.755 58.866C120.217 58.866 118.201 60.864 118.201 63.978ZM126.049 64.014C126.049 65.904 124.789 66.948 123.403 66.948C122.053 66.948 120.775 65.868 120.775 63.978C120.775 62.088 122.053 61.08 123.403 61.08C124.789 61.08 126.049 62.124 126.049 64.014ZM131.714 65.904C131.714 68.19 132.992 69 134.9 69H136.484V66.876H135.314C134.522 66.876 134.252 66.588 134.252 65.922V61.098H136.484V59.028H134.252V56.562H131.714V59.028H130.526V61.098H131.714V65.904ZM138.567 69H141.087V59.028H138.567V69ZM139.845 57.84C140.727 57.84 141.393 57.192 141.393 56.364C141.393 55.536 140.727 54.888 139.845 54.888C138.945 54.888 138.297 55.536 138.297 56.364C138.297 57.192 138.945 57.84 139.845 57.84ZM153.476 64.014C153.476 60.864 151.226 58.866 148.346 58.866C145.466 58.866 143.216 60.864 143.216 64.014C143.216 67.146 145.394 69.162 148.274 69.162C151.172 69.162 153.476 67.146 153.476 64.014ZM145.772 64.014C145.772 62.016 146.978 61.062 148.31 61.062C149.642 61.062 150.884 62.016 150.884 64.014C150.884 65.994 149.606 66.966 148.274 66.966C146.924 66.966 145.772 65.994 145.772 64.014ZM162.579 69H165.099V63.15C165.099 60.396 163.443 58.884 161.121 58.884C159.843 58.884 158.763 59.424 158.115 60.27V59.028H155.595V69H158.115V63.492C158.115 61.89 158.997 61.026 160.365 61.026C161.697 61.026 162.579 61.89 162.579 63.492V69ZM167.189 72.258H169.655L174.515 51.954H172.049L167.189 72.258ZM48.2277 100.978C48.2277 104.092 50.2437 106.162 52.7637 106.162C54.3477 106.162 55.4817 105.406 56.0757 104.542V106H58.6137V96.028H56.0757V97.45C55.4817 96.622 54.3837 95.866 52.7817 95.866C50.2437 95.866 48.2277 97.864 48.2277 100.978ZM56.0757 101.014C56.0757 102.904 54.8157 103.948 53.4297 103.948C52.0797 103.948 50.8017 102.868 50.8017 100.978C50.8017 99.088 52.0797 98.08 53.4297 98.08C54.8157 98.08 56.0757 99.124 56.0757 101.014ZM68.3289 106H70.8489V100.15C70.8489 97.396 69.1929 95.884 66.8709 95.884C65.5929 95.884 64.5129 96.424 63.8649 97.27V96.028H61.3449V106H63.8649V100.492C63.8649 98.89 64.7469 98.026 66.1149 98.026C67.4469 98.026 68.3289 98.89 68.3289 100.492V106ZM73.5153 106H76.0353V96.028H73.5153V106ZM74.7933 94.84C75.6753 94.84 76.3413 94.192 76.3413 93.364C76.3413 92.536 75.6753 91.888 74.7933 91.888C73.8933 91.888 73.2453 92.536 73.2453 93.364C73.2453 94.192 73.8933 94.84 74.7933 94.84ZM92.745 106H95.265V100.15C95.265 97.396 93.573 95.884 91.179 95.884C89.721 95.884 88.407 96.658 87.759 97.792C87.075 96.55 85.797 95.884 84.249 95.884C83.007 95.884 81.945 96.406 81.315 97.234V96.028H78.795V106H81.315V100.492C81.315 98.908 82.197 98.08 83.565 98.08C84.897 98.08 85.779 98.908 85.779 100.492V106H88.299V100.492C88.299 98.908 89.181 98.08 90.531 98.08C91.863 98.08 92.745 98.908 92.745 100.492V106ZM97.2784 100.978C97.2784 104.092 99.2944 106.162 101.814 106.162C103.398 106.162 104.532 105.406 105.126 104.542V106H107.664V96.028H105.126V97.45C104.532 96.622 103.434 95.866 101.832 95.866C99.2944 95.866 97.2784 97.864 97.2784 100.978ZM105.126 101.014C105.126 102.904 103.866 103.948 102.48 103.948C101.13 103.948 99.8524 102.868 99.8524 100.978C99.8524 99.088 101.13 98.08 102.48 98.08C103.866 98.08 105.126 99.124 105.126 101.014ZM110.792 102.904C110.792 105.19 112.07 106 113.978 106H115.562V103.876H114.392C113.6 103.876 113.33 103.588 113.33 102.922V98.098H115.562V96.028H113.33V93.562H110.792V96.028H109.604V98.098H110.792V102.904ZM117.644 106H120.164V96.028H117.644V106ZM118.922 94.84C119.804 94.84 120.47 94.192 120.47 93.364C120.47 92.536 119.804 91.888 118.922 91.888C118.022 91.888 117.374 92.536 117.374 93.364C117.374 94.192 118.022 94.84 118.922 94.84ZM132.554 101.014C132.554 97.864 130.304 95.866 127.424 95.866C124.544 95.866 122.294 97.864 122.294 101.014C122.294 104.146 124.472 106.162 127.352 106.162C130.25 106.162 132.554 104.146 132.554 101.014ZM124.85 101.014C124.85 99.016 126.056 98.062 127.388 98.062C128.72 98.062 129.962 99.016 129.962 101.014C129.962 102.994 128.684 103.966 127.352 103.966C126.002 103.966 124.85 102.994 124.85 101.014ZM141.656 106H144.176V100.15C144.176 97.396 142.52 95.884 140.198 95.884C138.92 95.884 137.84 96.424 137.192 97.27V96.028H134.672V106H137.192V100.492C137.192 98.89 138.074 98.026 139.442 98.026C140.774 98.026 141.656 98.89 141.656 100.492V106ZM151.402 106H153.922V100.492C153.922 98.89 154.804 98.026 156.172 98.026C157.504 98.026 158.386 98.89 158.386 100.492V106H160.906V100.15C160.906 97.396 159.268 95.884 157.018 95.884C155.686 95.884 154.57 96.424 153.922 97.27V92.68H151.402V106ZM167.856 97.936C169.152 97.936 170.196 98.764 170.232 100.078H165.498C165.696 98.71 166.65 97.936 167.856 97.936ZM172.59 102.868H169.872C169.548 103.534 168.954 104.074 167.874 104.074C166.614 104.074 165.606 103.246 165.48 101.77H172.77C172.824 101.446 172.842 101.122 172.842 100.798C172.842 97.828 170.808 95.866 167.928 95.866C164.976 95.866 162.924 97.864 162.924 101.014C162.924 104.146 165.03 106.162 167.928 106.162C170.394 106.162 172.05 104.704 172.59 102.868ZM177.472 101.032C177.472 99.106 178.372 98.53 179.866 98.53H180.532V95.884C179.146 95.884 178.102 96.55 177.472 97.576V96.028H174.952V106H177.472V101.032ZM186.783 97.936C188.079 97.936 189.123 98.764 189.159 100.078H184.425C184.623 98.71 185.577 97.936 186.783 97.936ZM191.517 102.868H188.799C188.475 103.534 187.881 104.074 186.801 104.074C185.541 104.074 184.533 103.246 184.407 101.77H191.697C191.751 101.446 191.769 101.122 191.769 100.798C191.769 97.828 189.735 95.866 186.855 95.866C183.903 95.866 181.851 97.864 181.851 101.014C181.851 104.146 183.957 106.162 186.855 106.162C189.321 106.162 190.977 104.704 191.517 102.868Z" fill="black"/>
<rect x="0.5" y="0.5" width="258" height="235" stroke="black"/>
</svg>
