<svg width="56" height="56" viewBox="0 0 56 56" fill="none" xmlns="http://www.w3.org/2000/svg">
<g filter="url(#filter0_d)">
<circle cx="28" cy="24" r="22" fill="#0FC662"/>
</g>
<path d="M27.8118 17.3447C24.1731 17.3447 21.2365 20.3307 21.2365 24.0306C21.2365 27.7306 24.1731 30.7166 27.8118 30.7166C31.4505 30.7166 34.3871 27.7306 34.3871 24.0306C34.3871 20.3307 31.4505 17.3447 27.8118 17.3447ZM27.8118 28.376C25.4587 28.376 23.5383 26.4234 23.5383 24.0306C23.5383 21.6379 25.4587 19.6852 27.8118 19.6852C30.1649 19.6852 32.0853 21.6379 32.0853 24.0306C32.0853 26.4234 30.1649 28.376 27.8118 28.376ZM34.6564 15.5126C33.8069 15.5126 33.1208 16.2102 33.1208 17.0741C33.1208 17.938 33.8069 18.6356 34.6564 18.6356C35.506 18.6356 36.1921 17.9412 36.1921 17.0741C36.1923 16.869 36.1528 16.6658 36.0757 16.4762C35.9986 16.2867 35.8855 16.1144 35.7429 15.9694C35.6002 15.8243 35.4308 15.7093 35.2444 15.631C35.058 15.5526 34.8582 15.5124 34.6564 15.5126ZM40.6291 24.0306C40.6291 22.2312 40.6451 20.4481 40.5457 18.6519C40.4463 16.5656 39.9783 14.714 38.4779 13.1883C36.9743 11.6595 35.1566 11.1868 33.1048 11.0857C31.3351 10.9847 29.5815 11.001 27.815 11.001C26.0453 11.001 24.2917 10.9847 22.5252 11.0857C20.4735 11.1868 18.6525 11.6627 17.1521 13.1883C15.6485 14.7172 15.1837 16.5656 15.0843 18.6519C14.9849 20.4513 15.001 22.2345 15.001 24.0306C15.001 25.8268 14.9849 27.6132 15.0843 29.4094C15.1837 31.4957 15.6518 33.3473 17.1521 34.8729C18.6557 36.4018 20.4735 36.8745 22.5252 36.9756C24.2949 37.0766 26.0485 37.0603 27.815 37.0603C29.5847 37.0603 31.3383 37.0766 33.1048 36.9756C35.1566 36.8745 36.9775 36.3986 38.4779 34.8729C39.9815 33.3441 40.4463 31.4957 40.5457 29.4094C40.6483 27.6132 40.6291 25.8301 40.6291 24.0306ZM37.8079 31.7174C37.5738 32.3107 37.2917 32.754 36.8397 33.2104C36.3876 33.6701 35.9548 33.9569 35.3714 34.1949C33.685 34.8762 29.6809 34.723 27.8118 34.723C25.9428 34.723 21.9354 34.8762 20.249 34.1982C19.6656 33.9602 19.2296 33.6733 18.7807 33.2137C18.3287 32.754 18.0466 32.314 17.8125 31.7207C17.1457 30.0027 17.2964 25.9311 17.2964 24.0306C17.2964 22.1301 17.1457 18.0553 17.8125 16.3406C18.0466 15.7473 18.3287 15.304 18.7807 14.8476C19.2328 14.3912 19.6656 14.1011 20.249 13.8631C21.9354 13.1851 25.9428 13.3383 27.8118 13.3383C29.6809 13.3383 33.6883 13.1851 35.3746 13.8631C35.958 14.1011 36.394 14.388 36.8429 14.8476C37.2949 15.3072 37.577 15.7473 37.8111 16.3406C38.4779 18.0553 38.3272 22.1301 38.3272 24.0306C38.3272 25.9311 38.4779 30.0027 37.8079 31.7174Z" fill="white"/>
<defs>
<filter id="filter0_d" x="0" y="0" width="56" height="56" filterUnits="userSpaceOnUse" color-interpolation-filters="sRGB">
<feFlood flood-opacity="0" result="BackgroundImageFix"/>
<feColorMatrix in="SourceAlpha" type="matrix" values="0 0 0 0 0 0 0 0 0 0 0 0 0 0 0 0 0 0 127 0"/>
<feOffset dy="4"/>
<feGaussianBlur stdDeviation="3"/>
<feColorMatrix type="matrix" values="0 0 0 0 0 0 0 0 0 0 0 0 0 0 0 0 0 0 0.2 0"/>
<feBlend mode="normal" in2="BackgroundImageFix" result="effect1_dropShadow"/>
<feBlend mode="normal" in="SourceGraphic" in2="effect1_dropShadow" result="shape"/>
</filter>
</defs>
</svg>
