<svg width="267" height="202" viewBox="0 0 267 202" fill="none" xmlns="http://www.w3.org/2000/svg">
<path d="M238.029 202C252.014 202 263.352 199.394 263.352 196.18C263.352 192.966 252.014 190.36 238.029 190.36C224.043 190.36 212.705 192.966 212.705 196.18C212.705 199.394 224.043 202 238.029 202Z" fill="#E6E6E6"/>
<path d="M237.697 47.3775V54.9903L241.679 64.9201L247.983 53.6664V45.0605L237.697 47.3775Z" fill="#A0616A"/>
<path d="M219.946 106.46L218.95 113.742C218.95 113.742 216.628 121.686 219.946 121.686C223.264 121.686 223.264 113.08 223.264 113.08L223.927 108.115L219.946 106.46Z" fill="#A0616A"/>
<path d="M260.092 105.467L259.097 112.749C259.097 112.749 256.774 120.692 260.092 120.692C263.41 120.692 263.41 112.087 263.41 112.087L264.074 107.122L260.092 105.467Z" fill="#A0616A"/>
<path d="M229.401 98.0196L227.84 98.4499C227.84 98.4499 223.761 124.83 223.429 138.732C223.097 152.634 222.434 187.719 222.434 187.719H233.051L240.018 128.14L243.336 187.719H254.617C254.617 187.719 259.262 109.604 256.276 103.315C253.29 97.0266 229.401 98.0196 229.401 98.0196Z" fill="#2F2E41"/>
<path d="M223.097 187.057L220.111 191.691C220.111 191.691 211.817 198.641 219.116 198.31C226.415 197.979 229.401 194.67 229.401 194.67V195.662L233.383 194.339L232.719 187.057H223.097Z" fill="#2F2E41"/>
<path d="M253.621 187.057L256.607 191.691C256.607 191.691 264.902 198.641 257.603 198.31C250.303 197.979 247.317 194.67 247.317 194.67V195.662L243.336 194.339L244 187.057H253.621Z" fill="#2F2E41"/>
<path d="M241.844 49.1975C245.875 49.1975 249.143 45.9373 249.143 41.9156C249.143 37.894 245.875 34.6338 241.844 34.6338C237.813 34.6338 234.545 37.894 234.545 41.9156C234.545 45.9373 237.813 49.1975 241.844 49.1975Z" fill="#A0616A"/>
<path d="M241.347 59.9552L237.697 52.4999L236.039 56.3143L235.375 89.0826L250.637 54.9903L247.983 52.062L241.347 59.9552Z" fill="#575A89"/>
<path d="M261.586 61.6102L249.488 53.7227C249.488 53.7227 248.646 61.2792 241.015 60.6172C233.384 59.9553 236.951 54.2152 236.951 54.2152L224.758 60.9482L229.403 86.7657L227.412 101.66C227.412 101.66 245.328 99.6745 249.31 102.653C251.635 104.421 254.377 105.561 257.273 105.963L256.609 80.4769L261.586 61.6102Z" fill="#D1D1D1"/>
<path d="M257.936 62.9341L260.231 60.7271L261.917 61.9411C261.917 61.9411 263.576 63.9271 264.903 69.885C266.23 75.8429 265.567 102.322 265.567 102.322L258.268 101.329L258.599 90.4066L255.613 75.8429L257.936 62.9341Z" fill="#D1D1D1"/>
<path d="M227.08 60.6169L225.826 60.3574L224.757 60.9479C224.757 60.9479 221.771 64.9198 221.771 68.5608C221.771 72.2017 218.785 103.315 218.785 103.315L225.421 106.294L230.066 82.7935L227.08 60.6169Z" fill="#D1D1D1"/>
<path d="M266.562 102.984C266.562 102.984 259.926 99.0123 257.603 101.66C255.281 104.308 258.93 106.956 258.93 106.956C258.93 106.956 269.216 110.928 266.562 102.984Z" fill="#575A89"/>
<path d="M226.085 104.97C226.085 104.97 219.449 100.998 217.127 103.646C214.804 106.294 218.454 108.942 218.454 108.942C218.454 108.942 228.739 112.914 226.085 104.97Z" fill="#575A89"/>
<path d="M248.236 36.5767C248.236 36.5767 250.145 32.9358 245.945 32.6048C245.945 32.6048 242.127 30.2878 239.072 32.9358C239.072 32.9358 236.399 32.2738 235.636 34.2597C235.636 34.2597 235.254 33.2668 236.399 32.6048C236.399 32.6048 233.726 31.9428 233.726 35.2527C233.726 35.2527 232.58 38.5627 233.726 41.5416C234.872 44.5205 235.252 44.8515 235.252 44.8515C235.252 44.8515 233.37 38.606 237.952 38.275C242.534 37.944 247.662 35.0872 248.044 38.7282C248.426 42.3691 249.189 43.3621 249.189 43.3621C249.189 43.3621 252.627 38.0662 248.236 36.5767Z" fill="#2F2E41"/>
<path d="M89.0153 173.541H88.9698C87.2734 173.541 85.5561 173.491 83.8663 173.391L83.8915 172.966C85.5733 173.065 87.282 173.115 88.9701 173.115H89.0156L89.0153 173.541ZM94.1659 173.386L94.1403 172.96C95.8401 172.858 97.5577 172.704 99.2455 172.501L99.2969 172.924C97.6005 173.129 95.8742 173.284 94.1675 173.386L94.1659 173.386ZM78.7346 172.935C77.0358 172.732 75.3215 172.475 73.6397 172.171L73.716 171.751C75.3892 172.054 77.0949 172.31 78.7853 172.513L78.7346 172.935ZM104.391 172.154L104.314 171.734C105.988 171.43 107.674 171.069 109.326 170.664L109.428 171.078C107.769 171.486 106.073 171.848 104.39 172.154L104.391 172.154ZM68.6005 171.099C66.9393 170.693 65.2688 170.231 63.6357 169.725L63.7628 169.318C65.3885 169.821 67.0498 170.281 68.7027 170.685L68.6005 171.099ZM114.392 169.698L114.264 169.29C115.887 168.786 117.516 168.224 119.108 167.62L119.26 168.02C117.661 168.627 116.022 169.192 114.392 169.699V169.698ZM58.7545 168.049C57.1546 167.445 55.5505 166.782 53.9864 166.08L54.1619 165.691C55.718 166.39 57.3139 167.048 58.9065 167.65L58.7545 168.049ZM124.013 166.053L123.837 165.663C125.385 164.968 126.934 164.213 128.438 163.423L128.637 163.801C127.125 164.596 125.569 165.353 124.013 166.054V166.053ZM49.3484 163.825C47.8315 163.031 46.3205 162.18 44.857 161.296L45.0783 160.931C46.5345 161.811 48.0379 162.658 49.5472 163.449L49.3484 163.825ZM133.119 161.275L132.898 160.911C134.352 160.032 135.799 159.097 137.197 158.132L137.441 158.483C136.034 159.452 134.579 160.391 133.119 161.275ZM40.5299 158.501C39.1212 157.53 37.7243 156.504 36.3783 155.452L36.6437 155.116C37.9828 156.163 39.3726 157.184 40.7744 158.15L40.5299 158.501ZM141.586 155.434L141.321 155.098C142.663 154.047 143.987 152.947 145.257 151.821L145.541 152.141C144.265 153.269 142.934 154.377 141.585 155.433L141.586 155.434ZM32.4191 152.157C31.1381 151.025 29.8753 149.841 28.666 148.634L28.9682 148.333C30.1716 149.532 31.4281 150.712 32.7024 151.838L32.4191 152.157ZM149.293 148.616L148.991 148.314C150.196 147.112 151.379 145.859 152.508 144.59L152.827 144.874C151.694 146.149 150.505 147.408 149.294 148.616H149.293ZM25.1325 144.893C23.9964 143.616 22.8856 142.288 21.8309 140.948L22.167 140.683C23.2167 142.016 24.3236 143.337 25.4516 144.608L25.1325 144.893ZM156.128 140.929L155.791 140.664C156.845 139.325 157.869 137.939 158.835 136.545L159.187 136.788C158.216 138.19 157.187 139.583 156.128 140.929ZM18.7718 136.817C17.798 135.413 16.8551 133.964 15.9702 132.508L16.3352 132.286C17.2161 133.735 18.154 135.178 19.1222 136.574L18.7718 136.817ZM161.991 132.472L161.626 132.252C162.51 130.797 163.359 129.298 164.152 127.795L164.53 127.993C163.733 129.503 162.88 131.01 161.991 132.472ZM13.4344 128.039C12.6381 126.531 11.878 124.979 11.1753 123.427L11.5648 123.251C12.2642 124.795 13.0203 126.339 13.8126 127.84L13.4344 128.039ZM166.792 123.367L166.401 123.192C167.103 121.636 167.765 120.045 168.368 118.459L168.768 118.61C168.161 120.204 167.497 121.804 166.791 123.366L166.792 123.367ZM9.20081 118.688C8.59232 117.093 8.0253 115.459 7.51568 113.831L7.92377 113.703C8.43107 115.323 8.99511 116.949 9.60028 118.536L9.20081 118.688ZM170.451 113.743L170.043 113.616C170.549 111.994 171.011 110.337 171.416 108.689L171.831 108.791C171.424 110.447 170.959 112.113 170.451 113.743V113.743ZM6.13015 108.88C5.72073 107.225 5.35709 105.534 5.04886 103.854L5.46957 103.777C5.77647 105.449 6.13844 107.131 6.54554 108.777L6.13015 108.88ZM172.908 103.764L172.487 103.687C172.791 102.018 173.048 100.317 173.25 98.6309L173.674 98.6818C173.472 100.376 173.213 102.087 172.908 103.764V103.764ZM4.27481 98.7732C4.06943 97.0812 3.91283 95.3593 3.81031 93.6547L4.23698 93.6289C4.33984 95.3246 4.49578 97.0381 4.70148 98.7215L4.27481 98.7732ZM174.136 93.5627L173.709 93.5375C173.809 91.8448 173.861 90.1253 173.861 88.4257V88.2453H174.289V88.4257C174.289 90.1336 174.237 91.8617 174.136 93.5627ZM4.07806 88.5164H3.65039V88.426C3.65039 86.7475 3.69983 85.0499 3.7977 83.3797L4.22438 83.4048C4.12716 85.0667 4.07773 86.7561 4.07773 88.4263L4.07806 88.5164ZM173.698 83.1334C173.593 81.4358 173.435 79.7222 173.229 78.0411L173.654 77.9894C173.861 79.6792 174.019 81.401 174.125 83.1073L173.698 83.1334ZM4.67726 78.3108L4.25258 78.2605C4.45496 76.5658 4.71143 74.8556 5.01568 73.1775L5.43671 73.2533C5.1338 74.9231 4.87833 76.6248 4.67726 78.3108ZM172.453 72.9861C172.144 71.3123 171.78 69.6302 171.372 67.9881L171.787 67.8855C172.197 69.5372 172.563 71.2286 172.874 72.9097L172.453 72.9861ZM6.50208 68.25L6.08668 68.1487C6.49245 66.4937 6.95497 64.8255 7.4616 63.195L7.87002 63.3211C7.36604 64.943 6.90586 66.6016 6.50241 68.25H6.50208ZM169.988 63.063C169.48 61.4431 168.914 59.8176 168.307 58.2305L168.705 58.0785C169.315 59.6723 169.884 61.3061 170.397 62.9342L169.988 63.063ZM9.53957 58.4757L9.13943 58.3248C9.74494 56.7281 10.4082 55.1274 11.1109 53.5668L11.5011 53.7419C10.8017 55.2945 10.1418 56.8873 9.53957 58.4757ZM166.338 53.5188C165.637 51.975 164.878 50.4319 164.085 48.9322L164.463 48.7336C165.261 50.2406 166.022 51.7916 166.727 53.3433L166.338 53.5188ZM13.7463 49.1374L13.3674 48.9388C14.161 47.4292 15.0133 45.9211 15.9009 44.4568L16.2658 44.6776C15.3843 46.135 14.5362 47.6354 13.7463 49.1374ZM161.556 44.4886C160.674 43.0415 159.734 41.5997 158.764 40.2039L159.115 39.9606C160.091 41.3637 161.035 42.8125 161.922 44.2672L161.556 44.4886ZM19.0515 40.3793L18.6995 40.1367C19.6703 38.7336 20.6981 37.3398 21.7542 35.9937L22.091 36.2565C21.0422 37.5963 20.0183 38.9832 19.0515 40.3793ZM155.717 36.093C154.663 34.7584 153.556 33.439 152.427 32.1713L152.747 31.888C153.882 33.1614 154.994 34.4873 156.053 35.8292L155.717 36.093ZM25.374 32.3256L25.0538 32.0426C26.1872 30.765 27.3763 29.5045 28.583 28.2971L28.8859 28.5983C27.6832 29.8001 26.5017 31.0539 25.374 32.3256ZM148.909 28.453C147.7 27.2521 146.443 26.0738 145.17 24.9514L145.453 24.632C146.732 25.76 147.997 26.944 149.21 28.1511L148.909 28.453ZM32.6145 25.0881L32.3305 24.769C33.6069 23.6377 34.9367 22.5288 36.2827 21.473L36.5482 21.8083C35.2094 22.8588 33.8849 23.9624 32.6145 25.0881ZM141.228 21.6789C139.888 20.6329 138.497 19.6135 137.094 18.6486L137.337 18.2974C138.747 19.2669 140.145 20.2917 141.491 21.3426L141.228 21.6789ZM40.6689 18.7701L40.4254 18.4192C41.8308 17.4478 43.2834 16.5064 44.7439 15.622L44.9659 15.9861C43.513 16.8662 42.0674 17.8029 40.6689 18.7698V18.7701ZM132.783 15.8722C131.323 14.9931 129.819 14.1481 128.312 13.36L128.511 12.982C130.026 13.7741 131.538 14.6234 133.005 15.5068L132.783 15.8722ZM49.4214 13.4679L49.2223 13.0906C50.7336 12.2962 52.2887 11.5349 53.8444 10.8342L54.0206 11.2228C52.4725 11.9212 50.9254 12.6765 49.4221 13.4679H49.4214ZM123.696 11.1231C122.14 10.4281 120.544 9.76905 118.95 9.17028L119.101 8.7711C120.703 9.37417 122.307 10.0348 123.872 10.7352L123.696 11.1231ZM58.7462 9.26163L58.5939 8.86444C60.1938 8.25641 61.8318 7.69008 63.4625 7.18101L63.5903 7.58813C61.9665 8.0929 60.3368 8.65658 58.7452 9.26163H58.7462ZM114.092 7.50737C112.466 7.00558 110.803 6.54749 109.15 6.14533L109.252 5.73093C110.911 6.13474 112.583 6.59548 114.218 7.09991L114.092 7.50737ZM68.5266 6.20987L68.4237 5.7958C70.0846 5.38603 71.7794 5.02227 73.4605 4.71445L73.5378 5.13415C71.8653 5.44031 70.1792 5.80242 68.5279 6.21021L68.5266 6.20987ZM104.136 5.0845C102.464 4.78363 100.758 4.52942 99.0657 4.3295L99.1158 3.90583C100.817 4.10674 102.531 4.36194 104.212 4.66447L104.136 5.0845ZM78.6052 4.36194L78.5534 3.93827C80.2485 3.73239 81.9745 3.57418 83.6838 3.47091L83.7097 3.89656C82.009 4.00016 80.2923 4.15639 78.6052 4.35995V4.36194ZM93.9585 3.88133C92.3069 3.78601 90.6287 3.73769 88.9698 3.73769H88.8338V3.31104H88.9698C90.6367 3.31104 92.3238 3.35969 93.9831 3.45568L93.9585 3.88133Z" fill="#3F3B56"/>
<path d="M175.053 142.412H124.352V180.347H175.053V142.412Z" fill="#0C572C"/>
<path d="M168.715 152.528H130.689V155.057H168.715V152.528Z" fill="white"/>
<path d="M168.715 160.115H130.689V162.644H168.715V160.115Z" fill="white"/>
<path d="M168.715 167.702H130.689V170.231H168.715V167.702Z" fill="white"/>
<path d="M38.0686 0H2.6543V26.4973H38.0686V0Z" fill="#E6E6E6"/>
<path d="M33.6408 7.06592H7.08008V8.83243H33.6408V7.06592Z" fill="white"/>
<path d="M33.6408 12.3652H7.08008V14.1317H33.6408V12.3652Z" fill="white"/>
<path d="M33.6408 17.6646H7.08008V19.4311H33.6408V17.6646Z" fill="white"/>
<path d="M53.1194 13.6904H17.7051V40.1878H53.1194V13.6904Z" fill="#0C572C"/>
<path d="M48.6935 20.7563H22.1328V22.5229H48.6935V20.7563Z" fill="white"/>
<path d="M48.6935 26.0557H22.1328V27.8222H48.6935V26.0557Z" fill="white"/>
<path d="M48.6935 31.355H22.1328V33.1215H48.6935V31.355Z" fill="white"/>
<path d="M137.358 124.453H40.8086V52.2969H137.358V124.453ZM41.8039 53.2899V123.46H136.363V53.2899H41.8039Z" fill="#E6E6E6"/>
<path d="M89.0538 106.85C99.2069 106.85 107.438 98.6393 107.438 88.5104C107.438 78.3815 99.2069 70.1704 89.0538 70.1704C78.9007 70.1704 70.6699 78.3815 70.6699 88.5104C70.6699 98.6393 78.9007 106.85 89.0538 106.85Z" fill="#0C572C"/>
<path d="M96.6868 86.9705H90.4363V80.7349C90.4363 80.3457 90.2814 79.9725 90.0055 79.6973C89.7297 79.4222 89.3556 79.2676 88.9655 79.2676C88.5754 79.2676 88.2013 79.4222 87.9255 79.6973C87.6497 79.9725 87.4947 80.3457 87.4947 80.7349V86.9705H81.2442C80.8542 86.9705 80.48 87.1251 80.2042 87.4002C79.9284 87.6754 79.7734 88.0486 79.7734 88.4378C79.7734 88.8269 79.9284 89.2001 80.2042 89.4753C80.48 89.7505 80.8542 89.905 81.2442 89.905H87.4947V96.1406C87.4947 96.5298 87.6497 96.903 87.9255 97.1782C88.2013 97.4533 88.5754 97.6079 88.9655 97.6079C89.3556 97.6079 89.7297 97.4533 90.0055 97.1782C90.2814 96.903 90.4363 96.5298 90.4363 96.1406V89.905H96.6868C97.0769 89.905 97.451 89.7505 97.7268 89.4753C98.0027 89.2001 98.1576 88.8269 98.1576 88.4378C98.1576 88.0486 98.0027 87.6754 97.7268 87.4002C97.451 87.1251 97.0769 86.9705 96.6868 86.9705Z" fill="white"/>
<path d="M35.4144 136.038H0V162.535H35.4144V136.038Z" fill="#E6E6E6"/>
<path d="M30.9884 143.104H4.42773V144.871H30.9884V143.104Z" fill="white"/>
<path d="M30.9884 148.403H4.42773V150.17H30.9884V148.403Z" fill="white"/>
<path d="M30.9884 153.703H4.42773V155.47H30.9884V153.703Z" fill="white"/>
</svg>
