<svg width="732" height="315" viewBox="0 0 732 315" fill="none" xmlns="http://www.w3.org/2000/svg">
<g clip-path="url(#clip0)">
<path d="M20.4824 276.642C20.4848 273.459 21.7493 270.407 23.998 268.157C26.2467 265.907 29.2954 264.644 32.4743 264.644C35.6532 264.644 38.702 265.907 40.9506 268.157C43.1993 270.407 44.4638 273.459 44.4662 276.642" fill="#F2F2F2"/>
<path d="M32.4745 276.642C32.3885 276.642 32.3061 276.608 32.2453 276.547C32.1846 276.486 32.1504 276.404 32.1504 276.318V269.99C32.1504 269.903 32.1845 269.821 32.2453 269.76C32.3061 269.699 32.3885 269.665 32.4745 269.665C32.5605 269.665 32.6429 269.699 32.7037 269.76C32.7645 269.821 32.7986 269.903 32.7986 269.99V276.318C32.7986 276.404 32.7644 276.486 32.7037 276.547C32.6429 276.608 32.5604 276.642 32.4745 276.642Z" fill="#CCCCCC"/>
<path d="M32.4752 274.467C32.3977 274.467 32.3229 274.439 32.2642 274.389L28.375 271.046C28.3422 271.019 28.3153 270.985 28.2957 270.947C28.2761 270.909 28.2643 270.867 28.2608 270.824C28.2574 270.782 28.2624 270.739 28.2757 270.698C28.2889 270.657 28.3101 270.619 28.3379 270.587C28.3658 270.554 28.3999 270.528 28.4381 270.508C28.4763 270.489 28.518 270.478 28.5607 270.474C28.6034 270.471 28.6463 270.477 28.6868 270.49C28.7274 270.504 28.7649 270.526 28.7971 270.554L32.6864 273.896C32.7367 273.939 32.7725 273.997 32.7891 274.061C32.8057 274.125 32.8023 274.193 32.7792 274.255C32.7562 274.317 32.7148 274.371 32.6604 274.409C32.606 274.447 32.5414 274.467 32.4751 274.467L32.4752 274.467Z" fill="#CCCCCC"/>
<path d="M57.4316 276.642C57.4341 273.459 58.6986 270.407 60.9472 268.157C63.1959 265.907 66.2447 264.644 69.4235 264.644C72.6024 264.644 75.6512 265.907 77.8998 268.157C80.1485 270.407 81.413 273.459 81.4154 276.642" fill="#F2F2F2"/>
<path d="M69.4237 276.642C69.3378 276.642 69.2553 276.608 69.1945 276.547C69.1338 276.486 69.0996 276.404 69.0996 276.318V269.99C69.0996 269.903 69.1338 269.821 69.1945 269.76C69.2553 269.699 69.3378 269.665 69.4237 269.665C69.5097 269.665 69.5921 269.699 69.6529 269.76C69.7137 269.821 69.7478 269.903 69.7478 269.99V276.318C69.7478 276.404 69.7137 276.486 69.6529 276.547C69.5921 276.608 69.5097 276.642 69.4237 276.642Z" fill="#CCCCCC"/>
<path d="M69.4227 274.467C69.3452 274.467 69.2704 274.44 69.2117 274.389L65.3224 271.046C65.2897 271.019 65.2627 270.985 65.2431 270.947C65.2234 270.909 65.2116 270.867 65.2081 270.824C65.2046 270.782 65.2097 270.739 65.2229 270.698C65.2361 270.657 65.2573 270.619 65.2852 270.587C65.3131 270.554 65.3472 270.528 65.3854 270.508C65.4237 270.489 65.4654 270.477 65.5081 270.474C65.5508 270.471 65.5937 270.477 65.6343 270.491C65.6749 270.504 65.7124 270.526 65.7447 270.554L69.6339 273.896C69.6842 273.94 69.72 273.997 69.7366 274.061C69.7532 274.126 69.7498 274.193 69.7267 274.256C69.7037 274.318 69.6622 274.371 69.6079 274.409C69.5535 274.447 69.4889 274.467 69.4226 274.467L69.4227 274.467Z" fill="#CCCCCC"/>
<path d="M548.265 47.0843C560.998 47.0843 571.319 36.7492 571.319 24.0002C571.319 11.2511 560.998 0.916016 548.265 0.916016C535.533 0.916016 525.211 11.2511 525.211 24.0002C525.211 36.7492 535.533 47.0843 548.265 47.0843Z" fill="#F2F2F2"/>
<path d="M76.0052 302.409C87.5801 302.409 96.9635 300.216 96.9635 297.512C96.9635 294.808 87.5801 292.615 76.0052 292.615C64.4302 292.615 55.0469 294.808 55.0469 297.512C55.0469 300.216 64.4302 302.409 76.0052 302.409Z" fill="#F2F2F2"/>
<path d="M65.3066 96.5073C70.8032 79.3211 84.2248 65.9926 100.142 58.0652C119.028 48.6595 140.729 47.5945 161.235 51.2552C183.371 55.207 204.06 64.317 224.086 74.2585C243.728 84.0098 263.054 94.3065 283.482 102.365C324.265 118.43 367.49 127.395 411.29 128.874C450.713 130.19 492.864 125.865 526.62 103.678C557.549 83.349 577.23 49.8114 587.481 14.8521C588.793 10.3765 589.96 5.86246 590.98 1.3099C591.278 -0.00513903 589.258 -0.566613 588.96 0.752024C580.691 37.2584 563.059 73.3391 532.933 96.61C500.349 121.779 457.585 127.597 417.566 126.931C373.288 126.157 329.479 117.692 288.092 101.914C267.139 93.9263 247.366 83.5546 227.341 73.5414C207.756 63.7482 187.621 54.5808 166.085 50.0641C146.42 45.9398 125.365 45.6885 106.404 53.0276C90.7917 59.0708 76.5564 69.8425 68.2256 84.5777C66.1943 88.1888 64.539 91.9994 63.2856 95.9494C62.8733 97.2386 64.8961 97.7905 65.3066 96.5073Z" fill="#F2F2F2"/>
<path d="M364.522 257.199C364.708 257.199 364.885 257.125 365.016 256.994C365.147 256.863 365.221 256.685 365.221 256.499C365.221 256.314 365.147 256.136 365.016 256.005C364.885 255.873 364.708 255.8 364.522 255.8H357.886V253.002H364.522C364.708 253.002 364.885 252.928 365.016 252.797C365.147 252.666 365.221 252.488 365.221 252.302C365.221 252.117 365.147 251.939 365.016 251.807C364.885 251.676 364.708 251.603 364.522 251.603H307.935C307.75 251.603 307.572 251.676 307.441 251.807C307.31 251.939 307.236 252.117 307.236 252.302C307.236 252.488 307.31 252.666 307.441 252.797C307.572 252.928 307.75 253.002 307.935 253.002H314.572V255.8H307.935C307.75 255.8 307.572 255.873 307.441 256.005C307.31 256.136 307.236 256.314 307.236 256.499C307.236 256.685 307.31 256.863 307.441 256.994C307.572 257.125 307.75 257.199 307.935 257.199H314.572V259.997H307.935C307.75 259.997 307.572 260.07 307.441 260.202C307.31 260.333 307.236 260.511 307.236 260.696C307.236 260.882 307.31 261.06 307.441 261.191C307.572 261.322 307.75 261.396 307.935 261.396H314.572V264.194H308.634C308.263 264.194 307.908 264.341 307.646 264.604C307.384 264.866 307.236 265.222 307.236 265.593C307.236 265.964 307.384 266.32 307.646 266.582C307.908 266.845 308.263 266.992 308.634 266.992H314.287C314.245 267.104 314.224 267.222 314.222 267.342V277.135C314.222 277.413 314.333 277.68 314.529 277.877C314.726 278.074 314.992 278.184 315.27 278.184C315.548 278.184 315.815 278.074 316.011 277.877C316.208 277.68 316.318 277.413 316.318 277.135V267.342C316.317 267.222 316.295 267.104 316.254 266.992H356.203C356.162 267.104 356.14 267.222 356.139 267.342V277.135C356.139 277.413 356.249 277.68 356.446 277.877C356.642 278.074 356.909 278.184 357.187 278.184C357.465 278.184 357.731 278.074 357.928 277.877C358.124 277.68 358.235 277.413 358.235 277.135V267.342C358.234 267.222 358.212 267.104 358.171 266.992H363.824C364.194 266.992 364.55 266.845 364.812 266.582C365.074 266.32 365.221 265.964 365.221 265.593C365.221 265.222 365.074 264.866 364.812 264.604C364.55 264.341 364.194 264.194 363.824 264.194H357.886V261.396H364.522C364.708 261.396 364.885 261.322 365.016 261.191C365.147 261.06 365.221 260.882 365.221 260.696C365.221 260.511 365.147 260.333 365.016 260.202C364.885 260.07 364.708 259.997 364.522 259.997H357.886V257.199H364.522ZM315.969 253.002H356.488V255.8H315.969V253.002ZM356.488 264.194H315.969V261.396H356.488V264.194ZM356.488 259.997H315.969V257.199H356.488V259.997Z" fill="#3F3D56"/>
<path d="M151.455 227.839C151.455 215.484 141.446 186.168 129.1 186.168C116.753 186.168 106.744 215.484 106.744 227.839C106.744 233.775 109.099 239.469 113.292 243.667C117.484 247.865 123.171 250.223 129.1 250.223C135.029 250.223 140.715 247.865 144.907 243.667C149.1 239.469 151.455 233.775 151.455 227.839H151.455Z" fill="#E6E6E6"/>
<path d="M145.865 227.839C145.865 215.484 135.856 186.168 123.51 186.168C111.163 186.168 101.154 215.484 101.154 227.839C101.154 233.775 103.51 239.469 107.702 243.667C111.895 247.865 117.581 250.223 123.51 250.223C129.439 250.223 135.125 247.865 139.318 243.667C143.51 239.469 145.865 233.775 145.865 227.839H145.865Z" fill="#F2F2F2"/>
<path d="M124.21 277.889C124.025 277.889 123.847 277.816 123.716 277.685C123.585 277.553 123.512 277.375 123.512 277.19V214.834C123.512 214.649 123.585 214.471 123.716 214.34C123.847 214.208 124.025 214.135 124.21 214.135C124.396 214.135 124.573 214.208 124.704 214.34C124.835 214.471 124.909 214.649 124.909 214.834V277.19C124.909 277.375 124.835 277.553 124.704 277.685C124.573 277.816 124.396 277.889 124.21 277.889Z" fill="#CCCCCC"/>
<path d="M124.21 225.057C124.072 225.057 123.937 225.016 123.822 224.939C123.707 224.862 123.618 224.753 123.565 224.625C123.512 224.497 123.498 224.357 123.525 224.221C123.552 224.086 123.619 223.961 123.716 223.863L132.852 214.715C132.983 214.583 133.161 214.51 133.346 214.51C133.532 214.51 133.709 214.583 133.84 214.715C133.971 214.846 134.045 215.024 134.045 215.209C134.045 215.395 133.971 215.573 133.84 215.704L124.704 224.852C124.639 224.917 124.562 224.969 124.478 225.004C124.393 225.039 124.302 225.057 124.21 225.057Z" fill="#CCCCCC"/>
<path d="M381.298 277.889C381.113 277.889 380.935 277.816 380.804 277.685C380.673 277.553 380.6 277.375 380.6 277.19V214.834C380.6 214.649 380.673 214.471 380.804 214.34C380.935 214.208 381.113 214.135 381.298 214.135C381.483 214.135 381.661 214.208 381.792 214.34C381.923 214.471 381.997 214.649 381.997 214.834V277.19C381.997 277.375 381.923 277.553 381.792 277.685C381.661 277.816 381.483 277.889 381.298 277.889Z" fill="#3F3D56"/>
<path d="M456.049 227.839C456.049 215.484 446.04 186.168 433.693 186.168C421.347 186.168 411.338 215.484 411.338 227.839C411.338 233.775 413.693 239.469 417.886 243.667C422.078 247.865 427.764 250.223 433.693 250.223C439.623 250.223 445.309 247.865 449.501 243.667C453.694 239.469 456.049 233.775 456.049 227.839H456.049Z" fill="#E6E6E6"/>
<path d="M450.459 227.839C450.459 215.484 440.45 186.168 428.104 186.168C415.757 186.168 405.748 215.484 405.748 227.839C405.748 233.775 408.103 239.469 412.296 243.667C416.488 247.865 422.175 250.223 428.104 250.223C434.033 250.223 439.719 247.865 443.911 243.667C448.104 239.469 450.459 233.775 450.459 227.839H450.459Z" fill="#F2F2F2"/>
<path d="M428.804 277.889C428.619 277.889 428.441 277.816 428.31 277.685C428.179 277.553 428.105 277.375 428.105 277.19V214.834C428.105 214.649 428.179 214.471 428.31 214.34C428.441 214.208 428.619 214.135 428.804 214.135C428.989 214.135 429.167 214.208 429.298 214.34C429.429 214.471 429.503 214.649 429.503 214.834V277.19C429.503 277.375 429.429 277.553 429.298 277.685C429.167 277.816 428.989 277.889 428.804 277.889Z" fill="#CCCCCC"/>
<path d="M428.804 225.057C428.666 225.057 428.531 225.016 428.416 224.939C428.301 224.862 428.211 224.753 428.159 224.625C428.106 224.497 428.092 224.357 428.119 224.221C428.146 224.086 428.212 223.961 428.31 223.863L437.446 214.715C437.577 214.583 437.755 214.51 437.94 214.51C438.125 214.51 438.303 214.583 438.434 214.715C438.565 214.846 438.639 215.024 438.639 215.209C438.639 215.395 438.565 215.573 438.434 215.704L429.298 224.852C429.233 224.917 429.156 224.969 429.071 225.004C428.987 225.039 428.896 225.057 428.804 225.057Z" fill="#CCCCCC"/>
<path d="M198.263 36.2414H187.085C186.252 36.2405 185.453 35.9085 184.863 35.3184C184.274 34.7282 183.942 33.9281 183.941 33.0935V7.21132C183.942 6.37674 184.274 5.57662 184.863 4.98648C185.453 4.39635 186.252 4.0644 187.085 4.06348H198.263C199.096 4.0644 199.895 4.39635 200.485 4.98648C201.074 5.57662 201.406 6.37674 201.407 7.21132V33.0935C201.406 33.9281 201.074 34.7282 200.485 35.3184C199.895 35.9085 199.096 36.2405 198.263 36.2414Z" fill="#E6E6E6"/>
<path d="M242.275 277.575H184.989C183.415 277.574 181.905 276.947 180.792 275.832C179.679 274.717 179.053 273.206 179.051 271.63V40.0885C179.053 38.5121 179.679 37.0008 180.792 35.8861C181.905 34.7714 183.415 34.1444 184.989 34.1426H242.275C243.849 34.1443 245.359 34.7713 246.472 35.886C247.585 37.0007 248.211 38.5121 248.213 40.0885V271.63C248.211 273.206 247.585 274.717 246.472 275.832C245.359 276.947 243.849 277.574 242.275 277.575Z" fill="#E6E6E6"/>
<path d="M208.043 277.575H150.757C149.182 277.574 147.673 276.947 146.56 275.832C145.446 274.717 144.82 273.206 144.818 271.63V40.0885C144.82 38.5121 145.446 37.0008 146.56 35.8861C147.673 34.7714 149.182 34.1444 150.757 34.1426H208.043C209.617 34.1444 211.126 34.7714 212.24 35.8861C213.353 37.0008 213.979 38.5121 213.981 40.0885V271.63C213.979 273.206 213.353 274.717 212.24 275.832C211.126 276.947 209.617 277.574 208.043 277.575Z" fill="#F2F2F2"/>
<path d="M187.782 36.2414H176.605C175.771 36.2405 174.972 35.9085 174.383 35.3184C173.793 34.7282 173.462 33.9281 173.461 33.0935V7.21132C173.462 6.37674 173.793 5.57662 174.383 4.98648C174.972 4.39635 175.771 4.0644 176.605 4.06348H187.782C188.616 4.0644 189.415 4.39635 190.004 4.98648C190.594 5.57662 190.925 6.37674 190.926 7.21132V33.0935C190.925 33.9281 190.594 34.7282 190.004 35.3184C189.415 35.9085 188.616 36.2405 187.782 36.2414Z" fill="#F2F2F2"/>
<path d="M173.112 86.6069H159.838C159.375 86.6064 158.931 86.422 158.604 86.0941C158.276 85.7663 158.092 85.3218 158.092 84.8581V64.572C158.092 64.1084 158.276 63.6639 158.604 63.336C158.931 63.0082 159.375 62.8238 159.838 62.8232H173.112C173.575 62.8238 174.019 63.0082 174.346 63.336C174.674 63.6639 174.858 64.1084 174.858 64.572V84.8581C174.858 85.3218 174.674 85.7663 174.346 86.0941C174.019 86.422 173.575 86.6064 173.112 86.6069Z" fill="white"/>
<path d="M198.962 86.6069H185.688C185.225 86.6064 184.781 86.422 184.454 86.0941C184.126 85.7663 183.942 85.3218 183.941 84.8581V64.572C183.942 64.1084 184.126 63.6639 184.454 63.336C184.781 63.0082 185.225 62.8238 185.688 62.8232H198.962C199.425 62.8238 199.868 63.0082 200.196 63.336C200.523 63.6639 200.708 64.1084 200.708 64.572V84.8581C200.708 85.3218 200.523 85.7663 200.196 86.0941C199.868 86.422 199.425 86.6064 198.962 86.6069Z" fill="white"/>
<path d="M173.112 123.681H159.838C159.375 123.681 158.931 123.496 158.604 123.168C158.276 122.84 158.092 122.396 158.092 121.932V101.646C158.092 101.183 158.276 100.738 158.604 100.41C158.931 100.082 159.375 99.898 159.838 99.8975H173.112C173.575 99.898 174.019 100.082 174.346 100.41C174.674 100.738 174.858 101.183 174.858 101.646V121.932C174.858 122.396 174.674 122.84 174.346 123.168C174.019 123.496 173.575 123.681 173.112 123.681Z" fill="white"/>
<path d="M198.962 123.681H185.688C185.225 123.681 184.781 123.496 184.454 123.168C184.126 122.84 183.942 122.396 183.941 121.932V101.646C183.942 101.183 184.126 100.738 184.454 100.41C184.781 100.082 185.225 99.898 185.688 99.8975H198.962C199.425 99.898 199.868 100.082 200.196 100.41C200.523 100.738 200.708 101.183 200.708 101.646V121.932C200.708 122.396 200.523 122.84 200.196 123.168C199.868 123.496 199.425 123.681 198.962 123.681Z" fill="white"/>
<path d="M173.112 160.756H159.838C159.375 160.756 158.931 160.571 158.604 160.244C158.276 159.916 158.092 159.471 158.092 159.008V138.721C158.092 138.258 158.276 137.813 158.604 137.485C158.931 137.158 159.375 136.973 159.838 136.973H173.112C173.575 136.973 174.019 137.158 174.346 137.485C174.674 137.813 174.858 138.258 174.858 138.721V159.008C174.858 159.471 174.674 159.916 174.346 160.244C174.019 160.571 173.575 160.756 173.112 160.756Z" fill="white"/>
<path d="M198.962 160.756H185.688C185.225 160.756 184.781 160.571 184.454 160.244C184.126 159.916 183.942 159.471 183.941 159.008V138.721C183.942 138.258 184.126 137.813 184.454 137.485C184.781 137.158 185.225 136.973 185.688 136.973H198.962C199.425 136.973 199.868 137.158 200.196 137.485C200.523 137.813 200.708 138.258 200.708 138.721V159.008C200.708 159.471 200.523 159.916 200.196 160.244C199.868 160.571 199.425 160.756 198.962 160.756Z" fill="white"/>
<path d="M173.112 197.831H159.838C159.375 197.83 158.931 197.646 158.604 197.318C158.276 196.99 158.092 196.545 158.092 196.082V175.796C158.092 175.332 158.276 174.888 158.604 174.56C158.931 174.232 159.375 174.047 159.838 174.047H173.112C173.575 174.047 174.019 174.232 174.346 174.56C174.674 174.888 174.858 175.332 174.858 175.796V196.082C174.858 196.545 174.674 196.99 174.346 197.318C174.019 197.646 173.575 197.83 173.112 197.831Z" fill="white"/>
<path d="M198.962 197.831H185.688C185.225 197.83 184.781 197.646 184.454 197.318C184.126 196.99 183.942 196.545 183.941 196.082V175.796C183.942 175.332 184.126 174.888 184.454 174.56C184.781 174.232 185.225 174.047 185.688 174.047H198.962C199.425 174.047 199.868 174.232 200.196 174.56C200.523 174.888 200.708 175.332 200.708 175.796V196.082C200.708 196.545 200.523 196.99 200.196 197.318C199.868 197.646 199.425 197.83 198.962 197.831Z" fill="white"/>
<path d="M173.112 234.905H159.838C159.375 234.904 158.931 234.72 158.604 234.392C158.276 234.064 158.092 233.62 158.092 233.156V212.87C158.092 212.406 158.276 211.962 158.604 211.634C158.931 211.306 159.375 211.122 159.838 211.121H173.112C173.575 211.122 174.019 211.306 174.346 211.634C174.674 211.962 174.858 212.406 174.858 212.87V233.156C174.858 233.62 174.674 234.064 174.346 234.392C174.019 234.72 173.575 234.904 173.112 234.905Z" fill="white"/>
<path d="M198.962 234.905H185.688C185.225 234.904 184.781 234.72 184.454 234.392C184.126 234.064 183.942 233.62 183.941 233.156V212.87C183.942 212.406 184.126 211.962 184.454 211.634C184.781 211.306 185.225 211.122 185.688 211.121H198.962C199.425 211.122 199.868 211.306 200.196 211.634C200.523 211.962 200.708 212.406 200.708 212.87V233.156C200.708 233.62 200.523 234.064 200.196 234.392C199.868 234.72 199.425 234.904 198.962 234.905Z" fill="white"/>
<path d="M486.788 158.657H475.611C474.777 158.657 473.978 158.325 473.389 157.734C472.799 157.144 472.468 156.344 472.467 155.51V140.82C472.468 139.985 472.799 139.185 473.389 138.595C473.978 138.005 474.777 137.673 475.611 137.672H486.788C487.622 137.673 488.421 138.005 489.01 138.595C489.6 139.185 489.931 139.985 489.932 140.82V155.51C489.931 156.344 489.6 157.144 489.01 157.734C488.421 158.325 487.622 158.657 486.788 158.657Z" fill="#E6E6E6"/>
<path d="M581.101 278.276H523.815C522.241 278.274 520.731 277.647 519.618 276.532C518.505 275.417 517.879 273.906 517.877 272.33V161.106C517.879 159.53 518.505 158.018 519.618 156.904C520.731 155.789 522.241 155.162 523.815 155.16H581.101C582.675 155.162 584.185 155.789 585.298 156.904C586.411 158.018 587.038 159.53 587.039 161.106V272.33C587.038 273.906 586.411 275.417 585.298 276.532C584.185 277.647 582.675 278.274 581.101 278.276Z" fill="#E6E6E6"/>
<path d="M546.869 278.276H447.667C446.092 278.274 444.583 277.647 443.47 276.532C442.356 275.417 441.73 273.906 441.729 272.33V161.106C441.73 159.53 442.356 158.018 443.47 156.904C444.583 155.789 446.092 155.162 447.667 155.16H546.869C548.444 155.162 549.953 155.789 551.066 156.904C552.179 158.018 552.806 159.53 552.807 161.106V272.33C552.806 273.906 552.179 275.417 551.066 276.532C549.953 277.647 548.444 278.274 546.869 278.276Z" fill="#F2F2F2"/>
<path d="M476.308 158.657H465.13C464.297 158.657 463.498 158.325 462.908 157.734C462.319 157.144 461.987 156.344 461.986 155.51V140.82C461.987 139.985 462.319 139.185 462.908 138.595C463.498 138.005 464.297 137.673 465.13 137.672H476.308C477.141 137.673 477.94 138.005 478.53 138.595C479.119 139.185 479.451 139.985 479.452 140.82V155.51C479.451 156.344 479.119 157.144 478.53 157.734C477.94 158.325 477.141 158.657 476.308 158.657Z" fill="#F2F2F2"/>
<path d="M490.979 210.072H477.706C477.242 210.071 476.799 209.887 476.471 209.559C476.144 209.231 475.96 208.787 475.959 208.323V188.037C475.96 187.573 476.144 187.129 476.471 186.801C476.799 186.473 477.242 186.289 477.706 186.288H490.979C491.442 186.289 491.886 186.473 492.213 186.801C492.541 187.129 492.725 187.573 492.726 188.037V208.323C492.725 208.787 492.541 209.231 492.213 209.559C491.886 209.887 491.442 210.071 490.979 210.072Z" fill="white"/>
<path d="M516.829 210.072H503.555C503.092 210.071 502.648 209.887 502.321 209.559C501.993 209.231 501.809 208.787 501.809 208.323V188.037C501.809 187.573 501.993 187.129 502.321 186.801C502.648 186.473 503.092 186.289 503.555 186.288H516.829C517.292 186.289 517.736 186.473 518.063 186.801C518.391 187.129 518.575 187.573 518.575 188.037V208.323C518.575 208.787 518.391 209.231 518.063 209.559C517.736 209.887 517.292 210.071 516.829 210.072Z" fill="white"/>
<path d="M490.979 247.147H477.706C477.242 247.146 476.799 246.962 476.471 246.634C476.144 246.306 475.96 245.862 475.959 245.398V225.112C475.96 224.648 476.144 224.204 476.471 223.876C476.799 223.548 477.242 223.364 477.706 223.363H490.979C491.442 223.364 491.886 223.548 492.213 223.876C492.541 224.204 492.725 224.648 492.726 225.112V245.398C492.725 245.862 492.541 246.306 492.213 246.634C491.886 246.962 491.442 247.146 490.979 247.147Z" fill="white"/>
<path d="M516.829 247.147H503.555C503.092 247.146 502.648 246.962 502.321 246.634C501.993 246.306 501.809 245.862 501.809 245.398V225.112C501.809 224.648 501.993 224.204 502.321 223.876C502.648 223.548 503.092 223.364 503.555 223.363H516.829C517.292 223.364 517.736 223.548 518.063 223.876C518.391 224.204 518.575 224.648 518.575 225.112V245.398C518.575 245.862 518.391 246.306 518.063 246.634C517.736 246.962 517.292 247.146 516.829 247.147Z" fill="white"/>
<path d="M731.301 278.625H0.69861C0.513327 278.625 0.335632 278.551 0.204618 278.42C0.0736028 278.289 0 278.111 0 277.925C0 277.74 0.0736028 277.562 0.204618 277.43C0.335632 277.299 0.513327 277.226 0.69861 277.226H731.301C731.487 277.226 731.664 277.299 731.795 277.43C731.926 277.562 732 277.74 732 277.925C732 278.111 731.926 278.289 731.795 278.42C731.664 278.551 731.487 278.625 731.301 278.625Z" fill="#E6E6E6"/>
<path d="M253.453 303.108H188.482C188.297 303.108 188.119 303.034 187.988 302.903C187.857 302.772 187.783 302.594 187.783 302.408C187.783 302.223 187.857 302.045 187.988 301.914C188.119 301.783 188.297 301.709 188.482 301.709H253.453C253.638 301.709 253.815 301.783 253.946 301.914C254.078 302.045 254.151 302.223 254.151 302.408C254.151 302.594 254.078 302.772 253.946 302.903C253.815 303.034 253.638 303.108 253.453 303.108Z" fill="#E6E6E6"/>
<path d="M414.831 303.108H349.861C349.675 303.108 349.498 303.034 349.367 302.903C349.236 302.772 349.162 302.594 349.162 302.408C349.162 302.223 349.236 302.045 349.367 301.914C349.498 301.783 349.675 301.709 349.861 301.709H414.831C415.017 301.709 415.194 301.783 415.325 301.914C415.456 302.045 415.53 302.223 415.53 302.408C415.53 302.594 415.456 302.772 415.325 302.903C415.194 303.034 415.017 303.108 414.831 303.108Z" fill="#E6E6E6"/>
<path d="M576.21 303.108H511.24C511.054 303.108 510.877 303.034 510.746 302.903C510.615 302.772 510.541 302.594 510.541 302.408C510.541 302.223 510.615 302.045 510.746 301.914C510.877 301.783 511.054 301.709 511.24 301.709H576.21C576.396 301.709 576.573 301.783 576.704 301.914C576.835 302.045 576.909 302.223 576.909 302.408C576.909 302.594 576.835 302.772 576.704 302.903C576.573 303.034 576.396 303.108 576.21 303.108Z" fill="#E6E6E6"/>
<path d="M290.479 227.839C290.479 215.484 280.47 186.168 268.123 186.168C255.776 186.168 245.768 215.484 245.768 227.839C245.768 233.775 248.123 239.469 252.315 243.667C256.508 247.865 262.194 250.223 268.123 250.223C274.052 250.223 279.738 247.865 283.931 243.667C288.123 239.469 290.479 233.775 290.479 227.839H290.479Z" fill="#E6E6E6"/>
<path d="M284.891 227.839C284.891 215.484 274.882 186.168 262.535 186.168C250.189 186.168 240.18 215.484 240.18 227.839C240.18 233.775 242.535 239.469 246.727 243.667C250.92 247.865 256.606 250.223 262.535 250.223C268.464 250.223 274.15 247.865 278.343 243.667C282.535 239.469 284.891 233.775 284.891 227.839H284.891Z" fill="#F2F2F2"/>
<path d="M263.234 277.889C263.049 277.889 262.871 277.816 262.74 277.685C262.609 277.553 262.535 277.375 262.535 277.19V214.834C262.535 214.649 262.609 214.471 262.74 214.34C262.871 214.208 263.049 214.135 263.234 214.135C263.419 214.135 263.597 214.208 263.728 214.34C263.859 214.471 263.932 214.649 263.932 214.834V277.19C263.932 277.375 263.859 277.553 263.728 277.685C263.597 277.816 263.419 277.889 263.234 277.889Z" fill="#CCCCCC"/>
<path d="M263.234 225.057C263.095 225.057 262.96 225.016 262.846 224.939C262.731 224.862 262.641 224.753 262.588 224.625C262.535 224.497 262.522 224.357 262.549 224.221C262.576 224.086 262.642 223.961 262.74 223.863L271.876 214.715C272.007 214.583 272.185 214.51 272.37 214.51C272.555 214.51 272.733 214.583 272.864 214.715C272.995 214.846 273.068 215.024 273.068 215.209C273.068 215.395 272.995 215.573 272.864 215.704L263.728 224.852C263.663 224.917 263.586 224.969 263.501 225.004C263.416 225.039 263.325 225.057 263.234 225.057Z" fill="#CCCCCC"/>
<path d="M647.469 227.839C647.469 215.484 637.46 186.168 625.113 186.168C612.767 186.168 602.758 215.484 602.758 227.839C602.758 233.775 605.113 239.469 609.306 243.667C613.498 247.865 619.184 250.223 625.113 250.223C631.042 250.223 636.729 247.865 640.921 243.667C645.114 239.469 647.469 233.775 647.469 227.839H647.469Z" fill="#E6E6E6"/>
<path d="M641.879 227.839C641.879 215.484 631.87 186.168 619.523 186.168C607.177 186.168 597.168 215.484 597.168 227.839C597.168 233.775 599.523 239.469 603.716 243.667C607.908 247.865 613.594 250.223 619.524 250.223C625.453 250.223 631.139 247.865 635.331 243.667C639.524 239.469 641.879 233.775 641.879 227.839H641.879Z" fill="#F2F2F2"/>
<path d="M620.222 277.889C620.037 277.889 619.859 277.816 619.728 277.685C619.597 277.553 619.523 277.375 619.523 277.19V214.834C619.523 214.649 619.597 214.471 619.728 214.34C619.859 214.208 620.037 214.135 620.222 214.135C620.407 214.135 620.585 214.208 620.716 214.34C620.847 214.471 620.921 214.649 620.921 214.834V277.19C620.921 277.375 620.847 277.553 620.716 277.685C620.585 277.816 620.407 277.889 620.222 277.889Z" fill="#CCCCCC"/>
<path d="M620.222 225.057C620.084 225.057 619.949 225.016 619.834 224.939C619.719 224.862 619.629 224.753 619.577 224.625C619.524 224.497 619.51 224.357 619.537 224.221C619.564 224.086 619.63 223.961 619.728 223.863L628.864 214.715C628.995 214.583 629.173 214.51 629.358 214.51C629.543 214.51 629.721 214.583 629.852 214.715C629.983 214.846 630.057 215.024 630.057 215.209C630.057 215.395 629.983 215.573 629.852 215.704L620.716 224.852C620.651 224.917 620.574 224.969 620.489 225.004C620.405 225.039 620.314 225.057 620.222 225.057Z" fill="#CCCCCC"/>
<path d="M388.983 235.605H373.614C373.151 235.604 372.707 235.42 372.379 235.092C372.052 234.764 371.868 234.32 371.867 233.856V218.467C371.868 218.003 372.052 217.558 372.379 217.23C372.707 216.903 373.151 216.718 373.614 216.718H388.983C389.446 216.718 389.89 216.903 390.218 217.23C390.545 217.558 390.729 218.003 390.73 218.467V233.856C390.729 234.32 390.545 234.764 390.218 235.092C389.89 235.42 389.446 235.604 388.983 235.605Z" fill="#3F3D56"/>
<path d="M538.182 243.099C538.35 243.143 538.507 243.223 538.64 243.335C538.774 243.446 538.881 243.585 538.955 243.742C539.029 243.899 539.068 244.071 539.068 244.245C539.069 244.418 539.032 244.59 538.959 244.748L541.996 247.681L539.856 248.162L537.3 245.303C537.043 245.162 536.847 244.933 536.748 244.657C536.649 244.382 536.655 244.08 536.763 243.808C536.872 243.537 537.077 243.314 537.338 243.184C537.6 243.053 537.9 243.023 538.182 243.099H538.182Z" fill="#FFB8B8"/>
<path d="M542.452 250.815L538.705 247.295C538.653 247.246 538.612 247.188 538.583 247.123C538.554 247.058 538.539 246.988 538.537 246.917C538.536 246.846 538.549 246.775 538.575 246.709C538.601 246.643 538.641 246.583 538.69 246.533L539.456 245.757C539.547 245.665 539.668 245.609 539.797 245.6C539.926 245.591 540.054 245.63 540.156 245.708L543.297 248.111L545.256 243.353C545.333 243.166 545.448 242.996 545.594 242.854C545.739 242.713 545.912 242.603 546.102 242.531C546.291 242.459 546.494 242.427 546.696 242.436C546.899 242.446 547.097 242.497 547.279 242.586C547.566 242.725 547.801 242.954 547.947 243.237C548.093 243.521 548.144 243.845 548.091 244.16C547.735 246.324 545.581 249.185 544.329 250.697C544.158 250.903 543.927 251.051 543.669 251.121C543.411 251.19 543.137 251.178 542.886 251.085C542.725 251.025 542.577 250.933 542.452 250.815Z" fill="#0C572C"/>
<path d="M540.349 247.4L537.59 243.393C537.555 243.342 537.541 243.278 537.553 243.217C537.564 243.155 537.599 243.1 537.651 243.065L537.762 242.988C537.787 242.97 537.816 242.958 537.846 242.952C537.877 242.945 537.908 242.945 537.938 242.95C537.969 242.956 537.998 242.967 538.024 242.984C538.05 243.001 538.073 243.023 538.09 243.049L540.849 247.055C540.867 247.081 540.879 247.11 540.885 247.14C540.892 247.17 540.892 247.202 540.887 247.232C540.881 247.263 540.87 247.292 540.853 247.318C540.836 247.344 540.814 247.367 540.789 247.384L540.678 247.461C540.626 247.496 540.563 247.51 540.501 247.499C540.439 247.487 540.385 247.452 540.349 247.4Z" fill="white"/>
<path d="M539.58 247.43L537.29 244.105C537.193 243.963 537.155 243.788 537.187 243.618C537.218 243.448 537.315 243.298 537.456 243.2L537.69 243.039L540.716 247.435L540.483 247.596C540.341 247.694 540.167 247.731 539.997 247.7C539.828 247.669 539.678 247.572 539.58 247.43Z" fill="#3F3D56"/>
<path d="M539.856 276.132L538.418 275.966L538.609 270.359L540.496 270.578L539.856 276.132Z" fill="#FFB8B8"/>
<path d="M540.061 277.57L535.424 277.034L535.431 276.975C535.458 276.738 535.532 276.508 535.648 276.299C535.764 276.091 535.92 275.907 536.107 275.758C536.293 275.61 536.508 275.5 536.737 275.434C536.967 275.368 537.207 275.349 537.444 275.376H537.444L540.276 275.704L540.061 277.57Z" fill="#2F2E41"/>
<path d="M556.58 275.067L555.197 275.495L552.891 270.356L554.932 269.725L556.58 275.067Z" fill="#FFB8B8"/>
<path d="M557.348 276.301L552.887 277.68L552.87 277.624C552.8 277.395 552.775 277.155 552.797 276.918C552.819 276.68 552.888 276.448 552.999 276.237C553.111 276.026 553.263 275.839 553.446 275.686C553.63 275.534 553.842 275.419 554.07 275.348H554.07L556.794 274.506L557.348 276.301Z" fill="#2F2E41"/>
<path d="M538.251 274.84C538.105 274.794 537.982 274.694 537.908 274.56C537.835 274.425 537.816 274.268 537.857 274.12L538.724 264.128C538.764 263.672 538.907 263.231 539.143 262.839L544.39 254.118L549.086 254.963L549.117 254.976C551.399 256.375 553.425 263.162 555.385 269.726C555.69 270.746 556.005 271.802 556.313 272.81C556.37 272.954 556.368 273.115 556.309 273.258C556.249 273.401 556.136 273.515 555.994 273.576L554.572 274.175C554.437 274.233 554.286 274.238 554.148 274.189C554.01 274.141 553.895 274.043 553.825 273.914L546.515 260.514C546.506 260.497 546.493 260.483 546.477 260.472C546.461 260.461 546.443 260.455 546.424 260.453C546.405 260.45 546.386 260.453 546.368 260.459C546.351 260.466 546.335 260.478 546.323 260.492L542.08 265.299L540.521 274.459L540.515 274.479C540.459 274.61 540.357 274.716 540.229 274.778C540.101 274.84 539.954 274.853 539.817 274.816L538.288 274.845L538.278 274.845L538.251 274.84Z" fill="#2F2E41"/>
<path d="M544.137 255.073L544.107 255.064L544.098 255.034C544.076 254.961 541.93 247.688 543.864 243.051L543.866 243.047C543.923 242.937 545.272 240.341 546.84 240.081L546.881 240.074L547.391 241.028C547.551 241.189 550.309 244.057 549.057 248.986C549.17 249.39 550.693 254.939 549.865 255.768C549.563 255.977 549.196 256.069 548.831 256.028C547.235 255.891 545.66 255.571 544.137 255.073Z" fill="#0C572C"/>
<path d="M546.516 239.172C548.538 239.172 550.177 237.531 550.177 235.506C550.177 233.482 548.538 231.841 546.516 231.841C544.494 231.841 542.855 233.482 542.855 235.506C542.855 237.531 544.494 239.172 546.516 239.172Z" fill="#2F2E41"/>
<path d="M545.061 239.154C546.662 239.154 547.961 237.854 547.961 236.25C547.961 234.646 546.662 233.346 545.061 233.346C543.459 233.346 542.16 234.646 542.16 236.25C542.16 237.854 543.459 239.154 545.061 239.154Z" fill="#FFB8B8"/>
<path d="M546.928 239.072C546.663 239.166 546.339 239.249 546.13 239.054C546.044 238.941 545.993 238.806 545.985 238.664C545.976 238.522 546.011 238.381 546.084 238.259C546.234 238.02 546.356 237.764 546.446 237.496C546.474 237.295 546.448 237.09 546.373 236.901C546.297 236.713 546.174 236.547 546.016 236.42C545.701 236.18 545.345 236.001 544.965 235.891L542.935 235.168C542.407 235.044 541.939 234.74 541.609 234.308C541.44 233.949 541.411 233.539 541.528 233.159C541.645 232.78 541.9 232.457 542.242 232.256C542.587 232.082 542.966 231.988 543.352 231.98C543.738 231.972 544.121 232.052 544.473 232.212C544.86 232.393 545.257 232.552 545.662 232.689C546.475 232.903 547.399 232.711 548.114 233.17C548.415 233.399 548.654 233.7 548.81 234.045C548.965 234.39 549.032 234.769 549.003 235.147C548.942 235.907 548.739 236.649 548.406 237.334C548.251 237.756 548.027 238.15 547.744 238.499C547.605 238.669 547.427 238.804 547.225 238.891C547.023 238.978 546.803 239.015 546.584 238.999L546.928 239.072Z" fill="#2F2E41"/>
<path d="M549.586 236.098C550.891 236.098 551.948 235.039 551.948 233.733C551.948 232.427 550.891 231.368 549.586 231.368C548.282 231.368 547.225 232.427 547.225 233.733C547.225 235.039 548.282 236.098 549.586 236.098Z" fill="#2F2E41"/>
<path d="M545.689 237.163C545.689 237.12 545.701 237.078 545.723 237.041C545.745 237.004 545.777 236.974 545.815 236.954C545.852 236.933 545.895 236.924 545.938 236.926C545.981 236.928 546.022 236.942 546.058 236.966C546.093 236.99 546.121 237.023 546.14 237.062C546.158 237.101 546.165 237.144 546.161 237.187C546.156 237.23 546.14 237.27 546.114 237.305C546.089 237.339 546.054 237.365 546.014 237.382V237.902C546.014 237.913 546.012 237.925 546.008 237.936C546.003 237.947 545.997 237.957 545.989 237.965C545.98 237.973 545.971 237.98 545.96 237.984C545.949 237.989 545.937 237.991 545.926 237.991C545.914 237.991 545.902 237.989 545.892 237.984C545.881 237.98 545.871 237.973 545.863 237.965C545.854 237.957 545.848 237.947 545.844 237.936C545.839 237.925 545.837 237.913 545.837 237.902V237.382C545.793 237.364 545.756 237.334 545.73 237.295C545.704 237.256 545.689 237.21 545.689 237.163Z" fill="white"/>
<path d="M538.326 245.581C538.498 245.564 538.673 245.585 538.837 245.642C539 245.7 539.15 245.793 539.274 245.914C539.398 246.036 539.494 246.183 539.555 246.346C539.616 246.509 539.641 246.683 539.627 246.856L543.495 248.545L541.657 249.742L538.266 247.955C537.976 247.913 537.712 247.766 537.524 247.543C537.335 247.319 537.235 247.034 537.243 246.741C537.25 246.449 537.364 246.169 537.564 245.955C537.764 245.741 538.035 245.608 538.326 245.581Z" fill="#FFB8B8"/>
<path d="M545.014 251.323L540.277 249.331C540.211 249.304 540.152 249.263 540.103 249.213C540.053 249.162 540.014 249.102 539.988 249.036C539.962 248.969 539.95 248.899 539.951 248.828C539.953 248.757 539.969 248.687 539.998 248.622L540.445 247.628C540.498 247.51 540.593 247.415 540.71 247.362C540.828 247.308 540.961 247.3 541.085 247.337L544.865 248.494L545.045 243.351C545.052 243.148 545.101 242.948 545.188 242.765C545.275 242.582 545.399 242.418 545.551 242.285C545.704 242.151 545.883 242.05 546.076 241.988C546.269 241.927 546.473 241.905 546.674 241.925C546.992 241.956 547.291 242.088 547.527 242.303C547.763 242.518 547.923 242.803 547.983 243.117C548.403 245.27 547.38 248.703 546.733 250.558C546.644 250.81 546.48 251.03 546.261 251.185C546.043 251.34 545.783 251.424 545.515 251.425C545.343 251.425 545.173 251.39 545.014 251.323Z" fill="#0C572C"/>
<path d="M59.2382 250.106H51.9824V247.901C54.2752 246.303 56.3066 246.442 58.979 248.03L59.2382 250.106Z" fill="#0C572C"/>
<path d="M50.3008 289.28H48.7121L48.4746 283.146H50.3008V289.28Z" fill="#FFB8B8"/>
<path d="M50.7058 290.822L45.584 290.822V290.757C45.584 290.495 45.6355 290.235 45.7357 289.993C45.8359 289.751 45.9828 289.531 46.1679 289.345C46.353 289.16 46.5728 289.013 46.8147 288.913C47.0565 288.812 47.3158 288.761 47.5776 288.761H47.5777L50.7059 288.761L50.7058 290.822Z" fill="#2F2E41"/>
<path d="M59.2487 289.28H60.8367L61.0742 283.146H59.248L59.2487 289.28Z" fill="#FFB8B8"/>
<path d="M58.8438 288.761L61.972 288.761H61.9721C62.2339 288.761 62.4932 288.812 62.735 288.913C62.9769 289.013 63.1967 289.16 63.3818 289.345C63.5669 289.531 63.7138 289.751 63.8139 289.993C63.9141 290.235 63.9657 290.495 63.9657 290.757V290.822L58.8438 290.822L58.8438 288.761Z" fill="#2F2E41"/>
<path d="M59.2896 288.493C59.1571 288.493 59.0286 288.448 58.9252 288.365C58.8218 288.282 58.7496 288.166 58.7203 288.036L54.7832 270.841C54.7746 270.798 54.7508 270.758 54.7161 270.731C54.6814 270.703 54.638 270.688 54.5935 270.689H54.5926C54.5479 270.688 54.5044 270.703 54.4698 270.732C54.4351 270.76 54.4116 270.799 54.4033 270.843L50.7879 287.922C50.7596 288.053 50.6877 288.17 50.584 288.254C50.4803 288.338 50.3509 288.385 50.2174 288.385H48.4952C48.4157 288.385 48.3371 288.369 48.2641 288.337C48.1912 288.306 48.1254 288.26 48.0709 288.202C48.0164 288.144 47.9743 288.075 47.9471 288.001C47.92 287.926 47.9084 287.846 47.9131 287.767L49.196 266.12L49.7122 265.967L49.7218 265.967L59.8615 266.056L62.021 287.679C62.0285 287.756 62.0207 287.834 61.9978 287.908C61.975 287.982 61.9377 288.051 61.888 288.11C61.8384 288.17 61.7774 288.219 61.7087 288.254C61.6399 288.29 61.5648 288.311 61.4876 288.318L59.3363 288.492C59.3207 288.493 59.3051 288.493 59.2896 288.493Z" fill="#2F2E41"/>
<path d="M55.1022 246.152C56.8597 246.152 58.2845 244.726 58.2845 242.966C58.2845 241.206 56.8597 239.779 55.1022 239.779C53.3447 239.779 51.9199 241.206 51.9199 242.966C51.9199 244.726 53.3447 246.152 55.1022 246.152Z" fill="#FFB8B8"/>
<path d="M53.152 268.494C52.5937 268.501 52.0376 268.422 51.5029 268.261C51.0273 268.118 50.5861 267.878 50.2065 267.557C49.8268 267.237 49.5167 266.842 49.2953 266.396C49.2251 266.262 49.2096 266.106 49.2519 265.961C49.6029 264.762 51.2989 258.527 50.2167 253.571C50.064 252.882 50.0513 252.17 50.1794 251.477C50.3075 250.783 50.5738 250.123 50.9624 249.534C51.342 248.951 51.835 248.45 52.4122 248.061C52.9893 247.672 53.6387 247.404 54.3217 247.272V247.272C54.5012 247.237 54.6817 247.208 54.858 247.186C55.613 247.093 56.3791 247.168 57.1017 247.406C57.8242 247.644 58.4853 248.039 59.0375 248.563C59.6062 249.097 60.05 249.75 60.3371 250.476C60.6241 251.202 60.7474 251.982 60.698 252.761L59.8664 266.125C59.8607 266.225 59.829 266.322 59.7745 266.406C59.7201 266.49 59.6447 266.559 59.5557 266.605C58.5979 267.108 55.7206 268.494 53.152 268.494Z" fill="#3F3D56"/>
<path d="M58.6974 240.621C58.3669 239.789 57.7614 239.096 56.982 238.657C56.2026 238.219 55.2965 238.061 54.4149 238.21L55.4183 239.022C54.1716 239.064 52.8594 238.975 51.9693 239.85C52.2527 239.842 52.6241 240.449 52.9074 240.441C52.6422 240.459 52.3869 240.549 52.168 240.7C51.9492 240.851 51.7749 241.058 51.6632 241.3C51.4465 241.789 51.3958 242.336 51.5189 242.856C51.84 243.623 52.2134 244.366 52.6365 245.08C52.5996 243.813 55.0917 240.789 56.3087 241.105C55.6904 241.335 55.1539 241.742 54.7668 242.277C55.5947 241.859 56.5311 241.705 57.449 241.838C57.6586 241.886 57.8748 241.898 58.0884 241.873C58.2194 241.847 58.3415 241.788 58.4431 241.702C58.5447 241.615 58.6224 241.504 58.6689 241.379C58.7153 241.253 58.7288 241.118 58.7082 240.986C58.6877 240.854 58.6336 240.729 58.5512 240.624L58.6974 240.621Z" fill="#2F2E41"/>
<path d="M52.9348 267.691C52.8544 267.691 52.7749 267.674 52.7013 267.642L46.6634 265.003C46.5352 264.948 46.4311 264.848 46.3703 264.722C46.3095 264.597 46.2962 264.453 46.3326 264.318L50.3298 249.199C50.4041 248.918 50.5337 248.654 50.711 248.423C50.8883 248.193 51.1098 248 51.3624 247.856C51.6151 247.712 51.8939 247.62 52.1824 247.586C52.471 247.551 52.7635 247.575 53.043 247.655L54.6412 248.111L53.5161 267.141C53.5103 267.235 53.482 267.326 53.4336 267.407C53.3852 267.487 53.3181 267.555 53.238 267.604C53.1469 267.661 53.042 267.691 52.9348 267.691Z" fill="#0C572C"/>
<path d="M64.1086 264.318L63.843 263.316L63.4582 261.857L63.2729 261.158L62.8881 259.704L60.1115 249.199C60.0374 248.918 59.9079 248.654 59.7307 248.423C59.5534 248.192 59.3319 248 59.0792 247.856C58.8265 247.712 58.5476 247.62 58.259 247.586C57.9703 247.551 57.6777 247.575 57.3983 247.655L55.8008 248.112L56.5924 261.497L56.6741 262.894L56.7259 263.775V263.776L56.8088 265.166L56.9254 267.141C56.935 267.29 57.0003 267.429 57.1082 267.531C57.2162 267.633 57.3587 267.691 57.5072 267.692C57.5875 267.691 57.6668 267.674 57.7404 267.642L63.7782 265.003C63.9065 264.948 64.0107 264.849 64.0714 264.723C64.1321 264.597 64.1453 264.453 64.1086 264.318Z" fill="#0C572C"/>
<path d="M63.2746 261.158L56.6755 262.894L56.5938 261.497L62.8896 259.703L63.2746 261.158Z" fill="#CCCCCC"/>
<path d="M63.842 263.316L56.8077 265.166L56.7246 263.776V263.775L63.4571 261.857L63.842 263.316Z" fill="#CCCCCC"/>
<path d="M53.7666 261.797L53.6848 263.168L47.2129 261.238L47.5922 259.803L53.7666 261.797Z" fill="#CCCCCC"/>
<path d="M53.6324 264.072L47.0285 261.938L46.6484 263.376L53.5521 265.435L53.6324 264.072Z" fill="#CCCCCC"/>
<path d="M47.1425 265.506C47.3393 265.454 47.5226 265.36 47.6792 265.23C47.8359 265.1 47.9622 264.937 48.0492 264.753C48.1362 264.569 48.1818 264.368 48.1828 264.164C48.1838 263.96 48.1402 263.759 48.0551 263.574L51.1597 253.814L48.9582 253.353L46.1118 262.921C45.8108 263.085 45.5803 263.354 45.464 263.676C45.3477 263.999 45.3536 264.353 45.4806 264.672C45.6077 264.99 45.847 265.251 46.1533 265.405C46.4596 265.558 46.8115 265.594 47.1425 265.506V265.506Z" fill="#FFB8B8"/>
<path d="M51.2463 249.017C51.8785 249.081 52.2341 249.793 52.0769 250.679L51.3227 254.932C51.2661 255.25 51.0041 255.503 50.7864 255.448L48.2351 254.81C48.0388 254.761 47.9665 254.481 48.0778 254.202L49.6093 250.355C49.713 249.991 49.9254 249.668 50.2181 249.428C50.5108 249.189 50.8696 249.045 51.2463 249.017Z" fill="#3F3D56"/>
<path d="M55.0915 237.002C56.1685 237.002 57.2032 237.422 57.9765 238.173C58.7497 238.923 59.2009 239.946 59.2343 241.024H60.015C60.0837 241.024 60.1496 241.051 60.1982 241.1C60.2468 241.148 60.2741 241.214 60.2741 241.283V242.321C60.2741 242.39 60.2468 242.456 60.1982 242.505C60.1496 242.553 60.0837 242.581 60.015 242.581H51.2045C51.1357 242.581 51.0698 242.553 51.0212 242.505C50.9726 242.456 50.9453 242.39 50.9453 242.321V241.154C50.9453 240.608 51.0525 240.068 51.2609 239.565C51.4693 239.061 51.7747 238.603 52.1597 238.218C52.5447 237.832 53.0018 237.527 53.5048 237.318C54.0078 237.109 54.547 237.002 55.0915 237.002Z" fill="#0C572C"/>
<path d="M55.5857 262.665H53.7542C53.6954 262.665 53.6387 262.643 53.5952 262.604C53.5517 262.564 53.5245 262.51 53.5189 262.451L53.1523 258.688H56.1876L55.821 262.451C55.8155 262.51 55.7883 262.564 55.7448 262.604C55.7012 262.643 55.6445 262.665 55.5857 262.665Z" fill="#E6E6E6"/>
<path d="M56.1838 259.162H53.1582C53.0956 259.161 53.0355 259.136 52.9912 259.092C52.9469 259.048 52.9219 258.988 52.9219 258.925V258.357C52.9219 258.294 52.9469 258.234 52.9912 258.19C53.0355 258.145 53.0956 258.12 53.1582 258.12H56.1838C56.2465 258.12 56.3065 258.145 56.3508 258.19C56.3952 258.234 56.4201 258.294 56.4202 258.357V258.925C56.4201 258.988 56.3952 259.048 56.3508 259.092C56.3065 259.136 56.2465 259.161 56.1838 259.162Z" fill="#CCCCCC"/>
<path d="M54.7102 260.646C54.7814 260.655 54.8518 260.668 54.9209 260.688L59.7986 256.499L59.5135 254.962L61.7735 254.229L62.5423 256.9C62.6044 257.116 62.5949 257.346 62.5152 257.556C62.4356 257.766 62.2901 257.944 62.1005 258.064L55.9231 261.979C55.9275 262.255 55.8477 262.526 55.6943 262.756C55.5409 262.986 55.3213 263.164 55.0645 263.266C54.8078 263.368 54.5261 263.389 54.257 263.327C53.9879 263.265 53.7442 263.122 53.5581 262.918C53.372 262.713 53.2525 262.457 53.2154 262.183C53.1784 261.909 53.2255 261.63 53.3506 261.383C53.4756 261.137 53.6727 260.934 53.9156 260.803C54.1585 260.671 54.4356 260.616 54.7102 260.646H54.7102Z" fill="#FFB8B8"/>
<path d="M59.8113 249.368C60.4866 249.179 61.1613 249.694 61.3874 250.57L62.4723 254.778C62.5536 255.093 62.3957 255.428 62.149 255.464L59.2588 255.88C59.0364 255.912 58.8404 255.684 58.8323 255.383L58.72 251.243C58.6771 250.854 58.76 250.462 58.9565 250.125C59.153 249.787 59.4527 249.522 59.8113 249.368Z" fill="#3F3D56"/>
<path d="M92.6638 260.75H90.4634C90.3927 260.75 90.3246 260.724 90.2723 260.676C90.22 260.629 90.1873 260.564 90.1807 260.493L89.7402 255.973H93.3869L92.9465 260.493C92.9398 260.563 92.9072 260.629 92.8549 260.676C92.8026 260.724 92.7344 260.75 92.6638 260.75Z" fill="#E6E6E6"/>
<path d="M93.38 256.542H89.7449C89.6696 256.542 89.5975 256.512 89.5442 256.459C89.491 256.405 89.461 256.333 89.4609 256.258V255.575C89.461 255.5 89.491 255.428 89.5442 255.374C89.5975 255.321 89.6696 255.291 89.7449 255.291H93.38C93.4552 255.291 93.5274 255.321 93.5807 255.374C93.6339 255.428 93.6638 255.5 93.6639 255.575V256.258C93.6638 256.333 93.6339 256.405 93.5807 256.459C93.5274 256.512 93.4552 256.542 93.38 256.542Z" fill="#CCCCCC"/>
<path d="M114.282 287.297C112.683 285.168 111.419 282.806 110.534 280.294C110.483 280.143 110.486 279.98 110.544 279.832C110.602 279.684 110.711 279.562 110.85 279.486L116.321 276.551C116.41 276.503 116.508 276.476 116.608 276.472C116.709 276.468 116.809 276.487 116.901 276.528C116.995 276.568 117.078 276.63 117.145 276.708C117.211 276.786 117.259 276.878 117.284 276.977C117.921 279.398 119.118 281.635 120.778 283.507C120.847 283.583 120.897 283.674 120.925 283.772C120.953 283.871 120.958 283.974 120.94 284.075C120.923 284.174 120.883 284.268 120.824 284.35C120.765 284.431 120.688 284.498 120.599 284.545L115.128 287.481C114.988 287.555 114.826 287.578 114.671 287.544C114.516 287.511 114.378 287.423 114.282 287.297Z" fill="#CCCCCC"/>
<path d="M114.655 287.017C114.685 287.053 114.726 287.079 114.772 287.088C114.818 287.098 114.866 287.091 114.908 287.069L120.379 284.133C120.405 284.12 120.428 284.1 120.446 284.075C120.463 284.051 120.475 284.023 120.48 283.994C120.486 283.962 120.484 283.93 120.475 283.9C120.467 283.869 120.451 283.841 120.43 283.818C118.72 281.891 117.488 279.588 116.833 277.096C116.825 277.065 116.81 277.036 116.79 277.012C116.769 276.988 116.744 276.969 116.715 276.956C116.687 276.944 116.657 276.938 116.627 276.94C116.597 276.941 116.568 276.949 116.542 276.964L111.071 279.899C111.029 279.921 110.997 279.957 110.98 280.001C110.962 280.045 110.96 280.093 110.974 280.138C111.844 282.606 113.085 284.925 114.655 287.017Z" fill="white"/>
<path d="M116.681 280.74L113.702 282.057C113.588 282.107 113.46 282.11 113.345 282.065C113.229 282.02 113.136 281.932 113.086 281.818L113.012 281.651C112.962 281.538 112.96 281.409 113.004 281.293C113.049 281.178 113.138 281.085 113.251 281.034L116.231 279.717C116.344 279.667 116.472 279.665 116.588 279.709C116.703 279.754 116.796 279.843 116.846 279.956L116.92 280.124C116.97 280.237 116.973 280.366 116.928 280.481C116.883 280.597 116.795 280.69 116.681 280.74Z" fill="#CCCCCC"/>
<path d="M117.771 282.767L114.792 284.084C114.678 284.133 114.55 284.136 114.434 284.092C114.319 284.047 114.226 283.958 114.176 283.845L114.102 283.677C114.052 283.564 114.049 283.435 114.094 283.32C114.139 283.204 114.228 283.111 114.341 283.061L117.32 281.744C117.434 281.694 117.562 281.691 117.678 281.736C117.793 281.781 117.886 281.869 117.936 281.983L118.01 282.15C118.06 282.263 118.063 282.392 118.018 282.508C117.973 282.623 117.885 282.716 117.771 282.767Z" fill="#CCCCCC"/>
<path d="M110.781 281.078C110.575 280.946 110.401 280.77 110.271 280.563C110.14 280.356 110.057 280.122 110.026 279.88C109.996 279.637 110.019 279.39 110.094 279.157C110.168 278.924 110.293 278.71 110.46 278.531L109.203 260.675L112.823 261.026L112.922 278.513C113.205 278.813 113.368 279.206 113.38 279.618C113.392 280.03 113.254 280.432 112.99 280.748C112.726 281.064 112.355 281.272 111.948 281.333C111.541 281.394 111.125 281.303 110.781 281.078Z" fill="#A0616A"/>
<path d="M110.024 266.675C109.94 266.614 109.87 266.534 109.819 266.442C109.769 266.351 109.74 266.249 109.735 266.145L109.47 261.332C109.443 260.855 109.594 260.385 109.894 260.013C110.193 259.642 110.619 259.394 111.09 259.318C111.56 259.242 112.043 259.343 112.443 259.602C112.844 259.861 113.135 260.259 113.26 260.72L114.425 265.023C114.473 265.202 114.448 265.393 114.356 265.555C114.264 265.716 114.111 265.834 113.932 265.883L110.618 266.783C110.517 266.81 110.411 266.815 110.309 266.796C110.206 266.777 110.109 266.736 110.024 266.675Z" fill="#3F3D56"/>
<path d="M103.853 303.031L101.945 303.03L101.037 295.66H103.854L103.853 303.031Z" fill="#A0616A"/>
<path d="M100.157 302.484H104.264V304.805H98.2656V304.378C98.2656 304.129 98.3145 303.883 98.4096 303.653C98.5046 303.424 98.6439 303.215 98.8195 303.039C98.9952 302.863 99.2036 302.724 99.4331 302.629C99.6625 302.533 99.9085 302.484 100.157 302.484Z" fill="#2F2E41"/>
<path d="M111.015 303.031L109.107 303.03L108.199 295.66H111.016L111.015 303.031Z" fill="#A0616A"/>
<path d="M107.317 302.484H111.424V304.805H105.426V304.378C105.426 304.129 105.475 303.883 105.57 303.653C105.665 303.424 105.804 303.215 105.98 303.039C106.155 302.863 106.364 302.724 106.593 302.629C106.823 302.533 107.069 302.484 107.317 302.484Z" fill="#2F2E41"/>
<path d="M103.763 299.317L101.662 299.216C101.483 299.208 101.314 299.131 101.19 299.002C101.066 298.872 100.996 298.7 100.995 298.521C100.441 289.96 99.6741 280.782 100.848 277.236C100.848 277.135 100.869 277.035 100.91 276.943C100.952 276.85 101.013 276.768 101.089 276.702C101.165 276.636 101.254 276.586 101.351 276.558C101.448 276.529 101.55 276.522 101.65 276.537L110.055 277.758C110.221 277.782 110.373 277.864 110.483 277.991C110.593 278.117 110.654 278.279 110.654 278.447C111.727 282.646 111.776 290.259 111.735 298.17C111.736 298.262 111.718 298.354 111.684 298.44C111.649 298.526 111.597 298.604 111.532 298.669C111.467 298.735 111.39 298.787 111.304 298.823C111.219 298.858 111.127 298.877 111.035 298.877H108.77C108.603 298.877 108.441 298.818 108.314 298.709C108.187 298.6 108.103 298.45 108.078 298.284L106.681 289.389C106.66 289.259 106.593 289.141 106.493 289.056C106.392 288.971 106.264 288.926 106.132 288.928C106.001 288.931 105.874 288.981 105.777 289.069C105.679 289.158 105.617 289.278 105.601 289.409L104.492 298.699C104.471 298.87 104.389 299.026 104.261 299.14C104.133 299.254 103.968 299.317 103.796 299.318C103.785 299.318 103.774 299.317 103.763 299.317Z" fill="#2F2E41"/>
<path d="M105.244 278.449C104.017 277.727 102.657 277.261 101.246 277.078C101.153 277.069 101.063 277.041 100.982 276.997C100.9 276.952 100.828 276.891 100.771 276.817C100.712 276.743 100.669 276.658 100.644 276.567C100.619 276.476 100.613 276.381 100.626 276.287L102.64 261.316C102.756 260.44 103.093 259.608 103.621 258.9C104.149 258.192 104.848 257.631 105.654 257.27C106.434 256.911 107.292 256.758 108.147 256.825C109.003 256.892 109.827 257.177 110.541 257.653C110.61 257.699 110.678 257.746 110.744 257.794C111.567 258.398 112.193 259.231 112.543 260.19C112.893 261.149 112.951 262.191 112.711 263.183C111.476 268.242 111.052 276.535 110.98 278.146C110.974 278.284 110.928 278.416 110.847 278.527C110.766 278.638 110.654 278.723 110.525 278.771C109.766 279.047 108.964 279.19 108.155 279.193C107.137 279.199 106.134 278.943 105.244 278.449Z" fill="#3F3D56"/>
<path d="M106.927 255.237C109.038 255.237 110.75 253.523 110.75 251.408C110.75 249.294 109.038 247.58 106.927 247.58C104.815 247.58 103.104 249.294 103.104 251.408C103.104 253.523 104.815 255.237 106.927 255.237Z" fill="#A0616A"/>
<path d="M109.633 254.437C109.473 254.61 109.267 254.733 109.04 254.792C108.812 254.852 108.573 254.845 108.349 254.773C108.125 254.701 107.927 254.566 107.777 254.385C107.627 254.204 107.531 253.984 107.502 253.75C107.495 253.669 107.495 253.588 107.504 253.508C107.643 253.065 107.727 252.607 107.754 252.143C107.739 252.022 107.694 251.907 107.623 251.808C107.055 251.046 105.72 252.149 105.184 251.459C104.855 251.036 105.242 250.37 104.989 249.897C104.656 249.273 103.669 249.581 103.051 249.239C102.362 248.859 102.403 247.801 102.856 247.158C103.151 246.778 103.526 246.468 103.955 246.249C104.383 246.031 104.855 245.91 105.335 245.894C106.297 245.872 107.253 246.058 108.136 246.442C109.179 246.781 110.099 247.42 110.782 248.279C111.136 248.842 111.36 249.477 111.438 250.138C111.517 250.798 111.447 251.468 111.235 252.098C110.861 252.976 110.317 253.771 109.633 254.437Z" fill="#2F2E41"/>
<path d="M112.661 258.159C112.594 257.844 112.02 257.414 111.198 257.063C109.877 256.527 108.448 256.312 107.028 256.433C105.608 256.555 104.236 257.011 103.026 257.765C102.941 257.769 102.861 257.801 102.796 257.856C102.732 257.911 102.687 257.986 102.669 258.069L99.9045 270.312L99.5449 271.907L99.3067 272.962L98.9471 274.552L98.7557 275.401C98.7434 275.455 98.7429 275.512 98.7542 275.566C98.7654 275.621 98.7881 275.672 98.8209 275.717C98.8536 275.762 98.8955 275.8 98.9439 275.827C98.9922 275.855 99.0459 275.872 99.1013 275.877L111.039 276.908C111.05 276.908 111.063 276.91 111.074 276.91C111.172 276.909 111.267 276.871 111.338 276.804C111.41 276.736 111.453 276.644 111.46 276.545L111.573 274.814L111.695 272.962L111.748 272.159L111.867 270.312L112.663 258.179V258.168L112.661 258.159Z" fill="#0C572C"/>
<path d="M93.0721 258.929C93.0912 259.013 93.1037 259.099 93.1094 259.185L99.7964 263.048L101.422 262.111L103.155 264.382L99.6774 266.864L92.0485 260.837C91.7374 260.953 91.3985 260.97 91.0771 260.888C90.7556 260.806 90.4668 260.628 90.249 260.377C90.0312 260.126 89.8948 259.815 89.8578 259.485C89.8209 259.155 89.8852 258.821 90.0422 258.529C90.1992 258.236 90.4414 257.998 90.7367 257.847C91.032 257.695 91.3664 257.638 91.6953 257.681C92.0242 257.725 92.3321 257.867 92.5781 258.09C92.824 258.313 92.9963 258.606 93.0721 258.929V258.929Z" fill="#A0616A"/>
<path d="M100.035 262.72C100.024 262.616 100.036 262.511 100.071 262.412C100.106 262.314 100.163 262.224 100.237 262.151L103.64 258.742C103.977 258.404 104.427 258.203 104.904 258.178C105.38 258.153 105.848 258.306 106.219 258.606C106.59 258.907 106.836 259.334 106.911 259.806C106.986 260.277 106.883 260.76 106.624 261.16L104.2 264.9C104.099 265.056 103.94 265.165 103.758 265.204C103.577 265.243 103.387 265.208 103.231 265.107L100.351 263.235C100.263 263.178 100.189 263.102 100.134 263.013C100.08 262.924 100.046 262.824 100.035 262.72Z" fill="#3F3D56"/>
<path d="M111.868 270.312L111.748 272.159L99.5449 271.906L99.9047 270.312H111.868Z" fill="#CCCCCC"/>
<path d="M111.695 272.962L111.573 274.814L98.9473 274.552L99.307 272.962H111.695Z" fill="#CCCCCC"/>
<path d="M107.002 243.97C105.708 243.97 104.465 244.474 103.536 245.376C102.607 246.278 102.065 247.507 102.025 248.802H101.087C101.004 248.802 100.925 248.835 100.867 248.893C100.808 248.951 100.775 249.031 100.775 249.113V250.36C100.775 250.443 100.808 250.522 100.867 250.581C100.925 250.639 101.004 250.672 101.087 250.672H111.672C111.755 250.672 111.834 250.639 111.892 250.581C111.951 250.522 111.983 250.443 111.983 250.36V248.958C111.983 248.303 111.855 247.654 111.604 247.049C111.354 246.444 110.987 245.894 110.524 245.431C110.062 244.967 109.513 244.6 108.908 244.349C108.304 244.099 107.656 243.97 107.002 243.97Z" fill="#0C572C"/>
<path d="M135.039 294.714H133.971C133.964 294.585 132.531 291.217 132.531 291.217L131.665 289.118L131.092 287.719L130.225 285.621L129.233 283.207C129.208 283.098 129.147 283.001 129.059 282.932C128.972 282.862 128.863 282.824 128.751 282.824C128.64 282.824 128.531 282.862 128.444 282.932C128.356 283.001 128.295 283.098 128.269 283.207L127.277 285.621L126.411 287.719L125.838 289.118L124.972 291.217C124.972 291.217 123.538 294.585 123.532 294.714H122.464C122.186 294.714 121.919 294.825 121.723 295.022C121.526 295.218 121.416 295.485 121.416 295.764C121.416 296.042 121.526 296.309 121.723 296.506C121.919 296.702 122.186 296.813 122.464 296.813H135.039C135.317 296.813 135.583 296.702 135.78 296.506C135.976 296.309 136.087 296.042 136.087 295.764C136.087 295.485 135.976 295.218 135.78 295.022C135.583 294.825 135.317 294.714 135.039 294.714Z" fill="#FF6584"/>
<path d="M134.338 312.901H133.925C133.963 312.812 132.124 308.103 132.124 308.103L131.02 305.409L130.279 303.605L129.176 300.911L127.974 297.994C127.94 297.857 127.861 297.734 127.75 297.647C127.639 297.559 127.501 297.512 127.359 297.512C127.218 297.512 127.08 297.559 126.969 297.647C126.857 297.734 126.778 297.857 126.744 297.994L125.543 300.911L124.439 303.605L123.691 305.409L122.588 308.103C122.588 308.103 120.756 312.812 120.794 312.901H120.366C120.088 312.901 119.822 313.012 119.625 313.209C119.429 313.405 119.318 313.672 119.318 313.951C119.318 314.229 119.429 314.496 119.625 314.692C119.822 314.889 120.088 315 120.366 315H134.338C134.616 315 134.883 314.889 135.079 314.692C135.276 314.496 135.386 314.229 135.386 313.951C135.386 313.672 135.276 313.405 135.079 313.209C134.883 313.012 134.616 312.901 134.338 312.901Z" fill="#FF6584"/>
<path d="M131.091 287.719H126.41L127.276 285.62H130.225L131.091 287.719Z" fill="#F2F2F2"/>
<path d="M132.53 291.216H124.971L125.837 289.117H131.663L132.53 291.216Z" fill="#F2F2F2"/>
<path d="M130.28 303.604H124.439L125.543 300.911H129.176L130.28 303.604Z" fill="#F2F2F2"/>
<path d="M132.124 308.102H122.588L123.692 305.409H131.02L132.124 308.102Z" fill="#F2F2F2"/>
<path d="M288.512 254.664C288.62 254.557 288.703 254.428 288.755 254.286C288.808 254.143 288.829 253.991 288.816 253.839C288.804 253.688 288.758 253.541 288.683 253.409C288.607 253.277 288.504 253.164 288.38 253.076L287.856 249.616L285.703 250.295L286.883 253.381C286.749 253.6 286.701 253.859 286.746 254.111C286.791 254.363 286.927 254.589 287.128 254.747C287.329 254.905 287.581 254.984 287.836 254.969C288.091 254.954 288.331 254.845 288.512 254.664Z" fill="#FFB8B8"/>
<path d="M286.294 253.036L284.966 246.826C284.837 246.231 284.862 245.613 285.04 245.03C285.217 244.448 285.541 243.921 285.98 243.5C287.68 241.86 289.865 239.792 290.62 239.258C291.328 238.752 292.185 238.499 293.054 238.538L293.072 238.54L294.215 239.621L291.726 243.723L287.948 246.093L288.369 252.18L286.294 253.036Z" fill="#0C572C"/>
<path d="M290.946 244.597H285.373C285.131 244.597 284.936 244.793 284.936 245.034C284.936 245.276 285.131 245.472 285.373 245.472H290.946C291.187 245.472 291.383 245.276 291.383 245.034C291.383 244.793 291.187 244.597 290.946 244.597Z" fill="#CCCCCC"/>
<path d="M290.946 254.116H285.373C285.131 254.116 284.936 254.312 284.936 254.554C284.936 254.796 285.131 254.992 285.373 254.992H290.946C291.187 254.992 291.383 254.796 291.383 254.554C291.383 254.312 291.187 254.116 290.946 254.116Z" fill="#CCCCCC"/>
<path d="M288.214 277.97C288.159 277.97 288.107 277.95 288.066 277.913C288.026 277.876 288.001 277.825 287.996 277.771L285.21 245.054C285.207 245.025 285.21 244.996 285.219 244.968C285.227 244.941 285.241 244.915 285.26 244.893C285.278 244.871 285.301 244.853 285.326 244.84C285.352 244.826 285.38 244.818 285.408 244.816C285.437 244.813 285.466 244.816 285.493 244.825C285.521 244.833 285.546 244.847 285.568 244.866C285.59 244.884 285.608 244.907 285.621 244.933C285.635 244.958 285.643 244.986 285.645 245.015L288.211 275.243L290.703 245.015C290.705 244.987 290.713 244.959 290.727 244.933C290.74 244.907 290.758 244.885 290.78 244.866C290.802 244.848 290.827 244.833 290.855 244.825C290.882 244.816 290.911 244.813 290.94 244.815C290.968 244.818 290.996 244.826 291.022 244.839C291.047 244.852 291.07 244.871 291.088 244.893C291.107 244.915 291.121 244.94 291.129 244.968C291.138 244.995 291.141 245.024 291.139 245.053L288.432 277.77C288.427 277.825 288.402 277.875 288.362 277.912C288.321 277.949 288.269 277.97 288.214 277.97L288.214 277.97Z" fill="#CCCCCC"/>
<path d="M294.467 237.229C296.051 237.229 297.334 235.943 297.334 234.357C297.334 232.772 296.051 231.486 294.467 231.486C292.883 231.486 291.6 232.772 291.6 234.357C291.6 235.943 292.883 237.229 294.467 237.229Z" fill="#FFB8B8"/>
<path d="M285.922 276.658L284.559 276.223L285.586 270.749L287.599 271.391L285.922 276.658Z" fill="#FFB8B8"/>
<path d="M285.847 277.869L281.457 276.468L281.493 276.353C281.633 275.917 281.94 275.553 282.347 275.343C282.754 275.132 283.227 275.092 283.664 275.231L286.408 276.106L285.847 277.869Z" fill="#2F2E41"/>
<path d="M295.845 276.629H294.414L293.732 271.102H295.845V276.629Z" fill="#FFB8B8"/>
<path d="M291.707 277.905H296.096V276.274H293.325C292.896 276.275 292.485 276.446 292.182 276.75C291.878 277.053 291.708 277.465 291.707 277.895V277.905Z" fill="#2F2E41"/>
<path d="M295.801 274.836L295.318 274.764C294.711 274.728 294.112 274.615 293.533 274.43C293.414 274.378 293.406 273.588 293.477 269.15C293.529 265.892 293.594 261.837 293.468 259.661C293.463 259.575 293.429 259.493 293.371 259.429C293.314 259.365 293.237 259.322 293.152 259.307C293.068 259.292 292.981 259.306 292.905 259.347C292.829 259.387 292.77 259.453 292.735 259.531C291.645 262.052 289.816 267.693 288.606 271.426C288.185 272.725 287.852 273.75 287.642 274.365C287.601 274.481 287.519 274.578 287.411 274.637C287.303 274.695 287.177 274.711 287.057 274.682C286.061 274.433 286.128 274.327 284.709 273.959C284.586 273.928 284.481 273.85 284.414 273.743C284.347 273.635 284.324 273.505 284.351 273.381C284.607 272.17 289.302 252.526 289.662 250.658C289.674 250.594 289.699 250.533 289.735 250.479C289.77 250.425 289.816 250.378 289.87 250.342C289.924 250.305 289.985 250.28 290.049 250.267C290.112 250.255 290.178 250.255 290.242 250.267C291.299 250.481 291.942 250.707 292.987 250.926C294.114 251.162 295.28 251.406 296.416 251.634C296.53 251.657 296.631 251.719 296.703 251.81C297.019 252.149 297.409 252.411 297.843 252.576C298.141 252.719 297.466 252.706 297.725 252.912C298.775 253.744 297.265 270.648 296.353 274.465C296.323 274.585 296.251 274.689 296.149 274.758C296.047 274.826 295.923 274.854 295.801 274.836V274.836Z" fill="#2F2E41"/>
<path d="M295.689 236.87C295.521 236.158 296.368 234.628 296.2 233.917C296.087 233.435 294.956 233.762 294.692 233.344C294.569 233.128 294.396 232.946 294.186 232.813C293.977 232.68 293.738 232.601 293.491 232.581C292.923 232.575 292.364 232.997 291.826 232.815C291.699 232.751 291.586 232.663 291.493 232.556C291.399 232.448 291.329 232.323 291.284 232.188C291.24 232.053 291.223 231.91 291.234 231.768C291.245 231.627 291.284 231.488 291.349 231.362C291.637 230.859 292.084 230.466 292.62 230.246C293.463 229.73 294.474 229.56 295.439 229.771C295.992 229.986 296.499 230.305 296.931 230.71C297.365 231.032 297.747 231.419 298.061 231.859C298.329 232.317 298.473 232.836 298.482 233.366C298.49 233.896 298.362 234.42 298.11 234.886C297.588 235.817 296.755 236.534 295.758 236.912" fill="#2F2E41"/>
<path d="M288.648 253.422C288.957 252.904 289.427 250.478 290.007 246.407C290.401 243.628 290.745 240.804 290.915 239.362C290.929 239.245 290.971 239.134 291.039 239.038C291.107 238.942 291.199 238.865 291.304 238.815C291.415 238.761 291.525 238.71 291.634 238.663C292.947 238.061 294.405 237.848 295.835 238.049C297.265 238.25 298.607 238.857 299.704 239.798L299.717 239.81L299.72 239.827C299.726 239.859 300.318 243.055 299.105 245.214C297.909 247.344 297.895 252.986 297.895 253.043V253.115L297.825 253.095C295.964 252.563 288.774 253.494 288.702 253.504L288.59 253.519L288.648 253.422Z" fill="#0C572C"/>
<path d="M299.469 246.02H293.896C293.655 246.02 293.459 246.216 293.459 246.457C293.459 246.699 293.655 246.895 293.896 246.895H299.469C299.711 246.895 299.906 246.699 299.906 246.457C299.906 246.216 299.711 246.02 299.469 246.02Z" fill="#CCCCCC"/>
<path d="M299.469 255.539H293.896C293.655 255.539 293.459 255.735 293.459 255.977C293.459 256.218 293.655 256.414 293.896 256.414H299.469C299.711 256.414 299.906 256.218 299.906 255.977C299.906 255.735 299.711 255.539 299.469 255.539Z" fill="#CCCCCC"/>
<path d="M296.737 278.079C296.683 278.079 296.63 278.058 296.59 278.021C296.549 277.984 296.524 277.934 296.519 277.879L293.733 246.475C293.728 246.418 293.746 246.36 293.783 246.316C293.821 246.271 293.874 246.243 293.932 246.238C293.989 246.233 294.047 246.251 294.091 246.288C294.136 246.326 294.164 246.379 294.169 246.437L296.734 275.351L299.226 246.437C299.229 246.409 299.237 246.381 299.25 246.355C299.263 246.329 299.281 246.307 299.303 246.288C299.325 246.269 299.351 246.255 299.378 246.247C299.406 246.238 299.434 246.235 299.463 246.237C299.492 246.24 299.52 246.248 299.545 246.261C299.571 246.274 299.593 246.293 299.612 246.315C299.63 246.337 299.644 246.362 299.653 246.39C299.661 246.417 299.665 246.446 299.662 246.475L296.955 277.879C296.95 277.933 296.925 277.984 296.885 278.021C296.845 278.058 296.792 278.079 296.737 278.079L296.737 278.079Z" fill="#CCCCCC"/>
<path d="M294.938 255.678C294.906 255.529 294.906 255.376 294.939 255.227C294.972 255.079 295.038 254.94 295.13 254.82C295.223 254.699 295.341 254.601 295.476 254.531C295.61 254.462 295.759 254.422 295.91 254.416L298.228 251.797L299.667 253.538L297.002 255.487C296.995 255.743 296.895 255.987 296.721 256.174C296.546 256.361 296.309 256.477 296.055 256.5C295.8 256.524 295.546 256.453 295.34 256.302C295.135 256.15 294.992 255.928 294.938 255.678H294.938Z" fill="#FFB8B8"/>
<path d="M296.287 253.854L299.943 248.973L298.058 244.927L298.195 240.13L299.74 239.844L299.757 239.852C300.508 240.292 301.09 240.971 301.41 241.78C301.753 242.64 302.466 245.564 303.002 247.866C303.143 248.459 303.129 249.077 302.962 249.663C302.795 250.248 302.481 250.781 302.049 251.21L297.564 255.701L296.287 253.854Z" fill="#0C572C"/>
<path d="M280.96 276.722L285.962 277.928C286.059 277.953 286.162 277.944 286.253 277.902C286.344 277.859 286.417 277.786 286.459 277.695L290.756 266.256C290.775 266.212 290.785 266.165 290.785 266.117C290.785 266.069 290.775 266.021 290.757 265.977C290.735 265.928 290.703 265.884 290.664 265.847C290.625 265.81 290.578 265.781 290.528 265.763L286.767 264.325C286.708 264.302 286.644 264.292 286.58 264.296C286.517 264.299 286.455 264.316 286.398 264.345C286.349 264.37 286.306 264.404 286.271 264.447C286.236 264.489 286.211 264.539 286.197 264.592L286.197 264.592L283.543 274.674L283.503 274.677C282.679 274.725 281.896 275.052 281.282 275.604C281.154 275.758 281.06 275.937 281.004 276.129C280.949 276.322 280.934 276.523 280.96 276.722Z" fill="#CCCCCC"/>
<path d="M284.582 270.31L284.559 270.527L289.119 271.011L289.142 270.793L284.582 270.31Z" fill="#B3B3B3"/>
<path d="M284.185 272.112L284.096 272.312L287.766 273.965L287.855 273.765L284.185 272.112Z" fill="#B3B3B3"/>
<path d="M289.623 269.261L285.297 267.826L285.387 267.627L289.712 269.061L289.623 269.261Z" fill="#B3B3B3"/>
<path d="M290.06 268.275L285.734 266.184L285.824 265.984L290.15 268.075L290.06 268.275Z" fill="#B3B3B3"/>
<path d="M283.804 273.826L283.662 273.992L286.781 276.66L286.923 276.493L283.804 273.826Z" fill="#B3B3B3"/>
<path d="M282.918 274.71L282.719 274.801L283.971 277.566L284.17 277.475L282.918 274.71Z" fill="#B3B3B3"/>
<path d="M404.825 255.579C404.64 255.536 404.466 255.453 404.316 255.335C404.167 255.218 404.045 255.069 403.959 254.899C403.873 254.729 403.825 254.542 403.819 254.352C403.813 254.161 403.848 253.972 403.923 253.797L399.125 242.942L401.87 242.25L405.723 253.137C406.009 253.283 406.231 253.528 406.348 253.827C406.465 254.125 406.468 254.457 406.357 254.758C406.247 255.059 406.03 255.309 405.747 255.46C405.465 255.612 405.137 255.654 404.825 255.579Z" fill="#A0616A"/>
<path d="M400.014 246.344C399.937 246.309 399.869 246.259 399.813 246.196C399.758 246.133 399.717 246.058 399.693 245.978L398.854 243.168C398.671 242.778 398.649 242.332 398.795 241.927C398.94 241.522 399.24 241.191 399.629 241.008C400.017 240.824 400.463 240.803 400.868 240.948C401.272 241.093 401.603 241.394 401.786 241.783L403.408 244.237C403.455 244.307 403.485 244.386 403.498 244.469C403.511 244.552 403.506 244.636 403.484 244.717C403.461 244.798 403.421 244.873 403.367 244.937C403.312 245.001 403.245 245.053 403.169 245.088L400.5 246.34C400.424 246.375 400.341 246.394 400.257 246.395C400.173 246.395 400.09 246.378 400.014 246.344Z" fill="#0C572C"/>
<path d="M409.782 244.944L406.839 247.03C406.802 247.058 406.756 247.072 406.71 247.072C406.663 247.072 406.618 247.058 406.58 247.03L405.785 246.432C405.758 246.413 405.736 246.388 405.721 246.359C405.706 246.33 405.697 246.298 405.696 246.265C405.694 246.232 405.7 246.2 405.713 246.17C405.726 246.139 405.746 246.113 405.77 246.091L408.035 244.069C408.065 244.043 408.101 244.025 408.14 244.018C408.179 244.01 408.219 244.013 408.256 244.026L409.73 244.554C409.768 244.568 409.801 244.592 409.826 244.624C409.851 244.655 409.868 244.693 409.873 244.733C409.878 244.773 409.873 244.814 409.857 244.851C409.841 244.888 409.815 244.92 409.782 244.944Z" fill="#3F3D56"/>
<path d="M409.542 244.746C409.549 244.726 409.548 244.705 409.539 244.686C409.531 244.667 409.515 244.652 409.496 244.644L408.168 244.169C408.155 244.164 408.141 244.163 408.127 244.165C408.113 244.168 408.1 244.174 408.09 244.183L406.047 246.007L406.036 246.019C406.03 246.028 406.026 246.037 406.024 246.047C406.021 246.056 406.021 246.066 406.022 246.076C406.024 246.086 406.028 246.096 406.033 246.104C406.038 246.113 406.045 246.12 406.053 246.126L406.769 246.664C406.782 246.673 406.798 246.679 406.815 246.679C406.832 246.678 406.848 246.673 406.861 246.663L409.514 244.782C409.526 244.773 409.536 244.761 409.542 244.746Z" fill="white"/>
<path d="M399.057 276.05H400.542L401.249 270.313H399.057V276.05Z" fill="#A0616A"/>
<path d="M398.678 275.565L401.603 275.564H401.603C401.848 275.564 402.09 275.613 402.317 275.707C402.543 275.8 402.748 275.938 402.921 276.111C403.094 276.285 403.232 276.49 403.325 276.717C403.419 276.943 403.467 277.186 403.467 277.431V277.492L398.678 277.492L398.678 275.565Z" fill="#2F2E41"/>
<path d="M394.088 276.05H395.574L396.28 270.313H394.088V276.05Z" fill="#A0616A"/>
<path d="M393.709 275.565L396.634 275.564H396.634C396.879 275.564 397.122 275.613 397.348 275.707C397.574 275.8 397.779 275.938 397.953 276.111C398.126 276.285 398.263 276.49 398.357 276.717C398.45 276.943 398.499 277.186 398.499 277.431V277.492L393.709 277.492L393.709 275.565Z" fill="#2F2E41"/>
<path d="M393.774 274.297C393.672 274.181 393.615 274.032 393.612 273.877C393.258 270.229 394.222 251.055 396.448 249.417L396.462 249.404L402.978 248.277L403.099 248.399C403.108 248.568 404.293 265.375 401.022 273.953C400.982 274.055 400.912 274.143 400.821 274.205C400.73 274.267 400.623 274.3 400.514 274.3H399.213C399.138 274.3 399.063 274.284 398.994 274.254C398.925 274.224 398.864 274.18 398.812 274.125C398.761 274.069 398.722 274.004 398.698 273.933C398.673 273.862 398.663 273.786 398.669 273.711L399.722 257.65C399.726 257.604 399.712 257.558 399.683 257.522C399.655 257.486 399.613 257.462 399.568 257.455C399.522 257.449 399.476 257.459 399.438 257.486C399.4 257.512 399.373 257.552 399.364 257.597L396.398 273.898C396.372 274.013 396.311 274.117 396.222 274.194C396.133 274.271 396.022 274.317 395.905 274.327L394.197 274.453C394.184 274.454 394.17 274.455 394.157 274.455C394.013 274.455 393.876 274.398 393.774 274.297Z" fill="#2F2E41"/>
<path d="M402.347 238.445C403.99 238.445 405.323 237.111 405.323 235.465C405.323 233.819 403.99 232.485 402.347 232.485C400.703 232.485 399.371 233.819 399.371 235.465C399.371 237.111 400.703 238.445 402.347 238.445Z" fill="#A0616A"/>
<path d="M395.179 252.026C395.053 251.898 394.981 251.727 394.977 251.547L396.192 245.85C395.222 241.726 396.513 240.952 397.969 240.171L397.96 240.166L398.568 238.518C398.588 238.444 398.623 238.376 398.671 238.318C398.72 238.26 398.781 238.213 398.85 238.181C398.918 238.15 398.993 238.133 399.069 238.134C399.145 238.134 399.219 238.152 399.288 238.184L402.389 239.834C402.529 239.913 402.632 240.043 402.677 240.197C402.729 240.36 402.726 240.537 402.667 240.698L402.438 241.319C403.03 242.111 403.946 245.244 402.977 246.457L403.708 250.5C403.724 250.649 403.687 250.798 403.604 250.923C403.521 251.047 403.397 251.138 403.254 251.18L395.612 252.162C395.582 252.168 395.552 252.171 395.521 252.171C395.393 252.17 395.27 252.117 395.179 252.026Z" fill="#0C572C"/>
<path d="M406.305 245.493C406.256 245.539 406.211 245.589 406.17 245.642L400.175 245.227L399.532 243.915L397.428 244.628L398.341 247.062C398.415 247.258 398.55 247.426 398.727 247.539C398.904 247.652 399.112 247.704 399.321 247.688L406.138 247.171C406.289 247.38 406.5 247.539 406.743 247.626C406.987 247.713 407.25 247.723 407.5 247.656C407.749 247.589 407.972 247.448 408.14 247.251C408.307 247.054 408.41 246.81 408.436 246.553C408.461 246.295 408.408 246.036 408.283 245.81C408.158 245.584 407.967 245.401 407.736 245.286C407.504 245.171 407.244 245.129 406.988 245.166C406.732 245.203 406.494 245.317 406.305 245.493V245.493Z" fill="#A0616A"/>
<path d="M399.953 245.248L397.34 246.119C397.266 246.144 397.187 246.152 397.109 246.144C397.031 246.135 396.956 246.11 396.889 246.07C396.822 246.03 396.764 245.975 396.719 245.911C396.675 245.846 396.645 245.773 396.631 245.696L396.155 242.988C396.03 242.607 396.062 242.191 396.243 241.833C396.424 241.475 396.739 241.203 397.12 241.077C397.501 240.952 397.916 240.982 398.274 241.162C398.632 241.343 398.905 241.658 399.031 242.039L400.267 244.483C400.303 244.553 400.322 244.63 400.326 244.709C400.329 244.787 400.315 244.865 400.285 244.938C400.255 245.01 400.21 245.076 400.153 245.129C400.095 245.183 400.027 245.223 399.953 245.248Z" fill="#0C572C"/>
<path d="M400.675 233.112C402.013 233.112 403.098 232.026 403.098 230.686C403.098 229.346 402.013 228.26 400.675 228.26C399.337 228.26 398.252 229.346 398.252 230.686C398.252 232.026 399.337 233.112 400.675 233.112Z" fill="#2F2E41"/>
<path d="M405.163 235.834C405.398 235.881 405.641 235.86 405.864 235.775C405.978 235.71 406.075 235.619 406.148 235.51C406.22 235.401 406.266 235.276 406.281 235.146C406.732 232.142 404.182 232.389 403.88 232.259C403.69 232.147 403.511 232.016 403.346 231.869C402.922 231.633 402.437 231.526 401.953 231.562C401.38 231.509 400.802 231.58 400.259 231.769C399.786 231.991 399.393 232.354 399.134 232.808C398.877 233.261 398.689 233.748 398.575 234.256C398.397 234.83 398.364 235.44 398.48 236.031C398.604 236.471 398.863 236.862 399.22 237.148C399.576 237.434 400.013 237.602 400.47 237.627C400.397 237.274 400.442 236.906 400.598 236.581C400.755 236.256 401.014 235.991 401.335 235.828C401.847 235.577 402.429 235.507 402.985 235.632C403.346 235.705 403.712 235.751 404.079 235.768C404.44 235.782 404.873 235.803 405.163 235.834Z" fill="#2F2E41"/>
<path d="M638.055 276.642C638.057 273.459 639.322 270.407 641.57 268.157C643.819 265.907 646.868 264.644 650.047 264.644C653.225 264.644 656.274 265.907 658.523 268.157C660.772 270.407 662.036 273.459 662.039 276.642" fill="#F2F2F2"/>
<path d="M650.047 276.642C649.961 276.642 649.878 276.608 649.818 276.547C649.757 276.486 649.723 276.404 649.723 276.318V269.99C649.723 269.903 649.757 269.821 649.818 269.76C649.878 269.699 649.961 269.665 650.047 269.665C650.133 269.665 650.215 269.699 650.276 269.76C650.337 269.821 650.371 269.903 650.371 269.99V276.318C650.371 276.404 650.337 276.486 650.276 276.547C650.215 276.608 650.133 276.642 650.047 276.642Z" fill="#CCCCCC"/>
<path d="M650.045 274.467C649.968 274.467 649.893 274.439 649.834 274.389L645.945 271.046C645.913 271.019 645.886 270.985 645.866 270.947C645.846 270.909 645.835 270.867 645.831 270.824C645.828 270.782 645.833 270.739 645.846 270.698C645.859 270.657 645.88 270.619 645.908 270.587C645.936 270.554 645.97 270.528 646.008 270.508C646.047 270.489 646.088 270.478 646.131 270.474C646.174 270.471 646.217 270.477 646.257 270.49C646.298 270.504 646.335 270.526 646.367 270.554L650.257 273.896C650.307 273.939 650.343 273.997 650.359 274.061C650.376 274.125 650.372 274.193 650.349 274.255C650.326 274.317 650.285 274.371 650.231 274.409C650.176 274.447 650.112 274.467 650.045 274.467L650.045 274.467Z" fill="#CCCCCC"/>
<path d="M675.002 276.642C675.004 273.459 676.269 270.407 678.518 268.157C680.766 265.907 683.815 264.644 686.994 264.644C690.173 264.644 693.222 265.907 695.47 268.157C697.719 270.407 698.983 273.459 698.986 276.642" fill="#F2F2F2"/>
<path d="M686.994 276.642C686.908 276.642 686.826 276.608 686.765 276.547C686.704 276.486 686.67 276.404 686.67 276.318V269.99C686.67 269.903 686.704 269.821 686.765 269.76C686.826 269.699 686.908 269.665 686.994 269.665C687.08 269.665 687.162 269.699 687.223 269.76C687.284 269.821 687.318 269.903 687.318 269.99V276.318C687.318 276.404 687.284 276.486 687.223 276.547C687.162 276.608 687.08 276.642 686.994 276.642Z" fill="#CCCCCC"/>
<path d="M686.995 274.467C686.918 274.467 686.843 274.44 686.784 274.389L682.895 271.046C682.862 271.019 682.835 270.985 682.815 270.947C682.796 270.909 682.784 270.867 682.78 270.824C682.777 270.782 682.782 270.739 682.795 270.698C682.808 270.657 682.83 270.619 682.857 270.587C682.885 270.554 682.919 270.528 682.958 270.508C682.996 270.489 683.038 270.477 683.08 270.474C683.123 270.471 683.166 270.477 683.207 270.491C683.247 270.504 683.285 270.526 683.317 270.554L687.206 273.896C687.256 273.94 687.292 273.997 687.309 274.061C687.325 274.126 687.322 274.193 687.299 274.256C687.276 274.318 687.235 274.371 687.18 274.409C687.126 274.447 687.061 274.467 686.995 274.467V274.467Z" fill="#CCCCCC"/>
</g>
<defs>
<clipPath id="clip0">
<rect width="732" height="315" fill="white"/>
</clipPath>
</defs>
</svg>
