<svg width="36" height="39" viewBox="0 0 36 39" fill="none" xmlns="http://www.w3.org/2000/svg">
<path d="M17.6247 35.1388C19.2403 35.1388 20.5621 33.7013 20.5621 31.9443H14.6873C14.6873 32.7916 14.9967 33.6041 15.5476 34.2032C16.0985 34.8023 16.8456 35.1388 17.6247 35.1388ZM26.4369 25.5554V17.5692C26.4369 12.6657 24.0283 8.56083 19.8277 7.47471V6.38859C19.8277 5.06288 18.8437 3.99274 17.6247 3.99274C16.4057 3.99274 15.4216 5.06288 15.4216 6.38859V7.47471C11.2064 8.56083 8.81242 12.6497 8.81242 17.5692V25.5554L5.875 28.7499V30.3471H29.3744V28.7499L26.4369 25.5554Z" fill="#0FC662"/>
</svg>
