<svg width="404" height="361" viewBox="0 0 404 361" fill="none" xmlns="http://www.w3.org/2000/svg">
<ellipse cx="326.5" cy="285.5" rx="77.5" ry="75.5" fill="#E5F0EA" fill-opacity="0.6"/>
<ellipse cx="188" cy="180.5" rx="188" ry="180.5" fill="#0FCA64" fill-opacity="0.3"/>
<path d="M94.64 97.41L93.56 103.485H80.69L79.52 110.28H89.15L88.07 116.13H78.44L76.19 129H68.495L74.075 97.41H94.64ZM104.579 129.36C102.419 129.36 100.499 128.925 98.8194 128.055C97.1394 127.185 95.8344 125.955 94.9044 124.365C94.0044 122.775 93.5544 120.93 93.5544 118.83C93.5544 115.98 94.2294 113.385 95.5794 111.045C96.9294 108.705 98.7894 106.875 101.159 105.555C103.529 104.205 106.169 103.53 109.079 103.53C111.239 103.53 113.159 103.98 114.839 104.88C116.549 105.75 117.869 106.98 118.799 108.57C119.729 110.16 120.194 112.005 120.194 114.105C120.194 116.985 119.504 119.595 118.124 121.935C116.774 124.245 114.899 126.06 112.499 127.38C110.129 128.7 107.489 129.36 104.579 129.36ZM105.659 122.745C106.919 122.745 108.044 122.37 109.034 121.62C110.054 120.84 110.834 119.85 111.374 118.65C111.944 117.42 112.229 116.145 112.229 114.825C112.229 113.325 111.824 112.17 111.014 111.36C110.204 110.55 109.184 110.145 107.954 110.145C106.664 110.145 105.524 110.535 104.534 111.315C103.574 112.065 102.824 113.055 102.284 114.285C101.744 115.515 101.474 116.805 101.474 118.155C101.474 119.625 101.864 120.765 102.644 121.575C103.424 122.355 104.429 122.745 105.659 122.745ZM133.052 108.435C134.222 106.935 135.557 105.765 137.057 104.925C138.587 104.055 140.177 103.62 141.827 103.62L140.387 111.765H138.272C136.352 111.765 134.837 112.185 133.727 113.025C132.617 113.835 131.882 115.275 131.522 117.345L129.452 129H121.757L126.167 103.89H133.862L133.052 108.435ZM184.09 97.41L169.465 118.56L167.575 129H159.88L161.77 118.56L154.525 97.41H163.255L167.035 110.595L175.45 97.41H184.09ZM193.085 129.36C190.925 129.36 189.005 128.925 187.325 128.055C185.645 127.185 184.34 125.955 183.41 124.365C182.51 122.775 182.06 120.93 182.06 118.83C182.06 115.98 182.735 113.385 184.085 111.045C185.435 108.705 187.295 106.875 189.665 105.555C192.035 104.205 194.675 103.53 197.585 103.53C199.745 103.53 201.665 103.98 203.345 104.88C205.055 105.75 206.375 106.98 207.305 108.57C208.235 110.16 208.7 112.005 208.7 114.105C208.7 116.985 208.01 119.595 206.63 121.935C205.28 124.245 203.405 126.06 201.005 127.38C198.635 128.7 195.995 129.36 193.085 129.36ZM194.165 122.745C195.425 122.745 196.55 122.37 197.54 121.62C198.56 120.84 199.34 119.85 199.88 118.65C200.45 117.42 200.735 116.145 200.735 114.825C200.735 113.325 200.33 112.17 199.52 111.36C198.71 110.55 197.69 110.145 196.46 110.145C195.17 110.145 194.03 110.535 193.04 111.315C192.08 112.065 191.33 113.055 190.79 114.285C190.25 115.515 189.98 116.805 189.98 118.155C189.98 119.625 190.37 120.765 191.15 121.575C191.93 122.355 192.935 122.745 194.165 122.745ZM239.468 103.89L235.058 129H227.363L227.948 125.58C226.958 126.69 225.743 127.59 224.303 128.28C222.893 128.94 221.378 129.27 219.758 129.27C217.238 129.27 215.258 128.565 213.818 127.155C212.378 125.715 211.658 123.72 211.658 121.17C211.658 120.21 211.733 119.34 211.883 118.56L214.493 103.89H222.143L219.758 117.525C219.668 118.005 219.623 118.47 219.623 118.92C219.623 120.18 219.968 121.155 220.658 121.845C221.378 122.505 222.368 122.835 223.628 122.835C225.068 122.835 226.283 122.415 227.273 121.575C228.293 120.705 228.968 119.475 229.298 117.885L231.773 103.89H239.468ZM244.14 129.36C242.94 129.36 241.98 129.045 241.26 128.415C240.57 127.755 240.225 126.93 240.225 125.94C240.225 124.56 240.735 123.39 241.755 122.43C242.805 121.47 244.095 120.99 245.625 120.99C246.795 120.99 247.725 121.32 248.415 121.98C249.105 122.61 249.45 123.435 249.45 124.455C249.45 125.805 248.925 126.96 247.875 127.92C246.855 128.88 245.61 129.36 244.14 129.36ZM97.115 173.6C96.785 175.46 96.02 177.005 94.82 178.235C93.62 179.465 92.18 180.32 90.5 180.8C92 181.13 93.185 181.865 94.055 183.005C94.925 184.145 95.36 185.48 95.36 187.01C95.36 187.49 95.315 187.955 95.225 188.405C94.775 191.045 93.485 193.145 91.355 194.705C89.225 196.235 86.51 197 83.21 197H68.495L74.075 165.41H88.295C91.145 165.41 93.35 165.995 94.91 167.165C96.47 168.335 97.25 169.955 97.25 172.025C97.25 172.535 97.205 173.06 97.115 173.6ZM84.515 178.235C85.805 178.235 86.84 177.95 87.62 177.38C88.4 176.81 88.88 175.985 89.06 174.905C89.09 174.725 89.105 174.485 89.105 174.185C89.105 173.315 88.82 172.655 88.25 172.205C87.68 171.725 86.84 171.485 85.73 171.485H80.69L79.52 178.235H84.515ZM87.575 187.37C87.635 187.01 87.665 186.74 87.665 186.56C87.665 185.69 87.35 185.015 86.72 184.535C86.09 184.025 85.22 183.77 84.11 183.77H78.53L77.27 190.88H82.94C84.26 190.88 85.31 190.58 86.09 189.98C86.87 189.38 87.365 188.51 87.575 187.37ZM108.328 171.89L111.388 187.595L119.938 171.89H128.263L105.988 208.925H97.7081L105.718 196.145L99.7781 171.89H108.328ZM169.676 165.41L155.051 186.56L153.161 197H145.466L147.356 186.56L140.111 165.41H148.841L152.621 178.595L161.036 165.41H169.676ZM178.671 197.36C176.511 197.36 174.591 196.925 172.911 196.055C171.231 195.185 169.926 193.955 168.996 192.365C168.096 190.775 167.646 188.93 167.646 186.83C167.646 183.98 168.321 181.385 169.671 179.045C171.021 176.705 172.881 174.875 175.251 173.555C177.621 172.205 180.261 171.53 183.171 171.53C185.331 171.53 187.251 171.98 188.931 172.88C190.641 173.75 191.961 174.98 192.891 176.57C193.821 178.16 194.286 180.005 194.286 182.105C194.286 184.985 193.596 187.595 192.216 189.935C190.866 192.245 188.991 194.06 186.591 195.38C184.221 196.7 181.581 197.36 178.671 197.36ZM179.751 190.745C181.011 190.745 182.136 190.37 183.126 189.62C184.146 188.84 184.926 187.85 185.466 186.65C186.036 185.42 186.321 184.145 186.321 182.825C186.321 181.325 185.916 180.17 185.106 179.36C184.296 178.55 183.276 178.145 182.046 178.145C180.756 178.145 179.616 178.535 178.626 179.315C177.666 180.065 176.916 181.055 176.376 182.285C175.836 183.515 175.566 184.805 175.566 186.155C175.566 187.625 175.956 188.765 176.736 189.575C177.516 190.355 178.521 190.745 179.751 190.745ZM225.054 171.89L220.644 197H212.949L213.534 193.58C212.544 194.69 211.329 195.59 209.889 196.28C208.479 196.94 206.964 197.27 205.344 197.27C202.824 197.27 200.844 196.565 199.404 195.155C197.964 193.715 197.244 191.72 197.244 189.17C197.244 188.21 197.319 187.34 197.469 186.56L200.079 171.89H207.729L205.344 185.525C205.254 186.005 205.209 186.47 205.209 186.92C205.209 188.18 205.554 189.155 206.244 189.845C206.964 190.505 207.954 190.835 209.214 190.835C210.654 190.835 211.869 190.415 212.859 189.575C213.879 188.705 214.554 187.475 214.884 185.885L217.359 171.89H225.054ZM229.726 197.36C228.526 197.36 227.566 197.045 226.846 196.415C226.156 195.755 225.811 194.93 225.811 193.94C225.811 192.56 226.321 191.39 227.341 190.43C228.391 189.47 229.681 188.99 231.211 188.99C232.381 188.99 233.311 189.32 234.001 189.98C234.691 190.61 235.036 191.435 235.036 192.455C235.036 193.805 234.511 194.96 233.461 195.92C232.441 196.88 231.196 197.36 229.726 197.36ZM96.8 233.41L95.765 239.485H87.35L82.85 265H75.155L79.655 239.485H71.285L72.365 233.41H96.8ZM114.972 239.62C117.432 239.62 119.367 240.325 120.777 241.735C122.217 243.145 122.937 245.11 122.937 247.63C122.937 248.47 122.847 249.37 122.667 250.33L120.057 265H112.407L114.837 251.365C114.927 250.855 114.972 250.405 114.972 250.015C114.972 248.755 114.612 247.78 113.892 247.09C113.202 246.4 112.227 246.055 110.967 246.055C109.467 246.055 108.207 246.52 107.187 247.45C106.167 248.38 105.507 249.685 105.207 251.365V251.275L102.777 265H95.0819L100.977 231.7H108.672L106.647 243.22C107.637 242.11 108.852 241.24 110.292 240.61C111.732 239.95 113.292 239.62 114.972 239.62ZM126.124 252.4C126.574 249.82 127.459 247.555 128.779 245.605C130.099 243.655 131.689 242.155 133.549 241.105C135.409 240.055 137.374 239.53 139.444 239.53C141.214 239.53 142.699 239.89 143.899 240.61C145.099 241.33 145.969 242.275 146.509 243.445L147.139 239.89H154.834L150.379 265H142.684L143.359 261.445C142.399 262.615 141.184 263.56 139.714 264.28C138.244 265 136.624 265.36 134.854 265.36C133.084 265.36 131.509 264.955 130.129 264.145C128.779 263.335 127.729 262.195 126.979 260.725C126.229 259.225 125.854 257.47 125.854 255.46C125.854 254.5 125.944 253.48 126.124 252.4ZM144.934 252.445C145.024 251.905 145.069 251.41 145.069 250.96C145.069 249.49 144.634 248.335 143.764 247.495C142.924 246.655 141.844 246.235 140.524 246.235C138.994 246.235 137.599 246.79 136.339 247.9C135.079 248.98 134.284 250.48 133.954 252.4C133.864 252.94 133.819 253.435 133.819 253.885C133.819 255.355 134.239 256.525 135.079 257.395C135.949 258.235 137.029 258.655 138.319 258.655C139.849 258.655 141.244 258.1 142.504 256.99C143.764 255.88 144.574 254.365 144.934 252.445ZM175.701 239.62C178.221 239.62 180.201 240.325 181.641 241.735C183.081 243.145 183.801 245.11 183.801 247.63C183.801 248.47 183.711 249.37 183.531 250.33L180.921 265H173.271L175.701 251.365C175.791 250.855 175.836 250.405 175.836 250.015C175.836 248.755 175.476 247.78 174.756 247.09C174.066 246.4 173.091 246.055 171.831 246.055C170.331 246.055 169.071 246.52 168.051 247.45C167.031 248.38 166.371 249.685 166.071 251.365V251.14L163.641 265H155.946L160.356 239.89H168.051L167.466 243.265C168.456 242.155 169.656 241.27 171.066 240.61C172.506 239.95 174.051 239.62 175.701 239.62ZM202.828 252.49L211.153 265H201.613L195.808 254.515L193.963 265H186.268L192.163 231.7H199.858L196.618 250.06L205.978 239.89H215.473L202.828 252.49ZM257.171 233.41L242.546 254.56L240.656 265H232.961L234.851 254.56L227.606 233.41H236.336L240.116 246.595L248.531 233.41H257.171ZM266.166 265.36C264.006 265.36 262.086 264.925 260.406 264.055C258.726 263.185 257.421 261.955 256.491 260.365C255.591 258.775 255.141 256.93 255.141 254.83C255.141 251.98 255.816 249.385 257.166 247.045C258.516 244.705 260.376 242.875 262.746 241.555C265.116 240.205 267.756 239.53 270.666 239.53C272.826 239.53 274.746 239.98 276.426 240.88C278.136 241.75 279.456 242.98 280.386 244.57C281.316 246.16 281.781 248.005 281.781 250.105C281.781 252.985 281.091 255.595 279.711 257.935C278.361 260.245 276.486 262.06 274.086 263.38C271.716 264.7 269.076 265.36 266.166 265.36ZM267.246 258.745C268.506 258.745 269.631 258.37 270.621 257.62C271.641 256.84 272.421 255.85 272.961 254.65C273.531 253.42 273.816 252.145 273.816 250.825C273.816 249.325 273.411 248.17 272.601 247.36C271.791 246.55 270.771 246.145 269.541 246.145C268.251 246.145 267.111 246.535 266.121 247.315C265.161 248.065 264.411 249.055 263.871 250.285C263.331 251.515 263.061 252.805 263.061 254.155C263.061 255.625 263.451 256.765 264.231 257.575C265.011 258.355 266.016 258.745 267.246 258.745ZM312.549 239.89L308.139 265H300.444L301.029 261.58C300.039 262.69 298.824 263.59 297.384 264.28C295.974 264.94 294.459 265.27 292.839 265.27C290.319 265.27 288.339 264.565 286.899 263.155C285.459 261.715 284.739 259.72 284.739 257.17C284.739 256.21 284.814 255.34 284.964 254.56L287.574 239.89H295.224L292.839 253.525C292.749 254.005 292.704 254.47 292.704 254.92C292.704 256.18 293.049 257.155 293.739 257.845C294.459 258.505 295.449 258.835 296.709 258.835C298.149 258.835 299.364 258.415 300.354 257.575C301.374 256.705 302.049 255.475 302.379 253.885L304.854 239.89H312.549ZM317.221 265.36C316.021 265.36 315.061 265.045 314.341 264.415C313.651 263.755 313.306 262.93 313.306 261.94C313.306 260.56 313.816 259.39 314.836 258.43C315.886 257.47 317.176 256.99 318.706 256.99C319.876 256.99 320.806 257.32 321.496 257.98C322.186 258.61 322.531 259.435 322.531 260.455C322.531 261.805 322.006 262.96 320.956 263.92C319.936 264.88 318.691 265.36 317.221 265.36Z" fill="#7BD7A5"/>
<path d="M101.64 91.41L100.56 97.485H87.69L86.52 104.28H96.15L95.07 110.13H85.44L83.19 123H75.495L81.075 91.41H101.64ZM111.579 123.36C109.419 123.36 107.499 122.925 105.819 122.055C104.139 121.185 102.834 119.955 101.904 118.365C101.004 116.775 100.554 114.93 100.554 112.83C100.554 109.98 101.229 107.385 102.579 105.045C103.929 102.705 105.789 100.875 108.159 99.555C110.529 98.205 113.169 97.53 116.079 97.53C118.239 97.53 120.159 97.98 121.839 98.88C123.549 99.75 124.869 100.98 125.799 102.57C126.729 104.16 127.194 106.005 127.194 108.105C127.194 110.985 126.504 113.595 125.124 115.935C123.774 118.245 121.899 120.06 119.499 121.38C117.129 122.7 114.489 123.36 111.579 123.36ZM112.659 116.745C113.919 116.745 115.044 116.37 116.034 115.62C117.054 114.84 117.834 113.85 118.374 112.65C118.944 111.42 119.229 110.145 119.229 108.825C119.229 107.325 118.824 106.17 118.014 105.36C117.204 104.55 116.184 104.145 114.954 104.145C113.664 104.145 112.524 104.535 111.534 105.315C110.574 106.065 109.824 107.055 109.284 108.285C108.744 109.515 108.474 110.805 108.474 112.155C108.474 113.625 108.864 114.765 109.644 115.575C110.424 116.355 111.429 116.745 112.659 116.745ZM140.052 102.435C141.222 100.935 142.557 99.765 144.057 98.925C145.587 98.055 147.177 97.62 148.827 97.62L147.387 105.765H145.272C143.352 105.765 141.837 106.185 140.727 107.025C139.617 107.835 138.882 109.275 138.522 111.345L136.452 123H128.757L133.167 97.89H140.862L140.052 102.435ZM191.09 91.41L176.465 112.56L174.575 123H166.88L168.77 112.56L161.525 91.41H170.255L174.035 104.595L182.45 91.41H191.09ZM200.085 123.36C197.925 123.36 196.005 122.925 194.325 122.055C192.645 121.185 191.34 119.955 190.41 118.365C189.51 116.775 189.06 114.93 189.06 112.83C189.06 109.98 189.735 107.385 191.085 105.045C192.435 102.705 194.295 100.875 196.665 99.555C199.035 98.205 201.675 97.53 204.585 97.53C206.745 97.53 208.665 97.98 210.345 98.88C212.055 99.75 213.375 100.98 214.305 102.57C215.235 104.16 215.7 106.005 215.7 108.105C215.7 110.985 215.01 113.595 213.63 115.935C212.28 118.245 210.405 120.06 208.005 121.38C205.635 122.7 202.995 123.36 200.085 123.36ZM201.165 116.745C202.425 116.745 203.55 116.37 204.54 115.62C205.56 114.84 206.34 113.85 206.88 112.65C207.45 111.42 207.735 110.145 207.735 108.825C207.735 107.325 207.33 106.17 206.52 105.36C205.71 104.55 204.69 104.145 203.46 104.145C202.17 104.145 201.03 104.535 200.04 105.315C199.08 106.065 198.33 107.055 197.79 108.285C197.25 109.515 196.98 110.805 196.98 112.155C196.98 113.625 197.37 114.765 198.15 115.575C198.93 116.355 199.935 116.745 201.165 116.745ZM246.468 97.89L242.058 123H234.363L234.948 119.58C233.958 120.69 232.743 121.59 231.303 122.28C229.893 122.94 228.378 123.27 226.758 123.27C224.238 123.27 222.258 122.565 220.818 121.155C219.378 119.715 218.658 117.72 218.658 115.17C218.658 114.21 218.733 113.34 218.883 112.56L221.493 97.89H229.143L226.758 111.525C226.668 112.005 226.623 112.47 226.623 112.92C226.623 114.18 226.968 115.155 227.658 115.845C228.378 116.505 229.368 116.835 230.628 116.835C232.068 116.835 233.283 116.415 234.273 115.575C235.293 114.705 235.968 113.475 236.298 111.885L238.773 97.89H246.468ZM251.14 123.36C249.94 123.36 248.98 123.045 248.26 122.415C247.57 121.755 247.225 120.93 247.225 119.94C247.225 118.56 247.735 117.39 248.755 116.43C249.805 115.47 251.095 114.99 252.625 114.99C253.795 114.99 254.725 115.32 255.415 115.98C256.105 116.61 256.45 117.435 256.45 118.455C256.45 119.805 255.925 120.96 254.875 121.92C253.855 122.88 252.61 123.36 251.14 123.36ZM104.115 167.6C103.785 169.46 103.02 171.005 101.82 172.235C100.62 173.465 99.18 174.32 97.5 174.8C99 175.13 100.185 175.865 101.055 177.005C101.925 178.145 102.36 179.48 102.36 181.01C102.36 181.49 102.315 181.955 102.225 182.405C101.775 185.045 100.485 187.145 98.355 188.705C96.225 190.235 93.51 191 90.21 191H75.495L81.075 159.41H95.295C98.145 159.41 100.35 159.995 101.91 161.165C103.47 162.335 104.25 163.955 104.25 166.025C104.25 166.535 104.205 167.06 104.115 167.6ZM91.515 172.235C92.805 172.235 93.84 171.95 94.62 171.38C95.4 170.81 95.88 169.985 96.06 168.905C96.09 168.725 96.105 168.485 96.105 168.185C96.105 167.315 95.82 166.655 95.25 166.205C94.68 165.725 93.84 165.485 92.73 165.485H87.69L86.52 172.235H91.515ZM94.575 181.37C94.635 181.01 94.665 180.74 94.665 180.56C94.665 179.69 94.35 179.015 93.72 178.535C93.09 178.025 92.22 177.77 91.11 177.77H85.53L84.27 184.88H89.94C91.26 184.88 92.31 184.58 93.09 183.98C93.87 183.38 94.365 182.51 94.575 181.37ZM115.328 165.89L118.388 181.595L126.938 165.89H135.263L112.988 202.925H104.708L112.718 190.145L106.778 165.89H115.328ZM176.676 159.41L162.051 180.56L160.161 191H152.466L154.356 180.56L147.111 159.41H155.841L159.621 172.595L168.036 159.41H176.676ZM185.671 191.36C183.511 191.36 181.591 190.925 179.911 190.055C178.231 189.185 176.926 187.955 175.996 186.365C175.096 184.775 174.646 182.93 174.646 180.83C174.646 177.98 175.321 175.385 176.671 173.045C178.021 170.705 179.881 168.875 182.251 167.555C184.621 166.205 187.261 165.53 190.171 165.53C192.331 165.53 194.251 165.98 195.931 166.88C197.641 167.75 198.961 168.98 199.891 170.57C200.821 172.16 201.286 174.005 201.286 176.105C201.286 178.985 200.596 181.595 199.216 183.935C197.866 186.245 195.991 188.06 193.591 189.38C191.221 190.7 188.581 191.36 185.671 191.36ZM186.751 184.745C188.011 184.745 189.136 184.37 190.126 183.62C191.146 182.84 191.926 181.85 192.466 180.65C193.036 179.42 193.321 178.145 193.321 176.825C193.321 175.325 192.916 174.17 192.106 173.36C191.296 172.55 190.276 172.145 189.046 172.145C187.756 172.145 186.616 172.535 185.626 173.315C184.666 174.065 183.916 175.055 183.376 176.285C182.836 177.515 182.566 178.805 182.566 180.155C182.566 181.625 182.956 182.765 183.736 183.575C184.516 184.355 185.521 184.745 186.751 184.745ZM232.054 165.89L227.644 191H219.949L220.534 187.58C219.544 188.69 218.329 189.59 216.889 190.28C215.479 190.94 213.964 191.27 212.344 191.27C209.824 191.27 207.844 190.565 206.404 189.155C204.964 187.715 204.244 185.72 204.244 183.17C204.244 182.21 204.319 181.34 204.469 180.56L207.079 165.89H214.729L212.344 179.525C212.254 180.005 212.209 180.47 212.209 180.92C212.209 182.18 212.554 183.155 213.244 183.845C213.964 184.505 214.954 184.835 216.214 184.835C217.654 184.835 218.869 184.415 219.859 183.575C220.879 182.705 221.554 181.475 221.884 179.885L224.359 165.89H232.054ZM236.726 191.36C235.526 191.36 234.566 191.045 233.846 190.415C233.156 189.755 232.811 188.93 232.811 187.94C232.811 186.56 233.321 185.39 234.341 184.43C235.391 183.47 236.681 182.99 238.211 182.99C239.381 182.99 240.311 183.32 241.001 183.98C241.691 184.61 242.036 185.435 242.036 186.455C242.036 187.805 241.511 188.96 240.461 189.92C239.441 190.88 238.196 191.36 236.726 191.36ZM103.8 227.41L102.765 233.485H94.35L89.85 259H82.155L86.655 233.485H78.285L79.365 227.41H103.8ZM121.972 233.62C124.432 233.62 126.367 234.325 127.777 235.735C129.217 237.145 129.937 239.11 129.937 241.63C129.937 242.47 129.847 243.37 129.667 244.33L127.057 259H119.407L121.837 245.365C121.927 244.855 121.972 244.405 121.972 244.015C121.972 242.755 121.612 241.78 120.892 241.09C120.202 240.4 119.227 240.055 117.967 240.055C116.467 240.055 115.207 240.52 114.187 241.45C113.167 242.38 112.507 243.685 112.207 245.365V245.275L109.777 259H102.082L107.977 225.7H115.672L113.647 237.22C114.637 236.11 115.852 235.24 117.292 234.61C118.732 233.95 120.292 233.62 121.972 233.62ZM133.124 246.4C133.574 243.82 134.459 241.555 135.779 239.605C137.099 237.655 138.689 236.155 140.549 235.105C142.409 234.055 144.374 233.53 146.444 233.53C148.214 233.53 149.699 233.89 150.899 234.61C152.099 235.33 152.969 236.275 153.509 237.445L154.139 233.89H161.834L157.379 259H149.684L150.359 255.445C149.399 256.615 148.184 257.56 146.714 258.28C145.244 259 143.624 259.36 141.854 259.36C140.084 259.36 138.509 258.955 137.129 258.145C135.779 257.335 134.729 256.195 133.979 254.725C133.229 253.225 132.854 251.47 132.854 249.46C132.854 248.5 132.944 247.48 133.124 246.4ZM151.934 246.445C152.024 245.905 152.069 245.41 152.069 244.96C152.069 243.49 151.634 242.335 150.764 241.495C149.924 240.655 148.844 240.235 147.524 240.235C145.994 240.235 144.599 240.79 143.339 241.9C142.079 242.98 141.284 244.48 140.954 246.4C140.864 246.94 140.819 247.435 140.819 247.885C140.819 249.355 141.239 250.525 142.079 251.395C142.949 252.235 144.029 252.655 145.319 252.655C146.849 252.655 148.244 252.1 149.504 250.99C150.764 249.88 151.574 248.365 151.934 246.445ZM182.701 233.62C185.221 233.62 187.201 234.325 188.641 235.735C190.081 237.145 190.801 239.11 190.801 241.63C190.801 242.47 190.711 243.37 190.531 244.33L187.921 259H180.271L182.701 245.365C182.791 244.855 182.836 244.405 182.836 244.015C182.836 242.755 182.476 241.78 181.756 241.09C181.066 240.4 180.091 240.055 178.831 240.055C177.331 240.055 176.071 240.52 175.051 241.45C174.031 242.38 173.371 243.685 173.071 245.365V245.14L170.641 259H162.946L167.356 233.89H175.051L174.466 237.265C175.456 236.155 176.656 235.27 178.066 234.61C179.506 233.95 181.051 233.62 182.701 233.62ZM209.828 246.49L218.153 259H208.613L202.808 248.515L200.963 259H193.268L199.163 225.7H206.858L203.618 244.06L212.978 233.89H222.473L209.828 246.49ZM264.171 227.41L249.546 248.56L247.656 259H239.961L241.851 248.56L234.606 227.41H243.336L247.116 240.595L255.531 227.41H264.171ZM273.166 259.36C271.006 259.36 269.086 258.925 267.406 258.055C265.726 257.185 264.421 255.955 263.491 254.365C262.591 252.775 262.141 250.93 262.141 248.83C262.141 245.98 262.816 243.385 264.166 241.045C265.516 238.705 267.376 236.875 269.746 235.555C272.116 234.205 274.756 233.53 277.666 233.53C279.826 233.53 281.746 233.98 283.426 234.88C285.136 235.75 286.456 236.98 287.386 238.57C288.316 240.16 288.781 242.005 288.781 244.105C288.781 246.985 288.091 249.595 286.711 251.935C285.361 254.245 283.486 256.06 281.086 257.38C278.716 258.7 276.076 259.36 273.166 259.36ZM274.246 252.745C275.506 252.745 276.631 252.37 277.621 251.62C278.641 250.84 279.421 249.85 279.961 248.65C280.531 247.42 280.816 246.145 280.816 244.825C280.816 243.325 280.411 242.17 279.601 241.36C278.791 240.55 277.771 240.145 276.541 240.145C275.251 240.145 274.111 240.535 273.121 241.315C272.161 242.065 271.411 243.055 270.871 244.285C270.331 245.515 270.061 246.805 270.061 248.155C270.061 249.625 270.451 250.765 271.231 251.575C272.011 252.355 273.016 252.745 274.246 252.745ZM319.549 233.89L315.139 259H307.444L308.029 255.58C307.039 256.69 305.824 257.59 304.384 258.28C302.974 258.94 301.459 259.27 299.839 259.27C297.319 259.27 295.339 258.565 293.899 257.155C292.459 255.715 291.739 253.72 291.739 251.17C291.739 250.21 291.814 249.34 291.964 248.56L294.574 233.89H302.224L299.839 247.525C299.749 248.005 299.704 248.47 299.704 248.92C299.704 250.18 300.049 251.155 300.739 251.845C301.459 252.505 302.449 252.835 303.709 252.835C305.149 252.835 306.364 252.415 307.354 251.575C308.374 250.705 309.049 249.475 309.379 247.885L311.854 233.89H319.549ZM324.221 259.36C323.021 259.36 322.061 259.045 321.341 258.415C320.651 257.755 320.306 256.93 320.306 255.94C320.306 254.56 320.816 253.39 321.836 252.43C322.886 251.47 324.176 250.99 325.706 250.99C326.876 250.99 327.806 251.32 328.496 251.98C329.186 252.61 329.531 253.435 329.531 254.455C329.531 255.805 329.006 256.96 327.956 257.92C326.936 258.88 325.691 259.36 324.221 259.36Z" fill="#066F3A"/>
<path d="M28.51 75.09H13.11L25.01 54.44H35.23L28.51 75.09ZM48.25 75.09H32.85L44.75 54.44H54.97L48.25 75.09Z" fill="#42CA80"/>
<path d="M34.51 71.09H19.11L31.01 50.44H41.23L34.51 71.09ZM54.25 71.09H38.85L50.75 50.44H60.97L54.25 71.09Z" fill="#3F3D55"/>
<path d="M353.81 221.44H369.21L357.31 242.09H347.09L353.81 221.44ZM373.55 221.44H388.95L377.05 242.09H366.83L373.55 221.44Z" fill="#42CA80"/>
<path d="M381.21 238.09L393.11 217.44H377.71L370.99 238.09H381.21ZM362.31 238.09L374.21 217.44H358.81L352.09 238.09H362.31Z" fill="#3F3D55"/>
</svg>
