<svg width="496" height="224" viewBox="0 0 496 224" fill="none" xmlns="http://www.w3.org/2000/svg">
<g clip-path="url(#clip0)">
<path d="M448.427 90.2129H433.436V142.087H448.427V90.2129Z" fill="#F2F2F2"/>
<path d="M458.325 132.329L421.864 88.9688L348.676 89.6376L304.279 132.866L305.176 133.442H304.856V223.357H458.227V133.442L458.325 132.329Z" fill="#F2F2F2"/>
<path d="M421.903 89.0605L376.354 142.444V223.356H458.228V132.289L421.903 89.0605Z" fill="#E6E6E6"/>
<path d="M425.94 178.611H409.219V193.385H425.94V178.611Z" fill="#3F3D56"/>
<path d="M425.94 153.039H409.219V167.579H425.94V153.039Z" fill="#3F3D56"/>
<path d="M425.94 178.611H409.219V193.385H425.94V178.611Z" fill="white"/>
<path d="M425.94 153.039H409.219V167.579H425.94V153.039Z" fill="white"/>
<path d="M351.631 174.691H334.91V189.465H351.631V174.691Z" fill="white"/>
<path d="M351.631 149.119H334.91V163.659H351.631V149.119Z" fill="white"/>
<path d="M330.124 90.2129H315.133V142.087H330.124V90.2129Z" fill="#F2F2F2"/>
<path d="M340.024 132.329L303.563 88.9688L230.376 89.6376L185.979 132.866L186.876 133.442H186.555V223.357H339.926V133.442L340.024 132.329Z" fill="#F2F2F2"/>
<path d="M303.603 89.0605L258.053 142.444V223.356H339.927V132.289L303.603 89.0605Z" fill="#E6E6E6"/>
<path d="M307.639 178.611H290.918V193.385H307.639V178.611Z" fill="#3F3D56"/>
<path d="M307.639 153.039H290.918V167.579H307.639V153.039Z" fill="#3F3D56"/>
<path d="M307.639 178.611H290.918V193.385H307.639V178.611Z" fill="white"/>
<path d="M307.639 153.039H290.918V167.579H307.639V153.039Z" fill="white"/>
<path d="M233.328 174.691H216.607V189.465H233.328V174.691Z" fill="white"/>
<path d="M233.328 149.119H216.607V163.659H233.328V149.119Z" fill="white"/>
<path d="M208.993 45.4453H188.961V114.761H208.993V45.4453Z" fill="#F2F2F2"/>
<path d="M222.221 101.721L173.501 43.7812L75.7039 44.6747L16.3789 102.438L17.5773 103.208H17.1494V223.356H222.09V103.208L222.221 101.721Z" fill="#F2F2F2"/>
<path d="M173.551 43.9043L112.686 115.238V223.356H222.09V101.668L173.551 43.9043Z" fill="#E6E6E6"/>
<path d="M178.945 163.564H156.602V183.306H178.945V163.564Z" fill="#3F3D56"/>
<path d="M178.945 129.395H156.602V148.823H178.945V129.395Z" fill="#3F3D56"/>
<path d="M178.945 163.564H156.602V183.306H178.945V163.564Z" fill="white"/>
<path d="M178.945 129.395H156.602V148.823H178.945V129.395Z" fill="white"/>
<path d="M79.6498 158.328H57.3066V178.07H79.6498V158.328Z" fill="white"/>
<path d="M79.6498 124.156H57.3066V143.585H79.6498V124.156Z" fill="white"/>
<path d="M479.144 222.914H0V223.908H479.144V222.914Z" fill="#3F3D56"/>
<path d="M75.4896 204.641C83.4779 204.641 89.9538 191.433 89.9538 175.139C89.9538 158.845 83.4779 145.637 75.4896 145.637C67.5012 145.637 61.0254 158.845 61.0254 175.139C61.0254 191.433 67.5012 204.641 75.4896 204.641Z" fill="#3F3D56"/>
<path d="M76.826 223.428C71.0329 188.683 76.7677 154.064 76.8263 153.719L77.9531 153.91C77.8948 154.253 72.193 188.691 77.9534 223.241L76.826 223.428Z" fill="#0C572C"/>
<path d="M88.2241 168.794L75.1445 175.787L75.6837 176.795L88.7632 169.801L88.2241 168.794Z" fill="#0C572C"/>
<path d="M61.8793 172.297L61.3398 173.305L74.4178 180.302L74.9573 179.295L61.8793 172.297Z" fill="#0C572C"/>
<path d="M40.7375 187.341C56.3618 187.341 69.0278 161.507 69.0278 129.638C69.0278 97.77 56.3618 71.9355 40.7375 71.9355C25.1132 71.9355 12.4473 97.77 12.4473 129.638C12.4473 161.507 25.1132 187.341 40.7375 187.341Z" fill="#0C572C"/>
<path d="M43.8885 224C32.5731 156.133 43.7744 88.513 43.8888 87.8379L45.0156 88.0287C44.9015 88.7021 33.7331 156.14 45.0159 223.813L43.8885 224Z" fill="#3F3D56"/>
<path d="M65.901 117.712L40.3184 131.391L40.8575 132.398L66.4402 118.719L65.901 117.712Z" fill="#3F3D56"/>
<path d="M13.8597 124.565L13.3203 125.572L38.8992 139.258L39.4386 138.251L13.8597 124.565Z" fill="#3F3D56"/>
<path d="M107.74 173.871C129.121 173.871 146.453 138.519 146.453 94.9092C146.453 51.2997 129.121 15.9473 107.74 15.9473C86.3597 15.9473 69.0273 51.2997 69.0273 94.9092C69.0273 138.519 86.3597 173.871 107.74 173.871Z" fill="#0C572C"/>
<path d="M112.26 224C96.7814 131.163 112.104 38.6656 112.26 37.7422L113.387 37.933C113.231 38.8547 97.9414 131.171 113.387 223.812L112.26 224Z" fill="#3F3D56"/>
<path d="M142.275 78.7738L107.268 97.4922L107.807 98.4998L142.815 79.7814L142.275 78.7738Z" fill="#3F3D56"/>
<path d="M70.8617 88.1507L70.3223 89.1582L105.325 107.886L105.865 106.878L70.8617 88.1507Z" fill="#3F3D56"/>
<path d="M432.956 204.641C440.945 204.641 447.421 191.433 447.421 175.139C447.421 158.845 440.945 145.637 432.956 145.637C424.968 145.637 418.492 158.845 418.492 175.139C418.492 191.433 424.968 204.641 432.956 204.641Z" fill="#3F3D56"/>
<path d="M431.622 223.428C437.415 188.683 431.68 154.064 431.621 153.719L430.494 153.91C430.553 154.253 436.255 188.691 430.494 223.241L431.622 223.428Z" fill="#0C572C"/>
<path d="M420.223 168.795L419.684 169.803L432.763 176.796L433.302 175.789L420.223 168.795Z" fill="#0C572C"/>
<path d="M446.566 172.297L433.488 179.295L434.028 180.302L447.106 173.305L446.566 172.297Z" fill="#0C572C"/>
<path d="M467.71 187.341C483.334 187.341 496 161.507 496 129.638C496 97.77 483.334 71.9355 467.71 71.9355C452.086 71.9355 439.42 97.77 439.42 129.638C439.42 161.507 452.086 187.341 467.71 187.341Z" fill="#0C572C"/>
<path d="M464.559 224C475.875 156.133 464.673 88.513 464.559 87.8379L463.432 88.0287C463.546 88.7021 474.714 156.14 463.432 223.813L464.559 224Z" fill="#3F3D56"/>
<path d="M442.545 117.713L442.006 118.721L467.588 132.4L468.128 131.392L442.545 117.713Z" fill="#3F3D56"/>
<path d="M494.587 124.564L469.008 138.25L469.547 139.257L495.126 125.572L494.587 124.564Z" fill="#3F3D56"/>
<path d="M400.707 173.871C422.088 173.871 439.42 138.519 439.42 94.9092C439.42 51.2997 422.088 15.9473 400.707 15.9473C379.327 15.9473 361.994 51.2997 361.994 94.9092C361.994 138.519 379.327 173.871 400.707 173.871Z" fill="#0C572C"/>
<path d="M396.186 224C411.665 131.163 396.342 38.6656 396.186 37.7422L395.059 37.933C395.215 38.8547 410.504 131.171 395.059 223.812L396.186 224Z" fill="#3F3D56"/>
<path d="M366.172 78.7736L365.633 79.7812L400.641 98.4997L401.18 97.492L366.172 78.7736Z" fill="#3F3D56"/>
<path d="M437.585 88.1513L402.582 106.879L403.121 107.886L438.124 89.1587L437.585 88.1513Z" fill="#3F3D56"/>
<path d="M293.07 50.4167L297.646 46.7583C294.091 46.3662 292.631 48.3042 292.033 49.8381C289.256 48.6854 286.232 50.1961 286.232 50.1961L295.388 53.5187C294.926 52.2854 294.122 51.2094 293.07 50.4167Z" fill="#3F3D56"/>
<path d="M181.232 18.1199L185.808 14.4614C182.253 14.0693 180.793 16.0073 180.195 17.5413C177.418 16.3885 174.395 17.8993 174.395 17.8993L183.55 21.2218C183.088 19.9886 182.284 18.9125 181.232 18.1199Z" fill="#3F3D56"/>
<path d="M363.654 3.7097L368.23 0.0512348C364.675 -0.340808 363.215 1.59718 362.617 3.13111C359.84 1.97834 356.816 3.4891 356.816 3.4891L365.972 6.81163C365.51 5.57841 364.706 4.50238 363.654 3.7097Z" fill="#3F3D56"/>
<path d="M372.892 217.164C371.676 217.164 370.481 217.484 369.428 218.093C368.359 217.126 367.032 216.49 365.608 216.263C364.184 216.036 362.725 216.226 361.407 216.812C360.09 217.398 358.971 218.353 358.186 219.562C357.401 220.771 356.985 222.182 356.986 223.623H379.826C379.702 221.87 378.917 220.228 377.631 219.03C376.344 217.831 374.651 217.164 372.892 217.164Z" fill="#3F3D56"/>
<path d="M140.763 217.164C139.547 217.164 138.352 217.484 137.299 218.093C136.23 217.126 134.903 216.49 133.479 216.263C132.055 216.036 130.596 216.226 129.279 216.812C127.961 217.398 126.842 218.353 126.057 219.562C125.272 220.771 124.856 222.182 124.857 223.623H147.697C147.573 221.87 146.788 220.228 145.502 219.03C144.215 217.831 142.522 217.164 140.763 217.164Z" fill="#3F3D56"/>
<path d="M259.562 217.164C258.346 217.164 257.151 217.484 256.098 218.093C255.029 217.126 253.701 216.49 252.278 216.263C250.854 216.036 249.395 216.226 248.077 216.812C246.76 217.398 245.641 218.353 244.856 219.562C244.071 220.771 243.654 222.182 243.656 223.623H266.496C266.372 221.87 265.587 220.228 264.3 219.03C263.014 217.831 261.321 217.164 259.562 217.164Z" fill="#3F3D56"/>
<path d="M234.494 200.855H168.6V202.98H178.876V223.167H181.002V202.98H221.029V223.167H223.155V202.98H234.494V200.855Z" fill="#3F3D56"/>
<path d="M234.623 194.498H168.729V196.623H234.623V194.498Z" fill="#3F3D56"/>
<path d="M234.623 189.186H168.729V191.31H234.623V189.186Z" fill="#3F3D56"/>
<path d="M234.623 183.873H168.729V185.998H234.623V183.873Z" fill="#3F3D56"/>
<path d="M337.385 200.855H271.49V202.98H281.767V223.167H283.892V202.98H323.919V223.167H326.045V202.98H337.385V200.855Z" fill="#3F3D56"/>
<path d="M337.516 194.498H271.621V196.623H337.516V194.498Z" fill="#3F3D56"/>
<path d="M337.516 189.186H271.621V191.31H337.516V189.186Z" fill="#3F3D56"/>
<path d="M337.516 183.873H271.621V185.998H337.516V183.873Z" fill="#3F3D56"/>
</g>
<defs>
<clipPath id="clip0">
<rect width="496" height="224" fill="white"/>
</clipPath>
</defs>
</svg>
