<svg width="30" height="33" viewBox="0 0 30 33" fill="none" xmlns="http://www.w3.org/2000/svg">
<path d="M21.3706 19.7006C22.3996 17.8626 22.9439 15.7522 22.9437 13.6003C22.9437 7.08148 18.0934 1.80283 12.0978 1.80023C6.10768 1.80218 1.25195 7.08148 1.25195 13.599C1.25195 20.1107 6.10827 25.3894 12.1014 25.3894C14.1575 25.3894 16.0731 24.7576 17.7103 23.6779L25.0877 31.7002L28.7462 27.7196L21.3706 19.7006ZM12.1002 20.8972C8.39329 20.8875 5.39641 17.6297 5.38984 13.6068C5.39237 11.6721 6.10013 9.81743 7.35799 8.44926C8.61585 7.0811 10.3212 6.31108 12.1002 6.30798C15.8054 6.31838 18.8034 9.57618 18.8112 13.6068C18.8034 17.6251 15.8042 20.8875 12.1002 20.8972Z" fill="#0FC662"/>
</svg>
