<svg width="569" height="643" viewBox="0 0 569 643" fill="none" xmlns="http://www.w3.org/2000/svg">
<ellipse cx="270" cy="257.5" rx="265" ry="257.5" fill="#CFEEDD"/>
<ellipse cx="135" cy="514.5" rx="135" ry="128.5" fill="#0FCA64" fill-opacity="0.48"/>
<g clip-path="url(#clip0)">
<path d="M242.799 119.921L226.28 120.652C226.28 120.652 210.265 117.514 207.594 119.114C205.225 120.526 194.843 123.802 195.612 125.414C196.38 127.027 205.515 124.482 205.515 124.482C205.515 124.482 201.823 126.183 203.386 127.355C204.948 128.527 210.568 124.671 212.319 125.251C214.071 125.83 246.667 127.619 246.667 127.619" fill="#FAA590"/>
<path d="M225.335 125.364C220.973 126.124 216.489 125.742 212.319 124.255C211.551 123.991 211.223 125.2 211.979 125.515C216.368 127.062 221.082 127.444 225.663 126.624C226.469 126.448 226.129 125.225 225.335 125.364Z" fill="#FAA590"/>
<path d="M306.492 92.3394C306.492 92.3394 319.596 97.518 319.81 106.968C320.024 116.418 321.775 117.955 329.222 120.148C336.669 122.34 343.964 123.928 344.342 129.371C344.72 134.814 331.855 139.904 324.736 142.5C317.617 145.096 295.328 122.441 296.739 113.633" fill="#E8601C"/>
<path d="M82.5139 291.293L314.241 425.08C317.719 427.082 321.666 428.125 325.679 428.103C329.693 428.081 333.628 426.995 337.084 424.954L521.322 315.826C522.196 315.307 522.921 314.57 523.425 313.686C523.928 312.802 524.193 311.803 524.193 310.786C524.193 309.769 523.928 308.769 523.425 307.885C522.921 307.002 522.196 306.264 521.322 305.746C480.371 282.133 307.789 182.694 279.717 166.768C278.556 166.097 277.239 165.745 275.899 165.745C274.558 165.745 273.242 166.097 272.081 166.768L82.4761 278.089C81.3221 278.763 80.3654 279.729 79.7018 280.89C79.0383 282.051 78.691 283.365 78.6949 284.702C78.6987 286.039 79.0534 287.351 79.7236 288.508C80.3939 289.665 81.356 290.625 82.5139 291.293Z" fill="#DAF2E9"/>
<path opacity="0.48" d="M257.503 392.32L186.666 353.122L254.605 313.86L329.6 347.515L277.612 378.12C269.649 383.021 265.34 387.268 257.503 392.32Z" fill="url(#paint0_linear)"/>
<path opacity="0.48" d="M475.092 321.08L400.122 287.488L332.183 326.687L403.638 365.47L475.092 321.08Z" fill="url(#paint1_linear)"/>
<path opacity="0.48" d="M125.304 314.729L87.5037 291.659L151.297 258.281L192.966 272.356L144.594 302.318C136.631 307.157 133.141 309.677 125.304 314.729Z" fill="url(#paint2_linear)"/>
<path d="M430.45 214.345L439.157 218.995L415.393 241.372L394.44 247.949L387.459 238.487" fill="#FFE8BC"/>
<path d="M397.64 243.187L389.563 238.588L430.45 214.345L429.493 213.791L387.459 238.487V301.562L396.619 306.779L400.122 303.137" fill="#0C572C"/>
<path opacity="0.42" d="M397.64 243.187L389.563 238.588L430.45 214.345L429.493 213.791L387.459 238.487V301.562L396.619 306.779L400.122 303.137" fill="#1371A5"/>
<path d="M439.157 218.995L396.619 243.779V306.779L439.825 280.961L439.157 218.995Z" fill="#0C572C"/>
<path d="M398.232 239.646L400.828 241.284V254.716L402.478 252.611L403.638 253.922V239.696L401.206 237.945L398.232 239.646Z" fill="#E85858"/>
<path d="M442.597 221.603L451.303 226.24L427.54 248.617L406.586 255.207L399.606 245.744" fill="#FFE8BC"/>
<path d="M409.786 250.444L401.71 245.845L442.597 221.603L441.639 221.048L399.606 245.744V308.82L408.766 314.036L412.269 310.382" fill="#0C572C"/>
<path opacity="0.42" d="M409.786 250.444L401.71 245.845L442.597 221.603L441.639 221.048L399.606 245.744V308.82L408.766 314.036L412.269 310.382" fill="#1371A5"/>
<path d="M451.303 226.24L408.766 251.036V314.036L451.971 288.219L451.303 226.24Z" fill="#0C572C"/>
<path d="M410.379 246.891L412.974 248.542V261.973L414.625 259.856L415.784 261.167V246.941L413.352 245.203L410.379 246.891Z" fill="#E85858"/>
<path d="M456.079 228.23L464.773 232.867L441.009 255.245L420.055 261.835L413.088 252.372" fill="#FFE8BC"/>
<path d="M423.268 257.072L415.179 252.473L456.079 228.23L455.109 227.676L413.088 252.372V315.448L422.248 320.664L425.751 317.01" fill="#0C572C"/>
<path opacity="0.42" d="M423.268 257.072L415.179 252.473L456.079 228.23L455.109 227.676L413.088 252.372V315.448L422.248 320.664L425.751 317.01" fill="#1371A5"/>
<path d="M464.773 232.867L422.248 257.664V320.664L465.453 294.847L464.773 232.867Z" fill="#0C572C"/>
<path d="M423.861 253.531L426.456 255.169V268.601L428.107 266.497L429.266 267.794V253.582L426.834 251.83L423.861 253.531Z" fill="#E85858"/>
<path d="M415.469 317.388C415.318 317.388 413.919 316.834 415.091 315.939C415.867 315.336 416.679 314.78 417.523 314.276" fill="#E27825"/>
<path d="M415.469 310.004C415.469 310.004 416.641 314.339 415.469 316.657L431.408 326.019L447.171 335.141V328.4" fill="#FFE8BC"/>
<path d="M414.94 309.337C414.94 309.639 414.978 309.941 415.053 310.244L447.171 328.413V335.154L415.078 316.38C415.078 316.645 415.078 316.909 415.078 317.174L448.405 336.54V327.355L414.94 309.337Z" fill="#E27825"/>
<path d="M415.116 309.45L448.229 328.35L494.66 301.121L462.253 282.536C461.763 282.251 461.207 282.1 460.64 282.1C460.073 282.1 459.517 282.251 459.027 282.536L415.053 308.593C414.976 308.639 414.913 308.704 414.872 308.784C414.83 308.863 414.812 308.952 414.818 309.041C414.825 309.13 414.856 309.216 414.909 309.288C414.961 309.36 415.033 309.417 415.116 309.45Z" fill="#FDBA45"/>
<path d="M448.405 336.54C448.405 336.54 494.849 309.185 494.71 309.059C494.572 308.933 494.71 301.147 494.71 301.147L448.242 328.426L448.405 336.54Z" fill="#E27825"/>
<path d="M415.116 308.618C414.981 308.717 414.869 308.844 414.786 308.989C414.704 309.135 414.653 309.296 414.637 309.463C414.637 310.03 415.179 310.307 415.393 310.42" fill="#FDBA45"/>
<path d="M415.595 305.04C415.444 305.04 414.045 304.486 415.217 303.591C415.993 302.988 416.805 302.432 417.649 301.928" fill="#E27825"/>
<path d="M415.595 297.631C415.595 297.631 416.767 301.966 415.595 304.284L431.534 313.646L447.297 322.768V316.027" fill="#FFE8BC"/>
<path d="M415.066 296.951C415.066 297.253 415.104 297.556 415.179 297.858L447.297 316.027V322.768L415.204 304.057C415.204 304.322 415.204 304.586 415.204 304.851L448.544 324.142V314.956L415.066 296.951Z" fill="#E27825"/>
<path d="M415.28 297.077L448.393 315.977L494.862 288.698L462.454 270.113C461.965 269.827 461.408 269.677 460.842 269.677C460.275 269.677 459.718 269.827 459.229 270.113L415.28 296.22C415.2 296.26 415.133 296.321 415.087 296.397C415.04 296.472 415.015 296.559 415.015 296.648C415.015 296.737 415.04 296.825 415.087 296.9C415.133 296.976 415.2 297.037 415.28 297.077Z" fill="#FDBA45"/>
<path d="M448.531 324.142C448.531 324.142 494.975 296.787 494.836 296.661C494.698 296.535 494.836 288.748 494.836 288.748L448.368 316.027L448.531 324.142Z" fill="#E27825"/>
<path d="M415.28 296.22C415.145 296.319 415.033 296.445 414.95 296.591C414.868 296.736 414.817 296.898 414.801 297.064C414.801 297.631 415.343 297.908 415.557 298.022" fill="#FDBA45"/>
<path d="M415.595 292.364C415.444 292.364 414.045 291.81 415.217 290.915C415.993 290.312 416.805 289.757 417.649 289.252" fill="#E27825"/>
<path d="M415.595 284.981C415.595 284.981 416.767 289.315 415.595 291.634L431.534 300.995L447.297 310.08V303.339" fill="#FFE8BC"/>
<path d="M415.066 284.3C415.066 284.603 415.104 284.905 415.179 285.208L447.297 303.377V310.08L415.204 291.369C415.204 291.634 415.204 291.898 415.204 292.163L448.544 311.453V302.268L415.066 284.3Z" fill="#E27825"/>
<path d="M415.28 284.426L448.393 303.326L494.836 276.06L462.429 257.475C461.94 257.189 461.383 257.039 460.816 257.039C460.25 257.039 459.693 257.189 459.204 257.475L415.28 283.62C415.212 283.663 415.157 283.723 415.118 283.793C415.08 283.864 415.059 283.943 415.059 284.023C415.059 284.104 415.08 284.183 415.118 284.253C415.157 284.323 415.212 284.383 415.28 284.426Z" fill="#FDBA45"/>
<path d="M448.531 311.491C448.531 311.491 494.975 284.137 494.836 284.011C494.698 283.885 494.836 276.098 494.836 276.098L448.368 303.377L448.531 311.491Z" fill="#E27825"/>
<path d="M415.28 283.62C415.145 283.719 415.033 283.845 414.95 283.991C414.868 284.136 414.817 284.298 414.801 284.464C414.801 285.031 415.343 285.308 415.557 285.422" fill="#FDBA45"/>
<path d="M210.543 339.236C210.228 339.236 207.393 338.102 209.774 336.275C211.358 335.045 213.016 333.913 214.738 332.886" fill="#9A433A"/>
<path d="M210.542 324.192C210.542 324.192 212.924 333.012 210.542 337.737L242.987 356.813L275.08 375.386V361.664" fill="#FFE8BC"/>
<path d="M209.472 322.819C209.547 323.432 209.623 324.045 209.698 324.658L275.092 361.664V375.386L209.761 337.283C209.761 337.825 209.761 338.367 209.761 338.909L277.612 378.12V359.472L209.472 322.819Z" fill="#9A433A"/>
<path d="M209.837 323.058L277.272 361.652L371.898 306.098L305.912 268.298C304.918 267.718 303.787 267.413 302.636 267.413C301.485 267.413 300.354 267.718 299.36 268.298L209.824 321.42C209.69 321.511 209.58 321.633 209.504 321.777C209.429 321.92 209.39 322.08 209.391 322.242C209.392 322.405 209.434 322.564 209.512 322.706C209.589 322.849 209.701 322.969 209.837 323.058Z" fill="#F26250"/>
<path d="M277.612 378.12C277.612 378.12 372.112 322.428 371.886 322.163C371.659 321.899 371.886 306.048 371.886 306.048L277.26 361.601L277.612 378.12Z" fill="#9A433A"/>
<path d="M209.824 321.42C209.549 321.62 209.319 321.876 209.149 322.171C208.98 322.467 208.875 322.795 208.842 323.134C208.728 324.28 209.95 324.847 210.379 325.087" fill="#F26250"/>
<path d="M287.894 324.242C305.041 324.242 318.94 319.814 318.94 314.351C318.94 308.889 305.041 304.46 287.894 304.46C270.748 304.46 256.848 308.889 256.848 314.351C256.848 319.814 270.748 324.242 287.894 324.242Z" fill="#9A433A"/>
<path d="M344.544 178.523C344.544 178.523 350.957 172.375 355.821 172.438C360.684 172.501 369.24 173.698 369.882 170.85C370.525 168.002 361.768 163.63 358.391 162.521C355.014 161.413 344.531 167.662 343.813 166.516C343.095 165.369 350.264 160.216 350.264 160.216C350.264 160.216 345.489 158.288 345.325 158.565C345.161 158.842 336.896 168.242 335.358 172.652C333.821 177.062 344.544 178.523 344.544 178.523Z" fill="#1A1A1A"/>
<path d="M282.854 271.423C282.854 271.423 282.564 280.357 279.074 283.746C275.584 287.135 268.515 292.289 270.065 294.796C271.615 297.304 280.989 294.28 284.19 292.692C287.39 291.104 290.49 279.26 291.876 279.55C293.262 279.84 291.699 288.66 291.699 288.66C291.699 288.66 296.487 286.694 296.412 286.354C296.336 286.014 295.668 273.452 293.665 269.206C291.661 264.959 282.854 271.423 282.854 271.423Z" fill="#1A1A1A"/>
<path d="M390.08 97.1399L354.346 71.4233C352.576 72.3059 351.019 73.5633 349.783 75.1081C348.547 76.6529 347.662 78.4482 347.19 80.3693L382.911 106.099C385.292 103.1 387.736 100.177 390.08 97.1399Z" fill="#FDDF33"/>
<path d="M353.379 77.7852C355.23 75.2162 355.577 72.3026 354.154 71.2776C352.731 70.2525 350.077 71.5041 348.227 74.0731C346.376 76.6421 346.029 79.5557 347.452 80.5807C348.875 81.6058 351.528 80.3542 353.379 77.7852Z" fill="#FDDF33"/>
<path d="M389.092 103.517C390.943 100.948 391.29 98.0343 389.867 97.0093C388.444 95.9842 385.791 97.2358 383.94 99.8048C382.089 102.374 381.742 105.287 383.165 106.312C384.588 107.337 387.242 106.086 389.092 103.517Z" fill="#FCCD35"/>
<path d="M367.639 87.8413C368.219 85.5607 365.384 84.9559 363.859 84.9307C362.61 84.7957 361.351 85.0886 360.289 85.7615C359.227 86.4343 358.425 87.4473 358.013 88.6351C356.425 92.9065 357.181 97.3417 354.649 101.449C354.17 102.218 355.317 103.062 355.795 102.281C356.222 101.583 356.597 100.854 356.917 100.101C356.652 100.958 356.388 101.827 356.148 102.697C356.119 102.798 356.112 102.904 356.127 103.009C356.142 103.113 356.18 103.213 356.236 103.301L355.997 104.108C355.957 104.235 355.952 104.37 355.983 104.499C356.015 104.628 356.08 104.746 356.174 104.841C356.267 104.936 356.384 105.003 356.513 105.036C356.642 105.069 356.777 105.066 356.904 105.028L356.463 105.796C356.353 105.948 356.308 106.138 356.337 106.323C356.367 106.509 356.469 106.675 356.621 106.785C356.773 106.896 356.962 106.941 357.148 106.911C357.333 106.882 357.499 106.78 357.61 106.628L357.685 106.527C357.912 106.968 358.53 107.195 358.845 106.666C360.132 104.379 361.571 102.182 363.154 100.088C364.314 98.9038 365.177 97.4618 365.674 95.8801C365.902 94.7269 365.774 93.5316 365.305 92.4533C364.837 91.3751 364.051 90.4651 363.053 89.8447C364.88 89.8951 367.186 89.5801 367.639 87.8413Z" fill="#FAA590"/>
<path d="M264.168 114.616C255.915 116.128 236.612 116.506 223.76 116.569C221.836 125.747 220.97 135.115 221.177 144.491C234.193 146.204 254.895 147.364 270.96 140.925L292.38 113.117C282.949 112.534 273.483 113.037 264.168 114.616Z" fill="#1A1A1A"/>
<path d="M290.427 112.94C290.49 113.495 258.486 189.977 257.503 244.472C257.503 244.472 285.702 217.722 301.124 205.084" fill="#1A1A1A"/>
<path d="M281.72 160.745C281.833 159.573 280.712 115.637 291.283 113.57C301.855 111.504 315.387 121.08 315.475 126.372C315.564 131.664 306.177 163.555 298.73 163.668C291.283 163.781 281.72 160.745 281.72 160.745Z" fill="#0C572C"/>
<path d="M281.72 145.852C278.885 149.178 260.905 199.238 260.842 211.51C260.779 223.783 281.645 271.524 284.24 272.519C286.836 273.515 292.216 270.869 293.186 268.538C294.156 266.207 281.279 217.306 281.279 217.306C281.279 217.306 298.226 177.641 295.769 168.065C293.312 158.489 281.72 145.852 281.72 145.852Z" fill="#0C572C"/>
<path d="M291.258 160.455C291.006 161.463 292.178 205.324 296.676 210.855C301.174 216.386 312.212 218.037 317.781 212.984C323.35 207.932 346.975 178.347 344.14 176.444C342.849 175.531 341.387 174.886 339.842 174.546C338.297 174.206 336.7 174.179 335.144 174.466C331.729 174.907 310.889 198.331 310.889 198.331C310.889 198.331 311.393 152.756 306.92 147.994" fill="#0C572C"/>
<path d="M302.724 115.095C302.724 115.095 294.471 169.653 303.115 185.416C308.988 195.708 316.101 205.242 324.295 213.803C324.295 213.803 348.374 204.605 350.226 201.544C352.078 198.482 322.809 172.261 321.246 164.248C319.684 156.234 322.405 128.653 318.21 124.709C314.014 120.765 302.724 115.095 302.724 115.095Z" fill="#1A1A1A"/>
<path d="M302.724 115.095C302.724 115.095 321.927 123.461 328 122.264C334.073 121.067 354.548 100.492 355.997 98.8788C355.997 98.8788 372.188 113.696 373.385 119.429C373.385 119.429 349.621 144.125 339.718 147.263C329.814 150.4 312.338 146.822 312.338 146.822" fill="#1A1A1A"/>
<path d="M271.489 183.211C277.864 159.271 284.92 135.431 296.689 113.621C285.701 111.491 281.569 114.087 281.569 114.087C265.617 125.351 234.394 221.187 234.394 221.187C234.76 230.007 252.387 241.347 256.545 243.968C260.375 223.442 266.134 203.282 271.489 183.211Z" fill="#303030"/>
<path d="M294.207 96.4721C294.207 96.4721 290.716 110.698 295.152 113.873C299.587 117.048 309.15 110.509 310.839 103.868C312.527 97.2281 298.906 88.9751 294.207 96.4721Z" fill="#FAA590"/>
<path d="M303.241 100.429C303.241 100.429 302.649 105.204 304.148 106.968C305.647 108.732 299.877 114.465 308.722 117.527C317.567 120.589 314.543 101.84 312.59 100.441" fill="#E8601C"/>
<path d="M312.613 100.444C312.939 98.7993 309.014 96.6355 303.847 95.6114C298.679 94.5873 294.226 95.0907 293.9 96.7358C293.574 98.3809 297.499 100.545 302.666 101.569C307.833 102.593 312.287 102.089 312.613 100.444Z" fill="#1A1A1A"/>
<path d="M293.892 96.7242L295.895 88.005L314.404 91.1172L312.59 100.441" fill="#1A1A1A"/>
<path d="M285.223 84.5022L304.476 98.274L325.984 88.6224L305.874 74.334L285.223 84.5022Z" fill="#1A1A1A"/>
<path d="M306.504 87.1734L314.934 94.7334L313.22 102.583C313.22 102.583 311.746 103.44 311.179 106.968C312.506 107.631 314.031 107.784 315.463 107.396C315.651 106.516 315.588 105.599 315.281 104.753C314.973 103.906 314.434 103.163 313.724 102.608L315.463 94.62L306.819 86.7324C306.819 86.7324 306.429 86.6316 306.504 87.1734Z" fill="#FEDB26"/>
<path d="M132.435 196.504C132.435 196.504 136.694 234.48 158.467 237.529C180.24 240.578 188.934 205.626 188.19 196.491" fill="#FDBA45"/>
<path d="M188.228 269.243C188.228 269.243 183.969 231.229 162.196 228.18C140.424 225.131 131.78 260.121 132.486 269.243" fill="#FDBA45"/>
<path d="M160.332 277.106C175.724 277.106 188.203 273.586 188.203 269.243C188.203 264.901 175.724 261.381 160.332 261.381C144.939 261.381 132.46 264.901 132.46 269.243C132.46 273.586 144.939 277.106 160.332 277.106Z" fill="#FDBA45"/>
<path d="M160.332 206.899C175.724 206.899 188.203 203.379 188.203 199.036C188.203 194.694 175.724 191.174 160.332 191.174C144.939 191.174 132.46 194.694 132.46 199.036C132.46 203.379 144.939 206.899 160.332 206.899Z" fill="#486B11"/>
<path d="M132.46 199.036V196.504L134.086 197.247L132.46 199.036Z" fill="#486B11"/>
<path d="M188.203 196.504V199.024L186.943 200.044V197.764" fill="#486B11"/>
<path d="M160.332 204.366C175.724 204.366 188.203 200.846 188.203 196.504C188.203 192.161 175.724 188.641 160.332 188.641C144.939 188.641 132.46 192.161 132.46 196.504C132.46 200.846 144.939 204.366 160.332 204.366Z" fill="#577F22"/>
<path d="M138.66 213.514C138.66 213.514 145.312 229.075 152.116 231.506C158.92 233.938 167.236 234.115 173.675 228.029C177.75 223.99 180.759 219.002 182.432 213.514C180.243 212.231 177.708 211.663 175.181 211.889C172.654 212.115 170.26 213.123 168.333 214.774C161.365 220.607 160.231 221.905 155.203 218.554C150.176 215.202 142.868 210.754 138.66 213.514Z" fill="#D68B13"/>
<path d="M138.004 267.303C138.004 267.303 151.209 243.363 160.332 244.799C169.454 246.236 182.419 268.311 182.419 268.311C182.419 268.311 160.332 277.106 138.004 267.303Z" fill="#D68B13"/>
<path d="M451.001 153.084C451.001 153.084 462.782 187.243 462.253 187.671C461.724 188.099 455.688 183.248 455.146 183.513C453.72 185.235 452.403 187.044 451.203 188.931L440.241 155.239" fill="#E8601C"/>
<path d="M432.24 149.884L425.763 181.787C425.763 181.787 433.399 175.487 433.323 176.104C433.248 176.722 434.331 183.664 434.331 183.664L443.517 151.32" fill="#E8601C"/>
<path d="M444.721 162.193C453.303 161.235 459.266 151.544 458.038 140.548C456.81 129.552 448.858 121.415 440.275 122.373C431.693 123.331 425.73 133.022 426.958 144.018C428.185 155.014 436.138 163.152 444.721 162.193Z" fill="#EAB41B"/>
<path d="M442.679 162.419C451.262 161.46 457.224 151.77 455.997 140.773C454.769 129.777 446.816 121.64 438.234 122.598C429.651 123.556 423.689 133.247 424.917 144.243C426.144 155.239 434.097 163.377 442.679 162.419Z" fill="#FCCD35"/>
</g>
<defs>
<linearGradient id="paint0_linear" x1="230.161" y1="384.798" x2="249.212" y2="361.299" gradientUnits="userSpaceOnUse">
<stop offset="0.01" stop-color="white" stop-opacity="0"/>
<stop offset="1" stop-color="#00A99D"/>
</linearGradient>
<linearGradient id="paint1_linear" x1="36596.8" y1="19116.1" x2="37976.6" y2="15323.1" gradientUnits="userSpaceOnUse">
<stop offset="0.01" stop-color="white" stop-opacity="0"/>
<stop offset="1" stop-color="#00A99D"/>
</linearGradient>
<linearGradient id="paint2_linear" x1="4983.05" y1="11869.6" x2="5857.28" y2="9420.37" gradientUnits="userSpaceOnUse">
<stop offset="0.01" stop-color="white" stop-opacity="0"/>
<stop offset="1" stop-color="#00A99D"/>
</linearGradient>
<clipPath id="clip0">
<rect width="504" height="378" fill="white" transform="translate(65 48)"/>
</clipPath>
</defs>
</svg>
