<svg width="28" height="31" viewBox="0 0 28 31" fill="none" xmlns="http://www.w3.org/2000/svg">
<path d="M27.3164 9.59376C27.3143 9.48847 27.3012 9.38378 27.2775 9.28168C27.2681 9.24522 27.2493 9.21022 27.2373 9.17376C27.2091 9.09063 27.1836 9.00897 27.1434 8.93313C27.122 8.89376 27.0924 8.86168 27.067 8.82376C27.0241 8.75813 26.9825 8.69105 26.9302 8.63418C26.8993 8.60209 26.8591 8.57584 26.8256 8.54522C26.7733 8.49855 26.725 8.44751 26.6647 8.40813C26.6593 8.40376 26.6526 8.40376 26.6459 8.39938L26.6352 8.39063L14.5944 1.11355C14.3954 0.993567 14.1717 0.930493 13.9442 0.930238C13.7166 0.929983 13.4928 0.992555 13.2936 1.11209L1.19647 8.38918C1.19245 8.39355 1.18843 8.39938 1.18172 8.40376L1.16831 8.40959C1.12138 8.43876 1.08651 8.48105 1.04226 8.51605C0.993982 8.55543 0.943024 8.59043 0.900112 8.63563C0.859882 8.68084 0.829039 8.73334 0.794173 8.78438C0.757967 8.83543 0.717737 8.88063 0.688235 8.93605C0.653369 8.99876 0.634595 9.07022 0.609116 9.13876C0.590342 9.18688 0.566204 9.23209 0.554135 9.28459C0.530976 9.38484 0.517935 9.48752 0.515246 9.59084C0.513905 9.61563 0.505859 9.63751 0.505859 9.66376V21.3333C0.505859 21.8627 0.770036 22.3513 1.19647 22.6079L13.2359 29.8806L13.2373 29.8821L13.24 29.8836L13.2668 29.8996C13.3244 29.9346 13.3875 29.9536 13.4478 29.9783C13.4907 29.9973 13.5323 30.0221 13.5779 30.0352C13.8004 30.0976 14.0339 30.0976 14.2564 30.0352C14.3007 30.0221 14.3423 29.9973 14.3865 29.9783C14.4469 29.9536 14.5099 29.9361 14.5675 29.8996L14.5944 29.8836L14.597 29.8821L14.5984 29.8806L26.6378 22.6079C27.0616 22.3513 27.3258 21.8627 27.3258 21.3333V9.66376C27.3258 9.63897 27.3177 9.61855 27.3164 9.59376ZM13.8783 15.3133L4.60663 9.67397L8.31046 7.44563L17.4748 13.1404L13.8783 15.3133ZM13.9426 4.05647L23.2237 9.66668L20.2145 11.4852L11.0555 5.79334L13.9426 4.05647ZM15.2568 26.1473L15.2595 17.8654L19.2798 15.4183V19.875L21.9618 18.4167V13.7865L24.6438 12.1546V20.4744L15.2568 26.1473Z" fill="#0FC662"/>
</svg>
