<svg xmlns="http://www.w3.org/2000/svg" xmlns:xlink="http://www.w3.org/1999/xlink" viewBox="0 0 800 600"><defs><style>.cls-1{isolation:isolate;}.cls-2{fill:url(#linear-gradient);}.cls-3{fill:url(#linear-gradient-2);}.cls-4{fill:url(#linear-gradient-3);}.cls-5{fill:url(#linear-gradient-4);}.cls-6{fill:url(#linear-gradient-5);}.cls-7{fill:url(#linear-gradient-6);}.cls-8{fill:#3993a8;}.cls-9{fill:url(#linear-gradient-7);}.cls-10{fill:url(#linear-gradient-8);}.cls-11{fill:url(#linear-gradient-9);}.cls-12{fill:url(#linear-gradient-10);}.cls-13{fill:url(#linear-gradient-11);}.cls-14{fill:url(#linear-gradient-12);}.cls-15{fill:url(#linear-gradient-13);}.cls-16{fill:url(#linear-gradient-14);}.cls-17{fill:url(#linear-gradient-15);}.cls-18{fill:url(#linear-gradient-16);}.cls-19{fill:url(#linear-gradient-17);}.cls-20{fill:url(#linear-gradient-18);}.cls-21{fill:url(#linear-gradient-19);}.cls-22{fill:url(#linear-gradient-20);}.cls-23{fill:url(#linear-gradient-21);}.cls-24{fill:url(#linear-gradient-22);}.cls-25{fill:url(#linear-gradient-23);}.cls-26{fill:url(#linear-gradient-24);}.cls-27{fill:url(#linear-gradient-25);}.cls-28{fill:url(#linear-gradient-26);}.cls-29{fill:url(#linear-gradient-27);}.cls-119,.cls-30,.cls-31,.cls-32,.cls-50{mix-blend-mode:screen;}.cls-30,.cls-31,.cls-32{opacity:0.5;}.cls-30{fill:url(#linear-gradient-28);}.cls-31{fill:url(#linear-gradient-29);}.cls-32{fill:url(#linear-gradient-30);}.cls-33{fill:url(#linear-gradient-31);}.cls-34{fill:url(#linear-gradient-32);}.cls-35{fill:url(#linear-gradient-33);}.cls-36{fill:url(#linear-gradient-34);}.cls-37{fill:url(#linear-gradient-35);}.cls-38{fill:url(#linear-gradient-36);}.cls-39{fill:url(#linear-gradient-37);}.cls-40{fill:url(#linear-gradient-38);}.cls-41{fill:url(#linear-gradient-39);}.cls-42{fill:url(#linear-gradient-40);}.cls-43{fill:url(#linear-gradient-41);}.cls-44{fill:url(#linear-gradient-42);}.cls-45{fill:url(#linear-gradient-43);}.cls-46{fill:url(#linear-gradient-44);}.cls-47{fill:url(#linear-gradient-45);}.cls-48{fill:url(#linear-gradient-46);}.cls-49{fill:url(#linear-gradient-47);}.cls-50{opacity:0.67;fill:url(#linear-gradient-48);}.cls-51{fill:#ffdf7b;}.cls-52{fill:url(#linear-gradient-49);}.cls-101,.cls-102,.cls-108,.cls-53,.cls-63,.cls-66,.cls-70,.cls-74,.cls-76,.cls-82,.cls-86{opacity:0.4;}.cls-53{fill:url(#linear-gradient-50);}.cls-54{fill:url(#linear-gradient-51);}.cls-55{fill:url(#linear-gradient-52);}.cls-101,.cls-102,.cls-108,.cls-56,.cls-59,.cls-63,.cls-66,.cls-70,.cls-74,.cls-76,.cls-82,.cls-86{mix-blend-mode:multiply;}.cls-167,.cls-56,.cls-59{opacity:0.6;}.cls-56{fill:url(#linear-gradient-53);}.cls-57{fill:url(#linear-gradient-54);}.cls-58{fill:url(#linear-gradient-55);}.cls-59{fill:url(#linear-gradient-56);}.cls-60{fill:url(#linear-gradient-57);}.cls-61{fill:url(#linear-gradient-58);}.cls-62{fill:url(#linear-gradient-59);}.cls-63{fill:url(#linear-gradient-60);}.cls-64{fill:url(#New_Gradient_Swatch_copy_19);}.cls-65{fill:url(#New_Gradient_Swatch_copy_20);}.cls-66{fill:url(#New_Gradient_Swatch_copy_20-2);}.cls-67{fill:url(#New_Gradient_Swatch_copy_20-3);}.cls-68{fill:url(#New_Gradient_Swatch_copy_19-2);}.cls-69{fill:url(#New_Gradient_Swatch_copy_20-4);}.cls-70{fill:url(#New_Gradient_Swatch_copy_20-5);}.cls-71{fill:url(#linear-gradient-61);}.cls-72{fill:url(#New_Gradient_Swatch_copy_17);}.cls-73{fill:url(#New_Gradient_Swatch_copy_21);}.cls-74{fill:url(#New_Gradient_Swatch_copy_20-6);}.cls-75{fill:url(#New_Gradient_Swatch_copy_21-2);}.cls-76{fill:url(#New_Gradient_Swatch_copy_20-7);}.cls-77{fill:url(#New_Gradient_Swatch_copy_21-3);}.cls-78{fill:url(#linear-gradient-62);}.cls-79{fill:url(#New_Gradient_Swatch_copy_17-2);}.cls-80{fill:url(#New_Gradient_Swatch_copy_19-3);}.cls-81{fill:url(#New_Gradient_Swatch_copy_21-4);}.cls-82{fill:url(#New_Gradient_Swatch_copy_20-8);}.cls-83{fill:url(#linear-gradient-63);}.cls-84{fill:url(#New_Gradient_Swatch_copy_17-3);}.cls-85{fill:url(#New_Gradient_Swatch_copy_21-5);}.cls-86{fill:url(#New_Gradient_Swatch_copy_20-9);}.cls-87{fill:url(#linear-gradient-64);}.cls-88{fill:url(#linear-gradient-65);}.cls-89{fill:url(#linear-gradient-66);}.cls-90{fill:url(#linear-gradient-67);}.cls-91{fill:#e9faff;}.cls-92{fill:url(#linear-gradient-68);}.cls-93{fill:url(#linear-gradient-69);}.cls-94{fill:url(#linear-gradient-70);}.cls-95{fill:url(#linear-gradient-71);}.cls-96{fill:url(#linear-gradient-72);}.cls-97{fill:url(#New_Gradient_Swatch_copy_19-4);}.cls-98{fill:url(#linear-gradient-73);}.cls-99{fill:url(#linear-gradient-74);}.cls-100{fill:url(#linear-gradient-75);}.cls-102{fill:url(#linear-gradient-76);}.cls-103{fill:url(#linear-gradient-77);}.cls-104{fill:url(#linear-gradient-78);}.cls-105{fill:url(#linear-gradient-79);}.cls-106{fill:url(#linear-gradient-80);}.cls-107{fill:url(#linear-gradient-81);}.cls-108{fill:url(#linear-gradient-82);}.cls-109{fill:url(#New_Gradient_Swatch_copy_17-4);}.cls-110{fill:url(#linear-gradient-83);}.cls-111{fill:url(#linear-gradient-84);}.cls-112{fill:url(#linear-gradient-85);}.cls-113{fill:url(#linear-gradient-86);}.cls-114{fill:url(#linear-gradient-87);}.cls-115{fill:url(#linear-gradient-88);}.cls-116{fill:#0080ad;}.cls-117{fill:#113328;}.cls-118{fill:url(#linear-gradient-89);}.cls-119{fill:#b4cf68;opacity:0.44;}.cls-120{fill:url(#linear-gradient-90);}.cls-121{fill:url(#linear-gradient-91);}.cls-122{fill:url(#linear-gradient-92);}.cls-123{fill:url(#linear-gradient-93);}.cls-124{fill:url(#linear-gradient-94);}.cls-125{fill:url(#linear-gradient-95);}.cls-126{fill:url(#linear-gradient-96);}.cls-127{fill:url(#linear-gradient-97);}.cls-128{fill:url(#linear-gradient-98);}.cls-129{fill:url(#linear-gradient-99);}.cls-130{fill:url(#linear-gradient-100);}.cls-131{fill:url(#linear-gradient-101);}.cls-132{fill:url(#linear-gradient-102);}.cls-133{fill:url(#linear-gradient-103);}.cls-134{fill:url(#linear-gradient-104);}.cls-135{fill:url(#linear-gradient-105);}.cls-136{fill:url(#linear-gradient-106);}.cls-137{fill:url(#linear-gradient-107);}.cls-138{fill:url(#linear-gradient-108);}.cls-139{fill:url(#linear-gradient-109);}.cls-140{fill:url(#linear-gradient-110);}.cls-141{fill:url(#linear-gradient-111);}.cls-142{fill:url(#linear-gradient-112);}.cls-143{fill:url(#linear-gradient-113);}.cls-144{fill:url(#linear-gradient-114);}.cls-145{fill:url(#linear-gradient-115);}.cls-146{fill:url(#linear-gradient-116);}.cls-147{fill:url(#linear-gradient-117);}.cls-148{fill:url(#linear-gradient-118);}.cls-149{fill:url(#linear-gradient-119);}.cls-150{fill:url(#linear-gradient-120);}.cls-151{fill:url(#linear-gradient-121);}.cls-152{fill:url(#linear-gradient-122);}.cls-153{fill:url(#linear-gradient-123);}.cls-154{fill:url(#linear-gradient-124);}.cls-155{fill:url(#linear-gradient-125);}.cls-156{fill:url(#linear-gradient-126);}.cls-157{fill:#fff;}.cls-158{fill:url(#linear-gradient-127);}.cls-159{fill:url(#linear-gradient-128);}.cls-160{fill:url(#linear-gradient-129);}.cls-161{fill:url(#linear-gradient-130);}.cls-162{fill:url(#linear-gradient-131);}.cls-163{fill:url(#linear-gradient-132);}.cls-164{fill:url(#linear-gradient-133);}.cls-165{fill:url(#linear-gradient-134);}.cls-166{opacity:0.3;fill:url(#linear-gradient-135);}.cls-167{fill:url(#linear-gradient-136);}.cls-168{fill:url(#linear-gradient-137);}.cls-169{fill:url(#linear-gradient-138);}.cls-170{fill:url(#New_Gradient_Swatch_copy_17-5);}</style><linearGradient id="linear-gradient" x1="-326.64" y1="608.45" x2="-189.74" y2="608.45" gradientTransform="matrix(-0.87, 0.5, 1, 0.58, -179.91, 57.36)" gradientUnits="userSpaceOnUse"><stop offset="0" stop-color="#56aac1"/><stop offset="1" stop-color="#80c1d3"/></linearGradient><linearGradient id="linear-gradient-2" x1="-1311.12" y1="279.61" x2="-1275.1" y2="279.61" gradientTransform="matrix(-1, 0, 0, 1, -677.11, 0)" gradientUnits="userSpaceOnUse"><stop offset="0" stop-color="#95ccdc"/><stop offset="1" stop-color="#bfe3ed"/></linearGradient><linearGradient id="linear-gradient-3" x1="-326.64" y1="549.28" x2="-284.78" y2="549.28" gradientTransform="matrix(-0.87, 0.5, 1, 0.58, -179.91, 57.36)" gradientUnits="userSpaceOnUse"><stop offset="0" stop-color="#bfe3ed"/><stop offset="1" stop-color="#e9faff"/></linearGradient><linearGradient id="linear-gradient-4" x1="-295.33" y1="547.17" x2="-290.46" y2="547.17" gradientTransform="matrix(-0.87, 0.5, 1, 0.58, -179.91, 57.36)" gradientUnits="userSpaceOnUse"><stop offset="0" stop-color="#80c1d3"/><stop offset="1" stop-color="#bfe3ed"/></linearGradient><linearGradient id="linear-gradient-5" x1="-325.84" y1="560.3" x2="-290.46" y2="560.3" xlink:href="#linear-gradient"/><linearGradient id="linear-gradient-6" x1="-325.84" y1="545.06" x2="-295.33" y2="545.06" xlink:href="#linear-gradient-3"/><linearGradient id="linear-gradient-7" x1="738.44" y1="327.92" x2="743.28" y2="237.58" gradientTransform="translate(-111.73)" xlink:href="#linear-gradient-3"/><linearGradient id="linear-gradient-8" x1="739.3" y1="327.94" x2="741.46" y2="327.94" gradientTransform="translate(-111.73)" xlink:href="#linear-gradient-3"/><linearGradient id="linear-gradient-9" x1="712.25" y1="314.23" x2="717.08" y2="223.89" gradientTransform="translate(-111.73)" xlink:href="#linear-gradient-3"/><linearGradient id="linear-gradient-10" x1="713.1" y1="314.25" x2="715.26" y2="314.25" gradientTransform="translate(-111.73)" xlink:href="#linear-gradient-3"/><linearGradient id="linear-gradient-11" x1="-1175.2" y1="326.37" x2="-1170.37" y2="236.03" gradientTransform="matrix(-1, 0, 0, 1, -534.48, 0)" xlink:href="#linear-gradient-3"/><linearGradient id="linear-gradient-12" x1="-1174.35" y1="326.39" x2="-1172.19" y2="326.39" gradientTransform="matrix(-1, 0, 0, 1, -534.48, 0)" xlink:href="#linear-gradient-3"/><linearGradient id="linear-gradient-13" x1="-1180.16" y1="323.79" x2="-1175.33" y2="233.45" gradientTransform="matrix(-1, 0, 0, 1, -534.48, 0)" xlink:href="#linear-gradient-3"/><linearGradient id="linear-gradient-14" x1="-1179.31" y1="323.81" x2="-1177.15" y2="323.81" gradientTransform="matrix(-1, 0, 0, 1, -534.48, 0)" xlink:href="#linear-gradient-3"/><linearGradient id="linear-gradient-15" x1="-1185.13" y1="321.21" x2="-1180.29" y2="230.87" gradientTransform="matrix(-1, 0, 0, 1, -534.48, 0)" xlink:href="#linear-gradient-3"/><linearGradient id="linear-gradient-16" x1="-1184.27" y1="321.23" x2="-1182.11" y2="321.23" gradientTransform="matrix(-1, 0, 0, 1, -534.48, 0)" xlink:href="#linear-gradient-3"/><linearGradient id="linear-gradient-17" x1="-1190.09" y1="318.63" x2="-1185.26" y2="228.29" gradientTransform="matrix(-1, 0, 0, 1, -534.48, 0)" xlink:href="#linear-gradient-3"/><linearGradient id="linear-gradient-18" x1="-1189.24" y1="318.65" x2="-1187.08" y2="318.65" gradientTransform="matrix(-1, 0, 0, 1, -534.48, 0)" xlink:href="#linear-gradient-3"/><linearGradient id="linear-gradient-19" x1="-1195.05" y1="316.05" x2="-1190.22" y2="225.71" gradientTransform="matrix(-1, 0, 0, 1, -534.48, 0)" xlink:href="#linear-gradient-3"/><linearGradient id="linear-gradient-20" x1="-1194.2" y1="316.07" x2="-1192.04" y2="316.07" gradientTransform="matrix(-1, 0, 0, 1, -534.48, 0)" xlink:href="#linear-gradient-3"/><linearGradient id="linear-gradient-21" x1="-1200.01" y1="313.48" x2="-1195.18" y2="223.14" gradientTransform="matrix(-1, 0, 0, 1, -534.48, 0)" xlink:href="#linear-gradient-3"/><linearGradient id="linear-gradient-22" x1="-1199.16" y1="313.49" x2="-1197" y2="313.49" gradientTransform="matrix(-1, 0, 0, 1, -534.48, 0)" xlink:href="#linear-gradient-3"/><linearGradient id="linear-gradient-23" x1="-1301.43" y1="256.66" x2="-1274.8" y2="256.66" gradientTransform="matrix(-1, 0, 0, 1, -677.11, 0)" xlink:href="#linear-gradient-3"/><linearGradient id="linear-gradient-24" x1="-1299.33" y1="256.66" x2="-1276.91" y2="256.66" gradientTransform="matrix(-1, 0, 0, 1, -677.11, 0)" xlink:href="#linear-gradient"/><linearGradient id="linear-gradient-25" x1="-1298.26" y1="257.28" x2="-1277.98" y2="257.28" gradientTransform="matrix(-1, 0, 0, 1, -677.11, 0)" xlink:href="#linear-gradient-4"/><linearGradient id="linear-gradient-26" x1="-1301.43" y1="298.21" x2="-1291.01" y2="298.21" gradientTransform="matrix(-1, 0, 0, 1, -677.11, 0)" xlink:href="#linear-gradient"/><linearGradient id="linear-gradient-27" x1="-1291.01" y1="296.54" x2="-1274.8" y2="296.54" xlink:href="#linear-gradient-2"/><linearGradient id="linear-gradient-28" x1="-1290.82" y1="221.08" x2="-1303.65" y2="282.89" gradientTransform="matrix(-1, 0, 0, 1, -677.11, 0)" gradientUnits="userSpaceOnUse"><stop offset="0" stop-color="#95ccdc"/><stop offset="1" stop-color="#bfe3ed" stop-opacity="0"/></linearGradient><linearGradient id="linear-gradient-29" x1="-1272.04" y1="236.55" x2="-1279.17" y2="252.9" xlink:href="#linear-gradient-28"/><linearGradient id="linear-gradient-30" x1="-1276.28" y1="247.87" x2="-1297.23" y2="295.85" xlink:href="#linear-gradient-28"/><linearGradient id="linear-gradient-31" x1="720.49" y1="332.42" x2="724.45" y2="258.55" gradientTransform="translate(-111.73)" xlink:href="#linear-gradient-3"/><linearGradient id="linear-gradient-32" x1="720.96" y1="332.44" x2="723.12" y2="332.44" gradientTransform="translate(-111.73)" xlink:href="#linear-gradient-3"/><linearGradient id="linear-gradient-33" x1="715.53" y1="329.84" x2="719.48" y2="255.97" gradientTransform="translate(-111.73)" xlink:href="#linear-gradient-3"/><linearGradient id="linear-gradient-34" x1="715.99" y1="329.86" x2="718.15" y2="329.86" gradientTransform="translate(-111.73)" xlink:href="#linear-gradient-3"/><linearGradient id="linear-gradient-35" x1="710.57" y1="327.27" x2="714.52" y2="253.39" gradientTransform="translate(-111.73)" xlink:href="#linear-gradient-3"/><linearGradient id="linear-gradient-36" x1="711.03" y1="327.28" x2="713.19" y2="327.28" gradientTransform="translate(-111.73)" xlink:href="#linear-gradient-3"/><linearGradient id="linear-gradient-37" x1="727.69" y1="255.25" x2="728.73" y2="235.77" gradientTransform="translate(-111.73)" xlink:href="#linear-gradient-3"/><linearGradient id="linear-gradient-38" x1="722.52" y1="251.77" x2="735.28" y2="251.77" gradientTransform="translate(-111.73)" xlink:href="#linear-gradient-3"/><linearGradient id="linear-gradient-39" x1="-933.35" y1="332.68" x2="-929.39" y2="258.81" gradientTransform="matrix(-1, 0, 0, 1, -315.42, 0)" xlink:href="#linear-gradient-3"/><linearGradient id="linear-gradient-40" x1="-932.89" y1="332.7" x2="-930.72" y2="332.7" gradientTransform="matrix(-1, 0, 0, 1, -315.42, 0)" xlink:href="#linear-gradient-3"/><linearGradient id="linear-gradient-41" x1="-938.31" y1="330.1" x2="-934.36" y2="256.23" gradientTransform="matrix(-1, 0, 0, 1, -315.42, 0)" xlink:href="#linear-gradient-3"/><linearGradient id="linear-gradient-42" x1="-937.85" y1="330.12" x2="-935.69" y2="330.12" gradientTransform="matrix(-1, 0, 0, 1, -315.42, 0)" xlink:href="#linear-gradient-3"/><linearGradient id="linear-gradient-43" x1="-1233.47" y1="318.78" x2="-1089.44" y2="318.78" gradientTransform="matrix(-1, 0, 0, 1, -644.21, 0)" gradientUnits="userSpaceOnUse"><stop offset="0" stop-color="#5e2d7d"/><stop offset="1" stop-color="#ab76cc"/></linearGradient><linearGradient id="linear-gradient-44" x1="-1233.3" y1="290.83" x2="-1089.44" y2="290.83" gradientTransform="matrix(-1, -0.01, -0.01, 1, -642.62, -6.29)" gradientUnits="userSpaceOnUse"><stop offset="0" stop-color="#be88e0"/><stop offset="1" stop-color="#efaa58"/></linearGradient><linearGradient id="linear-gradient-45" x1="-1212.64" y1="292.93" x2="-1110.26" y2="292.93" xlink:href="#linear-gradient-43"/><linearGradient id="linear-gradient-46" x1="-1212.52" y1="269.46" x2="-1110.26" y2="269.46" gradientTransform="matrix(-1, -0.01, -0.01, 1, -642.73, -6.29)" xlink:href="#linear-gradient-44"/><linearGradient id="linear-gradient-47" x1="-1252.43" y1="174.42" x2="-1063.71" y2="174.42" gradientTransform="matrix(-1, 0, 0, 1, -644.21, 0)" gradientUnits="userSpaceOnUse"><stop offset="0" stop-color="#ce4012"/><stop offset="1" stop-color="#efaa58"/></linearGradient><linearGradient id="linear-gradient-48" x1="-1240.23" y1="147.22" x2="-1067.2" y2="147.22" gradientTransform="matrix(-1, 0, 0, 1, -644.21, 0)" gradientUnits="userSpaceOnUse"><stop offset="0" stop-color="#efaa58"/><stop offset="1" stop-color="#f7c469"/></linearGradient><linearGradient id="linear-gradient-49" x1="453.06" y1="586.38" x2="358.89" y2="435.98" gradientUnits="userSpaceOnUse"><stop offset="0" stop-color="#56aac1"/><stop offset="1" stop-color="#56aac1" stop-opacity="0"/></linearGradient><linearGradient id="linear-gradient-50" x1="248.1" y1="422.89" x2="160.59" y2="283.14" xlink:href="#linear-gradient-49"/><linearGradient id="linear-gradient-51" x1="235.7" y1="355.96" x2="279.85" y2="355.96" gradientUnits="userSpaceOnUse"><stop offset="0" stop-color="#4b1b69"/><stop offset="1" stop-color="#8451a5"/></linearGradient><linearGradient id="linear-gradient-52" x1="202.72" y1="266.46" x2="265.8" y2="266.46" gradientUnits="userSpaceOnUse"><stop offset="0.02" stop-color="#3383be"/><stop offset="1" stop-color="#69bef7"/></linearGradient><linearGradient id="linear-gradient-53" x1="202.72" y1="266.46" x2="251.75" y2="266.46" xlink:href="#linear-gradient-52"/><linearGradient id="linear-gradient-54" x1="143.27" y1="364.21" x2="175.11" y2="364.21" xlink:href="#linear-gradient-51"/><linearGradient id="linear-gradient-55" x1="150.21" y1="266.54" x2="217.03" y2="266.54" xlink:href="#linear-gradient-52"/><linearGradient id="linear-gradient-56" x1="150.21" y1="264.67" x2="195.42" y2="264.67" xlink:href="#linear-gradient-52"/><linearGradient id="linear-gradient-57" x1="237.38" y1="133.25" x2="291.16" y2="133.25" gradientUnits="userSpaceOnUse"><stop offset="0.02" stop-color="#2d9ba1"/><stop offset="1" stop-color="#50d2d6"/></linearGradient><linearGradient id="linear-gradient-58" x1="264.19" y1="173.9" x2="291.52" y2="173.9" gradientUnits="userSpaceOnUse"><stop offset="0.02" stop-color="#22898f"/><stop offset="1" stop-color="#0b656c"/></linearGradient><linearGradient id="linear-gradient-59" x1="299.79" y1="207.45" x2="282.71" y2="174.22" gradientUnits="userSpaceOnUse"><stop offset="0.02" stop-color="#ffb994"/><stop offset="1" stop-color="#ff9785"/></linearGradient><linearGradient id="linear-gradient-60" x1="237.38" y1="135.6" x2="272.69" y2="135.6" xlink:href="#linear-gradient-57"/><linearGradient id="New_Gradient_Swatch_copy_19" x1="480.32" y1="533.1" x2="516.21" y2="533.1" gradientUnits="userSpaceOnUse"><stop offset="0" stop-color="#0f1128"/><stop offset="1" stop-color="#21233a"/></linearGradient><linearGradient id="New_Gradient_Swatch_copy_20" x1="418.48" y1="456.79" x2="496.46" y2="456.79" gradientUnits="userSpaceOnUse"><stop offset="0" stop-color="#2a2c43"/><stop offset="1" stop-color="#3c3e54"/></linearGradient><linearGradient id="New_Gradient_Swatch_copy_20-2" x1="418.48" y1="464.25" x2="488.02" y2="464.25" xlink:href="#New_Gradient_Swatch_copy_20"/><linearGradient id="New_Gradient_Swatch_copy_20-3" x1="493.02" y1="536.26" x2="516.21" y2="536.26" xlink:href="#New_Gradient_Swatch_copy_20"/><linearGradient id="New_Gradient_Swatch_copy_19-2" x1="328.93" y1="510.5" x2="381.62" y2="510.5" xlink:href="#New_Gradient_Swatch_copy_19"/><linearGradient id="New_Gradient_Swatch_copy_20-4" x1="343.72" y1="450.92" x2="451.56" y2="450.92" xlink:href="#New_Gradient_Swatch_copy_20"/><linearGradient id="New_Gradient_Swatch_copy_20-5" x1="343.72" y1="450.88" x2="451.17" y2="450.88" xlink:href="#New_Gradient_Swatch_copy_20"/><linearGradient id="linear-gradient-61" x1="367.52" y1="279.63" x2="395.13" y2="279.63" xlink:href="#linear-gradient-59"/><linearGradient id="New_Gradient_Swatch_copy_17" x1="389.43" y1="286.7" x2="398.49" y2="286.7" gradientUnits="userSpaceOnUse"><stop offset="0" stop-color="#dcddf0"/><stop offset="1" stop-color="#eaebf9"/></linearGradient><linearGradient id="New_Gradient_Swatch_copy_21" x1="390.68" y1="294.09" x2="414.11" y2="294.09" gradientUnits="userSpaceOnUse"><stop offset="0" stop-color="#3c3e54"/><stop offset="1" stop-color="#4e5066"/></linearGradient><linearGradient id="New_Gradient_Swatch_copy_20-6" x1="390.68" y1="294.09" x2="414.11" y2="294.09" xlink:href="#New_Gradient_Swatch_copy_20"/><linearGradient id="New_Gradient_Swatch_copy_21-2" x1="432.24" y1="304.37" x2="458.23" y2="304.37" xlink:href="#New_Gradient_Swatch_copy_21"/><linearGradient id="New_Gradient_Swatch_copy_20-7" x1="432.24" y1="304.37" x2="458.23" y2="304.37" xlink:href="#New_Gradient_Swatch_copy_20"/><linearGradient id="New_Gradient_Swatch_copy_21-3" x1="386.61" y1="349.84" x2="465.43" y2="349.84" xlink:href="#New_Gradient_Swatch_copy_21"/><linearGradient id="linear-gradient-62" x1="380.15" y1="261.6" x2="427.92" y2="261.6" xlink:href="#linear-gradient-59"/><linearGradient id="New_Gradient_Swatch_copy_17-2" x1="402.4" y1="288.76" x2="430.23" y2="288.76" xlink:href="#New_Gradient_Swatch_copy_17"/><linearGradient id="New_Gradient_Swatch_copy_19-3" x1="376.88" y1="253.67" x2="427.23" y2="253.67" xlink:href="#New_Gradient_Swatch_copy_19"/><linearGradient id="New_Gradient_Swatch_copy_21-4" x1="379.25" y1="267.76" x2="404.54" y2="267.76" xlink:href="#New_Gradient_Swatch_copy_21"/><linearGradient id="New_Gradient_Swatch_copy_20-8" x1="386.61" y1="364.57" x2="432.23" y2="364.57" xlink:href="#New_Gradient_Swatch_copy_20"/><linearGradient id="linear-gradient-63" x1="295.76" y1="314.93" x2="321.86" y2="314.93" xlink:href="#linear-gradient-59"/><linearGradient id="New_Gradient_Swatch_copy_17-3" x1="314.06" y1="324.93" x2="328.72" y2="324.93" xlink:href="#New_Gradient_Swatch_copy_17"/><linearGradient id="New_Gradient_Swatch_copy_21-5" x1="317.85" y1="330.04" x2="405.2" y2="330.04" xlink:href="#New_Gradient_Swatch_copy_21"/><linearGradient id="New_Gradient_Swatch_copy_20-9" x1="317.85" y1="334.06" x2="405.2" y2="334.06" xlink:href="#New_Gradient_Swatch_copy_20"/><linearGradient id="linear-gradient-64" x1="263.06" y1="218.31" x2="311.49" y2="218.31" xlink:href="#linear-gradient-59"/><linearGradient id="linear-gradient-65" x1="254" y1="237.1" x2="278.8" y2="237.1" gradientUnits="userSpaceOnUse"><stop offset="0" stop-color="#2d9ba1"/><stop offset="1" stop-color="#50d2d6"/></linearGradient><linearGradient id="linear-gradient-66" x1="252.81" y1="386.65" x2="279.94" y2="386.65" gradientUnits="userSpaceOnUse"><stop offset="0.02" stop-color="#c62500"/><stop offset="1" stop-color="#e78f46"/></linearGradient><linearGradient id="linear-gradient-67" x1="252.81" y1="385.53" x2="279.94" y2="385.53" xlink:href="#linear-gradient-51"/><linearGradient id="linear-gradient-68" x1="354.86" y1="83.15" x2="381.98" y2="83.15" gradientTransform="translate(-108.46 197.78) rotate(18.33)" xlink:href="#linear-gradient-66"/><linearGradient id="linear-gradient-69" x1="354.86" y1="82.04" x2="381.98" y2="82.04" gradientTransform="translate(-108.46 197.78) rotate(18.33)" xlink:href="#linear-gradient-51"/><linearGradient id="linear-gradient-70" x1="207.52" y1="309.71" x2="274.02" y2="309.71" xlink:href="#linear-gradient-65"/><linearGradient id="linear-gradient-71" x1="207.52" y1="309.72" x2="274.02" y2="309.72" xlink:href="#linear-gradient-66"/><linearGradient id="linear-gradient-72" x1="247.52" y1="224.36" x2="277.59" y2="224.36" xlink:href="#linear-gradient-59"/><linearGradient id="New_Gradient_Swatch_copy_19-4" x1="246.62" y1="215.74" x2="277.6" y2="215.74" xlink:href="#New_Gradient_Swatch_copy_19"/><linearGradient id="linear-gradient-73" x1="289.17" y1="316.86" x2="235.91" y2="271.2" xlink:href="#linear-gradient-59"/><linearGradient id="linear-gradient-74" x1="231.12" y1="261.9" x2="248.71" y2="261.9" gradientUnits="userSpaceOnUse"><stop offset="0" stop-color="#44c0c5"/><stop offset="1" stop-color="#5be4e8"/></linearGradient><linearGradient id="linear-gradient-75" x1="167.84" y1="149.88" x2="255.89" y2="149.88" xlink:href="#linear-gradient-57"/><linearGradient id="linear-gradient-76" x1="167.84" y1="139.47" x2="226.53" y2="139.47" xlink:href="#linear-gradient-57"/><linearGradient id="linear-gradient-77" x1="209.88" y1="198.36" x2="237.94" y2="198.36" xlink:href="#linear-gradient-57"/><linearGradient id="linear-gradient-78" x1="172.63" y1="195.18" x2="187.84" y2="195.18" xlink:href="#linear-gradient-57"/><linearGradient id="linear-gradient-79" x1="182.57" y1="143.57" x2="232.69" y2="143.57" xlink:href="#linear-gradient-57"/><linearGradient id="linear-gradient-80" x1="212.08" y1="186.15" x2="234.43" y2="186.15" xlink:href="#linear-gradient-58"/><linearGradient id="linear-gradient-81" x1="214.94" y1="200.92" x2="263.35" y2="200.92" xlink:href="#linear-gradient-59"/><linearGradient id="linear-gradient-82" x1="182.57" y1="143.57" x2="214.81" y2="143.57" xlink:href="#linear-gradient-57"/><linearGradient id="New_Gradient_Swatch_copy_17-4" x1="216.1" y1="92.3" x2="243.61" y2="92.3" xlink:href="#New_Gradient_Swatch_copy_17"/><linearGradient id="linear-gradient-83" x1="254.04" y1="93.9" x2="230.71" y2="48.53" xlink:href="#linear-gradient-59"/><linearGradient id="linear-gradient-84" x1="234.75" y1="79.28" x2="244.27" y2="79.28" gradientUnits="userSpaceOnUse"><stop offset="0" stop-color="#1a1a33"/><stop offset="1" stop-color="#000019"/></linearGradient><linearGradient id="linear-gradient-85" x1="214.97" y1="72.2" x2="240.24" y2="72.2" xlink:href="#linear-gradient-84"/><linearGradient id="linear-gradient-86" x1="225.12" y1="55.53" x2="268.67" y2="55.53" xlink:href="#linear-gradient-84"/><linearGradient id="linear-gradient-87" x1="591.65" y1="426.07" x2="621.07" y2="426.07" gradientUnits="userSpaceOnUse"><stop offset="0" stop-color="#396a13"/><stop offset="1" stop-color="#133506"/></linearGradient><linearGradient id="linear-gradient-88" x1="535.35" y1="418.31" x2="591.65" y2="418.31" gradientUnits="userSpaceOnUse"><stop offset="0" stop-color="#4c841a"/><stop offset="0.97" stop-color="#2f5d10"/></linearGradient><linearGradient id="linear-gradient-89" x1="535.35" y1="409.09" x2="621.07" y2="409.09" gradientUnits="userSpaceOnUse"><stop offset="0" stop-color="#4c841a"/><stop offset="1" stop-color="#91b64e"/></linearGradient><linearGradient id="linear-gradient-90" x1="558.2" y1="400.17" x2="569.12" y2="400.17" gradientTransform="translate(960.77 -165.65) rotate(89.69)" xlink:href="#linear-gradient-87"/><linearGradient id="linear-gradient-91" x1="588.2" y1="417.49" x2="599.12" y2="417.49" gradientTransform="translate(1007.92 -178.42) rotate(89.69)" xlink:href="#linear-gradient-87"/><linearGradient id="linear-gradient-92" x1="571.1" y1="408.83" x2="586.22" y2="408.83" gradientTransform="translate(984.35 -172.04) rotate(89.69)" xlink:href="#linear-gradient-87"/><linearGradient id="linear-gradient-93" x1="-1814.94" y1="367.39" x2="-1785.52" y2="367.39" gradientTransform="matrix(-1, 0, 0, 1, -1244.67, 0)" xlink:href="#linear-gradient-88"/><linearGradient id="linear-gradient-94" x1="570.27" y1="359.63" x2="626.58" y2="359.63" xlink:href="#linear-gradient-87"/><linearGradient id="linear-gradient-95" x1="592.8" y1="347.32" x2="603.72" y2="347.32" gradientTransform="translate(1.89 -3.24) rotate(0.31)" xlink:href="#linear-gradient-87"/><linearGradient id="linear-gradient-96" x1="562.81" y1="364.64" x2="573.72" y2="364.64" gradientTransform="translate(1.99 -3.08) rotate(0.31)" xlink:href="#linear-gradient-87"/><linearGradient id="linear-gradient-97" x1="-1871.24" y1="346.03" x2="-1785.52" y2="346.03" gradientTransform="matrix(-1, 0, 0, 1, -1244.67, 0)" xlink:href="#linear-gradient-89"/><linearGradient id="linear-gradient-98" x1="592.8" y1="337.11" x2="603.72" y2="337.11" gradientTransform="translate(1.84 -3.24) rotate(0.31)" xlink:href="#linear-gradient-87"/><linearGradient id="linear-gradient-99" x1="562.81" y1="354.43" x2="573.72" y2="354.43" gradientTransform="translate(1.93 -3.08) rotate(0.31)" xlink:href="#linear-gradient-87"/><linearGradient id="linear-gradient-100" x1="575.71" y1="345.77" x2="590.82" y2="345.77" gradientTransform="translate(1.88 -3.16) rotate(0.31)" xlink:href="#linear-gradient-87"/><linearGradient id="linear-gradient-101" x1="566.6" y1="345.37" x2="603.2" y2="345.37" gradientUnits="userSpaceOnUse"><stop offset="0" stop-color="#ffdf7b"/><stop offset="1" stop-color="#f7c469"/></linearGradient><linearGradient id="linear-gradient-102" x1="596.29" y1="358.9" x2="603.2" y2="358.9" gradientUnits="userSpaceOnUse"><stop offset="0" stop-color="#e78f46"/><stop offset="1" stop-color="#d65a23"/></linearGradient><linearGradient id="linear-gradient-103" x1="-1848.82" y1="388.23" x2="-1819.4" y2="388.23" gradientTransform="matrix(-1, 0, 0, 1, -1244.67, 0)" xlink:href="#linear-gradient-88"/><linearGradient id="linear-gradient-104" x1="604.15" y1="380.46" x2="660.46" y2="380.46" xlink:href="#linear-gradient-87"/><linearGradient id="linear-gradient-105" x1="626.68" y1="368.16" x2="637.6" y2="368.16" gradientTransform="translate(2.01 -3.42) rotate(0.31)" xlink:href="#linear-gradient-87"/><linearGradient id="linear-gradient-106" x1="596.69" y1="385.48" x2="607.6" y2="385.48" gradientTransform="translate(2.1 -3.26) rotate(0.31)" xlink:href="#linear-gradient-87"/><linearGradient id="linear-gradient-107" x1="-1905.12" y1="366.87" x2="-1819.4" y2="366.87" gradientTransform="matrix(-1, 0, 0, 1, -1244.67, 0)" xlink:href="#linear-gradient-89"/><linearGradient id="linear-gradient-108" x1="626.68" y1="357.95" x2="637.6" y2="357.95" gradientTransform="translate(1.95 -3.42) rotate(0.31)" xlink:href="#linear-gradient-87"/><linearGradient id="linear-gradient-109" x1="596.69" y1="375.27" x2="607.6" y2="375.27" gradientTransform="translate(2.04 -3.26) rotate(0.31)" xlink:href="#linear-gradient-87"/><linearGradient id="linear-gradient-110" x1="609.58" y1="366.61" x2="624.7" y2="366.61" gradientTransform="translate(2 -3.34) rotate(0.31)" xlink:href="#linear-gradient-87"/><linearGradient id="linear-gradient-111" x1="600.48" y1="366.21" x2="637.08" y2="366.21" xlink:href="#linear-gradient-101"/><linearGradient id="linear-gradient-112" x1="630.17" y1="379.73" x2="637.08" y2="379.73" xlink:href="#linear-gradient-102"/><linearGradient id="linear-gradient-113" x1="-1836.27" y1="365.19" x2="-1806.85" y2="365.19" gradientTransform="matrix(-1, 0, 0, 1, -1244.67, 0)" xlink:href="#linear-gradient-88"/><linearGradient id="linear-gradient-114" x1="591.6" y1="357.42" x2="647.91" y2="357.42" xlink:href="#linear-gradient-87"/><linearGradient id="linear-gradient-115" x1="614.13" y1="345.12" x2="625.05" y2="345.12" gradientTransform="translate(1.88 -3.35) rotate(0.31)" xlink:href="#linear-gradient-87"/><linearGradient id="linear-gradient-116" x1="584.14" y1="362.44" x2="595.05" y2="362.44" gradientTransform="translate(1.97 -3.19) rotate(0.31)" xlink:href="#linear-gradient-87"/><linearGradient id="linear-gradient-117" x1="-1892.57" y1="343.83" x2="-1806.85" y2="343.83" gradientTransform="matrix(-1, 0, 0, 1, -1244.67, 0)" xlink:href="#linear-gradient-89"/><linearGradient id="linear-gradient-118" x1="614.13" y1="334.91" x2="625.05" y2="334.91" gradientTransform="translate(1.83 -3.35) rotate(0.31)" xlink:href="#linear-gradient-87"/><linearGradient id="linear-gradient-119" x1="584.14" y1="352.23" x2="595.05" y2="352.23" gradientTransform="translate(1.92 -3.19) rotate(0.31)" xlink:href="#linear-gradient-87"/><linearGradient id="linear-gradient-120" x1="597.03" y1="343.57" x2="612.15" y2="343.57" gradientTransform="translate(1.87 -3.27) rotate(0.31)" xlink:href="#linear-gradient-87"/><linearGradient id="linear-gradient-121" x1="587.93" y1="343.17" x2="624.53" y2="343.17" xlink:href="#linear-gradient-101"/><linearGradient id="linear-gradient-122" x1="617.62" y1="356.69" x2="624.53" y2="356.69" xlink:href="#linear-gradient-102"/><linearGradient id="linear-gradient-123" x1="-1779.8" y1="581.18" x2="-1743.26" y2="581.18" gradientTransform="translate(-728.17 -829.15) rotate(-120)" gradientUnits="userSpaceOnUse"><stop offset="0" stop-color="#de7535"/><stop offset="1" stop-color="#d65a23"/></linearGradient><linearGradient id="linear-gradient-124" x1="650.71" y1="375.01" x2="659.34" y2="424.15" gradientTransform="translate(1051.76 -257.1) rotate(89.69)" gradientUnits="userSpaceOnUse"><stop offset="0" stop-color="#ffdf7b"/><stop offset="1" stop-color="#efaa58"/></linearGradient><linearGradient id="linear-gradient-125" x1="-1770.88" y1="583.3" x2="-1741.68" y2="583.3" gradientTransform="translate(-728.17 -829.15) rotate(-120)" gradientUnits="userSpaceOnUse"><stop offset="0" stop-color="#c62500"/><stop offset="1" stop-color="#ce4012"/></linearGradient><linearGradient id="linear-gradient-126" x1="-1770.88" y1="582.76" x2="-1743.14" y2="582.76" xlink:href="#linear-gradient-123"/><linearGradient id="linear-gradient-127" x1="-1771.86" y1="585.76" x2="-1735.32" y2="585.76" xlink:href="#linear-gradient-123"/><linearGradient id="linear-gradient-128" x1="650.71" y1="365.85" x2="659.34" y2="414.99" gradientTransform="translate(1042.59 -266.22) rotate(89.69)" xlink:href="#linear-gradient-124"/><linearGradient id="linear-gradient-129" x1="-1762.94" y1="587.89" x2="-1733.74" y2="587.89" xlink:href="#linear-gradient-125"/><linearGradient id="linear-gradient-130" x1="-1762.94" y1="587.34" x2="-1735.2" y2="587.34" xlink:href="#linear-gradient-123"/><linearGradient id="linear-gradient-131" x1="-1763.92" y1="590.35" x2="-1727.39" y2="590.35" xlink:href="#linear-gradient-123"/><linearGradient id="linear-gradient-132" x1="650.71" y1="356.68" x2="659.34" y2="405.82" gradientTransform="translate(1033.42 -275.34) rotate(89.69)" xlink:href="#linear-gradient-124"/><linearGradient id="linear-gradient-133" x1="-1755" y1="592.47" x2="-1725.81" y2="592.47" xlink:href="#linear-gradient-125"/><linearGradient id="linear-gradient-134" x1="-1755" y1="591.93" x2="-1727.26" y2="591.93" xlink:href="#linear-gradient-123"/><linearGradient id="linear-gradient-135" x1="-555.62" y1="729.28" x2="-517.47" y2="707.25" gradientTransform="matrix(-0.87, 0.5, 1, 0.58, -549.62, 65.33)" gradientUnits="userSpaceOnUse"><stop offset="0" stop-color="#de7535"/><stop offset="1" stop-color="#efaa58"/></linearGradient><linearGradient id="linear-gradient-136" x1="-546.86" y1="724.22" x2="-526.24" y2="712.31" xlink:href="#linear-gradient-135"/><linearGradient id="linear-gradient-137" x1="614.19" y1="181.94" x2="657.7" y2="181.94" gradientUnits="userSpaceOnUse"><stop offset="0" stop-color="#de7535"/><stop offset="1" stop-color="#ce4012"/></linearGradient><linearGradient id="linear-gradient-138" x1="-2080.54" y1="-535.67" x2="-2030.3" y2="-535.67" gradientTransform="matrix(-0.87, -0.5, 0, 1.15, -1149.57, -223.92)" gradientUnits="userSpaceOnUse"><stop offset="0" stop-color="#e78f46"/><stop offset="1" stop-color="#f7c469"/></linearGradient><linearGradient id="New_Gradient_Swatch_copy_17-5" x1="-2067.98" y1="-542.43" x2="-2042.86" y2="-542.43" gradientTransform="matrix(-0.5, -0.87, -0.58, 1, -703.68, -1067.42)" xlink:href="#New_Gradient_Swatch_copy_17"/></defs><g class="cls-1"><g id="ILLUSTRATIONS"><polygon class="cls-2" points="634.01 337.53 670.26 316.6 670.26 221.56 634.01 242.49 634.01 337.53"/><polygon class="cls-3" points="597.98 221.69 597.98 316.73 634.01 337.53 634.01 242.49 597.98 221.69"/><polygon class="cls-4" points="634.01 242.49 670.26 221.56 634.24 200.76 597.98 221.69 634.01 242.49"/><polygon class="cls-5" points="634.04 236.83 634.04 231.96 607.79 216.8 607.79 221.67 634.04 236.83"/><polygon class="cls-6" points="634.04 236.83 660.46 221.58 660.46 216.7 634.04 231.96 634.04 236.83"/><polygon class="cls-7" points="634.04 231.96 660.46 216.7 634.2 201.54 607.79 216.8 634.04 231.96"/><polygon class="cls-8" points="629.8 248.65 629.8 328.99 627.09 327.43 627.09 247.08 627.91 247.56 629.8 248.65"/><polygon class="cls-9" points="629.8 248.65 629.8 327.98 627.91 326.89 627.91 247.56 629.8 248.65"/><polygon class="cls-10" points="627.09 327.43 627.91 326.89 629.8 327.98 629.8 328.99 627.09 327.43"/><polygon class="cls-8" points="603.61 234.96 603.61 315.3 600.89 313.74 600.89 233.39 601.72 233.87 603.61 234.96"/><polygon class="cls-11" points="603.61 234.96 603.61 314.29 601.72 313.2 601.72 233.87 603.61 234.96"/><polygon class="cls-12" points="600.89 313.74 601.72 313.2 603.61 314.29 603.61 315.3 600.89 313.74"/><polygon class="cls-8" points="637.63 247.09 637.63 327.44 640.35 325.87 640.35 245.53 639.52 246 637.63 247.09"/><polygon class="cls-13" points="637.63 247.09 637.63 326.43 639.52 325.34 639.52 246 637.63 247.09"/><polygon class="cls-14" points="640.35 325.87 639.52 325.34 637.63 326.43 637.63 327.44 640.35 325.87"/><polygon class="cls-8" points="642.59 244.51 642.59 324.86 645.31 323.29 645.31 242.95 644.49 243.42 642.59 244.51"/><polygon class="cls-15" points="642.59 244.51 642.59 323.85 644.49 322.76 644.49 243.42 642.59 244.51"/><polygon class="cls-16" points="645.31 323.29 644.49 322.76 642.59 323.85 642.59 324.86 645.31 323.29"/><polygon class="cls-8" points="647.55 241.94 647.55 322.28 650.27 320.71 650.27 240.37 649.45 240.84 647.55 241.94"/><polygon class="cls-17" points="647.55 241.94 647.55 321.27 649.45 320.18 649.45 240.84 647.55 241.94"/><polygon class="cls-18" points="650.27 320.71 649.45 320.18 647.55 321.27 647.55 322.28 650.27 320.71"/><polygon class="cls-8" points="652.52 239.36 652.52 319.7 655.23 318.13 655.23 237.79 654.41 238.27 652.52 239.36"/><polygon class="cls-19" points="652.52 239.36 652.52 318.69 654.41 317.6 654.41 238.27 652.52 239.36"/><polygon class="cls-20" points="655.23 318.13 654.41 317.6 652.52 318.69 652.52 319.7 655.23 318.13"/><polygon class="cls-8" points="657.48 236.78 657.48 317.12 660.2 315.56 660.2 235.21 659.37 235.69 657.48 236.78"/><polygon class="cls-21" points="657.48 236.78 657.48 316.11 659.37 315.02 659.37 235.69 657.48 236.78"/><polygon class="cls-22" points="660.2 315.56 659.37 315.02 657.48 316.11 657.48 317.12 660.2 315.56"/><polygon class="cls-8" points="662.44 234.2 662.44 314.55 665.16 312.98 665.16 232.63 664.34 233.11 662.44 234.2"/><polygon class="cls-23" points="662.44 234.2 662.44 313.54 664.34 312.44 664.34 233.11 662.44 234.2"/><polygon class="cls-24" points="665.16 312.98 664.34 312.44 662.44 313.54 662.44 314.55 665.16 312.98"/><polygon class="cls-25" points="597.69 254.99 599.84 256.23 599.84 256.24 608.53 261.25 613.9 264.35 614.64 263.91 624.32 258.33 608.94 249.45 608.11 248.97 604.42 251.1 599 254.24 597.69 254.99"/><polygon class="cls-26" points="599.8 254.99 600.87 255.61 613.9 263.13 621.14 258.95 622.21 258.33 608.11 250.19 599.8 254.99"/><polygon class="cls-27" points="600.87 255.61 613.9 263.13 621.14 258.95 608.11 251.43 600.87 255.61"/><polygon class="cls-28" points="613.9 264.35 613.9 338.09 624.32 332.07 624.32 258.33 614.64 263.91 613.9 264.35"/><polygon class="cls-29" points="597.69 254.99 597.69 328.73 613.9 338.09 613.9 264.35 608.53 261.25 599.84 256.24 597.69 254.99"/><polygon class="cls-30" points="597.98 221.69 608.94 249.45 624.32 258.33 624.32 288.43 634.41 314 634.01 242.49 597.98 221.69"/><polygon class="cls-31" points="597.98 235.21 597.98 251.83 599 254.23 604.42 251.1 597.98 235.21"/><polygon class="cls-32" points="599.84 256.24 613.9 289.67 613.9 274.49 608.53 261.25 599.84 256.24"/><polygon class="cls-8" points="611.47 267.78 611.47 333.49 608.75 331.92 608.75 266.22 609.57 266.69 611.47 267.78"/><polygon class="cls-33" points="611.47 267.78 611.47 332.48 609.57 331.39 609.57 266.69 611.47 267.78"/><polygon class="cls-34" points="608.75 331.92 609.57 331.39 611.47 332.48 611.47 333.49 608.75 331.92"/><polygon class="cls-8" points="606.5 265.21 606.5 330.91 603.78 329.35 603.78 263.64 604.61 264.11 606.5 265.21"/><polygon class="cls-35" points="606.5 265.21 606.5 329.9 604.61 328.81 604.61 264.11 606.5 265.21"/><polygon class="cls-36" points="603.78 329.35 604.61 328.81 606.5 329.9 606.5 330.91 603.78 329.35"/><polygon class="cls-8" points="601.54 262.63 601.54 328.33 598.82 326.77 598.82 261.06 599.64 261.54 601.54 262.63"/><polygon class="cls-37" points="601.54 262.63 601.54 327.32 599.64 326.23 599.64 261.54 601.54 262.63"/><polygon class="cls-38" points="598.82 326.77 599.64 326.23 601.54 327.32 601.54 328.33 598.82 326.77"/><polygon class="cls-8" points="624.03 246.31 624.03 256.67 607.98 247.4 607.98 237.04 608.8 237.52 624.03 246.31"/><polygon class="cls-39" points="624.03 246.31 624.03 255.66 608.8 246.87 608.8 237.52 624.03 246.31"/><polygon class="cls-40" points="607.98 247.4 608.8 246.87 624.03 255.66 624.03 256.67 607.98 247.4"/><polygon class="cls-8" points="615.22 268.04 615.22 333.75 617.94 332.18 617.94 266.48 617.12 266.95 615.22 268.04"/><polygon class="cls-41" points="615.22 268.04 615.22 332.74 617.12 331.65 617.12 266.95 615.22 268.04"/><polygon class="cls-42" points="617.94 332.18 617.12 331.65 615.22 332.74 615.22 333.75 617.94 332.18"/><polygon class="cls-8" points="620.18 265.47 620.18 331.17 622.9 329.61 622.9 263.9 622.08 264.37 620.18 265.47"/><polygon class="cls-43" points="620.18 265.47 620.18 330.16 622.08 329.07 622.08 264.37 620.18 265.47"/><polygon class="cls-44" points="622.9 329.61 622.08 329.07 620.18 330.16 620.18 331.17 622.9 329.61"/><path class="cls-45" d="M466.13,333.64c-14-8.09-21-18.7-20.91-29.33s0-12.47,0-12.47l143.85.34s.42,1.79,0,12.69c-.4,10.35-7.48,20.66-21.2,28.58C539.68,349.72,494.13,349.8,466.13,333.64Z"/><ellipse class="cls-46" cx="517.15" cy="290.83" rx="71.93" ry="41.53" transform="translate(-1.57 2.81) rotate(-0.31)"/><path class="cls-47" d="M480.91,308.6c-10-5.75-14.9-13.29-14.86-20.85s0-19.07,0-19.07l102.25.24s.3,11.48,0,19.23c-.29,7.36-5.31,14.69-15.07,20.32C533.19,320,500.82,320.09,480.91,308.6Z"/><ellipse class="cls-48" cx="517.18" cy="269.46" rx="51.13" ry="29.52" transform="translate(-1.45 2.81) rotate(-0.31)"/><path class="cls-49" d="M448.1,218.26a93.2,93.2,0,0,1-28.6-67.07,94.36,94.36,0,1,1,157.57,70.06c-11.7,10.56-13.35,29.71-13.29,40.27a15.53,15.53,0,0,1,.19,5.35,3.43,3.43,0,0,1-.45,2.12c-1.51,5.49-5.88,10.78-13.23,15-18.4,10.62-48.15,10.68-66.43.12-9.18-5.3-13.73-12.27-13.65-19.24h0S470.2,239.82,448.1,218.26Z"/><circle class="cls-50" cx="509.5" cy="147.22" r="86.51"/><circle class="cls-51" cx="473.22" cy="110.13" r="21.35"/><path class="cls-52" d="M421.47,513.35c31.33,21.57,76.85,55.8,81.67,45.4s-26.25-51.74-57-75.84-48.51-40.63-66.39-25-23.92,31.17-33.61,32.54-22.73,8-15.76,17.27,34.78,26.56,47.72,19.4S407.48,503.71,421.47,513.35Z"/><path class="cls-53" d="M120.58,361c.91-30.29,26.68-41.09,58.7-40.58S263.07,284,283,313s45.77,48.22,19.09,77.38-41.92,4.5-69.39,21.23S136.59,424.7,125.91,398,120.58,361,120.58,361Z"/><path class="cls-54" d="M255.73,339.67s-2.53,4.25,6.57,9.37,15.93,10.58,16.34,11.31c2,3.54,1.89,9.74-3.07,11.77-3.91,1.6-28.49-12.92-28.49-12.92s-7.5.16-10.33-3.16.94-16.37.94-16.37Z"/><path class="cls-55" d="M265.65,270.43c-2.45,12.07-9.77,73.72-9.77,73.72a61.54,61.54,0,0,1-10.61,2c-5.64.46-11.68-.17-12.93-4.66,1.41-41.36,2.09-66,2.09-66s-27.5-61.27-31.42-74.52,32.89-14.23,32.89-14.23c.91,2.17,5.53,12.48,10.87,25.25C255.92,233.79,267.2,262.81,265.65,270.43Z"/><path class="cls-56" d="M250.78,298.78c-2.75,20.91-4.48,36.78-5.51,47.32-5.64.46-11.68-.17-12.93-4.66,1.41-41.36,2.09-66,2.09-66s-27.5-61.27-31.42-74.52,32.89-14.23,32.89-14.23c.91,2.17,5.53,12.48,10.87,25.25-12.05,2.88-21.28,3.74-15.83,16.4C237.87,244.46,256.14,257.88,250.78,298.78Z"/><path class="cls-57" d="M165.52,350.1c.28,2.89,3.23,12.47,5.91,16.81s4.52,14.24,3.28,18.25-9.54,1.59-14.84-3.21-9.52-15.77-11-17c-3.72-1.77-6.77-6.31-5.24-10.49s8.77-13.73,12.13-13.2S165.52,350.1,165.52,350.1Z"/><path class="cls-58" d="M207.63,256.26c-6.44,16.48-41.18,96.49-41.18,96.49A17.9,17.9,0,0,1,154.72,349a16.26,16.26,0,0,1-4.51-5.85c5-18.85,21.22-67.75,21.22-67.75s4.69-42.78,5.21-54.54-12.68-28.33,5.93-38.43a15.62,15.62,0,0,1,12.85-1.36c11.5,3.8,18.83,19.81,18.83,19.81C221,209.44,214.07,239.78,207.63,256.26Z"/><path class="cls-59" d="M195.42,181.11c-2.93,11.54-1.47,32.18-3.69,54.52-2.88,29.1-24.95,91.16-32.55,105.62-1.25,2.37-2.75,5.05-4.46,7.79a16.26,16.26,0,0,1-4.51-5.85c5-18.85,21.22-67.75,21.22-67.75s4.69-42.78,5.21-54.54-12.68-28.33,5.93-38.43A15.62,15.62,0,0,1,195.42,181.11Z"/><path class="cls-60" d="M291.16,167.57,270.63,179l-6.25,3.48s-8.18-35.59-10.8-40.34-6.06-11.72-12.72-25c-4.42-8.78-4.78-21.58-.22-28.41,2.32-3.49,5.94-5.42,11-4.46a13.22,13.22,0,0,1,8.22,5.11c6.86,8.83,7.51,27.49,9.81,48.64C272.64,146.05,288.72,160.8,291.16,167.57Z"/><path class="cls-61" d="M290.38,172.42a13.35,13.35,0,0,1-3.85,3.09l-.18.11L279,180.34a12,12,0,0,1-1.64.82c-3.94,1.64-8.59,1.32-12.94,1.31a10,10,0,0,1,6.06-11,7.11,7.11,0,0,1,1.08-.34c2.8-.67,6-.12,8.33-1.87.81-.61,1.41-1.45,2.17-2.12a6.51,6.51,0,0,1,.64-.51,8.29,8.29,0,0,1,2.11-1c2.31-.74,5.34-.25,6.39,1.95A4.81,4.81,0,0,1,290.38,172.42Z"/><path class="cls-62" d="M304.18,208.93c.09,5.61-3.82,3.31-3.82,3.31s-4.4,2-5.63.46c-1.89,1.13-7.8-12.13-11-15.58s-2-9.81-2-9.81l-4.37-6.15-6.88-9.66a7.11,7.11,0,0,1,1.08-.34c2.8-.67,6-.12,8.33-1.87.81-.61,1.41-1.45,2.17-2.12a6.51,6.51,0,0,1,.64-.51c1.42,3.28,2.81,6.48,3.87,8.85.91,2,1.59,3.46,1.81,3.81,1.08,1.62,12.43,5,13.46,11.18l1,6.19s3.4,5.92,3.93,9.05S304.82,209.3,304.18,208.93Z"/><path class="cls-63" d="M272.69,172.38,270.63,179l-6.25,3.48s-8.18-35.59-10.8-40.34-6.06-11.72-12.72-25c-4.42-8.78-4.78-21.58-.22-28.41,6.07,14.06,20.05,34.15,20.05,40.7C260.69,138,272.69,172.38,272.69,172.38Z"/><path class="cls-64" d="M504.84,561.32c-.85-.15-1.65-.34-2.41-.55-5.89-1.69-8.77-5.45-11-10.4C488.83,544.79,489,534.55,488,530s-8.92-11.11-7.54-16.94,16-8.15,16-8.15c2.34-.75,5.93,1.54,8.72,6.45.19.33.38.69.56,1.05a31.42,31.42,0,0,1,1.7,4.15c2.74,8.41,5.92,18.59,8.08,25.29C518.28,550.47,512.4,562.6,504.84,561.32Z"/><path class="cls-65" d="M496.46,504.94a32.44,32.44,0,0,0-8.44,7.25c-2.59,3.29-4.4,7.5-2.85,12.15,0,0-49.82-34-59.14-43.86s-8-47.89-6.63-73.52c0-.35,0-.7.05-1,1.35-25.63,42.7-14.08,42.7-14.08,5.33,9.9,3.52,18.45,1.72,30.81s-10.18,41.85-10.18,41.85Z"/><path class="cls-66" d="M485.17,524.34s-49.82-34-59.14-43.86-8-47.89-6.63-73.52l21.4-2.8c-2.55,10.86-8.9,60.61-5.34,64.71,3,3.45,40.61,33.73,52.56,43.32C485.43,515.48,483.62,519.69,485.17,524.34Z"/><path class="cls-67" d="M504.84,561.32c-.85-.15-1.65-.34-2.41-.55a27.2,27.2,0,0,1-2.92-11.16c0-4.56-3.17-16.36-6.09-27-2.51-9.14,7.53-12.56,11.76-11.21.19.33.38.69.56,1.05a31.42,31.42,0,0,1,1.7,4.15c2.74,8.41,5.92,18.59,8.08,25.29C518.28,550.47,512.4,562.6,504.84,561.32Z"/><path class="cls-68" d="M377.38,505.85c1.65.51,3,2.27,3.84,7,1.61,9.51-2,10.91-5.24,12.94-2.91,1.8-8.71,2-15.24-.89s-13.93-7.15-20.52-9.79-14.86-9.31-9.65-16.47c6.77-9.3,19.29-2,23.35-2S377.38,505.85,377.38,505.85Z"/><path class="cls-69" d="M438.76,434.84c-4.94,2.66-49,11.56-61.63,6.52-.12,3.49-.13,44.61,1.9,65a19,19,0,0,1-12.89,3.44c-8-.57-9.54-6.34-9.54-6.34s-8.77-49.6-11.87-66.72c-3.32-18.36,1.82-26.25,10.68-28.16s40.6-9.37,48-9.51v-2.28s32.62-10.86,42.7,0a19.63,19.63,0,0,1,5,9.59C453.76,419.27,442.7,432.71,438.76,434.84Z"/><path class="cls-70" d="M366.14,509.8c-8-.57-9.54-6.34-9.54-6.34s-8.77-49.6-11.87-66.72c-3.32-18.36,1.82-26.25,10.68-28.16s40.6-9.37,48-9.51v-2.28s32.62-10.86,42.7,0a19.63,19.63,0,0,1,5,9.59c-31.12,6.26-83.22,12.81-90.43,16.27C352.89,426.43,361.5,491,366.14,509.8Z"/><path class="cls-71" d="M395.13,281.85s-7.1-9.28-10.9-10.93-14.4.19-16.11,1.27.76,2.77,1.27,2.56c-.7.8.82,1.37,2,1.31,0,.63,4.25,1.14,4.25,1.14L372.5,279s-2.41.06-3.18.95-.38,2.73,1.78,2.6,5.53,0,7,0,4.94,2.73,6.78,2.41a41.78,41.78,0,0,0,6,4Z"/><path class="cls-72" d="M398.49,284l-2.79-3.08s-5.77,1.84-6.27,7.85a34.55,34.55,0,0,0,3.06,3.73Z"/><path class="cls-73" d="M390.68,292.39s.9-8.4,8.43-10.54l15,13.93-14.67,10.55Z"/><path class="cls-74" d="M390.68,292.39s.9-8.4,8.43-10.54l15,13.93-14.67,10.55Z"/><path class="cls-75" d="M442.49,288.28c5.21,4.83,14.72,13.78,15.67,18.53s-8.59,14.12-13,13.62-13-16.09-13-16.09Z"/><path class="cls-76" d="M442.49,288.28c5.21,4.83,14.72,13.78,15.67,18.53s-8.59,14.12-13,13.62-13-16.09-13-16.09Z"/><path class="cls-77" d="M435.46,417.33c-1.1-.08-2.18-.21-3.22-.36h0a46.69,46.69,0,0,1-31.14-18.27l4.19-13c4.18-13-9.13-35.84-16.36-52.52a27.6,27.6,0,0,1-.5-20.9,40.82,40.82,0,0,1,15-19s15.73-12.49,30-11,17.62,29.21,18,54.1,12.1,48.48,13.75,59.85S458.92,419.23,435.46,417.33Z"/><path class="cls-78" d="M427.92,283.22c-4.95-4.75-4.25-15.26-4.31-24.56s-3-29.24-17.95-29.08S379.61,241,380.17,253c.76,16.17,11.28,28,14.65,31a10.83,10.83,0,0,0,7.58,2.66l2.31,7Z"/><path class="cls-79" d="M402.4,294s4.4-9.47,25.52-13.06c3,2.5,2.2,3.08,2.2,3.08l-26.18,12.62Z"/><path class="cls-80" d="M424.79,273.91c-2.59,6-13.94,8-20.25,7.24-2.29-.27-3.91-.91-4.21-1.85-1.13-3.56-2.47-6-1.42-10.25s-5.05-11.12-7.32-10.56,0,7.69,0,7.69l-2.5,1.44c.1-.09.47-.7-1.66-3.61-1.86-2.54-6.49-2.61-8.18-4.59h0a2.66,2.66,0,0,1-.61-2.06,6.44,6.44,0,0,1-.95-1.78c-1-2.62-1.85-8.24,2.46-17.8,6.33-14,34-15.23,41.25-5S428.3,265.72,424.79,273.91Z"/><path class="cls-81" d="M404.54,281.15c-2.29-.27-3.91-.91-4.21-1.85-1.13-3.56-2.47-6-1.42-10.25s-5.05-11.12-7.32-10.56,0,7.69,0,7.69l-2.5,1.44c.1-.09.47-.7-1.66-3.61-1.86-2.54-6.49-2.61-8.18-4.59h0c5.19-4.94,16.16-7.76,20.07-1.23C403.87,265.77,401.87,275.94,404.54,281.15Z"/><path class="cls-82" d="M432.23,417a46.69,46.69,0,0,1-31.14-18.27l4.19-13c4.18-13-9.13-35.84-16.36-52.52a27.6,27.6,0,0,1-.5-20.9,101.13,101.13,0,0,1,15,.51c6.43,10.6,4.53,26.5,8.72,45.18S411.9,410.63,432.23,417Z"/><path class="cls-83" d="M321.86,319.18s-.85-.86-.95-4.09-3-8.58-5.9-9.23-4.09.38-3.42,2.28,0,1.81-2.09,1.62-7.32-2.66-7.46-5.42-3-1.14-4.15,1.14a3.69,3.69,0,0,0,.31,4s-3.08,1.11-1.5,3.86c-1.57.67-1,3.57.43,5.05-2.19.09-.47,4.94,3.52,6.51s10.56.9,14.65,1.95S321.86,319.18,321.86,319.18Z"/><path class="cls-84" d="M328.72,322.09l-5.34-4.2s-6.91-.74-9.32,9.28c4.14,2.53,7.16,4.82,7.16,4.82Z"/><path class="cls-85" d="M402.81,327.41c-6.66,8.76-40.53,24.93-47.25,27.59s-20.83-9.93-27.12-15S317.85,331,317.85,331a12,12,0,0,1,1.49-5.13c1.39-2.49,4.08-5.11,9.27-5.77a149.88,149.88,0,0,1,23.74,12.29s34.69-27.88,41.59-27.65c3.43.12,7.27,3.54,9.47,8.05S406.16,323,402.81,327.41Z"/><path class="cls-86" d="M402.81,327.41c-6.66,8.76-40.53,24.93-47.25,27.59s-20.83-9.93-27.12-15S317.85,331,317.85,331a12,12,0,0,1,1.49-5.13l27.71,17a8.15,8.15,0,0,0,6.55.87c9.92-2.93,38-12.61,49.81-30.93C405.64,317.33,406.16,323,402.81,327.41Z"/><path class="cls-87" d="M303.69,193.68c5.11-1.05,10.21,4.17,6.56,5.09-3,.76-7.44,4.13-7.44,5.11s1.81,1.59,4.56,0,4.31,1.36-.21,3.83-7.68.72-10.46,2.33-8.65,11.18-10.68,16.12-7.84,11.23-9.25,12.18-6.76,4.74-6.76,4.74-7.32-3.79-6.94-7.79,13.7-13.69,13.7-13.69,13.12-14.52,15.41-17.72S296.68,195.11,303.69,193.68Z"/><path class="cls-88" d="M269.58,225.7s9.22,9.15,9.22,12.7c-6.47,5.58-11.5,7.86-14.12,9.76S254,243.6,254,238.78,269.58,225.7,269.58,225.7Z"/><path class="cls-89" d="M253.74,378.86c1.3-5.08,11.08-1.65,13.33,1.39s9.38,4.33,11.73,6.78,1.09,9.56-3.86,10-11.3-3.08-16.95-4.83S252,385.71,253.74,378.86Z"/><path class="cls-90" d="M253.74,377.75c1.3-5.08,11.08-1.65,13.33,1.39s9.38,4.32,11.73,6.77,1.09,9.57-3.86,10-11.3-3.09-16.95-4.83S252,384.6,253.74,377.75Z"/><path class="cls-91" d="M266.94,385.61a.43.43,0,0,1-.19,0,.53.53,0,0,1-.31-.68c.46-1.23,1.94-3.41,4.23-2.95a.53.53,0,0,1,.41.63.54.54,0,0,1-.63.42c-2-.41-3,2.16-3,2.27A.53.53,0,0,1,266.94,385.61Z"/><path class="cls-91" d="M269.38,386.77a.41.41,0,0,1-.19,0,.52.52,0,0,1-.31-.68c.46-1.23,1.94-3.41,4.22-2.95a.53.53,0,0,1,.42.63.54.54,0,0,1-.63.42c-2-.41-3,2.16-3,2.27A.54.54,0,0,1,269.38,386.77Z"/><path class="cls-91" d="M271.81,387.93a.46.46,0,0,1-.19,0,.53.53,0,0,1-.31-.68c.46-1.23,1.94-3.41,4.23-2.95a.54.54,0,0,1-.21,1.05c-2-.4-3,2.16-3,2.27A.53.53,0,0,1,271.81,387.93Z"/><path class="cls-92" d="M205.58,381.2c2.83-4.41,11,1.92,12.21,5.51s7.55,7.06,9,10.12-2,9.42-6.8,8.25-9.76-6.49-14.57-9.92S201.77,387.16,205.58,381.2Z"/><path class="cls-93" d="M205.93,380.15c2.83-4.42,11,1.91,12.21,5.51s7.55,7,9,10.11-2,9.42-6.8,8.25-9.76-6.48-14.57-9.92S202.12,386.1,205.93,380.15Z"/><path class="cls-91" d="M216,391.75a.56.56,0,0,1-.17-.09.54.54,0,0,1-.08-.75c.82-1,2.91-2.63,4.94-1.47a.55.55,0,0,1,.2.73.54.54,0,0,1-.73.2c-1.75-1-3.51,1.12-3.58,1.21A.52.52,0,0,1,216,391.75Z"/><path class="cls-91" d="M217.94,393.62a.56.56,0,0,1-.17-.09.53.53,0,0,1-.08-.75c.82-1,2.91-2.63,4.94-1.47a.54.54,0,0,1-.54.93c-1.75-1-3.5,1.12-3.57,1.21A.53.53,0,0,1,217.94,393.62Z"/><path class="cls-91" d="M219.88,395.49a.51.51,0,0,1-.16-.09.53.53,0,0,1-.08-.75c.82-1,2.91-2.63,4.93-1.47a.53.53,0,0,1,.2.73.54.54,0,0,1-.73.2c-1.74-1-3.5,1.12-3.57,1.21A.54.54,0,0,1,219.88,395.49Z"/><path class="cls-94" d="M274,336.79c-.17,5.7-5,39.84-5.86,43.34s-14.16,3.08-15.27-3.51.7-25.75.42-32S248,328.17,248,328.17s-4.18,19.4-7,24.22-21.05,35-21.56,35.77-12.17-1-11.91-8.63S222,348,222,348s5.73-30.18,5.34-37.66a78.43,78.43,0,0,1,2.77-23.22c1-3.4,1.79-7.07,2.06-16.3.23-6.95.16-13.3-.27-15.63-1-5.45,3.68-10.48,9.12-14.29l.51-.35c6.5-4.45,15.84-9,21.2-9.37a5.28,5.28,0,0,1,3,.48c3.21,1.85,7,12.22,8,20a26.13,26.13,0,0,1,.23,4.92c-.5,7.36-6.59,24.71-7.48,34.73S274.18,331.08,274,336.79Z"/><path class="cls-95" d="M274,336.79c-.17,5.7-5,39.84-5.86,43.34s-14.16,3.08-15.27-3.51.7-25.75.42-32S248,328.17,248,328.17s-4.18,19.4-7,24.22-21.05,35-21.56,35.77-12.17-1-11.91-8.63S222,348,222,348s5.73-30.18,5.34-37.66a78.43,78.43,0,0,1,2.77-23.22c1-3.4,1.67-3.76,1.95-13,6,5.15,16.86,1.27,19.05-6.84,2.36-8.76-4.16-20.5-9.58-26.75.9-.62,1.86-1.24,2.85-1.85,3.9,2.26,9.85,7.55,11.92,19.38C259.46,276.2,268,267,270,263.3c1.71-3.14-2.32-21.72-10.3-31.66a17.76,17.76,0,0,1,3-.51c1.76,2.72,6.88,10.81,8,14.77.72,2.63,3.39,9.24,3.29,10.63-.5,7.36-6.59,24.71-7.48,34.73S274.18,331.08,274,336.79Z"/><path class="cls-96" d="M248.67,236.2s3.68,6.5,8.23,9.15,7.61-4.91,7.69-6.39,4.85,1,7-2.76,9.15-19.52,4.24-25.86-17.46-11.1-24.4-4-2.76,16.83-2,20S247.58,234.47,248.67,236.2Z"/><path class="cls-97" d="M248.67,228.13c2.37,2.86,4.79,1.08,3.37-1s-.76-10.94,2.47-8a6.85,6.85,0,0,1,1.9,7.42c-.28.86,2.91,1.43,2.93-.28s1.1-6.38,3.22-6.09,6.08,1,9.44.26,5.75-.93,5.59-5.68-1.39-6.66-5.86-10-15.71-4.37-21.69,0S247.52,223.21,248.67,228.13Z"/><path class="cls-98" d="M246.62,272.43l2,8.48s11.12,5.8,16,9.24a81,81,0,0,0,10.67,6.17s7.44-.34,10.67,3.84,3.39,7.4,3.68,10.65-4.1,6.37-6.75,2.22-3.88-3.52-7.6-4.39-4.88-6.58-10.67-8.86-23.22-8.55-26.69-12.71-3.84-15.63-3.84-15.63Z"/><path class="cls-99" d="M231.68,250.1c1.82-7.42,14.32-4,15.84,4s1.15,20.62,1.15,20.62-13.39-1.18-14.71,3.08C230.73,269,230.71,254.06,231.68,250.1Z"/><path class="cls-100" d="M253.9,129.43c-3.89,8.84-7.7,10.34-13,12.1s-7.05,19.58-5,22.26,4.21,19.64,7.22,26.18a68.64,68.64,0,0,0,5.09,9.55s-3.35,6.65-10.27,8.5a14.35,14.35,0,0,1-6,.33c-11-1.62-15.42,4-20.88,7a4.79,4.79,0,0,1-1.22.45c-7.11,1.87-28.13-2.77-31.28-9q-.45-.93-.75-1.74h0c-1.75-4.79.25-7-5.22-11.34-.62-.49-1.34-1-2.16-1.56a6.52,6.52,0,0,1-1.77-1.68h0a5.32,5.32,0,0,1-.42-5.06c.05-.15.11-.31.18-.47,1.77-4.26,7-8.75,11.08-11h0C184.06,168.59,188.66,162,191,155c0,0,0,0,0,0a30.55,30.55,0,0,0,1.23-5.08v0c.3-1.32.58-2.66.84-4h0c1.65-8.51,2.54-17.21,1.84-22.94-1.79-14.6,0-22.91,8.09-29.68a33.11,33.11,0,0,1,8.83-4.69c1.36-.53,2.8-1,4.29-1.5,7.42-2.32,16.18-3.83,22.94-3.41,3.87.24,7.08,1.11,9,2.83C256,93.46,257.8,120.59,253.9,129.43Z"/><g class="cls-101"><path class="cls-102" d="M226,106.52c-4.14,22.7-30.45,68.19-44.63,73.14-6.2,2.17-10,6.44-12.65,10.73a5.32,5.32,0,0,1-.42-5.06c.05-.15.11-.31.18-.47,1.77-4.26,7-8.75,11.08-11h0C184.06,168.59,188.66,162,191,155c0,0,0,0,0,0a30.55,30.55,0,0,0,1.23-5.08v0c.3-1.32.58-2.66.84-4h0c1.65-8.51,2.54-17.21,1.84-22.94-1.79-14.6,0-22.91,8.09-29.68a33.11,33.11,0,0,1,8.83-4.69C219.78,88.57,228.88,90.61,226,106.52Z"/><path class="cls-103" d="M237.94,208a14.35,14.35,0,0,1-6,.33c-11-1.62-15.42,4-20.88,7a4.79,4.79,0,0,1-1.22.45c2.73-17.43,3.27-45.47,13.37-30.65C229.67,194.51,235.3,202,237.94,208Z"/><path class="cls-104" d="M177.85,205c-1.75-4.79.25-7-5.22-11.34,3.8-7.76,13.59-10.56,15.05-6.21C188.87,191,183.15,198.4,177.85,205Z"/></g><path class="cls-105" d="M232.69,174.94,214.81,191.5h0l-2.7,2.5s-26.52-27.2-29.13-32.15,8.29-58.19,8.29-58.19c1.87-7,11.34-12.63,16.7-9.77a6.52,6.52,0,0,1,3.13,4c7.25,22.88-8.63,60.39-8.63,60.39Z"/><path class="cls-106" d="M234.16,184.55a7.5,7.5,0,0,1-2.13,4.38A27.08,27.08,0,0,1,230,191q-3.33,3-6.65,6.07l-.48.44a2.59,2.59,0,0,1-.9.6,2.48,2.48,0,0,1-1.18,0l-2.87-.42a11.57,11.57,0,0,1-3.55-.94,3.82,3.82,0,0,1-2.21-2.75,4.08,4.08,0,0,1,1.43-3.4,10.23,10.23,0,0,1,1.4-1.05c.59-.37,1.2-.71,1.79-1.07,2.75-1.69,5.23-4.2,5.9-7.37a1.08,1.08,0,0,0,0-.19c.31-1.6.22-3.37,1.16-4.71,1.61-2.29,7.75-2.86,9.86-1,1.2,1,.67,2,.43,3.4C233.78,180.65,234.31,182.53,234.16,184.55Z"/><path class="cls-107" d="M251.25,220.89c-7,.3-14.37-9.72-16.82-11.13s-2.45-4.24-4.75-6.72c-.81-.87-3.39-3.25-6.38-6-2.79-2.54-6-5.36-8.36-7.51.59-.37,1.2-.71,1.79-1.07,2.75-1.69,5.23-4.2,5.9-7.37a1.08,1.08,0,0,0,0-.19l9.37,8,4.54,3.88s13.62-.19,17.68,4.31,4.76,7.36,4.06,8.23-5.84-3.3-6.14-3.54c.28.4,6.23,8.76,10.12,12.73S258.24,220.6,251.25,220.89Z"/><path class="cls-108" d="M214.81,191.5h0l-2.7,2.5s-26.52-27.2-29.13-32.15,8.29-58.19,8.29-58.19c1.87-7,11.34-12.63,16.7-9.77-4.05,6.31-9.32,4.74-13.46,20.24C189,134.64,184,157.5,196.23,170.7,208,183.46,213.35,188.7,214.81,191.5Z"/><path class="cls-109" d="M238.17,100.7c-5.24,2.27-17.51-8-22.07-13.64,7.42-2.32,16.18-3.83,22.94-3.41h0C245.77,92.06,244.71,97.87,238.17,100.7Z"/><path class="cls-110" d="M228.49,57c2.46-8.61,11.08-16.2,21.25-13.87S267.86,54.06,265,68s-8.86,23.16-12.72,26.61-11.26-2.27-11.26-2.27a50.32,50.32,0,0,0-4.35,4.32c-1.54,1.86-17.08-7-17.38-11.85S229.76,73.72,228.49,67,228.49,57,228.49,57Z"/><path class="cls-111" d="M244.27,69s-5.1,12.16-6.27,19.9c.07-8.52,1.16-11.62,1.16-11.62s-4.8,8.52-3.72,15.8c-2.63-5.11,3.06-22.3,4.34-26.33S244.27,69,244.27,69Z"/><path class="cls-112" d="M236.7,69c-4.34-.39-3.6,4.88-1.95,7.15-5.54,6.83-10.37,12.38-14.48,10.86S215,87,215,80.89,223.7,64.55,225.12,58c9.85-2.79,15.12,2.17,15.12,2.17Z"/><path class="cls-113" d="M264.3,72.46c-2.29-7.59-10.79-6.65-14.56-1.9s-19.07-.3-23-5.32-.12-14.38,3.66-19.43,16.57-10.36,26-4.94,11.81,9.93,12.27,19.53S264.3,72.46,264.3,72.46Z"/><polygon class="cls-114" points="591.65 435.29 591.65 433.84 621.07 416.85 621.07 418.31 591.65 435.29"/><polygon class="cls-115" points="591.65 435.29 535.35 402.78 535.35 401.33 591.65 433.84 591.65 435.29"/><ellipse class="cls-116" cx="563.66" cy="410.38" rx="3.15" ry="5.46" transform="matrix(0.01, -1, 1, 0.01, 150.23, 971.81)"/><ellipse class="cls-116" cx="593.66" cy="427.7" rx="3.15" ry="5.46" transform="translate(162.75 1019.03) rotate(-89.69)"/><ellipse class="cls-117" cx="578.66" cy="419.04" rx="4.36" ry="7.56" transform="translate(156.49 995.42) rotate(-89.69)"/><polygon class="cls-118" points="591.65 433.84 535.35 401.33 564.77 384.34 621.07 416.85 591.65 433.84"/><path class="cls-119" d="M609.51,419.06l-14,8.1a8.49,8.49,0,0,0-7.71,0l-40.82-23.57c2.12-1.23,2.11-3.22,0-4.46l14-8.1a8.54,8.54,0,0,0,7.72,0l40.82,23.56C607.36,415.83,607.37,417.82,609.51,419.06Z"/><ellipse class="cls-120" cx="563.66" cy="400.17" rx="3.15" ry="5.46" transform="translate(160.44 961.65) rotate(-89.69)"/><ellipse class="cls-121" cx="593.66" cy="417.49" rx="3.15" ry="5.46" transform="matrix(0.01, -1, 1, 0.01, 172.96, 1008.88)"/><ellipse class="cls-122" cx="578.66" cy="408.83" rx="4.36" ry="7.56" transform="translate(166.7 985.27) rotate(-89.69)"/><polygon class="cls-123" points="570.27 380.98 570.27 370.78 540.85 353.79 540.85 364 570.27 380.98"/><polygon class="cls-124" points="570.27 380.98 626.58 348.48 626.58 338.27 570.27 370.78 570.27 380.98"/><ellipse class="cls-125" cx="598.26" cy="347.32" rx="5.46" ry="3.15" transform="translate(-1.87 3.25) rotate(-0.31)"/><ellipse class="cls-126" cx="568.27" cy="364.64" rx="5.46" ry="3.15" transform="translate(-1.97 3.09) rotate(-0.31)"/><ellipse class="cls-117" cx="583.26" cy="355.98" rx="7.56" ry="4.36" transform="translate(-1.92 3.17) rotate(-0.31)"/><polygon class="cls-127" points="570.27 370.78 626.58 338.27 597.16 321.28 540.85 353.79 570.27 370.78"/><path class="cls-119" d="M552.42,356l14,8.1a8.51,8.51,0,0,1,7.72,0L615,340.52c-2.13-1.23-2.12-3.22,0-4.46L601,328a8.54,8.54,0,0,1-7.72,0l-40.82,23.56C554.57,352.77,554.56,354.76,552.42,356Z"/><ellipse class="cls-128" cx="598.26" cy="337.11" rx="5.46" ry="3.15" transform="translate(-1.82 3.25) rotate(-0.31)"/><ellipse class="cls-129" cx="568.27" cy="354.43" rx="5.46" ry="3.15" transform="translate(-1.91 3.09) rotate(-0.31)"/><ellipse class="cls-130" cx="583.26" cy="345.77" rx="7.56" ry="4.36" transform="translate(-1.87 3.17) rotate(-0.31)"/><polygon class="cls-131" points="566.6 338.91 596.29 355.82 603.2 351.83 573.51 334.92 566.6 338.91"/><polygon class="cls-132" points="596.29 355.82 596.29 365.96 603.2 361.97 603.2 351.83 596.29 355.82"/><polygon class="cls-133" points="604.15 401.82 604.15 391.61 574.73 374.63 574.73 384.84 604.15 401.82"/><polygon class="cls-134" points="604.15 401.82 660.46 369.31 660.46 359.11 604.15 391.61 604.15 401.82"/><ellipse class="cls-135" cx="632.14" cy="368.16" rx="5.46" ry="3.15" transform="translate(-1.99 3.43) rotate(-0.31)"/><ellipse class="cls-136" cx="602.14" cy="385.48" rx="5.46" ry="3.15" transform="translate(-2.08 3.27) rotate(-0.31)"/><ellipse class="cls-117" cx="617.14" cy="376.82" rx="7.56" ry="4.36" transform="translate(-2.03 3.35) rotate(-0.31)"/><polygon class="cls-137" points="604.15 391.61 660.46 359.11 631.04 342.12 574.73 374.63 604.15 391.61"/><path class="cls-119" d="M586.3,376.84l14,8.1a8.54,8.54,0,0,1,7.72,0l40.82-23.56c-2.13-1.23-2.12-3.22,0-4.46l-14-8.1a8.54,8.54,0,0,1-7.72,0l-40.82,23.57C588.45,373.61,588.44,375.6,586.3,376.84Z"/><ellipse class="cls-138" cx="632.14" cy="357.95" rx="5.46" ry="3.15" transform="translate(-1.93 3.43) rotate(-0.31)"/><ellipse class="cls-139" cx="602.14" cy="375.27" rx="5.46" ry="3.15" transform="translate(-2.03 3.27) rotate(-0.31)"/><ellipse class="cls-140" cx="617.14" cy="366.61" rx="7.56" ry="4.36" transform="translate(-1.98 3.35) rotate(-0.31)"/><polygon class="cls-141" points="600.48 359.75 630.17 376.66 637.08 372.67 607.39 355.76 600.48 359.75"/><polygon class="cls-142" points="630.17 376.66 630.17 386.8 637.08 382.81 637.08 372.67 630.17 376.66"/><polygon class="cls-143" points="591.6 378.78 591.6 368.57 562.18 351.59 562.18 361.8 591.6 378.78"/><polygon class="cls-144" points="591.6 378.78 647.91 346.27 647.91 336.07 591.6 368.57 591.6 378.78"/><ellipse class="cls-145" cx="619.59" cy="345.12" rx="5.46" ry="3.15" transform="translate(-1.86 3.36) rotate(-0.31)"/><ellipse class="cls-146" cx="589.59" cy="362.44" rx="5.46" ry="3.15" transform="translate(-1.96 3.2) rotate(-0.31)"/><ellipse class="cls-117" cx="604.59" cy="353.78" rx="7.56" ry="4.36" transform="translate(-1.91 3.28) rotate(-0.31)"/><polygon class="cls-147" points="591.6 368.57 647.91 336.07 618.49 319.08 562.18 351.59 591.6 368.57"/><path class="cls-119" d="M573.75,353.8l14,8.1a8.54,8.54,0,0,1,7.72,0l40.82-23.56c-2.13-1.23-2.12-3.22,0-4.46l-14-8.1a8.54,8.54,0,0,1-7.72,0l-40.82,23.57C575.9,350.57,575.89,352.56,573.75,353.8Z"/><ellipse class="cls-148" cx="619.59" cy="334.91" rx="5.46" ry="3.15" transform="translate(-1.81 3.36) rotate(-0.31)"/><ellipse class="cls-149" cx="589.59" cy="352.23" rx="5.46" ry="3.15" transform="matrix(1, -0.01, 0.01, 1, -1.9, 3.2)"/><ellipse class="cls-150" cx="604.59" cy="343.57" rx="7.56" ry="4.36" transform="translate(-1.85 3.28) rotate(-0.31)"/><polygon class="cls-151" points="587.93 336.71 617.62 353.62 624.53 349.63 594.84 332.72 587.93 336.71"/><polygon class="cls-152" points="617.62 353.62 617.62 363.76 624.53 359.77 624.53 349.63 617.62 353.62"/><path class="cls-153" d="M637,395.89c-1.73,1-7.43,4-7.43,4s0,3.94,0,6.4c0,3.78,2.54,7.57,7.56,10.46,10,5.79,26.23,5.82,36.19.07,4.88-2.82,7.36-6.5,7.44-10.21s0-6.47,0-6.47S646.94,390.14,637,395.89Z"/><ellipse class="cls-154" cx="655.13" cy="400.19" rx="14.78" ry="25.6" transform="translate(251.39 1053.13) rotate(-89.69)"/><path class="cls-155" d="M640.53,391.76c8-4.63,21.05-4.61,29.11.05,4.8,2.76,6.75,6.56,5.86,10.14-.6,2.44-2.53,4.79-5.77,6.66-8,4.63-21.05,4.61-29.12-.05-4-2.31-6-5.32-6.07-8.34S636.49,394.09,640.53,391.76Z"/><path class="cls-156" d="M640.31,393.57c8-4.63,21.05-4.61,29.12.05,4,2.31,6,5.32,6.07,8.33-.6,2.44-2.53,4.79-5.77,6.66-8,4.63-21.05,4.61-29.12-.05-4-2.31-6-5.32-6.07-8.34C635.15,397.78,637.07,395.44,640.31,393.57Z"/><path class="cls-157" d="M664.52,395.12c2.73,1.89,3.25,4.08.49,5.67l-3-1.73c1.12-.76,1.33-1.68.2-2.61l-5.37,3.1c1.85,1.77,3.87,3.72.43,5.71-2.74,1.58-6.73,1.44-10-.16l-2,1.16-1.59-.93,2-1.14c-2.59-1.77-3-3.76-.43-5.48l3,1.73a1.41,1.41,0,0,0-.21,2.39l5.28-3.05c-1.88-1.76-3.89-3.68-.45-5.67,2.37-1.37,6.48-1.64,10.09.1l2-1.15,1.59.92Zm-10.08,5.82-4.93,2.85a5.21,5.21,0,0,0,4.77-.09C655.7,402.88,655.35,402,654.44,400.94Zm1.23-2.55,5-2.86a5.66,5.66,0,0,0-4.85.13C654.39,396.46,654.76,397.38,655.67,398.39Z"/><path class="cls-158" d="M637,386.73c-1.73,1-7.43,4-7.43,4s0,3.94,0,6.4c0,3.78,2.54,7.57,7.56,10.46,10,5.79,26.23,5.82,36.19.07,4.88-2.82,7.36-6.5,7.44-10.2.08-3.86,0-6.48,0-6.48S646.94,381,637,386.73Z"/><ellipse class="cls-159" cx="655.13" cy="391.02" rx="14.78" ry="25.6" transform="translate(260.56 1044.02) rotate(-89.69)"/><path class="cls-160" d="M640.53,382.59c8-4.62,21.05-4.6,29.11.05,4.8,2.77,6.75,6.56,5.86,10.15-.6,2.43-2.53,4.79-5.77,6.66-8,4.63-21.05,4.6-29.12-.05-4-2.31-6-5.33-6.07-8.35S636.49,384.92,640.53,382.59Z"/><path class="cls-161" d="M640.31,384.4c8-4.63,21.05-4.6,29.12.05,4,2.31,6,5.32,6.07,8.34-.6,2.43-2.53,4.79-5.77,6.66-8,4.63-21.05,4.6-29.12-.05-4-2.31-6-5.33-6.07-8.35C635.15,388.61,637.07,386.27,640.31,384.4Z"/><path class="cls-157" d="M664.52,386c2.73,1.88,3.25,4.07.49,5.67l-3-1.73c1.12-.77,1.33-1.68.2-2.62l-5.37,3.1c1.85,1.77,3.87,3.73.43,5.71-2.74,1.58-6.73,1.45-10-.16l-2,1.16-1.59-.92,2-1.14c-2.59-1.78-3-3.77-.43-5.49l3,1.73a1.41,1.41,0,0,0-.21,2.39l5.28-3.05c-1.88-1.75-3.89-3.68-.45-5.67,2.37-1.36,6.48-1.64,10.09.11l2-1.16,1.59.92Zm-10.08,5.82-4.93,2.84a5.21,5.21,0,0,0,4.77-.09C655.7,393.71,655.35,392.78,654.44,391.78Zm1.23-2.56,5-2.86a5.66,5.66,0,0,0-4.85.13C654.39,387.29,654.76,388.21,655.67,389.22Z"/><path class="cls-162" d="M637,377.56c-1.73,1-7.43,4-7.43,4s0,3.93,0,6.4c0,3.78,2.54,7.56,7.56,10.46,10,5.79,26.23,5.82,36.19.06,4.88-2.81,7.36-6.5,7.44-10.2.08-3.86,0-6.48,0-6.48S646.94,371.81,637,377.56Z"/><ellipse class="cls-163" cx="655.13" cy="381.85" rx="14.78" ry="25.6" transform="translate(269.73 1034.9) rotate(-89.69)"/><path class="cls-164" d="M640.53,373.42c8-4.62,21.05-4.6,29.11.05,4.8,2.77,6.75,6.56,5.86,10.15-.6,2.44-2.53,4.79-5.77,6.66-8,4.63-21.05,4.6-29.12,0-4-2.31-6-5.33-6.07-8.35S636.49,375.76,640.53,373.42Z"/><path class="cls-165" d="M640.31,375.24c8-4.63,21.05-4.61,29.12.05,4,2.3,6,5.32,6.07,8.33-.6,2.44-2.53,4.79-5.77,6.66-8,4.63-21.05,4.6-29.12,0-4-2.31-6-5.33-6.07-8.35C635.15,379.44,637.07,377.1,640.31,375.24Z"/><path class="cls-157" d="M664.52,376.79c2.73,1.88,3.25,4.08.49,5.67l-3-1.73c1.12-.76,1.33-1.68.2-2.62l-5.37,3.1c1.85,1.77,3.87,3.73.43,5.72-2.74,1.57-6.73,1.44-10-.16l-2,1.15-1.59-.92,2-1.14c-2.59-1.77-3-3.77-.43-5.49l3,1.73a1.41,1.41,0,0,0-.21,2.39l5.28-3c-1.88-1.76-3.89-3.68-.45-5.67,2.37-1.37,6.48-1.64,10.09.1l2-1.15,1.59.92Zm-10.08,5.82-4.93,2.85a5.21,5.21,0,0,0,4.77-.09C655.7,384.55,655.35,383.61,654.44,382.61Zm1.23-2.56,5-2.86a5.66,5.66,0,0,0-4.85.13C654.39,378.13,654.76,379.05,655.67,380.05Z"/><ellipse class="cls-166" cx="632.5" cy="218.16" rx="27.8" ry="16.05" transform="matrix(1, -0.01, 0.01, 1, -1.17, 3.43)"/><ellipse class="cls-167" cx="632.5" cy="218.16" rx="15.03" ry="8.67" transform="translate(-1.17 3.43) rotate(-0.31)"/><path class="cls-168" d="M614.19,151.49a66.6,66.6,0,0,1,6.07-4.17c4-2.43,9.53-2.16,15.69,1.4,12,6.93,21.75,23.73,21.75,37.52,0,10.7-13.1,23.08-19,28.09-.71.61-4.44,4.36-5.47,3.77s.62-5.55-.1-7C627.29,199.33,614.19,151.49,614.19,151.49Z"/><path class="cls-169" d="M608.72,164.89c0-13.79,9.74-19.34,21.76-12.4s21.75,23.73,21.75,37.52c0,10.7-13.1,23.08-19,28.09-1.43,1.22-4.14-.35-5.57-3.22C621.82,203.09,608.72,175.59,608.72,164.89Z"/><ellipse class="cls-170" cx="630.48" cy="177.45" rx="8.85" ry="15.33" transform="translate(-3.37 342.45) rotate(-30.31)"/></g></g></svg>