<svg xmlns="http://www.w3.org/2000/svg" xmlns:xlink="http://www.w3.org/1999/xlink" viewBox="0 0 800 600"><defs><style>.cls-1{isolation:isolate;}.cls-2{fill:url(#linear-gradient);}.cls-3{fill:url(#linear-gradient-2);}.cls-4{fill:url(#New_Gradient_Swatch_copy_20);}.cls-5{fill:url(#linear-gradient-3);}.cls-6{fill:url(#New_Gradient_Swatch_copy_20-2);}.cls-7{fill:url(#linear-gradient-4);}.cls-8{fill:url(#New_Gradient_Swatch_copy_20-3);}.cls-16,.cls-19,.cls-20,.cls-26,.cls-9{mix-blend-mode:multiply;}.cls-16,.cls-20,.cls-9{opacity:0.4;}.cls-9{fill:url(#New_Gradient_Swatch_copy_20-4);}.cls-10{fill:url(#linear-gradient-5);}.cls-11{fill:url(#New_Gradient_Swatch_copy_26);}.cls-12{fill:url(#New_Gradient_Swatch_copy_21);}.cls-13{fill:url(#New_Gradient_Swatch_copy_21-2);}.cls-14{fill:url(#New_Gradient_Swatch_copy_21-3);}.cls-15{fill:url(#New_Gradient_Swatch_copy_17);}.cls-16{fill:url(#New_Gradient_Swatch_copy_20-5);}.cls-17{fill:url(#New_Gradient_Swatch_copy_26-2);}.cls-18{fill:url(#New_Gradient_Swatch_copy_26-3);}.cls-103,.cls-104,.cls-105,.cls-19,.cls-26{opacity:0.5;}.cls-19{fill:url(#New_Gradient_Swatch_copy_17-2);}.cls-20{fill:url(#New_Gradient_Swatch_copy_20-6);}.cls-21{fill:url(#linear-gradient-6);}.cls-22{fill:url(#New_Gradient_Swatch_copy_26-4);}.cls-23{fill:url(#New_Gradient_Swatch_copy_21-4);}.cls-24{fill:url(#New_Gradient_Swatch_copy_20-7);}.cls-25{fill:url(#linear-gradient-7);}.cls-26{fill:url(#linear-gradient-8);}.cls-27{fill:url(#New_Gradient_Swatch_copy_20-8);}.cls-28{fill:#4e5066;}.cls-29{fill:url(#linear-gradient-9);}.cls-30{fill:url(#linear-gradient-10);}.cls-31{fill:url(#linear-gradient-11);}.cls-32{fill:url(#linear-gradient-12);}.cls-33{fill:url(#linear-gradient-13);}.cls-34{fill:#0f1128;}.cls-35{fill:url(#linear-gradient-14);}.cls-36{fill:url(#linear-gradient-15);}.cls-37{fill:url(#linear-gradient-16);}.cls-38{fill:url(#linear-gradient-17);}.cls-39{fill:url(#linear-gradient-18);}.cls-40{fill:url(#linear-gradient-19);}.cls-41{fill:url(#linear-gradient-20);}.cls-42{fill:url(#linear-gradient-21);}.cls-43{fill:url(#linear-gradient-22);}.cls-44{fill:url(#linear-gradient-23);}.cls-45{fill:#eaebf9;}.cls-46{fill:#4ea1da;}.cls-47{fill:url(#New_Gradient_Swatch_copy_9);}.cls-48{fill:url(#New_Gradient_Swatch_copy_10);}.cls-49{fill:url(#linear-gradient-24);}.cls-50{fill:url(#linear-gradient-25);}.cls-51{fill:url(#linear-gradient-26);}.cls-52{fill:url(#linear-gradient-27);}.cls-53{fill:#50d2d6;}.cls-54{fill:url(#linear-gradient-28);}.cls-55{fill:#e9faff;}.cls-56{fill:#aad8e4;}.cls-57{fill:#d4eff6;}.cls-58{fill:url(#linear-gradient-29);}.cls-59{fill:url(#linear-gradient-30);}.cls-60{fill:url(#linear-gradient-31);}.cls-61,.cls-62{opacity:0.8;}.cls-61{fill:url(#linear-gradient-32);}.cls-63{fill:url(#linear-gradient-33);}.cls-64{fill:#0a5793;}.cls-65{fill:url(#New_Gradient_Swatch_copy_17-3);}.cls-66{fill:url(#linear-gradient-34);}.cls-67{fill:url(#New_Gradient_Swatch_copy_17-4);}.cls-68{fill:url(#linear-gradient-35);}.cls-69{fill:url(#linear-gradient-36);}.cls-70{fill:url(#linear-gradient-37);}.cls-71{fill:url(#linear-gradient-38);}.cls-72{fill:url(#linear-gradient-39);}.cls-73{fill:url(#linear-gradient-40);}.cls-74{fill:url(#New_Gradient_Swatch_copy_22);}.cls-75{fill:url(#linear-gradient-41);}.cls-76{fill:url(#linear-gradient-42);}.cls-77{fill:url(#New_Gradient_Swatch_copy_22-2);}.cls-78{fill:url(#linear-gradient-43);}.cls-79{fill:url(#linear-gradient-44);}.cls-80{fill:url(#New_Gradient_Swatch_copy_22-3);}.cls-81{fill:url(#linear-gradient-45);}.cls-82{fill:url(#linear-gradient-46);}.cls-83{fill:url(#New_Gradient_Swatch_copy_22-4);}.cls-84{fill:url(#linear-gradient-47);}.cls-85{fill:url(#linear-gradient-48);}.cls-86{fill:url(#New_Gradient_Swatch_copy_22-5);}.cls-87{fill:url(#linear-gradient-49);}.cls-88{fill:url(#linear-gradient-50);}.cls-89{fill:url(#New_Gradient_Swatch_copy_22-6);}.cls-90{fill:url(#linear-gradient-51);}.cls-91{fill:url(#linear-gradient-52);}.cls-92{fill:url(#New_Gradient_Swatch_copy_22-7);}.cls-93{fill:url(#linear-gradient-53);}.cls-94{fill:url(#linear-gradient-54);}.cls-95{fill:url(#New_Gradient_Swatch_copy_22-8);}.cls-96{fill:url(#linear-gradient-55);}.cls-97{fill:url(#linear-gradient-56);}.cls-98{fill:url(#linear-gradient-57);}.cls-99{fill:url(#linear-gradient-58);}.cls-100{fill:url(#linear-gradient-59);}.cls-101{fill:url(#linear-gradient-60);}.cls-102{fill:url(#linear-gradient-61);}.cls-103,.cls-104,.cls-105,.cls-130{mix-blend-mode:screen;}.cls-103{fill:url(#New_Gradient_Swatch_copy_18);}.cls-104{fill:url(#New_Gradient_Swatch_copy_18-2);}.cls-105{fill:url(#New_Gradient_Swatch_copy_18-3);}.cls-106{fill:url(#New_Gradient_Swatch_copy_22-9);}.cls-107{fill:url(#linear-gradient-62);}.cls-108{fill:url(#linear-gradient-63);}.cls-109{fill:url(#New_Gradient_Swatch_copy_22-10);}.cls-110{fill:url(#linear-gradient-64);}.cls-111{fill:url(#linear-gradient-65);}.cls-112{fill:url(#New_Gradient_Swatch_copy_22-11);}.cls-113{fill:url(#linear-gradient-66);}.cls-114{fill:url(#linear-gradient-67);}.cls-115{fill:url(#New_Gradient_Swatch_copy_22-12);}.cls-116{fill:url(#linear-gradient-68);}.cls-117{fill:url(#linear-gradient-69);}.cls-118{fill:url(#New_Gradient_Swatch_copy_22-13);}.cls-119{fill:url(#linear-gradient-70);}.cls-120{fill:url(#linear-gradient-71);}.cls-121{fill:url(#New_Gradient_Swatch_copy_22-14);}.cls-122{fill:url(#linear-gradient-72);}.cls-123{fill:url(#linear-gradient-73);}.cls-124{fill:url(#linear-gradient-74);}.cls-125{fill:url(#linear-gradient-75);}.cls-126{fill:url(#linear-gradient-76);}.cls-127{fill:url(#linear-gradient-77);}.cls-128{fill:url(#linear-gradient-78);}.cls-129{fill:url(#linear-gradient-79);}.cls-130{fill:#f9f0ff;opacity:0.61;}.cls-131{fill:url(#linear-gradient-80);}.cls-132{fill:url(#New_Gradient_Swatch_copy_18-4);}.cls-133{fill:url(#linear-gradient-81);}.cls-134{fill:url(#linear-gradient-82);}.cls-135{fill:url(#linear-gradient-83);}.cls-136{fill:url(#linear-gradient-84);}.cls-137{fill:url(#linear-gradient-85);}.cls-138{fill:url(#linear-gradient-86);}.cls-139{fill:url(#linear-gradient-87);}.cls-140{fill:url(#New_Gradient_Swatch_copy_8);}.cls-141{fill:url(#New_Gradient_Swatch_copy_10-2);}.cls-142{fill:url(#linear-gradient-88);}.cls-143{fill:url(#linear-gradient-89);}</style><linearGradient id="linear-gradient" x1="126.97" y1="472.63" x2="218.93" y2="318.65" gradientUnits="userSpaceOnUse"><stop offset="0" stop-color="#56aac1"/><stop offset="1" stop-color="#56aac1" stop-opacity="0"/></linearGradient><linearGradient id="linear-gradient-2" x1="534.63" y1="405.94" x2="373.52" y2="571.52" xlink:href="#linear-gradient"/><linearGradient id="New_Gradient_Swatch_copy_20" x1="437.22" y1="483.5" x2="486.86" y2="483.5" gradientUnits="userSpaceOnUse"><stop offset="0" stop-color="#2a2c43"/><stop offset="1" stop-color="#3c3e54"/></linearGradient><linearGradient id="linear-gradient-3" x1="403.89" y1="415.38" x2="474.21" y2="415.38" gradientUnits="userSpaceOnUse"><stop offset="0.02" stop-color="#d9936e"/><stop offset="1" stop-color="#d9715f"/></linearGradient><linearGradient id="New_Gradient_Swatch_copy_20-2" x1="412.52" y1="524.55" x2="454.94" y2="524.55" xlink:href="#New_Gradient_Swatch_copy_20"/><linearGradient id="linear-gradient-4" x1="427.64" y1="432.5" x2="470.3" y2="432.5" gradientUnits="userSpaceOnUse"><stop offset="0.02" stop-color="#ffb994"/><stop offset="1" stop-color="#ff9785"/></linearGradient><linearGradient id="New_Gradient_Swatch_copy_20-3" x1="481.28" y1="353.29" x2="401.86" y2="348.94" xlink:href="#New_Gradient_Swatch_copy_20"/><linearGradient id="New_Gradient_Swatch_copy_20-4" x1="481.28" y1="351.53" x2="403.07" y2="347.25" xlink:href="#New_Gradient_Swatch_copy_20"/><linearGradient id="linear-gradient-5" x1="309.91" y1="224.99" x2="353.95" y2="224.99" xlink:href="#linear-gradient-4"/><linearGradient id="New_Gradient_Swatch_copy_26" x1="346.32" y1="238.67" x2="417.94" y2="238.67" gradientUnits="userSpaceOnUse"><stop offset="0" stop-color="#55576d"/><stop offset="1" stop-color="#67697f"/></linearGradient><linearGradient id="New_Gradient_Swatch_copy_21" x1="346.32" y1="249.3" x2="415.86" y2="249.3" gradientUnits="userSpaceOnUse"><stop offset="0" stop-color="#3c3e54"/><stop offset="1" stop-color="#4e5066"/></linearGradient><linearGradient id="New_Gradient_Swatch_copy_21-2" x1="431.48" y1="255.62" x2="403.85" y2="254.1" xlink:href="#New_Gradient_Swatch_copy_21"/><linearGradient id="New_Gradient_Swatch_copy_21-3" x1="477.04" y1="258.91" x2="436.68" y2="256.69" xlink:href="#New_Gradient_Swatch_copy_21"/><linearGradient id="New_Gradient_Swatch_copy_17" x1="457.93" y1="255.79" x2="418.49" y2="253.62" gradientUnits="userSpaceOnUse"><stop offset="0" stop-color="#dcddf0"/><stop offset="1" stop-color="#eaebf9"/></linearGradient><linearGradient id="New_Gradient_Swatch_copy_20-5" x1="459.72" y1="241.93" x2="439.59" y2="240.82" xlink:href="#New_Gradient_Swatch_copy_20"/><linearGradient id="New_Gradient_Swatch_copy_26-2" x1="460.21" y1="232.98" x2="440.78" y2="231.91" xlink:href="#New_Gradient_Swatch_copy_26"/><linearGradient id="New_Gradient_Swatch_copy_26-3" x1="426.06" y1="227.75" x2="413.48" y2="227.06" xlink:href="#New_Gradient_Swatch_copy_26"/><linearGradient id="New_Gradient_Swatch_copy_17-2" x1="423.02" y1="273.25" x2="417.62" y2="272.95" xlink:href="#New_Gradient_Swatch_copy_17"/><linearGradient id="New_Gradient_Swatch_copy_20-6" x1="476.31" y1="272.17" x2="433.31" y2="269.81" xlink:href="#New_Gradient_Swatch_copy_20"/><linearGradient id="linear-gradient-6" x1="412.8" y1="259.04" x2="442.52" y2="259.04" xlink:href="#linear-gradient-4"/><linearGradient id="New_Gradient_Swatch_copy_26-4" x1="433.9" y1="256.28" x2="488.23" y2="256.28" xlink:href="#New_Gradient_Swatch_copy_26"/><linearGradient id="New_Gradient_Swatch_copy_21-4" x1="440.42" y1="254.43" x2="472.42" y2="254.43" xlink:href="#New_Gradient_Swatch_copy_21"/><linearGradient id="New_Gradient_Swatch_copy_20-7" x1="417.16" y1="192.84" x2="430.3" y2="175.37" xlink:href="#New_Gradient_Swatch_copy_20"/><linearGradient id="linear-gradient-7" x1="428.13" y1="178.58" x2="440.74" y2="173.17" xlink:href="#linear-gradient-4"/><linearGradient id="linear-gradient-8" x1="434.57" y1="198.88" x2="443.4" y2="195.09" xlink:href="#linear-gradient-4"/><linearGradient id="New_Gradient_Swatch_copy_20-8" x1="434.62" y1="178.15" x2="469.56" y2="131.7" xlink:href="#New_Gradient_Swatch_copy_20"/><linearGradient id="linear-gradient-9" x1="427.99" y1="133.1" x2="449.74" y2="166.55" gradientUnits="userSpaceOnUse"><stop offset="0" stop-color="#39aeb3"/><stop offset="1" stop-color="#0b656c"/></linearGradient><linearGradient id="linear-gradient-10" x1="445.91" y1="147.81" x2="421.26" y2="160.24" gradientUnits="userSpaceOnUse"><stop offset="0" stop-color="#50d2d6"/><stop offset="1" stop-color="#5be4e8"/></linearGradient><linearGradient id="linear-gradient-11" x1="450.58" y1="180.34" x2="454.07" y2="165.2" gradientUnits="userSpaceOnUse"><stop offset="0" stop-color="#0a5793"/><stop offset="1" stop-color="#3383be"/></linearGradient><linearGradient id="linear-gradient-12" x1="471.79" y1="183.09" x2="451.81" y2="182" gradientTransform="matrix(0.87, 0.5, -1, 0.58, 237.82, -163.1)" gradientUnits="userSpaceOnUse"><stop offset="0" stop-color="#4092cc"/><stop offset="1" stop-color="#69bef7"/></linearGradient><linearGradient id="linear-gradient-13" x1="467.84" y1="182.88" x2="454.95" y2="182.17" gradientTransform="matrix(0.87, 0.5, -1, 0.58, 237.82, -163.1)" xlink:href="#linear-gradient-10"/><linearGradient id="linear-gradient-14" x1="587.77" y1="219.34" x2="663.7" y2="219.34" xlink:href="#linear-gradient-11"/><linearGradient id="linear-gradient-15" x1="577.23" y1="223.65" x2="652.83" y2="223.65" gradientUnits="userSpaceOnUse"><stop offset="0" stop-color="#4092cc"/><stop offset="1" stop-color="#5bafe9"/></linearGradient><linearGradient id="linear-gradient-16" x1="593.87" y1="221.72" x2="636.2" y2="221.72" gradientUnits="userSpaceOnUse"><stop offset="0" stop-color="#d4eff6"/><stop offset="1" stop-color="#e9faff"/></linearGradient><linearGradient id="linear-gradient-17" x1="340.44" y1="190.93" x2="350.78" y2="207.87" gradientUnits="userSpaceOnUse"><stop offset="0.03" stop-color="#8451a5"/><stop offset="1" stop-color="#4b1b69"/></linearGradient><linearGradient id="linear-gradient-18" x1="316.53" y1="216.38" x2="329.29" y2="189.76" gradientUnits="userSpaceOnUse"><stop offset="0" stop-color="#ab76cc"/><stop offset="1" stop-color="#9864b8"/></linearGradient><linearGradient id="linear-gradient-19" x1="412.84" y1="-226.39" x2="491.51" y2="-226.39" gradientTransform="matrix(0.87, 0.5, 0, 1.15, -66.97, 220.66)" gradientUnits="userSpaceOnUse"><stop offset="0" stop-color="#d19af4"/><stop offset="1" stop-color="#be88e0"/></linearGradient><linearGradient id="linear-gradient-20" x1="291.54" y1="399.82" x2="292.48" y2="397.73" gradientUnits="userSpaceOnUse"><stop offset="0" stop-color="#aad8e4"/><stop offset="1" stop-color="#95ccdc"/></linearGradient><linearGradient id="linear-gradient-21" x1="331.29" y1="507.74" x2="339.67" y2="489.08" gradientUnits="userSpaceOnUse"><stop offset="0" stop-color="#80c1d3"/><stop offset="1" stop-color="#56aac1"/></linearGradient><linearGradient id="linear-gradient-22" x1="261.63" y1="495.72" x2="339.76" y2="423.6" gradientUnits="userSpaceOnUse"><stop offset="0" stop-color="#e9faff"/><stop offset="1" stop-color="#bfe3ed"/></linearGradient><linearGradient id="linear-gradient-23" x1="263.26" y1="464.33" x2="328" y2="464.33" gradientUnits="userSpaceOnUse"><stop offset="0" stop-color="#0a5793"/><stop offset="1" stop-color="#2574b0"/></linearGradient><linearGradient id="New_Gradient_Swatch_copy_9" x1="235.66" y1="400.49" x2="281.85" y2="400.49" gradientUnits="userSpaceOnUse"><stop offset="0" stop-color="#396a13"/><stop offset="1" stop-color="#6f9d34"/></linearGradient><linearGradient id="New_Gradient_Swatch_copy_10" x1="229.79" y1="402.52" x2="274.92" y2="402.52" gradientTransform="translate(237.64 -72.34) rotate(30.31)" gradientUnits="userSpaceOnUse"><stop offset="0" stop-color="#6f9d34"/><stop offset="1" stop-color="#a2c25b"/></linearGradient><linearGradient id="linear-gradient-24" x1="320.15" y1="431.84" x2="336.75" y2="431.84" xlink:href="#linear-gradient-16"/><linearGradient id="linear-gradient-25" x1="320.45" y1="430.83" x2="340.24" y2="430.83" xlink:href="#linear-gradient-20"/><linearGradient id="linear-gradient-26" x1="357.95" y1="54.41" x2="334.48" y2="120.84" gradientUnits="userSpaceOnUse"><stop offset="0" stop-color="#5be4e8"/><stop offset="1" stop-color="#22898f"/></linearGradient><linearGradient id="linear-gradient-27" x1="346.03" y1="75.97" x2="333.16" y2="129.06" xlink:href="#linear-gradient-22"/><linearGradient id="linear-gradient-28" x1="540.56" y1="417.9" x2="711.58" y2="417.9" gradientUnits="userSpaceOnUse"><stop offset="0" stop-color="#44c0c5"/><stop offset="1" stop-color="#16777e"/></linearGradient><linearGradient id="linear-gradient-29" x1="678.54" y1="-56.38" x2="843.97" y2="-56.38" gradientTransform="matrix(0.87, 0.5, 0, 1.15, -40.95, 102.91)" gradientUnits="userSpaceOnUse"><stop offset="0" stop-color="#f7c469"/><stop offset="1" stop-color="#ce4012"/></linearGradient><linearGradient id="linear-gradient-30" x1="383.63" y1="268.96" x2="454.51" y2="268.96" gradientUnits="userSpaceOnUse"><stop offset="0" stop-color="#69bef7"/><stop offset="1" stop-color="#4ea1da"/></linearGradient><linearGradient id="linear-gradient-31" x1="381.4" y1="270.06" x2="452.27" y2="270.06" xlink:href="#linear-gradient-23"/><linearGradient id="linear-gradient-32" x1="383.29" y1="269.5" x2="452.61" y2="269.5" gradientUnits="userSpaceOnUse"><stop offset="0" stop-color="#4ea1da"/><stop offset="1" stop-color="#3383be"/></linearGradient><linearGradient id="linear-gradient-33" x1="417.7" y1="255.88" x2="439.92" y2="255.88" gradientUnits="userSpaceOnUse"><stop offset="0" stop-color="#d65a23"/><stop offset="1" stop-color="#ffdf7b"/></linearGradient><linearGradient id="New_Gradient_Swatch_copy_17-3" x1="396.87" y1="289.97" x2="416.78" y2="289.97" xlink:href="#New_Gradient_Swatch_copy_17"/><linearGradient id="linear-gradient-34" x1="421.03" y1="299.64" x2="426.09" y2="299.64" xlink:href="#linear-gradient-33"/><linearGradient id="New_Gradient_Swatch_copy_17-4" x1="428.03" y1="307.96" x2="447.94" y2="307.96" xlink:href="#New_Gradient_Swatch_copy_17"/><linearGradient id="linear-gradient-35" x1="-30.01" y1="38.4" x2="52.92" y2="38.4" gradientTransform="matrix(-0.87, 0.5, 1, 0.58, 168.9, 336.96)" gradientUnits="userSpaceOnUse"><stop offset="0" stop-color="#56aac1"/><stop offset="1" stop-color="#80c1d3"/></linearGradient><linearGradient id="linear-gradient-36" x1="146.84" y1="364.89" x2="168.66" y2="364.89" gradientTransform="matrix(-1, 0, 0, 1, 333.24, 0)" gradientUnits="userSpaceOnUse"><stop offset="0" stop-color="#95ccdc"/><stop offset="1" stop-color="#bfe3ed"/></linearGradient><linearGradient id="linear-gradient-37" x1="-30.01" y1="2.56" x2="-4.65" y2="2.56" gradientTransform="matrix(-0.87, 0.5, 1, 0.58, 168.9, 336.96)" gradientUnits="userSpaceOnUse"><stop offset="0" stop-color="#bfe3ed"/><stop offset="1" stop-color="#e9faff"/></linearGradient><linearGradient id="linear-gradient-38" x1="-11.05" y1="1.28" x2="-8.09" y2="1.28" gradientTransform="matrix(-0.87, 0.5, 1, 0.58, 168.9, 336.96)" gradientUnits="userSpaceOnUse"><stop offset="0" stop-color="#80c1d3"/><stop offset="1" stop-color="#bfe3ed"/></linearGradient><linearGradient id="linear-gradient-39" x1="-29.53" y1="9.23" x2="-8.09" y2="9.23" xlink:href="#linear-gradient-35"/><linearGradient id="linear-gradient-40" x1="-29.53" y1="0" x2="-11.05" y2="0" xlink:href="#linear-gradient-37"/><linearGradient id="New_Gradient_Swatch_copy_22" x1="149.39" y1="370" x2="151.03" y2="370" gradientTransform="matrix(-1, 0, 0, 1, 333.24, 0)" gradientUnits="userSpaceOnUse"><stop offset="0" stop-color="#71739e"/><stop offset="1" stop-color="#7f81a7"/></linearGradient><linearGradient id="linear-gradient-41" x1="-716.64" y1="394.16" x2="-713.72" y2="339.43" gradientTransform="translate(898.62)" xlink:href="#linear-gradient-37"/><linearGradient id="linear-gradient-42" x1="-716.13" y1="394.17" x2="-714.82" y2="394.17" gradientTransform="translate(898.62)" xlink:href="#linear-gradient-37"/><linearGradient id="New_Gradient_Swatch_copy_22-2" x1="165.26" y1="361.7" x2="166.9" y2="361.7" xlink:href="#New_Gradient_Swatch_copy_22"/><linearGradient id="linear-gradient-43" x1="-732.51" y1="385.86" x2="-729.58" y2="331.14" gradientTransform="translate(898.62)" xlink:href="#linear-gradient-37"/><linearGradient id="linear-gradient-44" x1="-732" y1="385.88" x2="-730.69" y2="385.88" gradientTransform="translate(898.62)" xlink:href="#linear-gradient-37"/><linearGradient id="New_Gradient_Swatch_copy_22-3" x1="143" y1="369.05" x2="144.65" y2="369.05" xlink:href="#New_Gradient_Swatch_copy_22"/><linearGradient id="linear-gradient-45" x1="285.41" y1="393.21" x2="288.34" y2="338.49" gradientTransform="matrix(-1, 0, 0, 1, 475.88, 0)" xlink:href="#linear-gradient-37"/><linearGradient id="linear-gradient-46" x1="285.93" y1="393.23" x2="287.24" y2="393.23" gradientTransform="matrix(-1, 0, 0, 1, 475.88, 0)" xlink:href="#linear-gradient-37"/><linearGradient id="New_Gradient_Swatch_copy_22-4" x1="140" y1="367.49" x2="141.64" y2="367.49" xlink:href="#New_Gradient_Swatch_copy_22"/><linearGradient id="linear-gradient-47" x1="282.41" y1="391.65" x2="285.33" y2="336.93" gradientTransform="matrix(-1, 0, 0, 1, 475.88, 0)" xlink:href="#linear-gradient-37"/><linearGradient id="linear-gradient-48" x1="282.92" y1="391.66" x2="284.23" y2="391.66" gradientTransform="matrix(-1, 0, 0, 1, 475.88, 0)" xlink:href="#linear-gradient-37"/><linearGradient id="New_Gradient_Swatch_copy_22-5" x1="136.99" y1="365.93" x2="138.64" y2="365.93" xlink:href="#New_Gradient_Swatch_copy_22"/><linearGradient id="linear-gradient-49" x1="279.4" y1="390.09" x2="282.33" y2="335.37" gradientTransform="matrix(-1, 0, 0, 1, 475.88, 0)" xlink:href="#linear-gradient-37"/><linearGradient id="linear-gradient-50" x1="279.92" y1="390.1" x2="281.22" y2="390.1" gradientTransform="matrix(-1, 0, 0, 1, 475.88, 0)" xlink:href="#linear-gradient-37"/><linearGradient id="New_Gradient_Swatch_copy_22-6" x1="133.98" y1="364.37" x2="135.63" y2="364.37" xlink:href="#New_Gradient_Swatch_copy_22"/><linearGradient id="linear-gradient-51" x1="276.39" y1="388.53" x2="279.32" y2="333.8" gradientTransform="matrix(-1, 0, 0, 1, 475.88, 0)" xlink:href="#linear-gradient-37"/><linearGradient id="linear-gradient-52" x1="276.91" y1="388.54" x2="278.22" y2="388.54" gradientTransform="matrix(-1, 0, 0, 1, 475.88, 0)" xlink:href="#linear-gradient-37"/><linearGradient id="New_Gradient_Swatch_copy_22-7" x1="130.98" y1="362.81" x2="132.62" y2="362.81" xlink:href="#New_Gradient_Swatch_copy_22"/><linearGradient id="linear-gradient-53" x1="273.39" y1="386.97" x2="276.31" y2="332.24" gradientTransform="matrix(-1, 0, 0, 1, 475.88, 0)" xlink:href="#linear-gradient-37"/><linearGradient id="linear-gradient-54" x1="273.9" y1="386.98" x2="275.21" y2="386.98" gradientTransform="matrix(-1, 0, 0, 1, 475.88, 0)" xlink:href="#linear-gradient-37"/><linearGradient id="New_Gradient_Swatch_copy_22-8" x1="127.97" y1="361.24" x2="129.62" y2="361.24" xlink:href="#New_Gradient_Swatch_copy_22"/><linearGradient id="linear-gradient-55" x1="270.38" y1="385.4" x2="273.31" y2="330.68" gradientTransform="matrix(-1, 0, 0, 1, 475.88, 0)" xlink:href="#linear-gradient-37"/><linearGradient id="linear-gradient-56" x1="270.9" y1="385.42" x2="272.21" y2="385.42" gradientTransform="matrix(-1, 0, 0, 1, 475.88, 0)" xlink:href="#linear-gradient-37"/><linearGradient id="linear-gradient-57" x1="152.71" y1="350.99" x2="168.84" y2="350.99" gradientTransform="matrix(-1, 0, 0, 1, 333.24, 0)" xlink:href="#linear-gradient-37"/><linearGradient id="linear-gradient-58" x1="153.99" y1="350.99" x2="167.57" y2="350.99" gradientTransform="matrix(-1, 0, 0, 1, 333.24, 0)" xlink:href="#linear-gradient-35"/><linearGradient id="linear-gradient-59" x1="154.64" y1="351.36" x2="166.92" y2="351.36" gradientTransform="matrix(-1, 0, 0, 1, 333.24, 0)" xlink:href="#linear-gradient-38"/><linearGradient id="linear-gradient-60" x1="152.71" y1="376.16" x2="159.03" y2="376.16" gradientTransform="matrix(-1, 0, 0, 1, 333.24, 0)" xlink:href="#linear-gradient-35"/><linearGradient id="linear-gradient-61" x1="159.03" y1="375.15" x2="168.84" y2="375.15" xlink:href="#linear-gradient-36"/><linearGradient id="New_Gradient_Swatch_copy_18" x1="159.14" y1="329.43" x2="151.37" y2="366.88" gradientTransform="matrix(-1, 0, 0, 1, 333.24, 0)" gradientUnits="userSpaceOnUse"><stop offset="0" stop-color="#eaebf9"/><stop offset="1" stop-color="#eaebf9" stop-opacity="0"/></linearGradient><linearGradient id="New_Gradient_Swatch_copy_18-2" x1="170.52" y1="338.81" x2="166.2" y2="348.71" xlink:href="#New_Gradient_Swatch_copy_18"/><linearGradient id="New_Gradient_Swatch_copy_18-3" x1="167.95" y1="345.66" x2="155.26" y2="374.73" xlink:href="#New_Gradient_Swatch_copy_18"/><linearGradient id="New_Gradient_Swatch_copy_22-9" x1="160.5" y1="377.15" x2="162.14" y2="377.15" xlink:href="#New_Gradient_Swatch_copy_22"/><linearGradient id="linear-gradient-62" x1="-727.52" y1="396.88" x2="-725.12" y2="352.13" gradientTransform="translate(898.62)" xlink:href="#linear-gradient-37"/><linearGradient id="linear-gradient-63" x1="-727.24" y1="396.89" x2="-725.93" y2="396.89" gradientTransform="translate(898.62)" xlink:href="#linear-gradient-37"/><linearGradient id="New_Gradient_Swatch_copy_22-10" x1="163.5" y1="375.59" x2="165.15" y2="375.59" xlink:href="#New_Gradient_Swatch_copy_22"/><linearGradient id="linear-gradient-64" x1="-730.52" y1="395.32" x2="-728.13" y2="350.57" gradientTransform="translate(898.62)" xlink:href="#linear-gradient-37"/><linearGradient id="linear-gradient-65" x1="-730.24" y1="395.33" x2="-728.93" y2="395.33" gradientTransform="translate(898.62)" xlink:href="#linear-gradient-37"/><linearGradient id="New_Gradient_Swatch_copy_22-11" x1="166.51" y1="374.03" x2="168.16" y2="374.03" xlink:href="#New_Gradient_Swatch_copy_22"/><linearGradient id="linear-gradient-66" x1="-733.53" y1="393.76" x2="-731.13" y2="349.01" gradientTransform="translate(898.62)" xlink:href="#linear-gradient-37"/><linearGradient id="linear-gradient-67" x1="-733.25" y1="393.77" x2="-731.94" y2="393.77" gradientTransform="translate(898.62)" xlink:href="#linear-gradient-37"/><linearGradient id="New_Gradient_Swatch_copy_22-12" x1="152.89" y1="345.05" x2="162.61" y2="345.05" xlink:href="#New_Gradient_Swatch_copy_22"/><linearGradient id="linear-gradient-68" x1="-723.16" y1="350.13" x2="-722.53" y2="338.33" gradientTransform="translate(898.62)" xlink:href="#linear-gradient-37"/><linearGradient id="linear-gradient-69" x1="-726.29" y1="348.03" x2="-718.56" y2="348.03" gradientTransform="translate(898.62)" xlink:href="#linear-gradient-37"/><linearGradient id="New_Gradient_Swatch_copy_22-13" x1="156.58" y1="377.31" x2="158.22" y2="377.31" xlink:href="#New_Gradient_Swatch_copy_22"/><linearGradient id="linear-gradient-70" x1="518.28" y1="397.04" x2="520.67" y2="352.29" gradientTransform="matrix(-1, 0, 0, 1, 694.94, 0)" xlink:href="#linear-gradient-37"/><linearGradient id="linear-gradient-71" x1="518.56" y1="397.05" x2="519.87" y2="397.05" gradientTransform="matrix(-1, 0, 0, 1, 694.94, 0)" xlink:href="#linear-gradient-37"/><linearGradient id="New_Gradient_Swatch_copy_22-14" x1="153.57" y1="375.75" x2="155.22" y2="375.75" xlink:href="#New_Gradient_Swatch_copy_22"/><linearGradient id="linear-gradient-72" x1="515.27" y1="395.48" x2="517.67" y2="350.73" gradientTransform="matrix(-1, 0, 0, 1, 694.94, 0)" xlink:href="#linear-gradient-37"/><linearGradient id="linear-gradient-73" x1="515.55" y1="395.49" x2="516.86" y2="395.49" gradientTransform="matrix(-1, 0, 0, 1, 694.94, 0)" xlink:href="#linear-gradient-37"/><linearGradient id="linear-gradient-74" x1="-1679.56" y1="320.65" x2="-1568.82" y2="320.65" gradientTransform="translate(1808.16 -45.26)" gradientUnits="userSpaceOnUse"><stop offset="0" stop-color="#5be4e8"/><stop offset="1" stop-color="#39aeb3"/></linearGradient><linearGradient id="linear-gradient-75" x1="-1679.73" y1="342.14" x2="-1568.82" y2="342.14" gradientTransform="translate(1808.16 -45.26)" gradientUnits="userSpaceOnUse"><stop offset="0" stop-color="#39aeb3"/><stop offset="1" stop-color="#22898f"/></linearGradient><linearGradient id="linear-gradient-76" x1="-1682.95" y1="353.52" x2="-1675.14" y2="353.52" gradientTransform="translate(1808.16 -45.26)" xlink:href="#linear-gradient-35"/><linearGradient id="linear-gradient-77" x1="-1681.7" y1="350.06" x2="-1663.65" y2="350.06" gradientTransform="translate(1808.16 -45.26)" xlink:href="#linear-gradient-37"/><linearGradient id="linear-gradient-78" x1="-1664.68" y1="311.65" x2="-1583.7" y2="311.65" xlink:href="#linear-gradient-75"/><linearGradient id="linear-gradient-79" x1="-1664.36" y1="314.53" x2="-1584" y2="314.53" gradientTransform="translate(1808.16 -45.26)" gradientUnits="userSpaceOnUse"><stop offset="0" stop-color="#0b656c"/><stop offset="1" stop-color="#22898f"/></linearGradient><linearGradient id="linear-gradient-80" x1="-1725.01" y1="375.85" x2="-1711.1" y2="375.85" gradientTransform="translate(1808.16 -45.26)" xlink:href="#linear-gradient-38"/><linearGradient id="New_Gradient_Swatch_copy_18-4" x1="-1723.75" y1="376.29" x2="-1713.89" y2="376.29" gradientTransform="translate(1808.16 -45.26)" xlink:href="#New_Gradient_Swatch_copy_18"/><linearGradient id="linear-gradient-81" x1="-1697.83" y1="354.9" x2="-1688.98" y2="370.31" gradientTransform="translate(1808.16 -45.26)" gradientUnits="userSpaceOnUse"><stop offset="0" stop-color="#aad8e4"/><stop offset="0.49" stop-color="#e9faff"/><stop offset="1" stop-color="#56aac1"/></linearGradient><linearGradient id="linear-gradient-82" x1="333.25" y1="223.23" x2="374.9" y2="223.23" gradientTransform="translate(-157.8)" gradientUnits="userSpaceOnUse"><stop offset="0" stop-color="#69bef7"/><stop offset="1" stop-color="#5bafe9"/></linearGradient><linearGradient id="linear-gradient-83" x1="356.19" y1="285.12" x2="359.74" y2="241.56" gradientTransform="translate(-157.8)" gradientUnits="userSpaceOnUse"><stop offset="0" stop-color="#4092cc"/><stop offset="1" stop-color="#4ea1da"/></linearGradient><linearGradient id="linear-gradient-84" x1="333.25" y1="246.71" x2="342.21" y2="246.71" gradientTransform="translate(-157.8)" gradientUnits="userSpaceOnUse"><stop offset="0.04" stop-color="#0a5793"/><stop offset="1" stop-color="#2574b0"/></linearGradient><linearGradient id="linear-gradient-85" x1="333.63" y1="287.22" x2="308.1" y2="268.61" gradientTransform="translate(-157.8)" gradientUnits="userSpaceOnUse"><stop offset="0" stop-color="#de7535"/><stop offset="1" stop-color="#e78f46"/></linearGradient><linearGradient id="linear-gradient-86" x1="309.52" y1="253.29" x2="342.21" y2="253.29" gradientTransform="translate(-157.8)" gradientUnits="userSpaceOnUse"><stop offset="0" stop-color="#efaa58"/><stop offset="1" stop-color="#f7c469"/></linearGradient><linearGradient id="linear-gradient-87" x1="331.32" y1="275.29" x2="342.21" y2="275.29" gradientTransform="translate(-157.8)" gradientUnits="userSpaceOnUse"><stop offset="0" stop-color="#c62500"/><stop offset="1" stop-color="#d65a23"/></linearGradient><linearGradient id="New_Gradient_Swatch_copy_8" x1="331.32" y1="283.52" x2="374.88" y2="283.52" gradientTransform="translate(-157.8)" gradientUnits="userSpaceOnUse"><stop offset="0" stop-color="#1c420a"/><stop offset="1" stop-color="#396a13"/></linearGradient><linearGradient id="New_Gradient_Swatch_copy_10-2" x1="331.32" y1="277.45" x2="374.88" y2="277.45" gradientTransform="translate(-157.8)" xlink:href="#New_Gradient_Swatch_copy_10"/><linearGradient id="linear-gradient-88" x1="232.21" y1="498.64" x2="361.24" y2="589.18" xlink:href="#linear-gradient"/><linearGradient id="linear-gradient-89" x1="677.66" y1="504.31" x2="956.94" y2="491.72" gradientTransform="matrix(0.87, 0.5, -1, 0.58, 418.48, -180.57)" xlink:href="#linear-gradient"/></defs><g class="cls-1"><g id="ILLUSTRATIONS"><path class="cls-2" d="M239.31,388.17V388h0c-.43-7.88-5.85-15.7-16.3-21.73-21.69-12.53-56.76-12.59-78.31-.15-10.88,6.28-16.23,14.54-16.09,22.8.1,6,3.07,11.9,8.9,17.1l-7,4-2.07-1.2L84.06,434.52l13.63,7.86,44.4-25.64-2.39-1.38,6.09-3.51c21.75,12,56.18,11.95,77.45-.34,10.26-5.91,15.63-13.6,16.07-21.38A18.31,18.31,0,0,0,239.31,388.17Zm-15.16,3.68a13.36,13.36,0,0,1-.72,2.36c-1.63,4.12-5.21,8-10.74,11.22-15.76,9.09-41.4,9.05-57.26-.11-5.64-3.25-9.29-7.22-10.93-11.38a15.34,15.34,0,0,1-.71-2.35c-1.48-6.88,2.34-14.07,11.46-19.33,15.76-9.1,41.4-9.05,57.27.1C221.74,377.68,225.63,384.94,224.15,391.85Z"/><path class="cls-3" d="M484.66,475c13.79,4.12,12.19,14.64,9.21,20.23S480.2,498.6,477,509.45s-21.71,27.45-45.31,36.24-31-8.62-25.09-21.39-5.87-29.32,10.91-46.41S484.66,475,484.66,475Z"/><path class="cls-4" d="M473.54,461.47s6.23,3,7.33,6.56,6,10,6,10-.39,3.79-1.74,4.12a57.14,57.14,0,0,1-6.51-6.24s-4.71,6.37-9.23,13.4a75.51,75.51,0,0,1-13,15.17c-3.41,3.09-17.18,1.54-18.92.77s7.14-16.6,10.62-20.46,10.42-15.64,10.42-15.64S467.85,457.48,473.54,461.47Z"/><path class="cls-5" d="M435.12,349.5l-5.21,58.88s13.4,12.35,20,21.62,20.49,29.15,21.6,30.68c3.53,4.84,3.81,8.26-.06,13.14s-12,13.68-16.1,13.68c-3.22,0-3.76-8.44,3.17-18.31,0,0-24.29-20-28.57-22.59s-18-10.23-20.46-23.74S403.08,356.64,404,347,435.12,349.5,435.12,349.5Z"/><path class="cls-6" d="M453.59,503.87s2.82,10,.32,14.07a50.89,50.89,0,0,1-.7,10.19,1.5,1.5,0,0,1-.64,1.55,1.2,1.2,0,0,1-1.88-.09l-.58-7.83s-1.41,2.45-3.47,5.41-6.95,11.45-8.24,13.38-12.48,5.54-20.59,5.41-4.93-9.86-3.17-13.17,13.21-16.17,16.56-18.62,6.87-7.57,6.87-9.89S453.59,503.87,453.59,503.87Z"/><path class="cls-7" d="M465.56,365c-.52,14.41-9.87,53.34-10.62,57.91-.41,2.52,2.4,19.74,2,40.5-.31,17-3.51,39.45-4,44.19-5.67,14.41-17.89,19.61-23.68,16.94s5.6-13.62,7.2-16.94-2.21-45-2.74-54.57-4.85-34-5.17-49.79,5.17-59.56,5.17-59.56l36.57-3.9Z"/><path class="cls-8" d="M476.63,322.71c0,23.25-8.49,25.57-9.78,41-1.63,19.53-2.06,42-2.06,42a30.71,30.71,0,0,1-8.32,4.22A49.47,49.47,0,0,1,433.73,412c-20-2.49-27.37-7.13-31.24-14.27-3.19-5.91-5.29-54.67-.27-84.54.6-3.51,1.29-6.76,2.09-9.65a48.68,48.68,0,0,1,2.05-6,72.71,72.71,0,0,1,8.62-3.63c12.55-4.42,36.12-9.49,52.47,6.69C471.15,301.43,476.63,313.33,476.63,322.71Z"/><path class="cls-9" d="M476.63,322.71c0,23.25-8.49,25.57-9.78,41-1.63,19.53-2.06,42-2.06,42a30.71,30.71,0,0,1-8.32,4.22c.34-10,1.23-29.69,3.42-45.41,3.09-22.13,13.9-41.18,2.15-42-10.59-.72-43.43-1.16-59.82-9.29.6-3.51,1.29-6.76,2.09-9.65,2.92-2.72,6.58-6.06,10.67-9.63,12.55-4.42,36.12-9.49,52.47,6.69C471.15,301.43,476.63,313.33,476.63,322.71Z"/><path class="cls-10" d="M354,228.36s-4-2.85-6.18-4.61-10.43-8.51-15.83-11.41-10.72-4.25-12-2.8.77,3.28,3.47,4.92,7.37,3.67,6.66,5.06-7.24,2.28-9.84,1.12-6-6.85-7.34-6.56a2.91,2.91,0,0,0-2.12,3.47l.81,2s-2.08-.47-1.64,2.69,3.15,4.92,4.21,6.69,2.31,1.78,2.31,1.78.29.77,2.61,1.16c1.26,1.74,2.8,1.83,4.25,3s1.76,2.19,7.62,2.54,10.52-1.22,13.52-1,6.46,4.36,6.75,4.65S354,228.36,354,228.36Z"/><path class="cls-11" d="M417.94,202.49s-.88,10.56-2.08,21.26c-.92,8.29-2,16.65-3.05,20.3-2.38,8.35-32.71,33.63-36,30.55s-20.85-23.36-30.5-36.31a7.58,7.58,0,0,0,3.82-3.24,25.08,25.08,0,0,0,3.13-8.79L379.83,250s11.78-18.21,17.65-30.5S409.91,204.86,417.94,202.49Z"/><path class="cls-12" d="M415.86,223.75c-.92,8.29-2,16.65-3.05,20.3-2.38,8.35-32.71,33.63-36,30.55s-20.85-23.36-30.5-36.31a7.58,7.58,0,0,0,3.82-3.24c4.4,5.38,20.42,25.06,24.17,30.09,4.36,5.84,32.25-14.33,33.78-26.85C408.67,233.61,411.79,228.38,415.86,223.75Z"/><path class="cls-13" d="M427.63,252.62c-4.64,18.56-9.91,41.25-10.68,55.95-.06,1.15-.09,2.27-.09,3.32-10.3-2.66-15.53-6.21-15.53-6.21s11.48-49.12,6.19-56.37-4.25-27,1.54-39.16c2.34-4.9,9.7-8.91,18.57-11.12.89-.16,1.85-.31,2.85-.43l.68-.08C430.29,208.6,432.74,232.23,427.63,252.62Z"/><path class="cls-14" d="M475.47,246.61c-.37,2.48-.79,5.1-1.26,7.88-4.34,26-1.06,45.4,0,55.94-.82.2-1.64.4-2.47.58a151.69,151.69,0,0,1-37.84,3.56s0-1.27.05-3.56c.08-4.05.3-11.28.89-20.26.42-6.6,1-14.13,2-22,0-.26.06-.54.1-.81,2.45-21,6.94-44.45,15.1-59.62a44.91,44.91,0,0,1,5.75-8.48,29.57,29.57,0,0,1,3.2.94,21.28,21.28,0,0,1,4.49,3C477.82,214.8,478.55,225.83,475.47,246.61Z"/><path class="cls-15" d="M460.94,200.76a49.51,49.51,0,0,0-6.85,10.18c-7.34,14-12.06,34.23-15.07,53.13-.39,2.47-.76,4.92-1.11,7.32-2.44,17.53-3.48,32.91-3.84,39.61H434a41.15,41.15,0,0,1-13.36-1.2,32.74,32.74,0,0,1-3.64-1.24l-.05,0c.25-13.09,1.66-34.47,2.06-52.38.06-3,.1-5.79.1-8.49,0-3.5.11-7.3.4-11.31.83-11.54,3.09-24.75,8.17-37.33.89-.16,1.85-.31,2.85-.43l.68-.08c8-.87,19.28-.42,26.58,1.3A29.57,29.57,0,0,1,460.94,200.76Z"/><path class="cls-16" d="M457.46,232.32c-7.48,12.84-19.53,39.09-19.53,39.09l0,0c.35-2.4.72-4.85,1.11-7.32,3-18.9,7.73-39.16,15.07-53.13l6.85,8.59-6.7,9.38S452.17,227.81,457.46,232.32Z"/><path class="cls-17" d="M460.94,219.53l-7,4.17,3.48,8.62S444.05,252.21,439,264.07c3.87-24.24,10.54-50.72,21.92-63.31Z"/><path class="cls-18" d="M427.63,199c-6.84,16.94-8.57,35.05-8.57,48.64,0,2.7,0,5.54-.1,8.49l-5.46-29.44,5.4-6.65-2-6.28Z"/><path class="cls-19" d="M420.59,309.81a32.74,32.74,0,0,1-3.64-1.24l-.05,0c.25-13.09,1.66-34.47,2.06-52.38.06-3,.1-5.79.1-8.49,0-3.5.11-7.3.4-11.31,1.24,7.72,2.57,15.55,3.24,18.85C423.87,261.1,420.56,298.83,420.59,309.81Z"/><path class="cls-20" d="M474.21,254.49c-4.34,26-1.06,45.4,0,55.94-.82.2-1.64.4-2.47.58-4.46-5.67-29.42-14.26-35.27-18.58a7.21,7.21,0,0,1-1.63-1.68c-4.19-5.79-1.45-17.54.86-21.36a6.25,6.25,0,0,1,1.19-1.47c2.57-2.28,6.23-.69,10.65,1.86,5.15,3,17.12,6.17,16.86,1.74s-2-36.36,0-39.1l11.07,14.19C475.1,249.09,474.68,251.71,474.21,254.49Z"/><path class="cls-21" d="M442.52,273.09l-3.09-2.93s1.43-13.47-1.6-19.69-8.05-11.2-11.65-12.74-3.23,2.44-3.23,2.44a3.26,3.26,0,0,0-.26,3.09c.69,1.91,3.1,3,3.1,3s-2.34-.64-2.84.39a3.81,3.81,0,0,0,1.94,4.76s-1.47-.39-1.38,1.54,2.51,3.24,1,4.14-5.16-3.32-6.29-5.09c-.69-1.08-1.84-1.69-3.81-1.59s-2.42,1.41.61,5.91,6.75,7.49,8.53,10.15,4.49,8.74,6,10.29,8.31,4,8.31,4Z"/><path class="cls-22" d="M488.2,237.55c-.57,15.43-1.53,40.85-1.53,47.64s-6,16.06-10,18.76-42.73-23.56-42.73-23.56,4.92-3.25,6.52-7.65a7.77,7.77,0,0,0,.49-2.58c11.78,5,27,9.84,27,9.84s-2.09-31.12-3.45-41.71c-.53-4.12.19-9.53,1.26-14.63A131.75,131.75,0,0,1,470,208.41C480.68,214.75,488.77,222.13,488.2,237.55Z"/><path class="cls-23" d="M470.45,285.19c-1.7-.76-21.84-6.79-30-12.45a7.77,7.77,0,0,0,.49-2.58c11.78,5,27,9.84,27,9.84s-2.09-31.12-3.45-41.71c-.53-4.12.19-9.53,1.26-14.63,1.71,4.33,2.69,11.33,4.73,19.35C473.79,256.14,472.25,286,470.45,285.19Z"/><path class="cls-24" d="M417.94,169.77s4.5,24.84,1,30c7.57.72,15.83-6.11,16.86-11S417.94,169.77,417.94,169.77Z"/><path class="cls-25" d="M466.78,160.7a55,55,0,0,1-6.26,13.48c-2.67,4.39-5,7.72-5.07,9.69-.06,3.67,2.29,15.95,2.29,15.95s-.8,6-9.1,11.12-19.12.06-19.12-6,1.33-3.47,1.64-10.43c-5.5,1.75-7.61.67-10.6-6.56-3.61-8.75-7.14-23.75-3.66-35.13s27.41-28.58,38.55-19.3S469.93,149.51,466.78,160.7Z"/><path class="cls-26" d="M455.45,183.87c-.06,3.67,2.29,15.95,2.29,15.95s-.8,6-9.1,11.12-19.12.06-19.12-6,1.33-3.47,1.64-10.43c0,0,18.4-6.16,22-21.86,2.44.45,4.91,1,7.32,1.56C457.85,178.57,455.48,181.9,455.45,183.87Z"/><path class="cls-27" d="M423.54,155.34c2.77,10.7,9.2,11.69,18.47,14.78s11,24,5.6,32.73c17-6.18,19.47-10.43,22.28-17.67s3-26.9-.42-38.48S451.74,126.78,437,130.84c-13.44,3.69-25.32,15.43-22.08,31.66C414.91,162.5,419.1,164.37,423.54,155.34Z"/><path class="cls-28" d="M427.71,188.82l-.08-1.08c14-.94,19.4-10.25,19.46-10.35l.94.53C447.8,178.33,442.31,187.84,427.71,188.82Z"/><path class="cls-29" d="M456.29,156.84v4.83L455,160.54l-3.91,5.13V161c0-8.13-11.5-21.66-25.15-22.35a10.61,10.61,0,0,0-8,2.59c1-.92,4-3.91,4.82-4.59a10.58,10.58,0,0,1,7.74-2.39C444.17,134.9,456.3,148.71,456.29,156.84Z"/><path class="cls-30" d="M451.09,161v5.37h-2.17V161c0-6.35-10-19.52-23.09-20.18a9.5,9.5,0,0,0-4.74.86,7.16,7.16,0,0,0-1.5,1,4.88,4.88,0,0,0-.53.48l0,0a13.44,13.44,0,0,0-2.13,3.33,19.87,19.87,0,0,0-1.19,2.77,10.39,10.39,0,0,1,.32-5.68h0a10.81,10.81,0,0,1,1.76-2.17l.17-.17a10.54,10.54,0,0,1,8-2.59C439.59,139.28,451.1,152.81,451.09,161Z"/><path class="cls-31" d="M462.82,162c-1.88-3.19-5.62-3.34-6.36-3.42a7.11,7.11,0,0,0-4.23,1.11c-4.59,2.65-8.3,9-8.3,14.31a7.11,7.11,0,0,0,1.09,4.09c1.43,2,3,3.95,8.23,3.95S463.63,163.33,462.82,162Z"/><ellipse class="cls-32" cx="456.11" cy="171.41" rx="11.69" ry="6.75" transform="translate(77.94 478.67) rotate(-59.69)"/><ellipse class="cls-33" cx="456.11" cy="171.41" rx="7.54" ry="4.35" transform="translate(77.94 478.67) rotate(-59.69)"/><path class="cls-34" d="M425.54,190.37a2.14,2.14,0,0,1-1.08-.29l-4.07-2.35a2.17,2.17,0,0,1,2.17-3.75l4.07,2.35a2.17,2.17,0,0,1-1.09,4Z"/><path class="cls-35" d="M663.7,239.21c0,11.41-3.85,19.58-10.13,23.7a126.47,126.47,0,0,1-12,7c7-3.85,11.27-12.3,11.27-24.4,0-23.95-16.91-53.14-37.8-65.2-10.71-6.19-20.39-6.65-27.26-2.42a112.64,112.64,0,0,1,12.42-7.11c6.74-3.29,15.78-2.46,25.7,3.27C646.77,186.05,663.7,215.25,663.7,239.21Z"/><path class="cls-36" d="M652.83,245.47c0,12.1-4.31,20.55-11.27,24.4a4.48,4.48,0,0,1-.58.29c-6.77,3.45-15.89,2.67-26-3.13-20.88-12.06-37.8-41.24-37.8-65.2,0-11.19,3.7-19.26,9.75-23.45l.08,0,.71-.48c6.87-4.23,16.55-3.77,27.26,2.42C635.92,192.33,652.83,221.52,652.83,245.47Z"/><path class="cls-37" d="M635.09,244.79l-5.92-10.21c-2.12-3.64-5.71-4.75-6.56-2.08-.63,1.82-2.74,1.81-4.65.23-4.22-3.66-9.93-13.26-11-19-.63-2.55.64-4.25,2.54-3.88,2.75.62,3.59-3,1.48-6.66L605.07,193c-1.69-2.67-4.23-4.14-5.71-3.29l-4,2.28c-4,2.54.42,18,10.35,35.09s21.14,28.94,25.37,26.53l4-2.29C636.57,250.26,636.57,247.35,635.09,244.79Z"/><path class="cls-38" d="M366.55,193.19v46.39a3.74,3.74,0,0,1-1.16,3,71.47,71.47,0,0,1-6.11,3.73,3.8,3.8,0,0,0,1.1-3V197a10.35,10.35,0,0,0-1.7-5.3,10.07,10.07,0,0,0-3.33-3.38l-61.46-35.49a3.67,3.67,0,0,0-3.29-.47c1.88-1.13,5.24-3.38,6.13-3.76a3.66,3.66,0,0,1,3.33.46l61.46,35.48a10.1,10.1,0,0,1,3.33,3.39A10.32,10.32,0,0,1,366.55,193.19Z"/><path class="cls-39" d="M360.38,197v46.39a3.8,3.8,0,0,1-1.1,3,0,0,0,0,0,0,0,2,2,0,0,1-.79.43,3.78,3.78,0,0,1-3.13-.54l-61.46-35.49a11.08,11.08,0,0,1-5-8.67V155.67a3.61,3.61,0,0,1,1.2-3s0,0,0,0a1.71,1.71,0,0,1,.48-.29s0,0,0,0h0a3.67,3.67,0,0,1,3.29.47l61.46,35.49a10.07,10.07,0,0,1,3.33,3.38A10.35,10.35,0,0,1,360.38,197Z"/><path class="cls-40" d="M358.68,191.66l-31.84,8.91c-1.32.37-3.12-.67-4.44-2.56l-31.84-45.68a3.7,3.7,0,0,1,3.33.47l61.46,35.48A10.07,10.07,0,0,1,358.68,191.66Z"/><path class="cls-41" d="M324,414.33l3,5.7-6.51-3.75h0L259,380.8a3.63,3.63,0,0,0-3.19-.52c.95-.6,2.85-1.74,3.45-2a3.61,3.61,0,0,1,3.17.52l61.44,35.48Z"/><path class="cls-42" d="M340.19,445.29V544a2.41,2.41,0,0,1-1.32,2.42,34.8,34.8,0,0,0-3.11,1.82,2.6,2.6,0,0,0,1-2.25V438.73Z"/><path class="cls-43" d="M336.75,447.42V546a2.6,2.6,0,0,1-1,2.27l0,0c-.81.54-2,.45-3.45-.35L259,505.58c-2.46-1.44-4.48-4.61-4.49-7.1V382.69a2.75,2.75,0,0,1,.74-2.05s0,0,.07,0a3,3,0,0,1,.45-.3s0,0,0,0a3.63,3.63,0,0,1,3.19.52l61.43,35.47h0Z"/><polygon class="cls-44" points="328 430.4 328 535.63 263.26 498.25 263.26 393.02 328 430.4"/><polygon class="cls-45" points="302.5 449.21 269.68 430.26 269.68 421.62 302.5 440.57 302.5 449.21"/><polygon class="cls-46" points="315.43 456.68 308 452.38 308 443.74 315.43 448.03 315.43 456.68"/><polygon class="cls-45" points="295.41 457.85 269.68 443 269.68 434.35 295.41 449.21 295.41 457.85"/><polygon class="cls-46" points="315.43 469.41 308 465.12 308 456.47 315.43 460.77 315.43 469.41"/><polygon class="cls-45" points="302.5 474.68 269.68 455.73 269.68 447.09 302.5 466.04 302.5 474.68"/><polygon class="cls-46" points="315.43 482.15 308 477.85 308 469.21 315.43 473.5 315.43 482.15"/><polygon class="cls-45" points="295.41 483.32 269.68 468.47 269.68 459.83 295.41 474.68 295.41 483.32"/><polygon class="cls-46" points="315.43 494.88 308 490.59 308 481.95 315.43 486.24 315.43 494.88"/><polygon class="cls-45" points="292.05 494.12 269.68 481.21 269.68 472.56 292.05 485.48 292.05 494.12"/><polygon class="cls-46" points="315.43 507.62 308 503.33 308 494.68 315.43 498.98 315.43 507.62"/><polygon class="cls-45" points="302.5 512.89 269.68 493.94 269.68 485.3 302.5 504.25 302.5 512.89"/><polygon class="cls-46" points="315.43 520.36 308 516.06 308 507.42 315.43 511.71 315.43 520.36"/><polygon class="cls-45" points="311.54 453.63 307.91 447.32 309.65 446.3 311.54 449.6 317.3 446.24 319.03 449.25 311.54 453.63"/><polygon class="cls-45" points="311.54 466.36 307.91 460.05 309.65 459.03 311.54 462.33 317.3 458.96 319.03 461.98 311.54 466.36"/><polygon class="cls-45" points="311.54 479.09 307.91 472.78 309.65 471.76 311.54 475.06 317.3 471.69 319.03 474.71 311.54 479.09"/><polygon class="cls-45" points="311.54 491.82 307.91 485.51 309.65 484.49 311.54 487.79 317.3 484.42 319.03 487.44 311.54 491.82"/><polygon class="cls-45" points="311.54 504.55 307.91 498.24 309.65 497.22 311.54 500.52 317.3 497.15 319.03 500.17 311.54 504.55"/><polygon class="cls-45" points="311.54 517.28 307.91 510.97 309.65 509.95 311.54 513.25 317.3 509.88 319.03 512.9 311.54 517.28"/><polygon class="cls-45" points="316.3 439.94 269.86 413.13 269.86 400.9 316.3 427.71 316.3 439.94"/><path class="cls-47" d="M281.85,412.31c0,6.78-2.27,11.64-6,14.11a41,41,0,0,1-8.93,4.28l-31.27-55.24a83,83,0,0,1,8.93-4.32c3.95-1.61,9.08-1,14.69,2.24C271.74,380.58,281.85,398,281.85,412.31Z"/><ellipse class="cls-48" cx="252.36" cy="402.52" rx="18.37" ry="31.81" transform="translate(-168.65 182.38) rotate(-30.31)"/><polygon class="cls-45" points="248.42 414.21 239.44 398.93 243.57 396.47 248.25 404.45 261.91 396.31 266.2 403.61 248.42 414.21"/><path class="cls-49" d="M336.75,447.42l-14-7.51a5,5,0,0,1-2.61-4.43l.29-19.21h0Z"/><polygon class="cls-50" points="340.24 445.39 340.19 445.42 336.75 447.42 320.45 416.28 320.45 416.27 323.88 414.28 323.93 414.24 323.98 414.33 326.96 420.03 336.75 438.73 340.19 445.29 340.24 445.39"/><path class="cls-51" d="M391.82,135.7,394.7,134l.33,18.07-8.39,4.84-19-42.66L313.21,82.1c-5-2.88-9-9.85-9-15.58l-5.92-45.77S305.06,17,306.51,16c1.65-1.15,4-1.08,6.7.45l81.42,47.76c5,2.88,9,9.86,9,15.58v44.92c0,3.05-1.15,5.13-3,6C399.09,131.42,391.82,135.7,391.82,135.7Z"/><path class="cls-52" d="M386.24,134.7l.4,22.23-27.41-37.82-54.4-32.17c-5-2.88-9-9.85-9-15.58V26.44c0-5.72,4-8,9-5.15l81.41,47.76c5,2.88,9,9.86,9,15.58v44.92C395.28,135.28,391.24,137.58,386.24,134.7Z"/><ellipse class="cls-53" cx="321.91" cy="63.5" rx="5.1" ry="8.84" transform="translate(11.96 171.14) rotate(-30.31)"/><ellipse class="cls-53" cx="345.53" cy="77.14" rx="5.1" ry="8.84" transform="translate(8.3 184.93) rotate(-30.31)"/><ellipse class="cls-53" cx="369.16" cy="90.78" rx="5.1" ry="8.84" transform="translate(4.65 198.72) rotate(-30.31)"/><path class="cls-54" d="M711.58,404V523.85c0,2.1-.71,3.61-1.86,4.36s-7.27,4.18-7.27,4.18L552.79,440.15a15.31,15.31,0,0,1-6.95-12L540.56,308l7.32-4.17c1.25-.71,3-.6,4.91.51L704.63,392A15.31,15.31,0,0,1,711.58,404Z"/><path class="cls-55" d="M704.5,408.07V527.91c0,4.41-3.11,6.18-7,4L545.71,444.21a15.31,15.31,0,0,1-7-12V312.38c0-4.41,3.11-6.18,7-4l151.84,87.66A15.31,15.31,0,0,1,704.5,408.07Z"/><path class="cls-53" d="M704.5,408.07V419.3L538.76,323.61V312.38c0-4.41,3.11-6.18,7-4l151.84,87.66A15.31,15.31,0,0,1,704.5,408.07Z"/><polygon class="cls-56" points="568.27 444.54 553.77 436.17 553.77 415.12 568.27 423.49 568.27 444.54"/><polygon class="cls-57" points="568.27 360.49 553.77 352.12 553.77 415.12 568.27 423.49 568.27 360.49"/><polygon class="cls-56" points="593.25 458.96 578.75 450.59 578.75 411.33 593.25 419.7 593.25 458.96"/><polygon class="cls-57" points="593.25 374.91 578.75 366.54 578.75 411.33 593.25 419.7 593.25 374.91"/><polygon class="cls-56" points="618.23 473.39 603.73 465.02 603.73 404.05 618.23 412.42 618.23 473.39"/><polygon class="cls-57" points="618.23 389.34 603.73 380.97 603.73 404.05 618.23 412.42 618.23 389.34"/><polygon class="cls-56" points="643.21 487.81 628.71 479.44 628.71 432.67 643.21 441.04 643.21 487.81"/><polygon class="cls-57" points="643.21 403.76 628.71 395.39 628.71 432.67 643.21 441.04 643.21 403.76"/><polygon class="cls-56" points="668.19 502.23 653.69 493.86 653.69 432.9 668.19 441.27 668.19 502.23"/><polygon class="cls-57" points="668.19 418.18 653.69 409.81 653.69 432.9 668.19 441.27 668.19 418.18"/><polygon class="cls-56" points="693.17 516.65 678.67 508.28 678.67 432.09 693.17 440.46 693.17 516.65"/><polygon class="cls-57" points="693.17 432.6 678.67 424.23 678.67 432.09 693.17 440.46 693.17 432.6"/><path class="cls-58" d="M685.92,425.53c-2.07-1.19-3.75-.37-4,1.79a23.12,23.12,0,0,0-13.63-2.12,17.93,17.93,0,0,1-3.69.16,8.91,8.91,0,0,0-3.68-4.86c-2.23-1.29-4-.26-4,2.29,0,.09,0,.19,0,.28-3.3,0-6.85,1.72-10.31,3.42-2.47,1.21-5.15,2.52-7.34,2.86a8.71,8.71,0,0,0-3.32-3.92,2.69,2.69,0,0,0-3.05-.13,91.89,91.89,0,0,1-4.95-8.55c-3.38-6.32-7.44-13.93-13-18.73a9,9,0,0,0-3.94-5.95c-2.17-1.25-3.92-.3-4,2.1-2.17,0-4,1-6,2-3.09,1.66-6.27,3.35-11.22,1.5a8.94,8.94,0,0,0-3.79-5.3c-2.23-1.29-4-.26-4,2.29a5.36,5.36,0,0,0,.06.68c-4.52.23-9.62,3-14.94,6-1.5.82-3,1.65-4.51,2.43a7.42,7.42,0,0,0-2-1.74c-2.23-1.29-4-.26-4,2.3a6.72,6.72,0,0,0,.32,2c-3.35,1.2-6.49,1.65-9.15.5-.68-.29-1.15.14-1.07,1a2.73,2.73,0,0,0,1.23,1.94l.15.08c3.19,1.37,6.75.89,10.45-.44a7.54,7.54,0,0,0,2.1,1.91c2.22,1.29,4,.26,4-2.3a7.06,7.06,0,0,0-.39-2.17c1.52-.78,3-1.62,4.56-2.46,5-2.74,10.09-5.54,14.27-5.82a8.32,8.32,0,0,0,2.91,3.13c1.81,1,3.32.54,3.83-1.05,5.91,2.37,9.6.39,12.9-1.38a12.86,12.86,0,0,1,4.91-1.87,8.69,8.69,0,0,0,3.34,4c1.63.94,3,.63,3.67-.61,4.71,4.21,8.25,10.84,11.47,16.85a84.06,84.06,0,0,0,5.84,9.88,2.58,2.58,0,0,0,0,.29,8.86,8.86,0,0,0,4,6.95c2.17,1.25,3.92.3,4-2.1,2.49-.19,5.27-1.55,8.33-3.05s6.6-3.23,9.53-3.3a8.45,8.45,0,0,0,3.11,3.52c1.92,1.1,3.51.49,3.92-1.34a16.93,16.93,0,0,0,4.72,0,21.21,21.21,0,0,1,12.84,2,8.81,8.81,0,0,0,3.5,4.4c2.22,1.29,4,.26,4-2.29A8.91,8.91,0,0,0,685.92,425.53Z"/><path class="cls-59" d="M454.51,257.5v64c0,1.92-.95,3-2.24,2.81a3.93,3.93,0,0,0,.34-1.72v-64a7.75,7.75,0,0,0-3.24-6.19L384.64,215a3,3,0,0,0-1-.37,1.89,1.89,0,0,1,2.91-.73l64.73,37.37A7.78,7.78,0,0,1,454.51,257.5Z"/><path class="cls-60" d="M452.27,324.34c-.52,1.14-1.62,1.48-2.9.74l-64.73-37.37a7.77,7.77,0,0,1-3.24-6.2v-64c0-1.92.94-3,2.23-2.82a3.93,3.93,0,0,0-.34,1.72v64a7.78,7.78,0,0,0,3.25,6.19L451.27,324A2.7,2.7,0,0,0,452.27,324.34Z"/><path class="cls-61" d="M452.61,258.6v64a3.93,3.93,0,0,1-.34,1.72,2.7,2.7,0,0,1-1-.36l-64.73-37.37a7.78,7.78,0,0,1-3.25-6.19v-64a3.93,3.93,0,0,1,.34-1.72,3,3,0,0,1,1,.37l64.73,37.38A7.75,7.75,0,0,1,452.61,258.6Z"/><g class="cls-62"><path class="cls-63" d="M439.92,275l-11-6.33c0-7.12-5.05-15.82-11.25-19.4V236.72C430,243.79,439.92,261,439.92,275Z"/></g><path class="cls-64" d="M417.7,284.94c-10.92-6.31-19.8-21.63-19.8-34.16,0-4.95,1.36-8.87,3.94-11.34,3.78-3.6,9.56-3.59,15.86.05v7c-4.35-2.51-8.33-2.52-10.94,0-1.78,1.7-2.72,4.4-2.72,7.82,0,8.64,6.13,19.21,13.66,23.56s13.66.86,13.66-7.79l6.14,3.55C437.5,286.18,428.62,291.24,417.7,284.94Z"/><polygon class="cls-64" points="394.94 286.01 389.88 283.09 389.88 277.28 394.94 280.21 394.94 286.01"/><polygon class="cls-65" points="416.78 298.63 396.87 287.13 396.87 281.32 416.78 292.82 416.78 298.63"/><polygon class="cls-66" points="426.09 304 421.03 301.08 421.03 295.27 426.09 298.19 426.09 304"/><polygon class="cls-67" points="447.94 316.61 428.03 305.12 428.03 299.31 447.94 310.81 447.94 316.61"/><polygon class="cls-68" points="186.4 399.98 208.36 387.3 208.36 329.73 186.4 342.41 186.4 399.98"/><polygon class="cls-69" points="164.58 329.8 164.58 387.37 186.4 399.98 186.4 342.41 164.58 329.8"/><polygon class="cls-70" points="186.4 342.41 208.36 329.73 186.54 317.13 164.57 329.81 186.4 342.41"/><polygon class="cls-71" points="186.42 338.98 186.42 336.02 170.51 326.84 170.51 329.79 186.42 338.98"/><polygon class="cls-72" points="186.42 338.98 202.42 329.74 202.42 326.78 186.42 336.02 186.42 338.98"/><polygon class="cls-73" points="186.42 336.02 202.42 326.78 186.52 317.6 170.51 326.84 186.42 336.02"/><polygon class="cls-74" points="183.85 346.13 183.85 394.81 182.21 393.86 182.21 345.19 182.71 345.47 183.85 346.13"/><polygon class="cls-75" points="183.85 346.13 183.85 394.19 182.71 393.53 182.71 345.47 183.85 346.13"/><polygon class="cls-76" points="182.21 393.86 182.71 393.53 183.85 394.19 183.85 394.81 182.21 393.86"/><polygon class="cls-77" points="167.99 337.84 167.99 386.51 166.34 385.56 166.34 336.89 166.84 337.18 167.99 337.84"/><polygon class="cls-78" points="167.99 337.84 167.99 385.9 166.84 385.24 166.84 337.18 167.99 337.84"/><polygon class="cls-79" points="166.34 385.56 166.84 385.24 167.99 385.9 167.99 386.51 166.34 385.56"/><polygon class="cls-80" points="188.59 345.19 188.59 393.86 190.24 392.91 190.24 344.24 189.74 344.53 188.59 345.19"/><polygon class="cls-81" points="188.59 345.19 188.59 393.25 189.74 392.59 189.74 344.53 188.59 345.19"/><polygon class="cls-82" points="190.24 392.91 189.74 392.59 188.59 393.25 188.59 393.86 190.24 392.91"/><polygon class="cls-83" points="191.6 343.63 191.6 392.3 193.25 391.35 193.25 342.68 192.75 342.97 191.6 343.63"/><polygon class="cls-84" points="191.6 343.63 191.6 391.69 192.75 391.03 192.75 342.97 191.6 343.63"/><polygon class="cls-85" points="193.25 391.35 192.75 391.03 191.6 391.69 191.6 392.3 193.25 391.35"/><polygon class="cls-86" points="194.6 342.07 194.6 390.74 196.25 389.79 196.25 341.12 195.75 341.41 194.6 342.07"/><polygon class="cls-87" points="194.6 342.07 194.6 390.13 195.75 389.46 195.75 341.41 194.6 342.07"/><polygon class="cls-88" points="196.25 389.79 195.75 389.46 194.6 390.13 194.6 390.74 196.25 389.79"/><polygon class="cls-89" points="197.61 340.51 197.61 389.18 199.26 388.23 199.26 339.56 198.76 339.85 197.61 340.51"/><polygon class="cls-90" points="197.61 340.51 197.61 388.56 198.76 387.9 198.76 339.85 197.61 340.51"/><polygon class="cls-91" points="199.26 388.23 198.76 387.9 197.61 388.56 197.61 389.18 199.26 388.23"/><polygon class="cls-92" points="200.62 338.94 200.62 387.62 202.26 386.67 202.26 338 201.76 338.28 200.62 338.94"/><polygon class="cls-93" points="200.62 338.94 200.62 387 201.76 386.34 201.76 338.28 200.62 338.94"/><polygon class="cls-94" points="202.26 386.67 201.76 386.34 200.62 387 200.62 387.62 202.26 386.67"/><polygon class="cls-95" points="203.62 337.38 203.62 386.05 205.27 385.1 205.27 336.43 204.77 336.72 203.62 337.38"/><polygon class="cls-96" points="203.62 337.38 203.62 385.44 204.77 384.78 204.77 336.72 203.62 337.38"/><polygon class="cls-97" points="205.27 385.1 204.77 384.78 203.62 385.44 203.62 386.05 205.27 385.1"/><polygon class="cls-98" points="164.4 349.98 165.7 350.73 165.7 350.73 170.97 353.77 174.22 355.64 174.67 355.38 180.53 352 171.21 346.62 170.71 346.33 168.48 347.62 165.19 349.52 164.4 349.98"/><polygon class="cls-99" points="165.67 349.97 166.32 350.35 174.22 354.91 178.6 352.38 179.25 352 170.71 347.07 165.67 349.97"/><polygon class="cls-100" points="166.32 350.35 174.22 354.91 178.6 352.38 170.71 347.82 166.32 350.35"/><polygon class="cls-101" points="174.22 355.64 174.22 400.32 180.53 396.67 180.53 352 174.67 355.38 174.22 355.64"/><polygon class="cls-102" points="164.4 349.98 164.4 394.64 174.22 400.32 174.22 355.64 170.97 353.77 165.7 350.73 164.4 349.98"/><polygon class="cls-103" points="164.57 329.8 171.21 346.62 180.53 352 180.53 370.23 186.64 385.72 186.4 342.41 164.57 329.8"/><polygon class="cls-104" points="164.58 338 164.58 348.06 165.19 349.52 168.48 347.62 164.58 338"/><polygon class="cls-105" points="165.7 350.73 174.22 370.99 174.22 361.79 170.97 353.77 165.7 350.73"/><polygon class="cls-106" points="172.74 357.73 172.74 397.53 171.1 396.58 171.1 356.78 171.59 357.06 172.74 357.73"/><polygon class="cls-107" points="172.74 357.73 172.74 396.92 171.59 396.26 171.59 357.06 172.74 357.73"/><polygon class="cls-108" points="171.1 396.58 171.59 396.26 172.74 396.92 172.74 397.53 171.1 396.58"/><polygon class="cls-109" points="169.74 356.17 169.74 395.97 168.09 395.02 168.09 355.21 168.59 355.5 169.74 356.17"/><polygon class="cls-110" points="169.74 356.17 169.74 395.36 168.59 394.69 168.59 355.5 169.74 356.17"/><polygon class="cls-111" points="168.09 395.02 168.59 394.69 169.74 395.36 169.74 395.97 168.09 395.02"/><polygon class="cls-112" points="166.73 354.6 166.73 394.41 165.08 393.46 165.08 353.65 165.58 353.94 166.73 354.6"/><polygon class="cls-113" points="166.73 354.6 166.73 393.79 165.58 393.13 165.58 353.94 166.73 354.6"/><polygon class="cls-114" points="165.08 393.46 165.58 393.13 166.73 393.79 166.73 394.41 165.08 393.46"/><polygon class="cls-115" points="180.36 344.72 180.36 350.99 170.63 345.38 170.63 339.11 171.13 339.39 180.36 344.72"/><polygon class="cls-116" points="180.36 344.72 180.36 350.38 171.13 345.06 171.13 339.39 180.36 344.72"/><polygon class="cls-117" points="170.63 345.38 171.13 345.06 180.36 350.38 180.36 350.99 170.63 345.38"/><polygon class="cls-118" points="175.02 357.88 175.02 397.69 176.66 396.74 176.66 356.93 176.17 357.22 175.02 357.88"/><polygon class="cls-119" points="175.02 357.88 175.02 397.07 176.17 396.41 176.17 357.22 175.02 357.88"/><polygon class="cls-120" points="176.66 396.74 176.17 396.41 175.02 397.07 175.02 397.69 176.66 396.74"/><polygon class="cls-121" points="178.03 356.32 178.03 396.13 179.67 395.18 179.67 355.37 179.17 355.66 178.03 356.32"/><polygon class="cls-122" points="178.03 356.32 178.03 395.51 179.17 394.85 179.17 355.66 178.03 356.32"/><polygon class="cls-123" points="179.67 395.18 179.17 394.85 178.03 395.51 178.03 396.13 179.67 395.18"/><path class="cls-124" d="M239.32,274.71v-.13h0c-.42-7.88-5.85-15.7-16.29-21.73-21.7-12.52-56.76-12.59-78.31-.14-10.88,6.28-16.24,14.54-16.1,22.79s5.58,16.21,16.34,22.42c21.69,12.52,56.76,12.58,78.3.14,10.27-5.92,15.63-13.61,16.08-21.39C239.35,276,239.34,275.36,239.32,274.71ZM212.69,292c-15.76,9.09-41.4,9-57.26-.1-5.64-3.26-9.28-7.22-10.93-11.39,1.64-4.12,5.22-8,10.75-11.21,15.77-9.09,41.4-9,57.27.11,5.63,3.25,9.27,7.21,10.91,11.38C221.8,284.87,218.22,288.77,212.69,292Z"/><path class="cls-125" d="M239.34,286.39c0,8.17-5.31,16.34-16.09,22.57-21.55,12.44-56.62,12.38-78.31-.15-10.46-6-15.9-13.87-16.32-21.76a79.5,79.5,0,0,1,0-11.55c.14,8.12,5.59,16.21,16.34,22.42,21.69,12.52,56.76,12.58,78.31.14,10.26-5.92,15.62-13.61,16.06-21.39C239.31,278.55,239.31,281.72,239.34,286.39Z"/><path class="cls-126" d="M126.46,303.39a2.81,2.81,0,0,1,2.66.32,8.69,8.69,0,0,1,3.9,6.8,2.81,2.81,0,0,1-1.12,2.54,2.73,2.73,0,0,1-2.78-.26,8.64,8.64,0,0,1-3.91-6.79,2.81,2.81,0,0,1,1.07-2.5h0A1,1,0,0,1,126.46,303.39Z"/><path class="cls-127" d="M137.83,296.82a2.75,2.75,0,0,1,2.77.26,8.69,8.69,0,0,1,3.9,6.8,2.83,2.83,0,0,1-1.07,2.51c-.63.41-11.47,6.63-11.53,6.66a2.81,2.81,0,0,0,1.12-2.54,8.69,8.69,0,0,0-3.9-6.8,2.81,2.81,0,0,0-2.66-.32Z"/><path class="cls-128" d="M224.16,278.4a14.9,14.9,0,0,1-.73,2.36c-1.64-4.17-5.28-8.13-10.91-11.38-15.87-9.15-41.5-9.2-57.27-.11-5.53,3.2-9.11,7.09-10.75,11.21a16,16,0,0,1-.71-2.34c-1.48-6.89,2.34-14.07,11.46-19.34,15.77-9.1,41.4-9.05,57.27.11C221.75,264.23,225.63,271.48,224.16,278.4Z"/><path class="cls-129" d="M224.16,278.4a14.9,14.9,0,0,1-.73,2.36c-1.64-4.17-5.28-8.13-10.91-11.38-15.87-9.15-41.5-9.2-57.27-.11-5.53,3.2-9.11,7.09-10.75,11.21a16,16,0,0,1-.71-2.34c1.06-5,4.88-9.77,11.46-13.57,15.77-9.1,41.4-9,57.27.11C219.2,268.53,223.07,273.39,224.16,278.4Z"/><path class="cls-130" d="M223.43,280.76c-1.63,4.11-5.21,8-10.74,11.21-15.76,9.09-41.4,9-57.26-.1-5.64-3.26-9.28-7.22-10.93-11.39,1.64-4.12,5.22-8,10.75-11.21,15.77-9.09,41.4-9,57.27.11C218.15,272.63,221.79,276.59,223.43,280.76Z"/><path class="cls-131" d="M85.37,321.94c1.24-.63,2.9-.49,4.73.57a15.43,15.43,0,0,1,7,12.09c0,2.22-.77,3.78-2,4.52s-3,.67-5-.45a15.42,15.42,0,0,1-6.95-12.1c0-2.14.72-3.68,1.9-4.45h0Z"/><path class="cls-132" d="M86,324.89a3.54,3.54,0,0,1,3.36.41,10.94,10.94,0,0,1,4.93,8.58,3.5,3.5,0,0,1-1.42,3.2,3.4,3.4,0,0,1-3.51-.32,10.88,10.88,0,0,1-4.93-8.58A3.57,3.57,0,0,1,85.75,325h0Z"/><path class="cls-133" d="M128.92,297.36c1.25-.74,3-.64,4.91.47a15.43,15.43,0,0,1,7,12.1c0,2.15-.73,3.69-1.91,4.45s-43.72,24.69-43.83,24.74c1.24-.74,2-2.3,2-4.52a15.43,15.43,0,0,0-7-12.09c-1.83-1.06-3.49-1.2-4.73-.57C85.66,321.77,128.2,297.78,128.92,297.36Z"/><path class="cls-134" d="M217.08,233.07c.32-5.07-2.89-10.22-9.62-14.11-8.69-5-21-6.65-32-4.88l9,18.18Z"/><polygon class="cls-135" points="217.08 233.07 217.08 280.15 184.41 279.34 184.41 232.26 217.08 233.07"/><polygon class="cls-136" points="184.41 232.26 184.41 279.34 175.45 261.16 175.45 214.08 184.41 232.26"/><path class="cls-137" d="M173.52,271.26v25.81a40.88,40.88,0,0,1-12.15-4.45c-6.47-3.74-9.7-8.64-9.65-13.52s0-25.6,0-25.6c.05,4.82,3.27,9.63,9.65,13.31A40.6,40.6,0,0,0,173.52,271.26Z"/><path class="cls-138" d="M184.41,253.5l-3.09,5.06-7.8,12.7a40.6,40.6,0,0,1-12.15-4.45c-6.38-3.68-9.6-8.49-9.65-13.31s3.11-9.7,9.5-13.39a42.1,42.1,0,0,1,14.23-4.79Z"/><polygon class="cls-139" points="184.41 253.5 184.41 279.31 173.52 297.07 173.52 271.26 181.32 258.56 184.41 253.5"/><path class="cls-140" d="M217.07,268.83v11.33c-.28,4.57-3.44,9.08-9.46,12.57-9.2,5.3-22.55,6.76-34.09,4.37V285.77c11.54,2.39,24.89.94,34.09-4.37C213.63,277.92,216.79,273.4,217.07,268.83Z"/><path class="cls-141" d="M217.07,268.83c-.28,4.57-3.44,9.09-9.46,12.57-9.2,5.31-22.55,6.76-34.09,4.37L184.41,268Z"/><polygon class="cls-142" points="332.1 566.77 254.21 521.81 258.72 519.2 336.61 564.17 332.1 566.77"/><polygon class="cls-143" points="696.46 558.91 540.77 469.02 546.92 465.47 702.62 555.36 696.46 558.91"/></g></g></svg>