<svg xmlns="http://www.w3.org/2000/svg" xmlns:xlink="http://www.w3.org/1999/xlink" viewBox="0 0 800 600"><defs><style>.cls-1,.cls-27,.cls-57{fill:none;}.cls-2{isolation:isolate;}.cls-3{fill:url(#linear-gradient);}.cls-4{fill:url(#linear-gradient-2);}.cls-5{fill:url(#linear-gradient-3);}.cls-6{fill:url(#linear-gradient-4);}.cls-7{fill:url(#linear-gradient-5);}.cls-8{fill:url(#linear-gradient-6);}.cls-9{fill:url(#linear-gradient-7);}.cls-10{fill:url(#linear-gradient-8);}.cls-11{fill:url(#linear-gradient-9);}.cls-12{fill:url(#linear-gradient-10);}.cls-13{fill:url(#linear-gradient-11);}.cls-14{fill:url(#linear-gradient-12);}.cls-15,.cls-52,.cls-53{opacity:0.4;}.cls-15{fill:url(#linear-gradient-13);}.cls-16{fill:url(#linear-gradient-14);}.cls-17{fill:url(#linear-gradient-15);}.cls-18,.cls-75{fill:#e9faff;}.cls-19{fill:url(#linear-gradient-16);}.cls-20{fill:url(#linear-gradient-17);}.cls-21{fill:#fff;}.cls-22{fill:url(#linear-gradient-18);}.cls-23{fill:url(#linear-gradient-19);}.cls-24{fill:url(#linear-gradient-20);}.cls-25{fill:#713f91;}.cls-26{fill:#c62500;}.cls-27{stroke:#c62500;}.cls-27,.cls-57{stroke-miterlimit:10;}.cls-28{fill:#264f0d;}.cls-29{fill:#16777e;}.cls-30{fill:#39aeb3;}.cls-31{fill:#56aac1;}.cls-32{fill:url(#linear-gradient-21);}.cls-33{fill:url(#New_Gradient_Swatch_copy_19);}.cls-34{fill:url(#linear-gradient-22);}.cls-35{fill:url(#linear-gradient-23);}.cls-36{fill:url(#New_Gradient_Swatch_copy_19-2);}.cls-37{fill:url(#linear-gradient-24);}.cls-38{fill:url(#linear-gradient-25);}.cls-39{fill:#0f1128;}.cls-40{fill:url(#linear-gradient-26);}.cls-41{fill:url(#linear-gradient-27);}.cls-42{fill:url(#linear-gradient-28);}.cls-43{fill:#5e2d7d;}.cls-44{fill:url(#linear-gradient-29);}.cls-45{fill:url(#linear-gradient-30);}.cls-46{fill:url(#linear-gradient-31);}.cls-47{fill:url(#linear-gradient-32);}.cls-48{fill:url(#linear-gradient-33);}.cls-49{fill:url(#linear-gradient-34);}.cls-50{fill:url(#linear-gradient-35);}.cls-51{fill:#181a31;}.cls-52{fill:url(#linear-gradient-36);}.cls-53{fill:url(#linear-gradient-37);}.cls-54{fill:url(#linear-gradient-38);}.cls-55{fill:url(#linear-gradient-39);}.cls-56{clip-path:url(#clip-path);}.cls-57{stroke:#fff;}.cls-58{fill:url(#linear-gradient-40);}.cls-59{fill:url(#linear-gradient-41);}.cls-60{fill:url(#linear-gradient-42);}.cls-61{fill:url(#linear-gradient-43);}.cls-62{fill:url(#linear-gradient-44);}.cls-63{fill:url(#linear-gradient-45);}.cls-64{fill:url(#linear-gradient-46);}.cls-65{fill:url(#linear-gradient-47);}.cls-66{fill:url(#linear-gradient-48);}.cls-67{fill:url(#linear-gradient-49);}.cls-68{fill:url(#linear-gradient-50);}.cls-69{fill:url(#linear-gradient-51);}.cls-70{fill:url(#linear-gradient-52);}.cls-71{fill:url(#linear-gradient-53);}.cls-72{fill:url(#linear-gradient-54);}.cls-73{fill:url(#linear-gradient-55);}.cls-74{fill:url(#linear-gradient-56);}.cls-75{font-size:12.93px;font-family:MyriadPro-Bold, Myriad Pro;font-weight:700;}.cls-76{fill:url(#linear-gradient-57);}.cls-77{fill:url(#linear-gradient-58);}.cls-78,.cls-79{opacity:0.3;}.cls-78{fill:url(#New_Gradient_Swatch_copy_6);}.cls-79{fill:url(#New_Gradient_Swatch_copy_6-2);}.cls-80{fill:url(#linear-gradient-59);}.cls-81{fill:url(#linear-gradient-60);}.cls-82{fill:url(#New_Gradient_Swatch_copy_6-3);}.cls-83{fill:url(#linear-gradient-61);}.cls-84{fill:url(#linear-gradient-62);}.cls-85{fill:url(#linear-gradient-63);}.cls-86{fill:url(#linear-gradient-64);}.cls-87{fill:url(#linear-gradient-65);}.cls-88{fill:url(#linear-gradient-66);}.cls-89{fill:url(#linear-gradient-67);}.cls-90{fill:url(#linear-gradient-68);}.cls-91{fill:url(#linear-gradient-69);}.cls-92{fill:url(#linear-gradient-70);}.cls-93{fill:url(#linear-gradient-71);}.cls-94{clip-path:url(#clip-path-2);}.cls-95{fill:url(#linear-gradient-72);}.cls-96{fill:url(#linear-gradient-73);}.cls-97{fill:url(#linear-gradient-74);}.cls-98{fill:#b4cf68;mix-blend-mode:screen;opacity:0.44;}.cls-99{fill:url(#linear-gradient-75);}.cls-100{fill:url(#linear-gradient-76);}.cls-101{fill:url(#linear-gradient-77);}.cls-102{fill:#ced8ff;}.cls-103{fill:#bacbff;}.cls-104{fill:url(#linear-gradient-78);}.cls-105{fill:url(#linear-gradient-79);}.cls-106{fill:#eef2fe;}.cls-107{fill:url(#linear-gradient-80);}.cls-108{fill:url(#linear-gradient-81);}.cls-109{fill:#0080ad;}.cls-110{fill:#113328;}.cls-111{fill:url(#linear-gradient-82);}.cls-112{fill:url(#linear-gradient-83);}.cls-113{fill:url(#linear-gradient-84);}.cls-114{fill:url(#linear-gradient-85);}.cls-115{fill:url(#linear-gradient-86);}.cls-116{fill:url(#linear-gradient-87);}.cls-117{fill:url(#linear-gradient-88);}.cls-118{fill:url(#linear-gradient-89);}.cls-119{fill:url(#linear-gradient-90);}.cls-120{fill:url(#linear-gradient-91);}.cls-121{fill:url(#linear-gradient-92);}.cls-122{fill:url(#linear-gradient-93);}.cls-123{fill:url(#linear-gradient-94);}.cls-124{fill:url(#linear-gradient-95);}.cls-125{fill:url(#linear-gradient-96);}.cls-126{fill:url(#linear-gradient-97);}.cls-127{fill:url(#linear-gradient-98);}.cls-128{fill:url(#linear-gradient-99);}.cls-129{fill:url(#linear-gradient-100);}.cls-130{fill:url(#linear-gradient-101);}.cls-131{fill:url(#linear-gradient-102);}.cls-132{fill:url(#linear-gradient-103);}.cls-133{fill:url(#linear-gradient-104);}.cls-134{fill:url(#linear-gradient-105);}.cls-135{fill:url(#linear-gradient-106);}.cls-136{fill:url(#linear-gradient-107);}.cls-137{fill:url(#linear-gradient-108);}.cls-138{fill:url(#linear-gradient-109);}.cls-139{fill:url(#linear-gradient-110);}.cls-140{fill:url(#linear-gradient-111);}.cls-141{fill:url(#linear-gradient-112);}.cls-142{fill:url(#linear-gradient-113);}.cls-143{fill:url(#linear-gradient-114);}.cls-144{fill:url(#linear-gradient-115);}.cls-145{fill:url(#linear-gradient-116);}.cls-146{fill:url(#linear-gradient-117);}.cls-147{fill:url(#linear-gradient-118);}.cls-148{fill:url(#linear-gradient-119);}.cls-149{fill:url(#linear-gradient-120);}.cls-150{fill:url(#linear-gradient-121);}.cls-151{fill:url(#linear-gradient-122);}.cls-152{fill:url(#linear-gradient-123);}.cls-153{fill:url(#linear-gradient-124);}.cls-154{fill:url(#linear-gradient-125);}.cls-155{fill:url(#linear-gradient-126);}.cls-156{fill:url(#linear-gradient-127);}.cls-157{fill:url(#linear-gradient-128);}.cls-158{fill:url(#linear-gradient-129);}.cls-159{fill:url(#linear-gradient-130);}.cls-160{fill:url(#linear-gradient-131);}.cls-161{fill:url(#linear-gradient-132);}.cls-162{fill:url(#linear-gradient-133);}.cls-163{fill:url(#linear-gradient-134);}.cls-164{fill:url(#linear-gradient-135);}.cls-165{fill:url(#linear-gradient-136);}.cls-166{fill:url(#linear-gradient-137);}.cls-167{fill:url(#linear-gradient-138);}.cls-168{fill:url(#linear-gradient-139);}.cls-169{fill:url(#linear-gradient-140);}.cls-170{fill:url(#linear-gradient-141);}.cls-171{fill:url(#linear-gradient-142);}.cls-172{fill:url(#linear-gradient-143);}.cls-173{fill:url(#linear-gradient-144);}.cls-174{fill:url(#linear-gradient-145);}</style><linearGradient id="linear-gradient" x1="380.57" y1="-4.67" x2="378.62" y2="-30.45" gradientTransform="matrix(0.87, 0.5, -1, 0.58, 365.57, 81.03)" gradientUnits="userSpaceOnUse"><stop offset="0" stop-color="#bfe3ed"/><stop offset="1" stop-color="#e9faff"/></linearGradient><linearGradient id="linear-gradient-2" x1="418.67" y1="56.83" x2="413.67" y2="-9.18" gradientTransform="matrix(0.87, 0.5, -1, 0.58, 365.57, 81.03)" gradientUnits="userSpaceOnUse"><stop offset="0" stop-color="#95ccdc"/><stop offset="1" stop-color="#bfe3ed"/></linearGradient><linearGradient id="linear-gradient-3" x1="709.94" y1="306.32" x2="735.65" y2="306.32" gradientUnits="userSpaceOnUse"><stop offset="0" stop-color="#56aac1"/><stop offset="1" stop-color="#80c1d3"/></linearGradient><linearGradient id="linear-gradient-4" x1="507.03" y1="137.32" x2="505.17" y2="112.71" xlink:href="#linear-gradient"/><linearGradient id="linear-gradient-5" x1="531.34" y1="177.87" x2="528.07" y2="134.7" xlink:href="#linear-gradient-2"/><linearGradient id="linear-gradient-6" x1="677" y1="438.38" x2="701.54" y2="438.38" xlink:href="#linear-gradient-3"/><linearGradient id="linear-gradient-7" x1="524.62" y1="88.7" x2="522.21" y2="56.87" xlink:href="#linear-gradient"/><linearGradient id="linear-gradient-8" x1="540.18" y1="117.08" x2="537.87" y2="86.58" xlink:href="#linear-gradient-2"/><linearGradient id="linear-gradient-9" x1="749.33" y1="414.22" x2="780.16" y2="414.22" xlink:href="#linear-gradient-3"/><linearGradient id="linear-gradient-10" x1="327.19" y1="23.86" x2="324.78" y2="-7.97" xlink:href="#linear-gradient"/><linearGradient id="linear-gradient-11" x1="342.75" y1="52.24" x2="340.45" y2="21.74" xlink:href="#linear-gradient-2"/><linearGradient id="linear-gradient-12" x1="643.19" y1="278.07" x2="674.03" y2="278.07" xlink:href="#linear-gradient-3"/><linearGradient id="linear-gradient-13" x1="694.36" y1="660.32" x2="486.48" y2="463.26" gradientUnits="userSpaceOnUse"><stop offset="0" stop-color="#56aac1"/><stop offset="1" stop-color="#56aac1" stop-opacity="0"/></linearGradient><linearGradient id="linear-gradient-14" x1="279.74" y1="193.32" x2="593.71" y2="193.32" gradientTransform="matrix(0.87, 0.5, 0, 1.15, 56.84, -243.68)" gradientUnits="userSpaceOnUse"><stop offset="0" stop-color="#0a5793"/><stop offset="1" stop-color="#3383be"/></linearGradient><linearGradient id="linear-gradient-15" x1="277.56" y1="197.52" x2="585.62" y2="197.52" gradientTransform="matrix(0.87, 0.5, 0, 1.15, 56.84, -243.68)" gradientUnits="userSpaceOnUse"><stop offset="0" stop-color="#4092cc"/><stop offset="1" stop-color="#5bafe9"/></linearGradient><linearGradient id="linear-gradient-16" x1="530.19" y1="133.52" x2="325.48" y2="277.6" gradientTransform="matrix(0.87, 0.5, 0, 1.15, 56.84, -243.68)" gradientUnits="userSpaceOnUse"><stop offset="0" stop-color="#713f91"/><stop offset="1" stop-color="#be88e0"/></linearGradient><linearGradient id="linear-gradient-17" x1="323.45" y1="241.91" x2="358.27" y2="241.91" gradientTransform="matrix(0.87, 0.5, 0, 1.15, 56.84, -243.68)" gradientUnits="userSpaceOnUse"><stop offset="0" stop-color="#ce4012"/><stop offset="1" stop-color="#e78f46"/></linearGradient><linearGradient id="linear-gradient-18" x1="422.2" y1="200.27" x2="457.02" y2="200.27" gradientTransform="matrix(0.87, 0.5, 0, 1.15, 56.84, -243.68)" gradientUnits="userSpaceOnUse"><stop offset="0" stop-color="#2d9ba1"/><stop offset="1" stop-color="#50d2d6"/></linearGradient><linearGradient id="linear-gradient-19" x1="371.71" y1="227.56" x2="406.53" y2="227.56" gradientTransform="matrix(0.87, 0.5, 0, 1.15, 56.84, -243.68)" gradientUnits="userSpaceOnUse"><stop offset="0" stop-color="#4c841a"/><stop offset="1" stop-color="#80a941"/></linearGradient><linearGradient id="linear-gradient-20" x1="483.52" y1="148.59" x2="551.02" y2="148.59" xlink:href="#linear-gradient-16"/><linearGradient id="linear-gradient-21" x1="461.31" y1="265.11" x2="489.64" y2="265.11" gradientTransform="matrix(0.5, 0.87, -0.58, 1, 387.61, -377.15)" xlink:href="#linear-gradient-17"/><linearGradient id="New_Gradient_Swatch_copy_19" x1="525.52" y1="534.63" x2="574.07" y2="540.36" gradientUnits="userSpaceOnUse"><stop offset="0" stop-color="#0f1128"/><stop offset="1" stop-color="#21233a"/></linearGradient><linearGradient id="linear-gradient-22" x1="555.41" y1="516.43" x2="573.15" y2="518.53" gradientUnits="userSpaceOnUse"><stop offset="0" stop-color="#aad8e4"/><stop offset="1" stop-color="#e9faff"/></linearGradient><linearGradient id="linear-gradient-23" x1="553.88" y1="434.96" x2="607.54" y2="434.96" gradientUnits="userSpaceOnUse"><stop offset="0" stop-color="#3c3e54"/><stop offset="1" stop-color="#21233a"/></linearGradient><linearGradient id="New_Gradient_Swatch_copy_19-2" x1="599.88" y1="546.23" x2="637.57" y2="546.23" gradientTransform="translate(58.65 -47.93) rotate(6.74)" xlink:href="#New_Gradient_Swatch_copy_19"/><linearGradient id="linear-gradient-24" x1="610.12" y1="545.04" x2="627.16" y2="545.04" xlink:href="#linear-gradient-22"/><linearGradient id="linear-gradient-25" x1="589.8" y1="454.81" x2="630.9" y2="454.81" xlink:href="#linear-gradient-23"/><linearGradient id="linear-gradient-26" x1="477.89" y1="230.05" x2="499.34" y2="249.46" gradientUnits="userSpaceOnUse"><stop offset="0.02" stop-color="#ffb994"/><stop offset="1" stop-color="#ff9785"/></linearGradient><linearGradient id="linear-gradient-27" x1="638.94" y1="317.53" x2="559.33" y2="303.76" xlink:href="#linear-gradient-22"/><linearGradient id="linear-gradient-28" x1="644.69" y1="321.02" x2="581.89" y2="315.03" gradientUnits="userSpaceOnUse"><stop offset="0" stop-color="#5e2d7d"/><stop offset="1" stop-color="#9864b8"/></linearGradient><linearGradient id="linear-gradient-29" x1="616.72" y1="276.89" x2="592.62" y2="274.59" gradientUnits="userSpaceOnUse"><stop offset="0" stop-color="#9864b8"/><stop offset="1" stop-color="#be88e0"/></linearGradient><linearGradient id="linear-gradient-30" x1="559.81" y1="310.36" x2="581.02" y2="310.36" xlink:href="#linear-gradient-28"/><linearGradient id="linear-gradient-31" x1="593.65" y1="269.46" x2="569.95" y2="267.2" xlink:href="#linear-gradient-29"/><linearGradient id="linear-gradient-32" x1="603.37" y1="388.56" x2="622.18" y2="405.59" xlink:href="#linear-gradient-26"/><linearGradient id="linear-gradient-33" x1="568.78" y1="273.02" x2="637.4" y2="335.12" xlink:href="#linear-gradient-28"/><linearGradient id="linear-gradient-34" x1="566.44" y1="276.68" x2="506.06" y2="245.43" xlink:href="#linear-gradient-28"/><linearGradient id="linear-gradient-35" x1="576.48" y1="201.43" x2="622.88" y2="243.41" xlink:href="#linear-gradient-26"/><linearGradient id="linear-gradient-36" x1="713.18" y1="688.3" x2="190.1" y2="192.45" gradientUnits="userSpaceOnUse"><stop offset="0" stop-color="#0a5793"/><stop offset="1" stop-color="#0a5793" stop-opacity="0"/></linearGradient><linearGradient id="linear-gradient-37" x1="822.66" y1="594.91" x2="812.2" y2="456.73" gradientTransform="matrix(-0.87, 0.5, 1.5, 0.29, 126.17, -157)" xlink:href="#linear-gradient-13"/><linearGradient id="linear-gradient-38" x1="785.8" y1="573.63" x2="775.34" y2="435.45" gradientTransform="matrix(-0.87, 0.5, 1.5, 0.29, 126.17, -157)" gradientUnits="userSpaceOnUse"><stop offset="0" stop-color="#95ccdc"/><stop offset="1" stop-color="#56aac1"/></linearGradient><linearGradient id="linear-gradient-39" x1="776.39" y1="568.2" x2="765.93" y2="430.02" gradientTransform="matrix(-0.87, 0.5, 1.5, 0.29, 126.17, -157)" xlink:href="#linear-gradient"/><clipPath id="clip-path"><path class="cls-1" d="M257.94,436.14,327,396.27c8.06-4.66,7.05-12.79-2.26-18.16L220.67,318c-9.31-5.37-23.39-6-31.45-1.3l-69.06,39.87c-8.07,4.66-7.06,12.79,2.25,18.16l104.07,60.09C235.79,440.21,249.88,440.8,257.94,436.14Z"/></clipPath><linearGradient id="linear-gradient-40" x1="69.21" y1="224.37" x2="66.63" y2="190.22" gradientTransform="matrix(0.87, 0.5, -1, 0.58, 365.57, 81.03)" gradientUnits="userSpaceOnUse"><stop offset="0.03" stop-color="#91b64e"/><stop offset="1" stop-color="#b4cf68"/></linearGradient><linearGradient id="linear-gradient-41" x1="119.67" y1="305.82" x2="113.05" y2="218.39" gradientTransform="matrix(0.87, 0.5, -1, 0.58, 365.57, 81.03)" gradientUnits="userSpaceOnUse"><stop offset="0" stop-color="#4c841a"/><stop offset="1" stop-color="#6f9d34"/></linearGradient><linearGradient id="linear-gradient-42" x1="140.36" y1="300.71" x2="131.57" y2="184.66" gradientTransform="matrix(0.87, 0.5, -1, 0.58, 365.57, 81.03)" gradientUnits="userSpaceOnUse"><stop offset="0" stop-color="#427717"/><stop offset="1" stop-color="#2f5d10"/></linearGradient><linearGradient id="linear-gradient-43" x1="97.8" y1="298.48" x2="95.21" y2="264.34" gradientTransform="matrix(0.87, 0.5, -1, 0.58, 365.57, 81.03)" gradientUnits="userSpaceOnUse"><stop offset="0" stop-color="#5be4e8"/><stop offset="1" stop-color="#50d2d6"/></linearGradient><linearGradient id="linear-gradient-44" x1="137.79" y1="364.18" x2="132.48" y2="293.97" gradientTransform="matrix(0.87, 0.5, -1, 0.58, 365.57, 81.03)" gradientUnits="userSpaceOnUse"><stop offset="0" stop-color="#44c0c5"/><stop offset="1" stop-color="#39aeb3"/></linearGradient><linearGradient id="linear-gradient-45" x1="158.48" y1="359.07" x2="151" y2="260.23" gradientTransform="matrix(0.87, 0.5, -1, 0.58, 365.57, 81.03)" gradientUnits="userSpaceOnUse"><stop offset="0" stop-color="#2d9ba1"/><stop offset="1" stop-color="#16777e"/></linearGradient><linearGradient id="linear-gradient-46" x1="171.74" y1="265.5" x2="169.78" y2="239.68" gradientTransform="matrix(0.87, 0.5, -1, 0.58, 365.57, 81.03)" gradientUnits="userSpaceOnUse"><stop offset="0" stop-color="#69bef7"/><stop offset="1" stop-color="#4ea1da"/></linearGradient><linearGradient id="linear-gradient-47" x1="197.25" y1="308.05" x2="193.82" y2="262.75" gradientTransform="matrix(0.87, 0.5, -1, 0.58, 365.57, 81.03)" gradientUnits="userSpaceOnUse"><stop offset="0" stop-color="#4ea1da"/><stop offset="1" stop-color="#4092cc"/></linearGradient><linearGradient id="linear-gradient-48" x1="212.89" y1="304.18" x2="207.82" y2="237.23" gradientTransform="matrix(0.87, 0.5, -1, 0.58, 365.57, 81.03)" gradientUnits="userSpaceOnUse"><stop offset="0" stop-color="#3383be"/><stop offset="1" stop-color="#1866a1"/></linearGradient><linearGradient id="linear-gradient-49" x1="223.76" y1="278.15" x2="221.81" y2="252.33" gradientTransform="matrix(0.87, 0.5, -1, 0.58, 365.57, 81.03)" gradientUnits="userSpaceOnUse"><stop offset="0" stop-color="#ab76cc"/><stop offset="1" stop-color="#d19af4"/></linearGradient><linearGradient id="linear-gradient-50" x1="243.11" y1="311.43" x2="240.45" y2="276.26" gradientTransform="matrix(0.87, 0.5, -1, 0.58, 365.57, 81.03)" gradientUnits="userSpaceOnUse"><stop offset="0" stop-color="#9864b8"/><stop offset="1" stop-color="#8451a5"/></linearGradient><linearGradient id="linear-gradient-51" x1="258.76" y1="307.56" x2="254.46" y2="250.74" gradientTransform="matrix(0.87, 0.5, -1, 0.58, 365.57, 81.03)" gradientUnits="userSpaceOnUse"><stop offset="0" stop-color="#8451a5"/><stop offset="1" stop-color="#5e2d7d"/></linearGradient><linearGradient id="linear-gradient-52" x1="208.04" y1="335.65" x2="205.38" y2="300.5" gradientTransform="matrix(0.87, 0.5, -1, 0.58, 365.57, 81.03)" gradientUnits="userSpaceOnUse"><stop offset="0" stop-color="#ffdf7b"/><stop offset="1" stop-color="#f7c469"/></linearGradient><linearGradient id="linear-gradient-53" x1="225.23" y1="366.99" x2="222.68" y2="333.31" gradientTransform="matrix(0.87, 0.5, -1, 0.58, 365.57, 81.03)" gradientUnits="userSpaceOnUse"><stop offset="0" stop-color="#e78f46"/><stop offset="1" stop-color="#de7535"/></linearGradient><linearGradient id="linear-gradient-54" x1="253.08" y1="361.46" x2="248.44" y2="300.16" gradientTransform="matrix(0.87, 0.5, -1, 0.58, 365.57, 81.03)" gradientUnits="userSpaceOnUse"><stop offset="0" stop-color="#d65a23"/><stop offset="1" stop-color="#ce4012"/></linearGradient><linearGradient id="linear-gradient-55" x1="260.61" y1="272.87" x2="259.07" y2="249.48" gradientTransform="matrix(0.87, 0.5, 0, 1.15, 12.05, -92.63)" xlink:href="#linear-gradient-54"/><linearGradient id="linear-gradient-56" x1="257.52" y1="276.76" x2="255.98" y2="253.37" gradientTransform="matrix(0.87, 0.5, 0, 1.15, 12.05, -92.63)" xlink:href="#linear-gradient-53"/><linearGradient id="linear-gradient-57" x1="237.13" y1="179.98" x2="235.59" y2="156.59" gradientTransform="matrix(0.87, 0.5, 0, 1.15, 12.05, -92.63)" xlink:href="#linear-gradient-42"/><linearGradient id="linear-gradient-58" x1="234.03" y1="183.87" x2="232.5" y2="160.48" gradientTransform="matrix(0.87, 0.5, 0, 1.15, 12.05, -92.63)" xlink:href="#linear-gradient-41"/><linearGradient id="New_Gradient_Swatch_copy_6" x1="415.68" y1="309.55" x2="437.59" y2="296.9" gradientTransform="matrix(-0.5, 0.87, -0.58, -1, 551.33, 221.2)" gradientUnits="userSpaceOnUse"><stop offset="0" stop-color="#eed7fc"/><stop offset="1" stop-color="#f9f0ff"/></linearGradient><linearGradient id="New_Gradient_Swatch_copy_6-2" x1="420.71" y1="306.65" x2="432.56" y2="299.81" xlink:href="#New_Gradient_Swatch_copy_6"/><linearGradient id="linear-gradient-59" x1="165.98" y1="248.21" x2="155.19" y2="280.89" gradientTransform="matrix(1, 0, 0, 1, 0, 0)" xlink:href="#linear-gradient-44"/><linearGradient id="linear-gradient-60" x1="135.47" y1="191.98" x2="164.32" y2="191.98" gradientTransform="matrix(0.87, -0.5, 0, 1.15, 34.66, 123.92)" xlink:href="#linear-gradient-45"/><linearGradient id="New_Gradient_Swatch_copy_6-3" x1="142.68" y1="188.1" x2="157.11" y2="188.1" gradientTransform="matrix(0.87, 0.5, -1, 0.58, 221.76, 82.31)" xlink:href="#New_Gradient_Swatch_copy_6"/><linearGradient id="linear-gradient-61" x1="-40.08" y1="1085.11" x2="-13.97" y2="1085.11" gradientTransform="translate(318.17 -755.61)" gradientUnits="userSpaceOnUse"><stop offset="0" stop-color="#de7535"/><stop offset="1" stop-color="#d65a23"/></linearGradient><linearGradient id="linear-gradient-62" x1="998.97" y1="401.75" x2="1005.14" y2="436.87" gradientTransform="translate(1299.29 745.32) rotate(179.69)" gradientUnits="userSpaceOnUse"><stop offset="0" stop-color="#ffdf7b"/><stop offset="1" stop-color="#efaa58"/></linearGradient><linearGradient id="linear-gradient-63" x1="-33.7" y1="1086.63" x2="-12.84" y2="1086.63" gradientTransform="translate(318.17 -755.61)" gradientUnits="userSpaceOnUse"><stop offset="0" stop-color="#c62500"/><stop offset="1" stop-color="#ce4012"/></linearGradient><linearGradient id="linear-gradient-64" x1="-33.7" y1="1086.24" x2="-13.88" y2="1086.24" xlink:href="#linear-gradient-61"/><linearGradient id="linear-gradient-65" x1="316.83" y1="394.34" x2="352.29" y2="394.34" xlink:href="#linear-gradient-29"/><linearGradient id="linear-gradient-66" x1="318.62" y1="394.34" x2="350.5" y2="394.34" gradientUnits="userSpaceOnUse"><stop offset="0" stop-color="#713f91"/><stop offset="1" stop-color="#4b1b69"/></linearGradient><linearGradient id="linear-gradient-67" x1="306.79" y1="426.14" x2="366.27" y2="426.14" gradientUnits="userSpaceOnUse"><stop offset="0" stop-color="#9864b8"/><stop offset="1" stop-color="#713f91"/></linearGradient><linearGradient id="linear-gradient-68" x1="329.1" y1="406.85" x2="338.29" y2="406.85" xlink:href="#linear-gradient-67"/><linearGradient id="linear-gradient-69" x1="306.79" y1="428.71" x2="331.02" y2="428.71" xlink:href="#linear-gradient-66"/><linearGradient id="linear-gradient-70" x1="328.98" y1="441.99" x2="348.16" y2="441.99" xlink:href="#linear-gradient-66"/><linearGradient id="linear-gradient-71" x1="342.38" y1="405.15" x2="348.38" y2="405.15" xlink:href="#linear-gradient-67"/><clipPath id="clip-path-2"><path class="cls-1" d="M349.41,390.21a3,3,0,0,0-.58-.2l.93-20.86-30.12,3.93,8,17c-.44.12-.88.21-1.28.3s-.62.13-.91.21a12.66,12.66,0,0,0-4.37,1.69,6.14,6.14,0,0,0-2.4,3.65,2.31,2.31,0,0,0,.29,2,1.81,1.81,0,0,0,1.21.32,7,7,0,0,0,1.13-.11l.67-.14a13.08,13.08,0,0,1,2.61-.34,5.89,5.89,0,0,1,1.53.19,8.94,8.94,0,0,1,4,2.71l.33.33a3.94,3.94,0,0,0,2.36,1.42h.1a4.3,4.3,0,0,0,1.87-1,12.48,12.48,0,0,1,1.81-1.14,10.15,10.15,0,0,1,4.49-.83h1l4.06.08a3.24,3.24,0,0,0,.87-.08h0a4,4,0,0,0,.15-.95c0-.16,0-.32.05-.49a8.9,8.9,0,0,1,1.8-4.4l.58-.69a3.74,3.74,0,0,0,.84-1.21C350.6,391.22,350.09,390.51,349.41,390.21Z"/></clipPath><linearGradient id="linear-gradient-72" x1="335.49" y1="385" x2="347.13" y2="385" gradientUnits="userSpaceOnUse"><stop offset="0" stop-color="#4c841a"/><stop offset="1" stop-color="#91b64e"/></linearGradient><linearGradient id="linear-gradient-73" x1="339.55" y1="401.94" x2="347.13" y2="401.94" xlink:href="#linear-gradient-72"/><linearGradient id="linear-gradient-74" x1="329.81" y1="397.7" x2="345.24" y2="397.7" xlink:href="#linear-gradient-72"/><linearGradient id="linear-gradient-75" x1="334.52" y1="404.17" x2="337.19" y2="404.17" gradientTransform="translate(131.08 -79.79) rotate(16.79)" gradientUnits="userSpaceOnUse"><stop offset="0" stop-color="#396a13"/><stop offset="1" stop-color="#133506"/></linearGradient><linearGradient id="linear-gradient-76" x1="337.55" y1="390.95" x2="340.22" y2="390.95" gradientTransform="translate(127.39 -81.23) rotate(16.79)" xlink:href="#linear-gradient-75"/><linearGradient id="linear-gradient-77" x1="335.53" y1="397.56" x2="339.22" y2="397.56" gradientTransform="translate(129.23 -80.51) rotate(16.79)" xlink:href="#linear-gradient-75"/><linearGradient id="linear-gradient-78" x1="345.58" y1="425.27" x2="361.3" y2="425.27" gradientUnits="userSpaceOnUse"><stop offset="0" stop-color="#ce4012"/><stop offset="1" stop-color="#efaa58"/></linearGradient><linearGradient id="linear-gradient-79" x1="318" y1="428.89" x2="333.1" y2="428.89" xlink:href="#linear-gradient-78"/><linearGradient id="linear-gradient-80" x1="306.08" y1="502.88" x2="323.8" y2="502.88" gradientTransform="matrix(1, 0, 0, 1, 0, 0)" xlink:href="#linear-gradient-75"/><linearGradient id="linear-gradient-81" x1="272.16" y1="498.21" x2="306.08" y2="498.21" gradientUnits="userSpaceOnUse"><stop offset="0" stop-color="#4c841a"/><stop offset="0.97" stop-color="#2f5d10"/></linearGradient><linearGradient id="linear-gradient-82" x1="272.16" y1="492.65" x2="323.8" y2="492.65" xlink:href="#linear-gradient-72"/><linearGradient id="linear-gradient-83" x1="285.93" y1="487.28" x2="292.5" y2="487.28" gradientTransform="translate(774.92 195.42) rotate(89.69)" xlink:href="#linear-gradient-75"/><linearGradient id="linear-gradient-84" x1="304" y1="497.71" x2="310.57" y2="497.71" gradientTransform="translate(803.32 187.73) rotate(89.69)" xlink:href="#linear-gradient-75"/><linearGradient id="linear-gradient-85" x1="293.7" y1="492.5" x2="302.8" y2="492.5" gradientTransform="translate(789.12 191.58) rotate(89.69)" xlink:href="#linear-gradient-75"/><linearGradient id="linear-gradient-86" x1="262.85" y1="467.53" x2="280.57" y2="467.53" gradientTransform="matrix(-1, 0, 0, 1, 556.05, 0)" xlink:href="#linear-gradient-81"/><linearGradient id="linear-gradient-87" x1="293.2" y1="462.86" x2="327.11" y2="462.86" gradientTransform="matrix(1, 0, 0, 1, 0, 0)" xlink:href="#linear-gradient-75"/><linearGradient id="linear-gradient-88" x1="306.77" y1="455.44" x2="313.35" y2="455.44" gradientTransform="translate(2.47 -1.67) rotate(0.31)" xlink:href="#linear-gradient-75"/><linearGradient id="linear-gradient-89" x1="288.7" y1="465.88" x2="295.28" y2="465.88" gradientTransform="translate(2.53 -1.58) rotate(0.31)" xlink:href="#linear-gradient-75"/><linearGradient id="linear-gradient-90" x1="228.93" y1="454.67" x2="280.57" y2="454.67" gradientTransform="matrix(-1, 0, 0, 1, 556.05, 0)" xlink:href="#linear-gradient-72"/><linearGradient id="linear-gradient-91" x1="306.77" y1="449.29" x2="313.35" y2="449.29" gradientTransform="translate(2.44 -1.67) rotate(0.31)" xlink:href="#linear-gradient-75"/><linearGradient id="linear-gradient-92" x1="288.7" y1="459.73" x2="295.28" y2="459.73" gradientTransform="translate(2.5 -1.58) rotate(0.31)" xlink:href="#linear-gradient-75"/><linearGradient id="linear-gradient-93" x1="296.47" y1="454.51" x2="305.58" y2="454.51" gradientTransform="translate(2.47 -1.63) rotate(0.31)" xlink:href="#linear-gradient-75"/><linearGradient id="linear-gradient-94" x1="290.98" y1="454.27" x2="313.03" y2="454.27" gradientTransform="matrix(1, 0, 0, 1, 0, 0)" xlink:href="#linear-gradient-52"/><linearGradient id="linear-gradient-95" x1="308.87" y1="462.42" x2="313.03" y2="462.42" gradientUnits="userSpaceOnUse"><stop offset="0" stop-color="#e78f46"/><stop offset="1" stop-color="#d65a23"/></linearGradient><linearGradient id="linear-gradient-96" x1="242.44" y1="480.08" x2="260.16" y2="480.08" gradientTransform="matrix(-1, 0, 0, 1, 556.05, 0)" xlink:href="#linear-gradient-81"/><linearGradient id="linear-gradient-97" x1="313.6" y1="475.41" x2="347.52" y2="475.41" gradientTransform="matrix(1, 0, 0, 1, 0, 0)" xlink:href="#linear-gradient-75"/><linearGradient id="linear-gradient-98" x1="327.18" y1="467.99" x2="333.75" y2="467.99" gradientTransform="translate(2.54 -1.78) rotate(0.31)" xlink:href="#linear-gradient-75"/><linearGradient id="linear-gradient-99" x1="309.11" y1="478.43" x2="315.68" y2="478.43" gradientTransform="translate(2.6 -1.69) rotate(0.31)" xlink:href="#linear-gradient-75"/><linearGradient id="linear-gradient-100" x1="208.53" y1="467.22" x2="260.16" y2="467.22" gradientTransform="matrix(-1, 0, 0, 1, 556.05, 0)" xlink:href="#linear-gradient-72"/><linearGradient id="linear-gradient-101" x1="327.18" y1="461.85" x2="333.75" y2="461.85" gradientTransform="translate(2.51 -1.79) rotate(0.31)" xlink:href="#linear-gradient-75"/><linearGradient id="linear-gradient-102" x1="309.11" y1="472.28" x2="315.68" y2="472.28" gradientTransform="translate(2.57 -1.69) rotate(0.31)" xlink:href="#linear-gradient-75"/><linearGradient id="linear-gradient-103" x1="316.88" y1="467.06" x2="325.98" y2="467.06" gradientTransform="translate(2.54 -1.74) rotate(0.31)" xlink:href="#linear-gradient-75"/><linearGradient id="linear-gradient-104" x1="311.39" y1="466.82" x2="333.44" y2="466.82" gradientTransform="matrix(1, 0, 0, 1, 0, 0)" xlink:href="#linear-gradient-52"/><linearGradient id="linear-gradient-105" x1="329.28" y1="474.97" x2="333.44" y2="474.97" xlink:href="#linear-gradient-95"/><linearGradient id="linear-gradient-106" x1="221.59" y1="492.85" x2="239.31" y2="492.85" gradientTransform="matrix(-1, 0, 0, 1, 556.05, 0)" xlink:href="#linear-gradient-81"/><linearGradient id="linear-gradient-107" x1="334.45" y1="488.17" x2="368.37" y2="488.17" gradientTransform="matrix(1, 0, 0, 1, 0, 0)" xlink:href="#linear-gradient-75"/><linearGradient id="linear-gradient-108" x1="348.03" y1="480.76" x2="354.6" y2="480.76" gradientTransform="translate(2.61 -1.9) rotate(0.31)" xlink:href="#linear-gradient-75"/><linearGradient id="linear-gradient-109" x1="329.96" y1="491.19" x2="336.53" y2="491.19" gradientTransform="translate(2.67 -1.8) rotate(0.31)" xlink:href="#linear-gradient-75"/><linearGradient id="linear-gradient-110" x1="187.68" y1="479.98" x2="239.31" y2="479.98" gradientTransform="matrix(-1, 0, 0, 1, 556.05, 0)" xlink:href="#linear-gradient-72"/><linearGradient id="linear-gradient-111" x1="348.03" y1="474.61" x2="354.6" y2="474.61" gradientTransform="translate(2.58 -1.9) rotate(0.31)" xlink:href="#linear-gradient-75"/><linearGradient id="linear-gradient-112" x1="329.96" y1="485.04" x2="336.53" y2="485.04" gradientTransform="translate(2.63 -1.8) rotate(0.31)" xlink:href="#linear-gradient-75"/><linearGradient id="linear-gradient-113" x1="337.73" y1="479.83" x2="346.83" y2="479.83" gradientTransform="translate(2.61 -1.85) rotate(0.31)" xlink:href="#linear-gradient-75"/><linearGradient id="linear-gradient-114" x1="332.24" y1="479.59" x2="354.29" y2="479.59" gradientTransform="matrix(1, 0, 0, 1, 0, 0)" xlink:href="#linear-gradient-52"/><linearGradient id="linear-gradient-115" x1="350.13" y1="487.73" x2="354.29" y2="487.73" xlink:href="#linear-gradient-95"/><linearGradient id="linear-gradient-116" x1="250" y1="466.21" x2="267.72" y2="466.21" gradientTransform="matrix(-1, 0, 0, 1, 556.05, 0)" xlink:href="#linear-gradient-81"/><linearGradient id="linear-gradient-117" x1="306.04" y1="461.53" x2="339.96" y2="461.53" gradientTransform="matrix(1, 0, 0, 1, 0, 0)" xlink:href="#linear-gradient-75"/><linearGradient id="linear-gradient-118" x1="319.62" y1="454.12" x2="326.19" y2="454.12" gradientTransform="translate(2.47 -1.74) rotate(0.31)" xlink:href="#linear-gradient-75"/><linearGradient id="linear-gradient-119" x1="301.55" y1="464.55" x2="308.12" y2="464.55" gradientTransform="translate(2.52 -1.65) rotate(0.31)" xlink:href="#linear-gradient-75"/><linearGradient id="linear-gradient-120" x1="216.08" y1="453.34" x2="267.72" y2="453.34" gradientTransform="matrix(-1, 0, 0, 1, 556.05, 0)" xlink:href="#linear-gradient-72"/><linearGradient id="linear-gradient-121" x1="319.62" y1="447.97" x2="326.19" y2="447.97" gradientTransform="translate(2.43 -1.74) rotate(0.31)" xlink:href="#linear-gradient-75"/><linearGradient id="linear-gradient-122" x1="301.55" y1="458.4" x2="308.12" y2="458.4" gradientTransform="translate(2.49 -1.65) rotate(0.31)" xlink:href="#linear-gradient-75"/><linearGradient id="linear-gradient-123" x1="309.32" y1="453.18" x2="318.42" y2="453.18" gradientTransform="translate(2.46 -1.7) rotate(0.31)" xlink:href="#linear-gradient-75"/><linearGradient id="linear-gradient-124" x1="303.83" y1="452.94" x2="325.88" y2="452.94" gradientTransform="matrix(1, 0, 0, 1, 0, 0)" xlink:href="#linear-gradient-52"/><linearGradient id="linear-gradient-125" x1="321.72" y1="461.09" x2="325.88" y2="461.09" xlink:href="#linear-gradient-95"/><linearGradient id="linear-gradient-126" x1="229.69" y1="480.5" x2="247.41" y2="480.5" gradientTransform="matrix(-1, 0, 0, 1, 556.05, 0)" xlink:href="#linear-gradient-81"/><linearGradient id="linear-gradient-127" x1="326.35" y1="475.83" x2="360.27" y2="475.83" gradientTransform="matrix(1, 0, 0, 1, 0, 0)" xlink:href="#linear-gradient-75"/><linearGradient id="linear-gradient-128" x1="339.93" y1="468.41" x2="346.5" y2="468.41" gradientTransform="matrix(1, 0.01, -0.01, 1, 2.54, -1.85)" xlink:href="#linear-gradient-75"/><linearGradient id="linear-gradient-129" x1="321.86" y1="478.85" x2="328.43" y2="478.85" gradientTransform="translate(2.6 -1.76) rotate(0.31)" xlink:href="#linear-gradient-75"/><linearGradient id="linear-gradient-130" x1="195.77" y1="467.64" x2="247.41" y2="467.64" gradientTransform="matrix(-1, 0, 0, 1, 556.05, 0)" xlink:href="#linear-gradient-72"/><linearGradient id="linear-gradient-131" x1="339.93" y1="462.27" x2="346.5" y2="462.27" gradientTransform="translate(2.51 -1.85) rotate(0.31)" xlink:href="#linear-gradient-75"/><linearGradient id="linear-gradient-132" x1="321.86" y1="472.7" x2="328.43" y2="472.7" gradientTransform="translate(2.57 -1.76) rotate(0.31)" xlink:href="#linear-gradient-75"/><linearGradient id="linear-gradient-133" x1="329.63" y1="467.48" x2="338.73" y2="467.48" gradientTransform="translate(2.54 -1.81) rotate(0.31)" xlink:href="#linear-gradient-75"/><linearGradient id="linear-gradient-134" x1="324.14" y1="467.24" x2="346.19" y2="467.24" gradientTransform="matrix(1, 0, 0, 1, 0, 0)" xlink:href="#linear-gradient-52"/><linearGradient id="linear-gradient-135" x1="342.03" y1="475.39" x2="346.19" y2="475.39" xlink:href="#linear-gradient-95"/><linearGradient id="linear-gradient-136" x1="239.05" y1="465.89" x2="256.77" y2="465.89" gradientTransform="matrix(-1, 0, 0, 1, 556.05, 0)" xlink:href="#linear-gradient-81"/><linearGradient id="linear-gradient-137" x1="317" y1="461.22" x2="350.92" y2="461.22" gradientTransform="matrix(1, 0, 0, 1, 0, 0)" xlink:href="#linear-gradient-75"/><linearGradient id="linear-gradient-138" x1="330.57" y1="453.8" x2="337.15" y2="453.8" gradientTransform="translate(2.47 -1.8) rotate(0.31)" xlink:href="#linear-gradient-75"/><linearGradient id="linear-gradient-139" x1="312.51" y1="464.23" x2="319.08" y2="464.23" gradientTransform="translate(2.52 -1.71) rotate(0.31)" xlink:href="#linear-gradient-75"/><linearGradient id="linear-gradient-140" x1="205.13" y1="453.02" x2="256.77" y2="453.02" gradientTransform="matrix(-1, 0, 0, 1, 556.05, 0)" xlink:href="#linear-gradient-72"/><linearGradient id="linear-gradient-141" x1="330.57" y1="447.65" x2="337.15" y2="447.65" gradientTransform="translate(2.43 -1.8) rotate(0.31)" xlink:href="#linear-gradient-75"/><linearGradient id="linear-gradient-142" x1="312.51" y1="458.08" x2="319.08" y2="458.08" gradientTransform="translate(2.49 -1.71) rotate(0.31)" xlink:href="#linear-gradient-75"/><linearGradient id="linear-gradient-143" x1="320.27" y1="452.87" x2="329.38" y2="452.87" gradientTransform="translate(2.46 -1.75) rotate(0.31)" xlink:href="#linear-gradient-75"/><linearGradient id="linear-gradient-144" x1="314.79" y1="452.63" x2="336.84" y2="452.63" gradientTransform="matrix(1, 0, 0, 1, 0, 0)" xlink:href="#linear-gradient-52"/><linearGradient id="linear-gradient-145" x1="332.67" y1="460.78" x2="336.84" y2="460.78" xlink:href="#linear-gradient-95"/></defs><g class="cls-2"><g id="ILLUSTRATIONS"><g id="REDUCE_TIME" data-name="REDUCE TIME"><polygon class="cls-3" points="709.94 276.91 684.06 261.98 709.78 247.13 735.65 262.07 709.94 276.91"/><polygon class="cls-4" points="709.94 350.57 684.06 335.63 684.06 261.98 709.94 276.91 709.94 350.57"/><polygon class="cls-5" points="709.94 350.57 709.94 276.91 735.65 262.07 735.65 335.73 709.94 350.57"/><polygon class="cls-6" points="677 421.74 652.3 407.49 676.85 393.32 701.54 407.57 677 421.74"/><polygon class="cls-7" points="677 469.19 652.3 454.94 652.3 407.49 677 421.74 677 469.19"/><polygon class="cls-8" points="677 469.19 677 421.74 701.54 407.57 701.54 455.02 677 469.19"/><polygon class="cls-9" points="749.33 407.52 707.01 383.09 737.85 365.29 780.16 389.72 749.33 407.52"/><polygon class="cls-10" points="749.33 438.73 707.01 414.3 707.01 383.09 749.33 407.52 749.33 438.73"/><polygon class="cls-11" points="749.33 438.73 749.33 407.52 780.16 389.72 780.16 420.93 749.33 438.73"/><polygon class="cls-12" points="643.19 271.37 600.88 246.94 631.71 229.14 674.02 253.57 643.19 271.37"/><polygon class="cls-13" points="643.19 302.58 600.88 278.15 600.88 246.94 643.19 271.37 643.19 302.58"/><polygon class="cls-14" points="643.19 302.58 643.19 271.37 674.02 253.57 674.02 284.78 643.19 302.58"/><path class="cls-15" d="M539.82,514.31c-10,9-39.52,34.43-14,42.92s37.84,24.12,51.71,29.61,61.25,3.83,71.3-16.48-26.17-23.3-45.23-37.47S556.84,499.1,539.82,514.31Z"/><path class="cls-16" d="M571,168.2V378.13a6.76,6.76,0,0,1-1.29,4.39c-1.17,1.38-8.4,5-8.4,5L310.61,236.31c-3.54-2-6.39-7.5-6.39-12.21L299.1,13.25s6.24-4,8-4.54a4.43,4.43,0,0,1,3.55.62L564.62,156C568.14,158,571,163.48,571,168.2Z"/><path class="cls-17" d="M564,172.24V382.18c0,4.7-2.86,6.87-6.39,4.83l-254-146.65c-3.53-2-6.39-7.51-6.39-12.21V18.21c0-4.71,2.86-6.88,6.39-4.84L557.61,160C561.14,162.06,564,167.53,564,172.24Z"/><path class="cls-18" d="M564,178.53V382.18c0,4.7-2.86,6.87-6.39,4.83l-254-146.65c-3.53-2-6.39-7.51-6.39-12.21V24.5Z"/><path class="cls-19" d="M528.56,180.7l-2-1.16c-11-6.36-20-1.25-20,11.4v52c0,16.12-11.43,22.64-25.48,14.53l-.2-.12c-14.05-8.11-25.48-27.82-25.48-43.94v-5.63c0-11.16-7.92-24.82-17.66-30.44l-.39-.22c-9.73-5.62-17.64-1.11-17.64,10.06v51.29c0,16.12-11.44,22.63-25.49,14.52s-25.48-27.82-25.48-43.95v-3.39c0-11.17-7.92-24.83-17.65-30.45l-.4-.23c-9.73-5.62-17.64-1.1-17.64,10.07v40.83c0,2.47-1.76,3.48-3.92,2.23a8.64,8.64,0,0,1-3.91-6.76V180.53c0-16.12,11.43-22.65,25.47-14.54l.4.23c14.05,8.11,25.48,27.84,25.48,44v3.4c0,11.16,7.92,24.81,17.65,30.43s17.65,1.11,17.65-10v-51.3c0-16.12,11.43-22.63,25.48-14.52l.39.22c14.05,8.11,25.49,27.83,25.49,44v5.62c0,11.17,7.91,24.82,17.65,30.43l.2.12c9.73,5.62,17.64,1.11,17.64-10.06v-52c0-15.43,9.59-22.81,22.3-18.43A70.82,70.82,0,0,1,528.56,180.7Z"/><path class="cls-20" d="M352.91,217.2V182.74c4.73,2.22,8.43-.2,8.43-5.76,0-5.9-4.16-13.09-9.3-16.06s-9.31-.59-9.31,5.31c0,5.56,3.7,12.26,8.43,15.5V216.2c-7.91-4.06-14.2-.17-14.2,9.05,0,9.55,6.75,21.19,15.08,26s15.07,1,15.07-8.6C367.11,233.44,360.83,222.29,352.91,217.2Z"/><ellipse class="cls-21" cx="352.04" cy="233.95" rx="9.63" ry="16.67" transform="translate(-69.95 209.65) rotate(-30.31)"/><path class="cls-22" d="M438.42,218.49V184c4.73,2.23,8.44-.2,8.44-5.76,0-5.9-4.17-13.09-9.31-16.06s-9.31-.59-9.31,5.31c0,5.56,3.71,12.27,8.44,15.5v34.47c-7.92-4.05-14.21-.17-14.21,9,0,9.55,6.75,21.2,15.08,26s15.08,1,15.08-8.59C452.63,234.73,446.34,223.59,438.42,218.49Z"/><ellipse class="cls-21" cx="437.55" cy="235.24" rx="9.63" ry="16.67" transform="translate(-58.91 252.98) rotate(-30.31)"/><path class="cls-23" d="M393,202.53V237c-4.74-2.22-8.44.2-8.44,5.76,0,5.9,4.17,13.09,9.31,16.06s9.31.59,9.31-5.31c0-5.56-3.71-12.27-8.44-15.5V203.53c7.92,4.05,14.2.17,14.2-9.05,0-9.55-6.75-21.19-15.07-26s-15.08-1-15.08,8.59C378.75,186.29,385,197.43,393,202.53Z"/><ellipse class="cls-21" cx="393.83" cy="185.78" rx="9.63" ry="16.67" transform="matrix(0.86, -0.5, 0.5, 0.86, -39.93, 224.16)"/><path class="cls-24" d="M534,203.41c0,17.85-12.16,25.42-27.48,17.62-.59-.3-1.17-.62-1.75-.95a46.32,46.32,0,0,1-6.09-4.24c-13.22-10.85-23.15-30.05-23.15-46.18,0-18.52,13.1-26,29.24-16.67A55.62,55.62,0,0,1,521,168a70.82,70.82,0,0,1,7.54,12.71C532,188.2,534,196.12,534,203.41Z"/><path class="cls-21" d="M526.2,198.89c0,13.06-8.9,18.6-20.11,12.89-.43-.22-.86-.45-1.28-.7a33.08,33.08,0,0,1-4.46-3.1c-9.67-7.94-16.94-22-16.94-33.8,0-13.55,9.59-19,21.4-12.19a40.48,40.48,0,0,1,11.86,11,52,52,0,0,1,5.52,9.31A40.73,40.73,0,0,1,526.2,198.89Z"/><path class="cls-25" d="M488.63,170.67l2.65,1.53v10.92l4.67,2.7v2.56l-7.32-4.23Z"/><path class="cls-25" d="M499.63,177v7.75c0,2.34.79,4,2.13,4.75s2.16.12,2.16-2.28V179.5l2.65,1.53v7.56c0,4.16-1.83,5.09-4.9,3.32S497,187.3,497,183v-7.53Z"/><path class="cls-25" d="M517.49,200.44a7.73,7.73,0,0,1-3-1.15A12.08,12.08,0,0,1,508.34,189c0-4.58,2.86-5.47,6.42-3.41a12.25,12.25,0,0,1,2.89,2.25l-.56,2.1a9.35,9.35,0,0,0-2.23-1.79c-2.09-1.21-3.73-.7-3.73,2.3a7.52,7.52,0,0,0,3.75,6.55,6.43,6.43,0,0,0,2.23.85Z"/><path class="cls-25" d="M521.93,189.9v13.48l-2.65-1.53V188.37Z"/><polygon class="cls-26" points="362.28 237.19 352.04 225.01 341.79 225.36 352.04 237.55 362.28 237.19"/><path class="cls-26" d="M357.89,238.43v1.42c0,2.26-1.6,3.17-3.57,2l-4.39-2.53a7.88,7.88,0,0,1-3.56-6.15v-1.31l5.67,6.75Z"/><line class="cls-27" x1="360.27" y1="236.03" x2="360.27" y2="241.93"/><path class="cls-26" d="M361.67,242.74c0,.88-1.4,2-1.4,2a15.15,15.15,0,0,1-1.39-3.6c0-.88.62-1.24,1.39-.79A3,3,0,0,1,361.67,242.74Z"/><path class="cls-28" d="M388.38,174.46h0a.37.37,0,0,0-.61.35v10.62a1.38,1.38,0,0,0,.62,1.07,15,15,0,0,1,5.5,5.52V180.9a1.24,1.24,0,0,0-.08-.41A12.85,12.85,0,0,0,388.38,174.46Z"/><path class="cls-28" d="M401,193.05V182.43a1.19,1.19,0,0,0-.18-.6,1.37,1.37,0,0,0-.43-.46h0c-1.44-.83-4.06-2-5.42-.22a.46.46,0,0,0-.09.31v11.11c1.66-1,4.07,0,5.5.84C400.69,193.6,401,193.44,401,193.05Z"/><path class="cls-28" d="M402.37,185l-.45-.26v8.88c0,1-.71,1.39-1.57.9-1.22-.7-3.23-1.59-4.65-.87a20.64,20.64,0,0,1,6.53,3.92.56.56,0,0,0,.52.17.41.41,0,0,0,.24-.42V186.05A1.35,1.35,0,0,0,402.37,185Z"/><path class="cls-28" d="M386.8,184.88V176l-.45-.26c-.34-.2-.61,0-.61.35v11.26a1.29,1.29,0,0,0,.23.69,1,1,0,0,0,.52.43A19.12,19.12,0,0,1,393,192.1a13.46,13.46,0,0,0-4.65-4.51A3.47,3.47,0,0,1,386.8,184.88Z"/><path class="cls-29" d="M445.7,234.87V248c0,1.21-.86,1.69-1.91,1.09L432,242.25a4.17,4.17,0,0,1-1.9-3.28V222.9c0-1.21.85-1.7,1.9-1.09l9.13,5.27Z"/><polygon class="cls-30" points="441.12 232.23 441.12 227.08 445.7 234.87 441.12 232.23"/><polygon class="cls-30" points="441.12 241.43 430.09 235.06 430.09 229.4 441.12 235.77 441.12 241.43"/><path class="cls-21" d="M433.75,236l-.26-.75-.25-.74h0a3.93,3.93,0,0,1-.23.46l-.23.46L432,235l.83-1.19-.8-2.09.74.43.25.75c.09.25.15.45.22.67h0a3.62,3.62,0,0,1,.2-.44l.24-.46.74.43-.81,1.14.85,2.18Z"/><path class="cls-21" d="M434.86,233.34l.65.37v2.67l1.14.66v.63l-1.79-1Z"/><path class="cls-21" d="M437.05,237.14a3.16,3.16,0,0,0,.72.62c.3.17.46.12.46-.1s-.14-.4-.48-.74a2.15,2.15,0,0,1-.79-1.43c0-.57.41-.75,1.08-.36a3,3,0,0,1,.74.59l-.15.51a2.44,2.44,0,0,0-.59-.5c-.29-.16-.42-.09-.42.08s.15.39.53.77a2,2,0,0,1,.74,1.41c0,.55-.36.81-1.15.36a3.25,3.25,0,0,1-.82-.68Z"/><polygon class="cls-31" points="363.86 93.72 317.56 66.99 317.56 58.34 363.86 85.07 363.86 93.72"/><polygon class="cls-31" points="393.03 126.32 329.66 89.74 329.66 81.09 393.03 117.67 393.03 126.32"/><polygon class="cls-31" points="550.96 344.47 487.59 307.89 487.59 299.24 550.96 335.82 550.96 344.47"/><polygon class="cls-31" points="550.96 359.14 487.59 322.55 487.59 313.9 550.96 350.49 550.96 359.14"/><polygon class="cls-31" points="393.03 142.09 317.56 98.52 317.56 89.87 393.03 133.44 393.03 142.09"/><polygon class="cls-31" points="374.34 147.07 317.56 114.29 317.56 105.64 374.34 138.42 374.34 147.07"/><ellipse class="cls-32" cx="468.61" cy="300.19" rx="9.98" ry="17.29" transform="matrix(0.86, -0.5, 0.5, 0.86, -87.44, 277.54)"/><path class="cls-33" d="M572.55,521.39a75.63,75.63,0,0,1,1.78,16.41c.09,6.8-14.67,6-14.67,6l-.07-1.5s-10.62,6.37-14.13,8.94-12.77,3.48-16.25,2.51-4.18-1.8-4.7-2.44S523,544.49,527,539.86s20.6-10.36,24.72-14.1,4.56-5.53,4.56-5.53Z"/><path class="cls-34" d="M573.82,505.62s-.73,15.38-1.27,17.57-5.94,5.28-8.64,6.5-8.59-.48-9.4-3.15,1.83-3.54,2.12-7.86.32-13.83.32-13.83S568.41,507.23,573.82,505.62Z"/><path class="cls-35" d="M567.77,348.42A389.51,389.51,0,0,0,555.68,424c-2,32.48-1.79,92.47-1.79,92.47s4.76,8.14,21.59,3.79c1.88-12.51,6-49.26,7.32-67.31,6.49-17.33,23.05-68.2,24.7-83.73S567.77,348.42,567.77,348.42Z"/><path class="cls-36" d="M628.89,559.28c.07,2.58-3.12,8.57-5.44,9-1.32.21-1-.94-1-.94s-4.71,7.56-8,11.14-9,7.37-12.3,8.14-9.59-.24-11.59-1.37-2.93-4.25-1.39-8.33,6.78-10.21,11.92-15.65,11.25-12.18,11.84-14,15.57,2.68,15.57,2.68S628.81,555.94,628.89,559.28Z"/><path class="cls-37" d="M627.14,551.57c.3,2-2.83,6.49-9.25,5.47-4.4-.7-6-1.36-6.63-7s-1.14-14.21-1.14-16c5.16,4.07,16.19-1.18,16.19-1.18S626.84,549.6,627.14,551.57Z"/><path class="cls-38" d="M607.77,549.39s12.25,8.88,22.15-.34c.33-21.17-1.58-63-2.76-74.91.22-45.26,6-80.76,2.76-104.46s-39.59-8.49-39.59-8.49-1.18,51.3,0,65.64,6.33,45.32,9.89,66.55S607.77,549.39,607.77,549.39Z"/><path class="cls-39" d="M510,261.66a3.11,3.11,0,0,1-4.4-.23l-.07-.08-.54-.63-16.45-19.53a7.31,7.31,0,0,1,2.86-3.64,5.82,5.82,0,0,1,.7-.44l13.7,15.22,4.44,4.92A3.12,3.12,0,0,1,510,261.66Z"/><path class="cls-40" d="M508.51,256.49a25.92,25.92,0,0,1-3.48,4.23c-1.68,1.6-3.6,2.61-4.78.69-2.48-4.05-10.93-6.72-12.69-12.35-1.09-3.47-4.06-3.18-6.06-6.4,3.48-3.4,6.94.76,6.94.76a4.16,4.16,0,0,1,.14-2.23,7.31,7.31,0,0,1,2.86-3.64,5.82,5.82,0,0,1,.7-.44c3.83-2.05,8.67.89,11.05,4.47,1.69,2.53,1.62,7.16,2.65,10.75A6.89,6.89,0,0,0,508.51,256.49Z"/><path class="cls-41" d="M577.41,245.94c18-4.27,35.88,5.09,47.56,13.41,12.08,8.61,5.35,34.4,2.4,61.76-1.88,17.47-.39,36.9,2.55,48.57-32.89,12.1-63-1.34-64.92-9.95,3.1-19.59,7.54-31.59,3.81-52.4S561.33,249.76,577.41,245.94Z"/><path class="cls-42" d="M634.87,381.11c-5,2.16-19.49,4.2-42.07,0,.62-10,1.79-56.32,2.31-80.47v0c0-.58,0-1.14,0-1.69.05-2.42.1-4.57.13-6.4.2-11.17,6.53-22.53,12-30.26a92.41,92.41,0,0,1,7.83-9.74s9.35.6,16.85,15.43.43,43.17-1,61.72S633.72,375.78,634.87,381.11Z"/><path class="cls-43" d="M608.32,274.35a50.75,50.75,0,0,0,1.8,7.94c-3.21,3.16-14.07,13.9-15,18.33,0-.58,0-1.14,0-1.69.05-2.42.1-4.57.13-6.4.2-11.17,6.53-22.53,12-30.26l9,3.08Z"/><path class="cls-44" d="M616.26,265.35l-7.94,4.33v11.89s-12.7,7.41-13,17.47l-.13-.11c.05-2.42.1-4.57.13-6.4.36-19.74,19.79-40,19.79-40Z"/><path class="cls-45" d="M594.39,245.54a32.7,32.7,0,0,0-11.3,21c-.47,3.75-.86,13.5-1.18,25.73C581,325.51,580.72,377,580.72,377s-18.11-2.76-20.09-13A186.43,186.43,0,0,1,565,338.25c3.45-14.33.78-46.94,0-60s-.12-29.87,13.33-33.38C589.8,241.88,594.39,245.54,594.39,245.54Z"/><path class="cls-43" d="M583.39,264.7q-.18.92-.3,1.89c-.47,3.75-.86,13.5-1.18,25.73,0,0,0,0,0,0-4.5-17.92-8.4-27.18-8.4-27.18l6.42-6.33v-8.06a1.66,1.66,0,0,1,.05.16l.07.2c.26.8.93,3,1.69,5.94C582.28,259.18,582.87,261.82,583.39,264.7Z"/><path class="cls-46" d="M594.39,245.54a32.53,32.53,0,0,0-11,19.16q-.18.92-.3,1.89c-.47,3.75-.86,13.5-1.18,25.73h0v-.05c.08-5-7.45-28.17-7.45-28.17l5.47-5.34,1.81-1.76.3-.3-2-5.64-.07-.2a1.66,1.66,0,0,0-.05-.16Z"/><path class="cls-47" d="M635.31,390.6a38.85,38.85,0,0,0-.44,5.29A32.54,32.54,0,0,1,630,411.41c-3.77,6.13-7.76,9.28-9.33,10.07s-5.27,1.13-8.54.52-6.66-4.68-6.94-7.15,7.3-7.06,8.88-12.08-1.83-1.32-2.31.27-1,4.14-2.45,5-3.3.71-3.7-.27.21-6.08,1.95-9,6.51-6.53,10-8.2S625,384,625,384Z"/><path class="cls-48" d="M627.63,261.1c5.92,4.78,14.44,11.66,18.26,27.89s8.29,36.52,5.61,47.43-15.31,56.47-15.31,56.47-7.23-6.18-14.82-6.84c4.17-11.55,10.6-48.07,11.4-52.3s-10.51-28.56-13.34-41.43S627.63,261.1,627.63,261.1Z"/><path class="cls-49" d="M507.59,253.34s-4.76,6.43-9.93,8.32a101.93,101.93,0,0,0,18.57,19.52c8.92,7.38,17.62,13.93,21.41,14.59,9.2,1.62,20.44-7.54,27.42-16.46,2.24-3.52,4.28-27.13,9.39-32.87-9.45,3-26.46,16-35.63,28.95C530.94,266.82,507.59,253.34,507.59,253.34Z"/><path class="cls-39" d="M490.45,245l-57.23-67.91a1.64,1.64,0,0,1,2.48-2.16l59.46,66a3.12,3.12,0,1,1-4.64,4.18Z"/><path class="cls-50" d="M614.05,253.12c-2.79-6.24-.08-19,2.21-24.14s6.07-6.34,5.59-24S602,182,587.27,190.67s-10.57,35.23-9.76,44.71,9.9,7.65,12.82,7.27,2.55,3.19,1.48,5.3-5.22,5.59-3.85,8.8C590.33,262.27,603.82,265.52,614.05,253.12Z"/><path class="cls-51" d="M571.16,195c.26,6.76,1.23,13.15,8,15.17s18.93,4.82,20,8.94a41.13,41.13,0,0,1,1.1,8.32H604s-.88-5.26,1.2-8.32,10-2.73,8.09,5-4.59,8.94-5.29,11.26,5.11,5.36,9.29-1.2,7.41-16.46,8.47-24-4.29-21.12-12.94-26.24-27.41-3-33.4,8.57C576.59,197.94,571.16,195,571.16,195Z"/><polygon class="cls-52" points="561.82 500.69 296.14 347.3 302.83 343.44 568.51 496.83 561.82 500.69"/><path class="cls-53" d="M257.94,467,327,427.11c8.06-4.65,7.05-12.78-2.26-18.16L220.67,348.87c-9.31-5.38-23.39-6-31.45-1.3l-69.06,39.87c-8.07,4.65-7.06,12.79,2.25,18.16l104.07,60.08C235.79,471.06,249.88,471.64,257.94,467Z"/><path class="cls-54" d="M257.94,442.42,327,402.54c3.88-2.24,5.66-5.28,5.42-8.44a29.12,29.12,0,0,1,0-5.42L220.67,324.3c-9.31-5.38-23.39-6-31.45-1.31l-74.49,41a59,59,0,0,0,0,7.38c.3,3.37,2.89,6.86,7.67,9.62l104.07,60.08C235.79,446.49,249.88,447.07,257.94,442.42Z"/><path class="cls-55" d="M257.94,436.14,327,396.27c8.06-4.66,7.05-12.79-2.26-18.16L220.67,318c-9.31-5.37-23.39-6-31.45-1.3l-69.06,39.87c-8.07,4.66-7.06,12.79,2.25,18.16l104.07,60.09C235.79,440.21,249.88,440.8,257.94,436.14Z"/><g class="cls-56"><line class="cls-57" x1="229.66" y1="280.33" x2="56.52" y2="380.29"/><line class="cls-57" x1="239.91" y1="286.25" x2="66.77" y2="386.21"/><line class="cls-57" x1="250.16" y1="292.17" x2="77.02" y2="392.13"/><line class="cls-57" x1="260.41" y1="298.08" x2="87.27" y2="398.05"/><line class="cls-57" x1="270.66" y1="304" x2="97.52" y2="403.96"/><line class="cls-57" x1="280.9" y1="309.92" x2="107.77" y2="409.88"/><line class="cls-57" x1="291.15" y1="315.83" x2="118.01" y2="415.8"/><line class="cls-57" x1="301.4" y1="321.75" x2="128.26" y2="421.71"/><line class="cls-57" x1="311.65" y1="327.67" x2="138.51" y2="427.63"/><line class="cls-57" x1="321.9" y1="333.59" x2="148.76" y2="433.55"/><line class="cls-57" x1="332.15" y1="339.5" x2="159.01" y2="439.46"/><line class="cls-57" x1="342.4" y1="345.42" x2="169.26" y2="445.38"/><line class="cls-57" x1="352.64" y1="351.34" x2="179.51" y2="451.3"/><line class="cls-57" x1="362.89" y1="357.25" x2="189.75" y2="457.22"/><line class="cls-57" x1="373.14" y1="363.17" x2="200" y2="463.13"/><line class="cls-57" x1="383.39" y1="369.09" x2="210.25" y2="469.05"/><line class="cls-57" x1="393.64" y1="375.01" x2="220.5" y2="474.97"/><line class="cls-57" x1="403.89" y1="380.92" x2="230.75" y2="480.88"/><line class="cls-57" x1="403.89" y1="380.92" x2="229.66" y2="280.33"/><line class="cls-57" x1="393.7" y1="386.8" x2="219.48" y2="286.21"/><line class="cls-57" x1="383.52" y1="392.68" x2="209.29" y2="292.09"/><line class="cls-57" x1="373.33" y1="398.56" x2="199.11" y2="297.97"/><line class="cls-57" x1="363.15" y1="404.44" x2="188.92" y2="303.85"/><line class="cls-57" x1="352.96" y1="410.32" x2="178.74" y2="309.73"/><line class="cls-57" x1="342.78" y1="416.2" x2="168.55" y2="315.61"/><line class="cls-57" x1="332.59" y1="422.08" x2="158.37" y2="321.49"/><line class="cls-57" x1="322.41" y1="427.96" x2="148.18" y2="327.37"/><line class="cls-57" x1="312.23" y1="433.84" x2="138" y2="333.25"/><line class="cls-57" x1="302.04" y1="439.72" x2="127.82" y2="339.13"/><line class="cls-57" x1="291.86" y1="445.6" x2="117.63" y2="345.01"/><line class="cls-57" x1="281.67" y1="451.48" x2="107.45" y2="350.89"/><line class="cls-57" x1="271.49" y1="457.36" x2="97.26" y2="356.77"/><line class="cls-57" x1="261.3" y1="463.24" x2="87.08" y2="362.65"/><line class="cls-57" x1="251.12" y1="469.12" x2="76.89" y2="368.53"/><line class="cls-57" x1="240.93" y1="475" x2="66.71" y2="374.41"/><line class="cls-57" x1="230.75" y1="480.88" x2="56.52" y2="380.29"/></g><polygon class="cls-58" points="214.53 256.16 180.26 236.37 214.32 216.71 248.59 236.5 214.53 256.16"/><polygon class="cls-59" points="214.53 353.71 180.26 333.93 180.26 236.37 214.53 256.16 214.53 353.71"/><polygon class="cls-60" points="214.53 353.71 214.53 256.16 248.59 236.5 248.59 334.05 214.53 353.71"/><polygon class="cls-61" points="165.18 313.24 130.91 293.45 164.96 273.79 199.23 293.58 165.18 313.24"/><polygon class="cls-62" points="165.18 390.96 130.91 371.18 130.91 293.45 165.18 313.24 165.18 390.96"/><polygon class="cls-63" points="165.18 390.96 165.18 313.24 199.23 293.58 199.23 371.3 165.18 390.96"/><polygon class="cls-64" points="258.93 328.49 233.01 313.53 258.76 298.66 284.68 313.62 258.93 328.49"/><polygon class="cls-65" points="258.93 378.29 233.01 363.32 233.01 313.53 258.93 328.49 258.93 378.29"/><polygon class="cls-66" points="258.93 378.29 258.93 328.49 284.68 313.62 284.68 363.42 258.93 378.29"/><polygon class="cls-67" points="291.33 361.81 265.41 346.85 291.17 331.98 317.08 346.94 291.33 361.81"/><polygon class="cls-68" points="291.33 399.93 265.41 384.96 265.41 346.85 291.33 361.81 291.33 399.93"/><polygon class="cls-69" points="291.33 399.93 291.33 361.81 317.08 346.94 317.08 385.06 291.33 399.93"/><polygon class="cls-70" points="230.11 393.16 183.37 366.18 217.43 346.52 264.16 373.5 230.11 393.16"/><polygon class="cls-71" points="230.11 427.63 183.37 400.65 183.37 366.18 230.11 393.16 230.11 427.63"/><polygon class="cls-72" points="230.11 427.63 230.11 393.16 264.16 373.5 264.16 407.97 230.11 427.63"/><path class="cls-73" d="M253.1,354.09,243,344.27l-5.64,2.29-5.63-8.79-12-6.94a6.62,6.62,0,0,1-3-5.19l-2.88-21.84a46.67,46.67,0,0,1,4-2.68,2.29,2.29,0,0,1,1.93.31L255,321.8a6.63,6.63,0,0,1,3,5.19v22.49a2.08,2.08,0,0,1-.88,1.94C256.62,351.73,253.1,354.09,253.1,354.09Z"/><path class="cls-74" d="M251.42,353.68l-12-6.93L233.78,349l-5.63-8.79-12-6.93a6.67,6.67,0,0,1-3-5.2V305.63c0-1.91,1.35-2.68,3-1.72l35.28,20.37a6.65,6.65,0,0,1,3,5.2V352C254.43,353.87,253.08,354.64,251.42,353.68Z"/><text class="cls-75" transform="matrix(0.87, 0.5, 0, 1, 221.24, 325.86)">SALE</text><path class="cls-76" d="M232.76,235.09l-10.07-9.82-5.63,2.29-5.63-8.8-12-6.93a6.63,6.63,0,0,1-3-5.19l-2.89-21.84a46.67,46.67,0,0,1,4-2.68,2.28,2.28,0,0,1,1.93.31l35.27,20.37a6.62,6.62,0,0,1,3,5.19v22.49a2.11,2.11,0,0,1-.89,1.94C236.28,232.73,232.76,235.09,232.76,235.09Z"/><path class="cls-77" d="M231.08,234.68l-12-6.93L213.44,230l-5.63-8.79-12-6.94a6.62,6.62,0,0,1-3-5.19V186.63c0-1.91,1.35-2.68,3-1.72l35.27,20.37a6.63,6.63,0,0,1,3,5.19V233C234.09,234.87,232.74,235.64,231.08,234.68Z"/><text class="cls-75" transform="matrix(0.87, 0.5, 0, 1, 200.91, 206.86)">RENT</text><ellipse class="cls-78" cx="163.31" cy="289.55" rx="9.22" ry="15.97" transform="translate(-127.13 451.29) rotate(-89.69)"/><ellipse class="cls-79" cx="163.31" cy="289.55" rx="4.98" ry="8.63" transform="translate(-127.13 451.29) rotate(-89.69)"/><path class="cls-80" d="M173.82,251.26a38.71,38.71,0,0,0-3.49-2.39c-2.27-1.4-5.47-1.25-9,.8-6.9,4-12.5,13.63-12.5,21.55,0,6.14,7.53,13.25,10.9,16.13.41.35,2.54,2.51,3.14,2.17s-.35-3.19.06-4C166.3,278.73,173.82,251.26,173.82,251.26Z"/><path class="cls-81" d="M177,259c0-7.92-5.59-11.11-12.49-7.13S152,265.46,152,273.38c0,6.15,7.53,13.26,10.9,16.14.82.7,2.38-.2,3.2-1.85C169.44,280.9,177,265.1,177,259Z"/><ellipse class="cls-82" cx="164.47" cy="266.17" rx="8.81" ry="5.08" transform="translate(-148.32 273.82) rotate(-59.69)"/><path class="cls-83" d="M304,321.32c0-1.44.16-6.05.16-6.05s-2.43-1.42-4-2.29c-2.35-1.34-5.59-1.13-9.17.94-7.17,4.14-13,14.15-13,22.38,0,4,1.4,6.87,3.66,8.24s4,2.32,4,2.32S304,329.54,304,321.32Z"/><ellipse class="cls-84" cx="294.9" cy="331.02" rx="18.29" ry="10.56" transform="translate(-139.7 418.54) rotate(-59.69)"/><path class="cls-85" d="M305.33,325c0,6.62-4.67,14.68-10.43,18-3.43,2-6.47,1.84-8.37,0-1.3-1.24-2.07-3.27-2.07-5.95,0-6.61,4.68-14.67,10.44-18,2.86-1.65,5.45-1.83,7.33-.77S305.33,321.66,305.33,325Z"/><path class="cls-86" d="M304.29,324.21c0,6.62-4.67,14.67-10.44,18-2.85,1.65-5.44,1.83-7.32.78-1.3-1.24-2.07-3.27-2.07-5.95,0-6.61,4.68-14.67,10.44-18,2.86-1.65,5.45-1.83,7.33-.77A8,8,0,0,1,304.29,324.21Z"/><path class="cls-21" d="M294.68,338.64c-2.14,1-3.69.55-3.69-1.72l2.14-1.24c.07,1,.56,1.43,1.55,1.06v-4.43c-1.76.51-3.69,1.06-3.69-1.78a8,8,0,0,1,3.69-6.15v-1.65l1.14-.66v1.63c2-1,3.39-.49,3.54,1.7l-2.14,1.23a1,1,0,0,0-1.4-1V330c1.75-.53,3.67-1.09,3.67,1.75a8.17,8.17,0,0,1-3.67,6.21v1.65l-1.14.66Zm0-8.32v-4.07a3.72,3.72,0,0,0-1.65,3C293,330.41,293.73,330.52,294.68,330.32Zm1.14,1.68v4.09a4,4,0,0,0,1.65-3C297.47,331.89,296.77,331.79,295.82,332Z"/><path class="cls-87" d="M352.22,392.11a7.62,7.62,0,0,1-1.75,2.58,7.07,7.07,0,0,0-1.44,3.52,4.14,4.14,0,0,1-.65,2.42,3.2,3.2,0,0,1-2.49.66l-3.84-.08a10.06,10.06,0,0,0-4.63.64c-1.49.72-2.67,2.18-4.31,2.32-1.48.11-2.8-.9-3.86-1.93s-2.11-2.22-3.55-2.6a9.39,9.39,0,0,0-4,.33c-1.34.24-2.88.26-3.88-.66a1.82,1.82,0,0,1-.36-.42,2.92,2.92,0,0,1-.51-1.26.07.07,0,0,1,0-.05,5.08,5.08,0,0,1,0-2,7.93,7.93,0,0,1,3.11-4.73,14.48,14.48,0,0,1,5-2c1.55-.39,3.65-.59,4.8-1.83s1-2.11,2.75-2.45a7.64,7.64,0,0,1,5.26,1.15,20.3,20.3,0,0,0,3.53,2.08,11,11,0,0,0,4.4.27,9.19,9.19,0,0,1,4.37.47,3.63,3.63,0,0,1,2.09,2.53A2.25,2.25,0,0,1,352.22,392.11Z"/><path class="cls-88" d="M332.86,402.38A3.94,3.94,0,0,1,330.5,401l-.33-.33a8.94,8.94,0,0,0-4-2.71,5.89,5.89,0,0,0-1.53-.19,13.08,13.08,0,0,0-2.61.34l-.67.14a7,7,0,0,1-1.13.11A1.81,1.81,0,0,1,319,398a2.31,2.31,0,0,1-.29-2,6.14,6.14,0,0,1,2.4-3.65,12.66,12.66,0,0,1,4.37-1.69c.29-.08.59-.14.91-.21,1.53-.33,3.45-.74,4.75-2.14a9.49,9.49,0,0,0,.91-1.19c.4-.6.42-.63.88-.72a4,4,0,0,1,.78-.08,6.46,6.46,0,0,1,3.22,1c.36.21.69.44,1,.67a12.08,12.08,0,0,0,2.83,1.56,9.09,9.09,0,0,0,3.06.45c.64,0,1.26,0,1.87-.08h.18c.44,0,.89-.05,1.33-.05a5.22,5.22,0,0,1,2.18.37c.68.3,1.19,1,1.07,1.48a3.74,3.74,0,0,1-.84,1.21l-.58.69a8.9,8.9,0,0,0-1.8,4.4c0,.17,0,.33-.05.49a4,4,0,0,1-.15.95h0a3.24,3.24,0,0,1-.87.08l-4.06-.08h-1a10.15,10.15,0,0,0-4.49.83,12.48,12.48,0,0,0-1.81,1.14,4.3,4.3,0,0,1-1.87,1Z"/><path class="cls-89" d="M366.27,440.08c0,2.39-.08,4.78-.14,7.18a8.35,8.35,0,0,1-.49,3.11,7.21,7.21,0,0,1-2.18,2.55,51.89,51.89,0,0,1-6.17,4.14,10.92,10.92,0,0,1-4.21,1.8c-1.56.21-3.11-.24-4.67-.22a8.71,8.71,0,0,0-1.61.17,32.94,32.94,0,0,0-4.76,1.53,9.15,9.15,0,0,1-5.58.59c-.65-.2-1.26-.52-1.88-.78a13.75,13.75,0,0,0-3.83-.93A47.43,47.43,0,0,0,326,459a45.76,45.76,0,0,1-7-.5,23.57,23.57,0,0,1-3.43-.86c-3.35-1.15-6.45-3.44-7.81-6.71-1.2-2.88-.94-6.14-.74-9.26a55.91,55.91,0,0,1,2.21-11.7,17.23,17.23,0,0,1,7.67-9.92c2.7-1.57,4.51-2.7,7.28-4.16s5.14-4.63,4-7.54c-.84-2.16-3.2-3.22-5.32-4.16a14.21,14.21,0,0,1-5.38-5.31,2,2,0,0,0,.36.41c1,.93,2.54.9,3.88.66a19,19,0,0,1,2.59-.45,5,5,0,0,1,1.44.12,8.22,8.22,0,0,1,3.4,2.44l.15.15c1.06,1,2.38,2,3.86,1.93,1.65-.13,2.82-1.6,4.32-2.31a5.69,5.69,0,0,1,.86-.34,13.08,13.08,0,0,1,3.76-.31h.43l3.4.08a3.21,3.21,0,0,0,2.5-.66,4.09,4.09,0,0,0,.65-2.43,7.17,7.17,0,0,1,1.44-3.51,7.48,7.48,0,0,0,1.75-2.58,2.25,2.25,0,0,0,0-1h0a16.23,16.23,0,0,1-2.45,11.3c-1,1.5-2.3,3-2.69,4.69a4.12,4.12,0,0,0-.1,1.27,4.49,4.49,0,0,0,.13.83,3,3,0,0,0,.15.42,6.53,6.53,0,0,0,2,2.6,17.8,17.8,0,0,0,2.36,1.64c4.15,2.55,8.42,5.21,11.07,9.28C366,428.05,366.3,434.23,366.27,440.08Z"/><path class="cls-90" d="M338.29,401.51c-.93,3.84-1.27,10-3.26,10.63s-4.43-5.43-5.93-10.06l.15.15c1.06,1,2.38,2,3.86,1.93,1.65-.13,2.82-1.6,4.32-2.31A5.69,5.69,0,0,1,338.29,401.51Z"/><path class="cls-91" d="M330.93,414.09c-.71,5.64-12.47,17.21-11.27,27.11,1,8.46,2.53,14.85-.72,17.32a23.57,23.57,0,0,1-3.43-.86c-3.35-1.15-6.45-3.44-7.81-6.71-1.2-2.88-.94-6.14-.74-9.26a55.91,55.91,0,0,1,2.21-11.7,17.23,17.23,0,0,1,7.67-9.92c2.7-1.57,4.51-2.7,7.28-4.16s5.14-4.63,4-7.54c-.84-2.16-3.2-3.22-5.32-4.16a14.21,14.21,0,0,1-5.38-5.31,2,2,0,0,0,.36.41c1,.93,2.54.9,3.88.66a19,19,0,0,1,2.59-.45,12.91,12.91,0,0,1,1.29,2C327.81,405.85,331.66,408.45,330.93,414.09Z"/><path class="cls-92" d="M347.41,445.09a71.36,71.36,0,0,0-.61,13.72,32.94,32.94,0,0,0-4.76,1.53,9.15,9.15,0,0,1-5.58.59c-.65-.2-1.26-.52-1.88-.78a13.75,13.75,0,0,0-3.83-.93c1.86-2.76,3.12-8.28,2-10.89-1.47-3.32-5.23-11-3.09-17.76s8.23-9.91,13.9-6.12S348.51,439.17,347.41,445.09Z"/><path class="cls-93" d="M348.38,400.63c-.7,1.51-3.83,7.43-4.56,8.87-.66,1.28-1.76-4.72-1.34-8.29l3.4.08A3.21,3.21,0,0,0,348.38,400.63Z"/><g class="cls-94"><polygon class="cls-95" points="347.13 389.24 345.24 389.81 335.49 380.76 337.38 380.18 347.13 389.24"/><polygon class="cls-96" points="347.13 389.24 344.5 400.7 343.8 403.75 341.44 414.06 339.55 414.64 345.24 389.81 347.13 389.24"/><polygon class="cls-97" points="345.24 389.81 339.55 414.64 329.81 405.58 335.49 380.76 345.24 389.81"/><path class="cls-98" d="M337.65,384.83l4.65,4.32a3.35,3.35,0,0,0,.88,2.9l-4.12,18c-.7-.65-1.45-.42-1.66.53l-4.65-4.32a3.36,3.36,0,0,0-.89-2.9l4.12-18C336.69,386,337.43,385.78,337.65,384.83Z"/><ellipse class="cls-99" cx="335.86" cy="404.17" rx="1.23" ry="2.14" transform="translate(-102.44 114.26) rotate(-16.79)"/><ellipse class="cls-100" cx="338.89" cy="390.95" rx="1.23" ry="2.14" transform="matrix(0.96, -0.29, 0.29, 0.96, -98.49, 114.57)"/><ellipse class="cls-101" cx="337.37" cy="397.56" rx="1.71" ry="2.96" transform="translate(-100.46 114.41) rotate(-16.79)"/><polygon class="cls-102" points="332.88 392.11 342.64 401.28 341.94 404.33 332.19 395.16 332.88 392.11"/><polygon class="cls-103" points="344.5 400.7 343.8 403.75 341.94 404.33 342.64 401.28 344.5 400.7"/></g><path class="cls-104" d="M355.26,433.72a23.14,23.14,0,0,1-6.13-5.79c-2.23-3.32-1.17-8.61-.32-12.86.2-1,.4-2,.53-2.85.39-2.54.3-4.43-1.39-5.11a1.19,1.19,0,0,0-.81,0,4.12,4.12,0,0,0-.1,1.27,4.49,4.49,0,0,0,.13.83.67.67,0,0,1,.15.42,25.06,25.06,0,0,1-.69,5c-.92,4.66-2.09,10.44.66,14.54a25.42,25.42,0,0,0,6.67,6.34c2.93,2.13,5.05,3.67,5.12,6.91a1.12,1.12,0,0,0,1.12,1.08h0a1.1,1.1,0,0,0,1.08-1.13C361.2,438,358.32,435.94,355.26,433.72Z"/><path class="cls-105" d="M319.15,448.8a1.11,1.11,0,0,1-1.11-1.05c0-.6-.74-14.75,5.78-18.16,5.64-2.95,8.21-9.22,6.57-12.44a6.42,6.42,0,0,0-2.34-2.59c-1.41-1-2.37-1.92-1.86-4.66a1.11,1.11,0,0,1,2.18.4c-.29,1.57,0,1.75,1,2.45a8.52,8.52,0,0,1,3,3.4c2.37,4.66-1.29,12.15-7.52,15.41-4.37,2.28-4.8,12.38-4.59,16.07a1.12,1.12,0,0,1-1.05,1.17Z"/><path class="cls-106" d="M339,444.13v1.72h-1.81v-1.72c-2.92-.24-4.86-1.72-5.08-4.55h3a2.63,2.63,0,0,0,2.1,2.32v-4.48c-2.83-.91-4.49-2.08-4.49-4.6,0-2.71,2.06-4.15,4.49-4.46v-1.72H339v1.72a4.84,4.84,0,0,1,4.72,4.53h-3a2.4,2.4,0,0,0-1.74-2.3v4.26c3.44,1.09,4.81,2.48,4.81,4.93S341.75,443.87,339,444.13Zm-1.81-9.63v-3.93a1.85,1.85,0,0,0-1.59,1.9C335.59,433.57,336.12,434.1,337.18,434.5ZM339,442A1.84,1.84,0,0,0,340.8,440c0-.95-.42-1.68-1.81-2.19Z"/><polygon class="cls-107" points="306.08 508.44 306.08 507.56 323.8 497.33 323.8 498.2 306.08 508.44"/><polygon class="cls-108" points="306.08 508.44 272.16 488.85 272.16 487.98 306.08 507.56 306.08 508.44"/><ellipse class="cls-109" cx="289.22" cy="493.43" rx="1.9" ry="3.29" transform="translate(-205.77 779.96) rotate(-89.69)"/><ellipse class="cls-109" cx="307.29" cy="503.86" rx="1.9" ry="3.29" transform="translate(-198.23 808.41) rotate(-89.69)"/><ellipse class="cls-110" cx="298.25" cy="498.64" rx="2.63" ry="4.55" transform="translate(-202 794.19) rotate(-89.69)"/><polygon class="cls-111" points="306.08 507.56 272.16 487.98 289.88 477.75 323.8 497.33 306.08 507.56"/><path class="cls-98" d="M316.83,498.66l-8.45,4.88a5.12,5.12,0,0,0-4.65,0l-24.59-14.2c1.28-.74,1.28-1.94,0-2.68l8.45-4.88a5.15,5.15,0,0,0,4.65,0L316.82,496C315.54,496.71,315.54,497.91,316.83,498.66Z"/><ellipse class="cls-112" cx="289.22" cy="487.28" rx="1.9" ry="3.29" transform="translate(-199.62 773.85) rotate(-89.69)"/><ellipse class="cls-113" cx="307.29" cy="497.71" rx="1.9" ry="3.29" transform="matrix(0.01, -1, 1, 0.01, -192.08, 802.29)"/><ellipse class="cls-114" cx="298.25" cy="492.5" rx="2.63" ry="4.55" transform="translate(-195.85 788.07) rotate(-89.69)"/><polygon class="cls-115" points="293.2 475.72 293.2 469.57 275.48 459.34 275.48 465.49 293.2 475.72"/><polygon class="cls-116" points="293.2 475.72 327.11 456.14 327.11 449.99 293.2 469.57 293.2 475.72"/><ellipse class="cls-117" cx="310.06" cy="455.44" rx="3.29" ry="1.9" transform="translate(-2.46 1.69) rotate(-0.31)"/><ellipse class="cls-118" cx="291.99" cy="465.88" rx="3.29" ry="1.9" transform="translate(-2.52 1.59) rotate(-0.31)"/><ellipse class="cls-110" cx="301.02" cy="460.66" rx="4.55" ry="2.63" transform="translate(-2.49 1.64) rotate(-0.31)"/><polygon class="cls-119" points="293.2 469.57 327.11 449.99 309.39 439.76 275.48 459.34 293.2 469.57"/><path class="cls-98" d="M282.44,460.67l8.46,4.88a5.13,5.13,0,0,1,4.64,0l24.59-14.19c-1.28-.74-1.27-1.94,0-2.69l-8.45-4.88a5.12,5.12,0,0,1-4.65,0L282.46,458C283.74,458.73,283.73,459.93,282.44,460.67Z"/><ellipse class="cls-120" cx="310.06" cy="449.29" rx="3.29" ry="1.9" transform="translate(-2.43 1.69) rotate(-0.31)"/><ellipse class="cls-121" cx="291.99" cy="459.73" rx="3.29" ry="1.9" transform="translate(-2.49 1.59) rotate(-0.31)"/><ellipse class="cls-122" cx="301.02" cy="454.51" rx="4.55" ry="2.63" transform="translate(-2.46 1.64) rotate(-0.31)"/><polygon class="cls-123" points="290.99 450.38 308.87 460.56 313.03 458.16 295.15 447.97 290.99 450.38"/><polygon class="cls-124" points="308.87 460.56 308.87 466.67 313.03 464.27 313.03 458.16 308.87 460.56"/><polygon class="cls-125" points="313.6 488.27 313.6 482.13 295.88 471.89 295.88 478.04 313.6 488.27"/><polygon class="cls-126" points="313.6 488.27 347.52 468.69 347.52 462.54 313.6 482.13 313.6 488.27"/><ellipse class="cls-127" cx="330.47" cy="467.99" rx="3.29" ry="1.9" transform="translate(-2.53 1.8) rotate(-0.31)"/><ellipse class="cls-128" cx="312.4" cy="478.43" rx="3.29" ry="1.9" transform="translate(-2.59 1.7) rotate(-0.31)"/><ellipse class="cls-110" cx="321.43" cy="473.21" rx="4.55" ry="2.63" transform="translate(-2.56 1.75) rotate(-0.31)"/><polygon class="cls-129" points="313.6 482.13 347.52 462.54 329.8 452.31 295.88 471.89 313.6 482.13"/><path class="cls-98" d="M302.85,473.22l8.45,4.88a5.18,5.18,0,0,1,4.65,0l24.59-14.19c-1.28-.74-1.27-1.94,0-2.69l-8.45-4.88a5.12,5.12,0,0,1-4.65,0l-24.58,14.2C304.15,471.28,304.14,472.48,302.85,473.22Z"/><ellipse class="cls-130" cx="330.47" cy="461.85" rx="3.29" ry="1.9" transform="translate(-2.5 1.8) rotate(-0.31)"/><ellipse class="cls-131" cx="312.4" cy="472.28" rx="3.29" ry="1.9" transform="matrix(1, -0.01, 0.01, 1, -2.56, 1.7)"/><ellipse class="cls-132" cx="321.43" cy="467.06" rx="4.55" ry="2.63" transform="translate(-2.53 1.75) rotate(-0.31)"/><polygon class="cls-133" points="311.39 462.93 329.28 473.12 333.44 470.71 315.56 460.52 311.39 462.93"/><polygon class="cls-134" points="329.28 473.12 329.28 479.23 333.44 476.82 333.44 470.71 329.28 473.12"/><polygon class="cls-135" points="334.45 501.04 334.45 494.89 316.73 484.66 316.73 490.81 334.45 501.04"/><polygon class="cls-136" points="334.45 501.04 368.37 481.46 368.37 475.31 334.45 494.89 334.45 501.04"/><ellipse class="cls-137" cx="351.31" cy="480.76" rx="3.29" ry="1.9" transform="translate(-2.6 1.91) rotate(-0.31)"/><ellipse class="cls-138" cx="333.25" cy="491.19" rx="3.29" ry="1.9" transform="translate(-2.66 1.81) rotate(-0.31)"/><ellipse class="cls-110" cx="342.28" cy="485.98" rx="4.55" ry="2.63" transform="translate(-2.63 1.86) rotate(-0.31)"/><polygon class="cls-139" points="334.45 494.89 368.37 475.31 350.65 465.08 316.73 484.66 334.45 494.89"/><path class="cls-98" d="M323.7,486l8.45,4.88a5.12,5.12,0,0,1,4.65,0l24.59-14.2c-1.28-.74-1.28-1.94,0-2.68L353,469.1a5.15,5.15,0,0,1-4.65,0L323.71,483.3C325,484,325,485.24,323.7,486Z"/><ellipse class="cls-140" cx="351.31" cy="474.61" rx="3.29" ry="1.9" transform="translate(-2.57 1.91) rotate(-0.31)"/><ellipse class="cls-141" cx="333.25" cy="485.04" rx="3.29" ry="1.9" transform="translate(-2.63 1.81) rotate(-0.31)"/><ellipse class="cls-142" cx="342.28" cy="479.83" rx="4.55" ry="2.63" transform="translate(-2.6 1.86) rotate(-0.31)"/><polygon class="cls-143" points="332.24 475.69 350.13 485.88 354.29 483.48 336.4 473.29 332.24 475.69"/><polygon class="cls-144" points="350.13 485.88 350.13 491.99 354.29 489.59 354.29 483.48 350.13 485.88"/><polygon class="cls-145" points="306.04 474.4 306.04 468.25 288.32 458.02 288.32 464.16 306.04 474.4"/><polygon class="cls-146" points="306.04 474.4 339.96 454.81 339.96 448.67 306.04 468.25 306.04 474.4"/><ellipse class="cls-147" cx="322.91" cy="454.12" rx="3.29" ry="1.9" transform="translate(-2.46 1.76) rotate(-0.31)"/><ellipse class="cls-148" cx="304.84" cy="464.55" rx="3.29" ry="1.9" transform="translate(-2.51 1.66) rotate(-0.31)"/><ellipse class="cls-110" cx="313.87" cy="459.33" rx="4.55" ry="2.63" transform="translate(-2.49 1.71) rotate(-0.31)"/><polygon class="cls-149" points="306.04 468.25 339.96 448.67 322.24 438.43 288.32 458.02 306.04 468.25"/><path class="cls-98" d="M295.29,459.35l8.45,4.87a5.15,5.15,0,0,1,4.65,0L333,450c-1.28-.74-1.27-1.94,0-2.68l-8.46-4.88a5.18,5.18,0,0,1-4.65,0l-24.58,14.19C296.59,457.4,296.58,458.6,295.29,459.35Z"/><ellipse class="cls-150" cx="322.91" cy="447.97" rx="3.29" ry="1.9" transform="translate(-2.42 1.76) rotate(-0.31)"/><ellipse class="cls-151" cx="304.84" cy="458.4" rx="3.29" ry="1.9" transform="translate(-2.48 1.66) rotate(-0.31)"/><ellipse class="cls-152" cx="313.87" cy="453.18" rx="4.55" ry="2.63" transform="matrix(1, -0.01, 0.01, 1, -2.45, 1.71)"/><polygon class="cls-153" points="303.83 449.05 321.72 459.24 325.88 456.83 308 446.65 303.83 449.05"/><polygon class="cls-154" points="321.72 459.24 321.72 465.35 325.88 462.94 325.88 456.83 321.72 459.24"/><polygon class="cls-155" points="326.36 488.69 326.36 482.55 308.63 472.31 308.63 478.46 326.36 488.69"/><polygon class="cls-156" points="326.36 488.69 360.27 469.11 360.27 462.96 326.36 482.55 326.36 488.69"/><ellipse class="cls-157" cx="343.22" cy="468.41" rx="3.29" ry="1.9" transform="translate(-2.53 1.87) rotate(-0.31)"/><ellipse class="cls-158" cx="325.15" cy="478.85" rx="3.29" ry="1.9" transform="translate(-2.59 1.77) rotate(-0.31)"/><ellipse class="cls-110" cx="334.18" cy="473.63" rx="4.55" ry="2.63" transform="translate(-2.56 1.82) rotate(-0.31)"/><polygon class="cls-159" points="326.36 482.55 360.27 462.96 342.55 452.73 308.63 472.31 326.36 482.55"/><path class="cls-98" d="M315.6,473.64l8.45,4.88a5.18,5.18,0,0,1,4.65,0l24.59-14.19c-1.28-.74-1.27-1.94,0-2.69l-8.46-4.88a5.12,5.12,0,0,1-4.65,0L315.62,471C316.9,471.7,316.89,472.9,315.6,473.64Z"/><ellipse class="cls-160" cx="343.22" cy="462.27" rx="3.29" ry="1.9" transform="matrix(1, -0.01, 0.01, 1, -2.5, 1.87)"/><ellipse class="cls-161" cx="325.15" cy="472.7" rx="3.29" ry="1.9" transform="translate(-2.56 1.77) rotate(-0.31)"/><ellipse class="cls-162" cx="334.18" cy="467.48" rx="4.55" ry="2.63" transform="translate(-2.53 1.82) rotate(-0.31)"/><polygon class="cls-163" points="324.14 463.35 342.03 473.54 346.19 471.13 328.31 460.94 324.14 463.35"/><polygon class="cls-164" points="342.03 473.54 342.03 479.64 346.19 477.24 346.19 471.13 342.03 473.54"/><polygon class="cls-165" points="317 474.08 317 467.93 299.28 457.7 299.28 463.85 317 474.08"/><polygon class="cls-166" points="317 474.08 350.92 454.5 350.92 448.35 317 467.93 317 474.08"/><ellipse class="cls-167" cx="333.86" cy="453.8" rx="3.29" ry="1.9" transform="translate(-2.46 1.82) rotate(-0.31)"/><ellipse class="cls-168" cx="315.79" cy="464.23" rx="3.29" ry="1.9" transform="translate(-2.51 1.72) rotate(-0.31)"/><ellipse class="cls-110" cx="324.83" cy="459.02" rx="4.55" ry="2.63" transform="translate(-2.48 1.77) rotate(-0.31)"/><polygon class="cls-169" points="317 467.93 350.92 448.35 333.2 438.12 299.28 457.7 317 467.93"/><path class="cls-98" d="M306.25,459l8.45,4.88a5.15,5.15,0,0,1,4.65,0l24.59-14.19c-1.28-.74-1.28-1.95,0-2.69l-8.45-4.88a5.12,5.12,0,0,1-4.65,0l-24.59,14.2C307.54,457.08,307.54,458.29,306.25,459Z"/><ellipse class="cls-170" cx="333.86" cy="447.65" rx="3.29" ry="1.9" transform="translate(-2.42 1.82) rotate(-0.31)"/><ellipse class="cls-171" cx="315.79" cy="458.08" rx="3.29" ry="1.9" transform="translate(-2.48 1.72) rotate(-0.31)"/><ellipse class="cls-172" cx="324.83" cy="452.87" rx="4.55" ry="2.63" transform="translate(-2.45 1.77) rotate(-0.31)"/><polygon class="cls-173" points="314.79 448.74 332.67 458.92 336.84 456.52 318.95 446.33 314.79 448.74"/><polygon class="cls-174" points="332.67 458.92 332.67 465.03 336.84 462.63 336.84 456.52 332.67 458.92"/></g></g></g></svg>