<svg width="403" height="419" viewBox="0 0 403 419" fill="none" xmlns="http://www.w3.org/2000/svg">
<path d="M124.785 176H126.705L121.685 162.14H119.585L114.545 176H116.465L117.585 172.9H123.665L124.785 176ZM123.145 171.42H118.105L120.625 164.38L123.145 171.42ZM128.221 170.48C128.221 173.88 130.481 176.18 133.421 176.18C135.421 176.18 136.841 175.16 137.501 173.94V176H139.341V161.2H137.501V167C136.741 165.74 135.161 164.86 133.441 164.86C130.481 164.86 128.221 167.06 128.221 170.48ZM137.501 170.5C137.501 173.08 135.781 174.58 133.781 174.58C131.781 174.58 130.081 173.06 130.081 170.48C130.081 167.9 131.781 166.44 133.781 166.44C135.781 166.44 137.501 167.96 137.501 170.5ZM141.737 170.48C141.737 173.88 143.997 176.18 146.937 176.18C148.937 176.18 150.357 175.16 151.017 173.94V176H152.857V161.2H151.017V167C150.257 165.74 148.677 164.86 146.957 164.86C143.997 164.86 141.737 167.06 141.737 170.48ZM151.017 170.5C151.017 173.08 149.297 174.58 147.297 174.58C145.297 174.58 143.597 173.06 143.597 170.48C143.597 167.9 145.297 166.44 147.297 166.44C149.297 166.44 151.017 167.96 151.017 170.5ZM161.265 176H163.085V165.04H161.265V176ZM162.205 163.26C162.865 163.26 163.405 162.72 163.405 162.02C163.405 161.32 162.865 160.78 162.205 160.78C161.505 160.78 160.965 161.32 160.965 162.02C160.965 162.72 161.505 163.26 162.205 163.26ZM182.006 176H183.806V169.54C183.806 166.4 181.866 164.84 179.366 164.84C177.686 164.84 176.126 165.7 175.486 167.28C174.766 165.64 173.266 164.84 171.466 164.84C170.026 164.84 168.726 165.46 168.006 166.62V165.04H166.186V176H168.006V169.96C168.006 167.6 169.266 166.42 171.106 166.42C172.906 166.42 174.106 167.56 174.106 169.8V176H175.906V169.96C175.906 167.6 177.166 166.42 179.006 166.42C180.806 166.42 182.006 167.56 182.006 169.8V176ZM186.112 170.48C186.112 173.88 188.372 176.18 191.292 176.18C193.312 176.18 194.732 175.14 195.392 173.96V176H197.232V165.04H195.392V167.04C194.752 165.9 193.352 164.86 191.312 164.86C188.372 164.86 186.112 167.06 186.112 170.48ZM195.392 170.5C195.392 173.08 193.672 174.58 191.672 174.58C189.672 174.58 187.972 173.06 187.972 170.48C187.972 167.9 189.672 166.44 191.672 166.44C193.672 166.44 195.392 167.96 195.392 170.5ZM199.628 170.48C199.628 173.88 201.888 176.18 204.828 176.18C206.828 176.18 208.248 175.12 208.908 173.94V176.24C208.908 178.58 207.448 179.82 205.508 179.82C203.708 179.82 202.408 178.92 202.008 177.6H200.208C200.568 179.94 202.628 181.4 205.508 181.4C208.728 181.4 210.748 179.26 210.748 176.24V165.04H208.908V167.04C208.268 165.86 206.828 164.86 204.828 164.86C201.888 164.86 199.628 167.06 199.628 170.48ZM208.908 170.5C208.908 173.08 207.188 174.58 205.188 174.58C203.188 174.58 201.488 173.06 201.488 170.48C201.488 167.9 203.188 166.44 205.188 166.44C207.188 166.44 208.908 167.96 208.908 170.5ZM218.483 166.4C220.363 166.4 221.963 167.58 221.943 169.72H215.023C215.223 167.58 216.703 166.4 218.483 166.4ZM223.603 172.62H221.643C221.243 173.8 220.203 174.64 218.563 174.64C216.703 174.64 215.143 173.42 215.003 171.2H223.763C223.803 170.82 223.823 170.5 223.823 170.1C223.823 167.1 221.743 164.86 218.563 164.86C215.363 164.86 213.143 167.04 213.143 170.5C213.143 173.98 215.443 176.18 218.563 176.18C221.283 176.18 223.043 174.62 223.603 172.62ZM234.106 173.02C234.026 169.1 227.666 170.52 227.666 167.92C227.666 167.04 228.466 166.4 229.806 166.4C231.266 166.4 232.106 167.2 232.186 168.3H234.006C233.886 166.16 232.286 164.86 229.866 164.86C227.426 164.86 225.846 166.24 225.846 167.92C225.846 172 232.326 170.58 232.326 173.02C232.326 173.92 231.526 174.64 230.086 174.64C228.546 174.64 227.606 173.84 227.506 172.78H225.626C225.746 174.78 227.546 176.18 230.106 176.18C232.526 176.18 234.106 174.82 234.106 173.02ZM252.407 170.5C252.407 167.04 249.987 164.86 246.867 164.86C243.767 164.86 241.327 167.04 241.327 170.5C241.327 173.98 243.687 176.18 246.787 176.18C249.907 176.18 252.407 173.98 252.407 170.5ZM243.187 170.5C243.187 167.74 244.927 166.44 246.847 166.44C248.727 166.44 250.547 167.74 250.547 170.5C250.547 173.28 248.687 174.58 246.787 174.58C244.887 174.58 243.187 173.28 243.187 170.5ZM255.14 176H256.96V166.54H259.26V165.04H256.96V164.26C256.96 162.84 257.5 162.24 259.14 162.24V160.72C256.34 160.72 255.14 161.82 255.14 164.26V165.04H253.72V166.54H255.14V176ZM266.714 176H268.534V165.04H266.714V176ZM267.654 163.26C268.314 163.26 268.854 162.72 268.854 162.02C268.854 161.32 268.314 160.78 267.654 160.78C266.954 160.78 266.414 161.32 266.414 162.02C266.414 162.72 266.954 163.26 267.654 163.26ZM272.036 173C272.036 175.2 273.136 176 275.076 176H276.716V174.46H275.376C274.256 174.46 273.856 174.08 273.856 173V166.54H276.716V165.04H273.856V162.28H272.036V165.04H270.616V166.54H272.036V173ZM283.581 166.4C285.461 166.4 287.061 167.58 287.041 169.72H280.121C280.321 167.58 281.801 166.4 283.581 166.4ZM288.701 172.62H286.741C286.341 173.8 285.301 174.64 283.661 174.64C281.801 174.64 280.241 173.42 280.101 171.2H288.861C288.901 170.82 288.921 170.5 288.921 170.1C288.921 167.1 286.841 164.86 283.661 164.86C280.461 164.86 278.241 167.04 278.241 170.5C278.241 173.98 280.541 176.18 283.661 176.18C286.381 176.18 288.141 174.62 288.701 172.62ZM307.143 176H308.943V169.54C308.943 166.4 307.003 164.84 304.503 164.84C302.823 164.84 301.263 165.7 300.623 167.28C299.903 165.64 298.403 164.84 296.603 164.84C295.163 164.84 293.863 165.46 293.143 166.62V165.04H291.323V176H293.143V169.96C293.143 167.6 294.403 166.42 296.243 166.42C298.043 166.42 299.243 167.56 299.243 169.8V176H301.043V169.96C301.043 167.6 302.303 166.42 304.143 166.42C305.943 166.42 307.143 167.56 307.143 169.8V176ZM316.029 161.32H314.509L314.829 164.36L312.349 162.58L311.609 163.92L314.389 165.04L311.609 166.2L312.389 167.56L314.809 165.78L314.509 168.8H316.009L315.689 165.78L318.109 167.54L318.869 166.2L316.069 165.06L318.849 163.9L318.129 162.6L315.689 164.36L316.029 161.32Z" fill="#808080"/>
<rect x="0.75" y="0.75" width="401.5" height="417.5" stroke="#C4C4C4" stroke-width="1.5" stroke-dasharray="15 15"/>
<path d="M217 208C225.285 208 232 214.716 232 223C232 231.285 225.285 238 217 238C208.716 238 202 231.285 202 223C202 214.716 208.716 208 217 208ZM217 215.5C216.728 215.5 216.465 215.598 216.261 215.777C216.056 215.956 215.922 216.203 215.886 216.472L215.875 216.625V221.875H210.625C210.34 221.875 210.066 221.983 209.857 222.178C209.649 222.373 209.522 222.639 209.503 222.923C209.484 223.208 209.573 223.489 209.753 223.71C209.933 223.931 210.19 224.076 210.472 224.115L210.625 224.125H215.875V229.375C215.875 229.66 215.983 229.934 216.178 230.143C216.373 230.351 216.639 230.478 216.923 230.497C217.208 230.516 217.489 230.427 217.71 230.247C217.931 230.067 218.076 229.81 218.115 229.528L218.125 229.375V224.125H223.375C223.66 224.125 223.934 224.017 224.143 223.822C224.351 223.627 224.478 223.361 224.497 223.077C224.516 222.792 224.427 222.511 224.247 222.29C224.067 222.069 223.81 221.924 223.528 221.885L223.375 221.875H218.125V216.625C218.125 216.327 218.006 216.04 217.795 215.83C217.585 215.619 217.298 215.5 217 215.5Z" fill="#808080"/>
</svg>
