<svg width="22" height="22" viewBox="0 0 22 22" fill="none" xmlns="http://www.w3.org/2000/svg">
<path d="M15.9508 10.9998C17.2636 10.9998 18.5227 11.5213 19.451 12.4496C20.3793 13.3779 20.9008 14.637 20.9008 15.9498C20.9008 17.2626 20.3793 18.5217 19.451 19.45C18.5227 20.3783 17.2636 20.8998 15.9508 20.8998C14.638 20.8998 13.3789 20.3783 12.4506 19.45C11.5223 18.5217 11.0008 17.2626 11.0008 15.9498C11.0008 14.637 11.5223 13.3779 12.4506 12.4496C13.3789 11.5213 14.638 10.9998 15.9508 10.9998ZM15.6758 3.2998C16.4461 3.29977 17.1874 3.59361 17.7485 4.12139C18.3096 4.64917 18.6482 5.37113 18.6953 6.14L18.7008 6.3248V10.5598C18.2866 10.3478 17.8491 10.1846 17.3973 10.0736L17.0508 9.9999V6.3248C17.0509 5.9844 16.9248 5.65604 16.6968 5.40326C16.4688 5.15048 16.1552 4.99126 15.8166 4.9564L15.6758 4.9498H6.32578C5.98538 4.94965 5.65702 5.07577 5.40424 5.30375C5.15146 5.53174 4.99224 5.84539 4.95738 6.184L4.95078 6.3248V15.6748C4.95078 16.3865 5.49198 16.9728 6.18498 17.0432L6.32578 17.0498H9.99978C10.0867 17.5162 10.2253 17.965 10.4123 18.3874L10.5608 18.6998H6.32578C5.55547 18.6998 4.81415 18.406 4.25305 17.8782C3.69195 17.3504 3.35334 16.6285 3.30628 15.8596L3.30078 15.6748V6.3248C3.30074 5.55449 3.59458 4.81318 4.12236 4.25208C4.65014 3.69098 5.3721 3.35236 6.14098 3.3053L6.32578 3.2998H15.6758ZM15.9508 13.1998C15.8221 13.1998 15.6974 13.2449 15.5985 13.3273C15.4996 13.4097 15.4328 13.5242 15.4096 13.6508L15.4008 13.7498V15.3998H13.7508C13.6133 15.3996 13.4808 15.4508 13.3792 15.5434C13.2777 15.636 13.2144 15.7632 13.202 15.9001C13.1896 16.037 13.2289 16.1736 13.3121 16.2829C13.3954 16.3923 13.5165 16.4665 13.6518 16.491L13.7508 16.4998H15.4008V18.1498C15.4005 18.2872 15.4517 18.4198 15.5443 18.5214C15.6369 18.6229 15.7642 18.6861 15.9011 18.6986C16.038 18.711 16.1745 18.6717 16.2839 18.5885C16.3933 18.5052 16.4675 18.384 16.492 18.2488L16.5008 18.1498V16.4998H18.1508C18.2882 16.5001 18.4208 16.4488 18.5223 16.3562C18.6239 16.2636 18.6871 16.1364 18.6995 15.9995C18.712 15.8626 18.6727 15.7261 18.5894 15.6167C18.5062 15.5073 18.385 15.4331 18.2498 15.4086L18.1508 15.3998H16.5008V13.7498C16.5008 13.6039 16.4428 13.464 16.3397 13.3609C16.2365 13.2577 16.0966 13.1998 15.9508 13.1998Z" fill="#0FC662"/>
</svg>
