<svg width="30" height="30" viewBox="0 0 30 30" fill="none" xmlns="http://www.w3.org/2000/svg">
<path fill-rule="evenodd" clip-rule="evenodd" d="M24.375 16.6875C24.5625 17.8125 24.75 18.75 25.125 19.875L26.25 23.0625L25.3125 24.375H18.75C18.75 25.3125 18.375 26.25 17.625 27C16.875 27.75 15.9375 28.125 15 28.125C14.0625 28.125 12.9375 27.75 12.375 27C11.625 26.25 11.25 25.3125 11.25 24.375H4.6875L3.75 23.0625L4.875 19.875C5.25 18.375 5.625 16.875 5.625 15.375V11.25C5.625 9.9375 5.8125 8.625 6.375 7.5C6.9375 6.1875 7.6875 5.25 8.625 4.3125C9.5625 3.375 10.6875 2.8125 12 2.4375C12.9375 2.0625 14.0625 1.875 15 1.875C14.625 2.4375 14.25 3.1875 13.875 3.9375C13.5 3.9375 13.125 3.9375 12.5625 4.3125C11.625 4.5 10.6875 5.0625 9.9375 5.8125C9.1875 6.375 8.4375 7.3125 8.0625 8.25C7.6875 9.1875 7.5 10.125 7.5 11.25V15.375C7.5 17.0625 7.125 18.75 6.75 20.4375L6 22.5H24L23.25 20.4375C22.9219 19.4513 22.7362 18.3188 22.5694 17.2987L22.5 16.875C23.25 16.875 23.8125 16.875 24.375 16.6875ZM15 26.25C15.375 26.25 15.9375 26.0625 16.3125 25.6875C16.6875 25.3125 16.875 24.9375 16.875 24.375H13.125C13.125 24.9375 13.3125 25.3125 13.6875 25.6875C14.0625 26.0625 14.625 26.25 15 26.25ZM28.125 7.5C28.125 8.99184 27.5324 10.4226 26.4775 11.4775C25.4226 12.5324 23.9918 13.125 22.5 13.125C21.0082 13.125 19.5774 12.5324 18.5225 11.4775C17.4676 10.4226 16.875 8.99184 16.875 7.5C16.875 6.00816 17.4676 4.57742 18.5225 3.52252C19.5774 2.46763 21.0082 1.875 22.5 1.875C23.9918 1.875 25.4226 2.46763 26.4775 3.52252C27.5324 4.57742 28.125 6.00816 28.125 7.5Z" fill="#0C572C"/>
</svg>
