<svg width="29" height="31" viewBox="0 0 29 31" fill="none" xmlns="http://www.w3.org/2000/svg">
<g clip-path="url(#clip0)">
<path fill-rule="evenodd" clip-rule="evenodd" d="M12.5273 27.1455C12.5273 27.1455 10.7552 27.1455 10.7552 25.2184C10.7552 23.2913 12.5273 17.5101 19.6154 17.5101C26.7035 17.5101 28.4755 23.2913 28.4755 25.2184C28.4755 27.1455 26.7035 27.1455 26.7035 27.1455H12.5273ZM19.6154 15.583C21.0253 15.583 22.3775 14.9739 23.3744 13.8897C24.3714 12.8055 24.9315 11.335 24.9315 9.80176C24.9315 8.26847 24.3714 6.79799 23.3744 5.7138C22.3775 4.6296 21.0253 4.02051 19.6154 4.02051C18.2055 4.02051 16.8533 4.6296 15.8563 5.7138C14.8594 6.79799 14.2993 8.26847 14.2993 9.80176C14.2993 11.335 14.8594 12.8055 15.8563 13.8897C16.8533 14.9739 18.2055 15.583 19.6154 15.583ZM9.36596 27.1455C9.10326 26.5439 8.97225 25.8843 8.9832 25.2184C8.9832 22.6072 10.1882 19.9189 12.4139 18.0497C11.3029 17.6774 10.1456 17.4954 8.9832 17.5101C1.89508 17.5101 0.123047 23.2913 0.123047 25.2184C0.123047 27.1455 1.89508 27.1455 1.89508 27.1455H9.36596ZM8.09718 15.583C9.27211 15.583 10.3989 15.0754 11.2297 14.1719C12.0605 13.2684 12.5273 12.043 12.5273 10.7653C12.5273 9.48756 12.0605 8.26216 11.2297 7.35866C10.3989 6.45517 9.27211 5.94759 8.09718 5.94759C6.92226 5.94759 5.79545 6.45517 4.96465 7.35866C4.13385 8.26216 3.66711 9.48756 3.66711 10.7653C3.66711 12.043 4.13385 13.2684 4.96465 14.1719C5.79545 15.0754 6.92226 15.583 8.09718 15.583Z" fill="#0FC662"/>
</g>
<defs>
<clipPath id="clip0">
<rect width="28.3525" height="30.8333" fill="white" transform="translate(0.123047 0.166687)"/>
</clipPath>
</defs>
</svg>
