<svg width="1441" height="393" viewBox="0 0 1441 393" fill="none" xmlns="http://www.w3.org/2000/svg">
<path d="M1286.43 253.389C1307.66 255.253 1327.51 256.998 1343.59 258.395L1347.86 286.079L1446.77 253.389H1286.43C1220.28 247.583 1140.62 240.618 1119.2 239.378C1072.19 236.658 1017.84 229.403 939.277 210.39C860.71 191.376 827.816 173.082 765.547 148.737C703.279 124.392 630.519 104.473 545.834 78.8628C461.149 53.2531 382.458 45.9815 286.326 45.9816C218.267 45.9816 154.622 47.9994 70.886 66.177C-15.0447 84.8311 -29 78.8628 -29 78.8628V253.389H1286.43Z" fill="#ADE6C9"/>
<path d="M-29 393.376V50.379L42.2378 79.4019C42.2378 79.4019 319.921 184.871 638.525 73.2456C957.129 -38.3801 1309.97 1.06835 1446.77 47.5791V393.376H-29Z" fill="#0C572C" stroke="#0C572C"/>
<path d="M669.307 255.698C915.561 62.571 1290.22 36.9214 1446.77 48.2374V393.376H525.072L669.307 255.698Z" fill="#066F3A"/>
</svg>
