<svg width="477" height="378" viewBox="0 0 477 378" fill="none" xmlns="http://www.w3.org/2000/svg">
<g clip-path="url(#clip0)">
<path d="M150.799 71.9208L134.28 72.6516C134.28 72.6516 118.265 69.5142 115.594 71.1144C113.225 72.5256 102.843 75.8016 103.612 77.4144C104.38 79.0272 113.515 76.482 113.515 76.482C113.515 76.482 109.823 78.183 111.386 79.3548C112.948 80.5266 118.568 76.671 120.319 77.2506C122.071 77.8302 154.667 79.6194 154.667 79.6194" fill="#FAA590"/>
<path d="M133.335 77.364C128.973 78.1243 124.489 77.7423 120.319 76.2552C119.551 75.9906 119.223 77.2002 119.979 77.5152C124.368 79.062 129.082 79.4441 133.663 78.624C134.469 78.4476 134.129 77.2254 133.335 77.364Z" fill="#FAA590"/>
<path d="M214.492 44.3394C214.492 44.3394 227.596 49.518 227.81 58.968C228.024 68.418 229.775 69.9552 237.222 72.1476C244.669 74.34 251.964 75.9276 252.342 81.3708C252.72 86.814 239.855 91.9044 232.736 94.5C225.617 97.0956 203.328 74.4408 204.739 65.6334" fill="#E8601C"/>
<path d="M-9.48607 243.293L222.241 377.08C225.719 379.082 229.666 380.125 233.679 380.103C237.693 380.081 241.628 378.995 245.084 376.954L429.322 267.826C430.196 267.307 430.921 266.57 431.425 265.686C431.928 264.802 432.193 263.803 432.193 262.786C432.193 261.769 431.928 260.769 431.425 259.885C430.921 259.002 430.196 258.264 429.322 257.746C388.371 234.133 215.789 134.694 187.717 118.768C186.556 118.097 185.239 117.745 183.899 117.745C182.558 117.745 181.242 118.097 180.081 118.768L-9.52387 230.089C-10.6779 230.763 -11.6346 231.729 -12.2982 232.89C-12.9617 234.051 -13.309 235.365 -13.3051 236.702C-13.3013 238.039 -12.9466 239.351 -12.2764 240.508C-11.6061 241.665 -10.644 242.625 -9.48607 243.293Z" fill="#DAF2E9"/>
<path opacity="0.48" d="M165.503 344.32L94.6655 305.122L162.605 265.86L237.6 299.515L185.612 330.12C177.649 335.021 173.34 339.268 165.503 344.32Z" fill="url(#paint0_linear)"/>
<path opacity="0.48" d="M383.092 273.08L308.122 239.488L240.183 278.687L311.638 317.47L383.092 273.08Z" fill="url(#paint1_linear)"/>
<path opacity="0.48" d="M33.3037 266.729L-4.49634 243.659L59.2975 210.281L100.966 224.356L52.5943 254.318C44.6311 259.157 41.1409 261.677 33.3037 266.729Z" fill="url(#paint2_linear)"/>
<path d="M338.45 166.345L347.157 170.995L323.393 193.372L302.44 199.949L295.459 190.487" fill="#FFE8BC"/>
<path d="M305.64 195.187L297.563 190.588L338.45 166.345L337.493 165.791L295.459 190.487V253.562L304.619 258.779L308.122 255.137" fill="#0C572C"/>
<path opacity="0.42" d="M305.64 195.187L297.563 190.588L338.45 166.345L337.493 165.791L295.459 190.487V253.562L304.619 258.779L308.122 255.137" fill="#1371A5"/>
<path d="M347.157 170.995L304.619 195.779V258.779L347.825 232.961L347.157 170.995Z" fill="#0C572C"/>
<path d="M306.232 191.646L308.828 193.284V206.716L310.478 204.611L311.638 205.922V191.696L309.206 189.945L306.232 191.646Z" fill="#E85858"/>
<path d="M350.597 173.603L359.303 178.24L335.54 200.617L314.586 207.207L307.606 197.744" fill="#FFE8BC"/>
<path d="M317.786 202.444L309.71 197.845L350.597 173.603L349.639 173.048L307.606 197.744V260.82L316.766 266.036L320.269 262.382" fill="#0C572C"/>
<path opacity="0.42" d="M317.786 202.444L309.71 197.845L350.597 173.603L349.639 173.048L307.606 197.744V260.82L316.766 266.036L320.269 262.382" fill="#1371A5"/>
<path d="M359.303 178.24L316.766 203.036V266.036L359.971 240.219L359.303 178.24Z" fill="#0C572C"/>
<path d="M318.379 198.891L320.974 200.542V213.973L322.625 211.856L323.784 213.167V198.941L321.352 197.203L318.379 198.891Z" fill="#E85858"/>
<path d="M364.079 180.23L372.773 184.867L349.009 207.245L328.055 213.835L321.088 204.372" fill="#FFE8BC"/>
<path d="M331.268 209.072L323.179 204.473L364.079 180.23L363.109 179.676L321.088 204.372V267.448L330.248 272.664L333.751 269.01" fill="#0C572C"/>
<path opacity="0.42" d="M331.268 209.072L323.179 204.473L364.079 180.23L363.109 179.676L321.088 204.372V267.448L330.248 272.664L333.751 269.01" fill="#1371A5"/>
<path d="M372.773 184.867L330.248 209.664V272.664L373.453 246.847L372.773 184.867Z" fill="#0C572C"/>
<path d="M331.861 205.531L334.456 207.169V220.601L336.107 218.497L337.266 219.794V205.582L334.834 203.83L331.861 205.531Z" fill="#E85858"/>
<path d="M323.469 269.388C323.318 269.388 321.919 268.834 323.091 267.939C323.867 267.336 324.679 266.78 325.523 266.276" fill="#E27825"/>
<path d="M323.469 262.004C323.469 262.004 324.641 266.339 323.469 268.657L339.408 278.019L355.171 287.141V280.4" fill="#FFE8BC"/>
<path d="M322.94 261.337C322.94 261.639 322.978 261.941 323.053 262.244L355.171 280.413V287.154L323.078 268.38C323.078 268.645 323.078 268.909 323.078 269.174L356.405 288.54V279.355L322.94 261.337Z" fill="#E27825"/>
<path d="M323.116 261.45L356.229 280.35L402.66 253.121L370.253 234.536C369.763 234.251 369.207 234.1 368.64 234.1C368.073 234.1 367.517 234.251 367.027 234.536L323.053 260.593C322.976 260.639 322.913 260.704 322.872 260.784C322.83 260.863 322.812 260.952 322.818 261.041C322.825 261.13 322.856 261.216 322.909 261.288C322.961 261.36 323.033 261.417 323.116 261.45Z" fill="#FDBA45"/>
<path d="M356.405 288.54C356.405 288.54 402.849 261.185 402.71 261.059C402.572 260.933 402.71 253.147 402.71 253.147L356.242 280.426L356.405 288.54Z" fill="#E27825"/>
<path d="M323.116 260.618C322.981 260.717 322.869 260.844 322.786 260.989C322.704 261.135 322.653 261.296 322.637 261.463C322.637 262.03 323.179 262.307 323.393 262.42" fill="#FDBA45"/>
<path d="M323.595 257.04C323.444 257.04 322.045 256.486 323.217 255.591C323.993 254.988 324.805 254.432 325.649 253.928" fill="#E27825"/>
<path d="M323.595 249.631C323.595 249.631 324.767 253.966 323.595 256.284L339.534 265.646L355.297 274.768V268.027" fill="#FFE8BC"/>
<path d="M323.066 248.951C323.066 249.253 323.104 249.556 323.179 249.858L355.297 268.027V274.768L323.204 256.057C323.204 256.322 323.204 256.586 323.204 256.851L356.544 276.142V266.956L323.066 248.951Z" fill="#E27825"/>
<path d="M323.28 249.077L356.393 267.977L402.862 240.698L370.454 222.113C369.965 221.827 369.408 221.677 368.842 221.677C368.275 221.677 367.718 221.827 367.229 222.113L323.28 248.22C323.2 248.26 323.133 248.321 323.087 248.397C323.04 248.472 323.015 248.559 323.015 248.648C323.015 248.737 323.04 248.825 323.087 248.9C323.133 248.976 323.2 249.037 323.28 249.077Z" fill="#FDBA45"/>
<path d="M356.531 276.142C356.531 276.142 402.975 248.787 402.836 248.661C402.698 248.535 402.836 240.748 402.836 240.748L356.368 268.027L356.531 276.142Z" fill="#E27825"/>
<path d="M323.28 248.22C323.145 248.319 323.033 248.445 322.95 248.591C322.868 248.736 322.817 248.898 322.801 249.064C322.801 249.631 323.343 249.908 323.557 250.022" fill="#FDBA45"/>
<path d="M323.595 244.364C323.444 244.364 322.045 243.81 323.217 242.915C323.993 242.312 324.805 241.757 325.649 241.252" fill="#E27825"/>
<path d="M323.595 236.981C323.595 236.981 324.767 241.315 323.595 243.634L339.534 252.995L355.297 262.08V255.339" fill="#FFE8BC"/>
<path d="M323.066 236.3C323.066 236.603 323.104 236.905 323.179 237.208L355.297 255.377V262.08L323.204 243.369C323.204 243.634 323.204 243.898 323.204 244.163L356.544 263.453V254.268L323.066 236.3Z" fill="#E27825"/>
<path d="M323.28 236.426L356.393 255.326L402.836 228.06L370.429 209.475C369.94 209.189 369.383 209.039 368.816 209.039C368.25 209.039 367.693 209.189 367.204 209.475L323.28 235.62C323.212 235.663 323.157 235.723 323.118 235.793C323.08 235.864 323.059 235.943 323.059 236.023C323.059 236.104 323.08 236.183 323.118 236.253C323.157 236.323 323.212 236.383 323.28 236.426Z" fill="#FDBA45"/>
<path d="M356.531 263.491C356.531 263.491 402.975 236.137 402.836 236.011C402.698 235.885 402.836 228.098 402.836 228.098L356.368 255.377L356.531 263.491Z" fill="#E27825"/>
<path d="M323.28 235.62C323.145 235.719 323.033 235.845 322.95 235.991C322.868 236.136 322.817 236.298 322.801 236.464C322.801 237.031 323.343 237.308 323.557 237.422" fill="#FDBA45"/>
<path d="M118.543 291.236C118.228 291.236 115.393 290.102 117.774 288.275C119.358 287.045 121.016 285.913 122.738 284.886" fill="#9A433A"/>
<path d="M118.542 276.192C118.542 276.192 120.924 285.012 118.542 289.737L150.987 308.813L183.08 327.386V313.664" fill="#FFE8BC"/>
<path d="M117.472 274.819C117.547 275.432 117.623 276.045 117.698 276.658L183.092 313.664V327.386L117.761 289.283C117.761 289.825 117.761 290.367 117.761 290.909L185.612 330.12V311.472L117.472 274.819Z" fill="#9A433A"/>
<path d="M117.837 275.058L185.272 313.652L279.898 258.098L213.912 220.298C212.918 219.718 211.787 219.413 210.636 219.413C209.485 219.413 208.354 219.718 207.36 220.298L117.824 273.42C117.69 273.511 117.58 273.633 117.504 273.777C117.429 273.92 117.39 274.08 117.391 274.242C117.392 274.405 117.434 274.564 117.512 274.706C117.589 274.849 117.701 274.969 117.837 275.058Z" fill="#F26250"/>
<path d="M185.612 330.12C185.612 330.12 280.112 274.428 279.886 274.163C279.659 273.899 279.886 258.048 279.886 258.048L185.26 313.601L185.612 330.12Z" fill="#9A433A"/>
<path d="M117.824 273.42C117.549 273.62 117.319 273.876 117.149 274.171C116.98 274.467 116.875 274.795 116.842 275.134C116.728 276.28 117.95 276.847 118.379 277.087" fill="#F26250"/>
<path d="M195.894 276.242C213.041 276.242 226.94 271.814 226.94 266.351C226.94 260.889 213.041 256.46 195.894 256.46C178.748 256.46 164.848 260.889 164.848 266.351C164.848 271.814 178.748 276.242 195.894 276.242Z" fill="#9A433A"/>
<path d="M252.544 130.523C252.544 130.523 258.957 124.375 263.821 124.438C268.684 124.501 277.24 125.698 277.882 122.85C278.525 120.002 269.768 115.63 266.391 114.521C263.014 113.413 252.531 119.662 251.813 118.516C251.095 117.369 258.264 112.216 258.264 112.216C258.264 112.216 253.489 110.288 253.325 110.565C253.161 110.842 244.896 120.242 243.358 124.652C241.821 129.062 252.544 130.523 252.544 130.523Z" fill="#1A1A1A"/>
<path d="M190.854 223.423C190.854 223.423 190.564 232.357 187.074 235.746C183.584 239.135 176.515 244.289 178.065 246.796C179.615 249.304 188.989 246.28 192.19 244.692C195.39 243.104 198.49 231.26 199.876 231.55C201.262 231.84 199.699 240.66 199.699 240.66C199.699 240.66 204.487 238.694 204.412 238.354C204.336 238.014 203.668 225.452 201.665 221.206C199.661 216.959 190.854 223.423 190.854 223.423Z" fill="#1A1A1A"/>
<path d="M298.08 49.1399L262.346 23.4233C260.576 24.3059 259.019 25.5633 257.783 27.1081C256.547 28.6529 255.662 30.4482 255.19 32.3693L290.911 58.0985C293.292 55.0997 295.736 52.1765 298.08 49.1399Z" fill="#FDDF33"/>
<path d="M261.379 29.7852C263.23 27.2162 263.577 24.3026 262.154 23.2776C260.731 22.2525 258.077 23.5041 256.227 26.0731C254.376 28.6421 254.029 31.5557 255.452 32.5807C256.875 33.6058 259.528 32.3542 261.379 29.7852Z" fill="#FDDF33"/>
<path d="M297.093 55.5169C298.943 52.9479 299.29 50.0343 297.867 49.0093C296.445 47.9842 293.791 49.2358 291.94 51.8048C290.089 54.3738 289.742 57.2874 291.165 58.3124C292.588 59.3375 295.242 58.0859 297.093 55.5169Z" fill="#FCCD35"/>
<path d="M275.639 39.8413C276.219 37.5607 273.384 36.9559 271.859 36.9307C270.61 36.7957 269.351 37.0886 268.289 37.7615C267.227 38.4343 266.425 39.4473 266.013 40.6351C264.425 44.9065 265.181 49.3417 262.649 53.4493C262.17 54.2179 263.317 55.0621 263.795 54.2809C264.222 53.5829 264.597 52.8543 264.917 52.1011C264.652 52.9579 264.388 53.8273 264.148 54.6967C264.119 54.798 264.112 54.9043 264.127 55.0085C264.142 55.1128 264.18 55.2127 264.236 55.3015L263.997 56.1079C263.957 56.2346 263.952 56.3698 263.983 56.4989C264.015 56.6281 264.08 56.7463 264.174 56.8409C264.267 56.9355 264.384 57.0029 264.513 57.0358C264.642 57.0687 264.777 57.0659 264.904 57.0277L264.463 57.7963C264.353 57.9483 264.308 58.1379 264.337 58.3234C264.367 58.5089 264.469 58.6751 264.621 58.7854C264.773 58.8956 264.962 58.941 265.148 58.9115C265.333 58.8819 265.499 58.7799 265.61 58.6279L265.685 58.5271C265.912 58.9681 266.53 59.1949 266.845 58.6657C268.132 56.379 269.571 54.1817 271.154 52.0885C272.314 50.9038 273.177 49.4618 273.674 47.8801C273.902 46.7269 273.774 45.5316 273.305 44.4533C272.837 43.3751 272.051 42.4651 271.053 41.8447C272.88 41.8951 275.186 41.5801 275.639 39.8413Z" fill="#FAA590"/>
<path d="M172.168 66.6162C163.915 68.1282 144.612 68.5062 131.76 68.5692C129.836 77.7473 128.97 87.1155 129.177 96.4908C142.193 98.2044 162.895 99.3636 178.96 92.925L200.38 65.1168C190.949 64.5337 181.483 65.0368 172.168 66.6162Z" fill="#1A1A1A"/>
<path d="M198.427 64.9404C198.49 65.4948 166.486 141.977 165.503 196.472C165.503 196.472 193.702 169.722 209.124 157.084" fill="#1A1A1A"/>
<path d="M189.72 112.745C189.833 111.573 188.712 67.6367 199.283 65.5703C209.855 63.5039 223.387 73.0799 223.475 78.3719C223.564 83.6639 214.177 115.555 206.73 115.668C199.283 115.781 189.72 112.745 189.72 112.745Z" fill="#0C572C"/>
<path d="M189.72 97.8516C186.885 101.178 168.905 151.238 168.842 163.51C168.779 175.783 189.645 223.524 192.24 224.519C194.836 225.515 200.216 222.869 201.186 220.538C202.156 218.207 189.279 169.306 189.279 169.306C189.279 169.306 206.226 129.641 203.769 120.065C201.312 110.489 189.72 97.8516 189.72 97.8516Z" fill="#0C572C"/>
<path d="M199.258 112.455C199.006 113.463 200.178 157.324 204.676 162.855C209.174 168.386 220.212 170.037 225.781 164.984C231.35 159.932 254.975 130.347 252.14 128.444C250.849 127.531 249.387 126.886 247.842 126.546C246.297 126.206 244.7 126.179 243.144 126.466C239.729 126.907 218.889 150.331 218.889 150.331C218.889 150.331 219.393 104.756 214.92 99.9937" fill="#0C572C"/>
<path d="M210.724 67.095C210.724 67.095 202.471 121.653 211.115 137.416C216.988 147.708 224.101 157.242 232.295 165.803C232.295 165.803 256.374 156.605 258.226 153.544C260.078 150.482 230.809 124.261 229.246 116.248C227.684 108.234 230.405 80.6526 226.21 76.7088C222.014 72.765 210.724 67.095 210.724 67.095Z" fill="#1A1A1A"/>
<path d="M210.724 67.095C210.724 67.095 229.927 75.4614 236 74.2644C242.073 73.0674 262.548 52.4916 263.997 50.8788C263.997 50.8788 280.188 65.6964 281.385 71.4294C281.385 71.4294 257.621 96.1254 247.718 99.2628C237.814 102.4 220.338 98.8218 220.338 98.8218" fill="#1A1A1A"/>
<path d="M179.489 135.211C185.864 111.271 192.92 87.4313 204.689 65.6207C193.701 63.4913 189.569 66.0869 189.569 66.0869C173.617 77.3513 142.394 173.187 142.394 173.187C142.76 182.007 160.387 193.347 164.545 195.968C168.375 175.442 174.134 155.282 179.489 135.211Z" fill="#303030"/>
<path d="M202.207 48.4721C202.207 48.4721 198.716 62.6975 203.152 65.8727C207.587 69.0479 217.15 62.5085 218.839 55.8683C220.527 49.2281 206.906 40.9751 202.207 48.4721Z" fill="#FAA590"/>
<path d="M211.241 52.4286C211.241 52.4286 210.649 57.204 212.148 58.968C213.647 60.732 207.877 66.465 216.722 69.5268C225.567 72.5886 222.543 53.8398 220.59 52.4412" fill="#E8601C"/>
<path d="M220.613 52.4444C220.939 50.7993 217.014 48.6355 211.847 47.6114C206.679 46.5873 202.226 47.0907 201.9 48.7358C201.574 50.3809 205.499 52.5447 210.666 53.5688C215.833 54.5928 220.287 54.0894 220.613 52.4444Z" fill="#1A1A1A"/>
<path d="M201.892 48.7242L203.895 40.005L222.404 43.1172L220.59 52.4412" fill="#1A1A1A"/>
<path d="M193.223 36.5022L212.476 50.274L233.984 40.6224L213.874 26.334L193.223 36.5022Z" fill="#1A1A1A"/>
<path d="M214.504 39.1734L222.934 46.7334L221.22 54.5832C221.22 54.5832 219.746 55.44 219.179 58.968C220.506 59.6314 222.031 59.7839 223.463 59.3964C223.652 58.5156 223.588 57.5994 223.281 56.7527C222.973 55.9061 222.434 55.163 221.724 54.6084L223.463 46.62L214.819 38.7324C214.819 38.7324 214.429 38.6316 214.504 39.1734Z" fill="#FEDB26"/>
<path d="M40.4353 148.504C40.4353 148.504 44.6941 186.48 66.4669 189.529C88.2397 192.578 96.9337 157.626 96.1903 148.491" fill="#FDBA45"/>
<path d="M96.2279 221.243C96.2279 221.243 91.9691 183.229 70.1963 180.18C48.4235 177.131 39.7799 212.121 40.4855 221.243" fill="#FDBA45"/>
<path d="M68.3317 229.106C83.7245 229.106 96.2029 225.586 96.2029 221.243C96.2029 216.901 83.7245 213.381 68.3317 213.381C52.9388 213.381 40.4604 216.901 40.4604 221.243C40.4604 225.586 52.9388 229.106 68.3317 229.106Z" fill="#FDBA45"/>
<path d="M68.3317 158.899C83.7245 158.899 96.2029 155.379 96.2029 151.036C96.2029 146.694 83.7245 143.174 68.3317 143.174C52.9388 143.174 40.4604 146.694 40.4604 151.036C40.4604 155.379 52.9388 158.899 68.3317 158.899Z" fill="#486B11"/>
<path d="M40.4604 151.036V148.504L42.0858 149.247L40.4604 151.036Z" fill="#486B11"/>
<path d="M96.2029 148.504V151.024L94.9429 152.044V149.764" fill="#486B11"/>
<path d="M68.3317 156.366C83.7245 156.366 96.2029 152.846 96.2029 148.504C96.2029 144.161 83.7245 140.641 68.3317 140.641C52.9388 140.641 40.4604 144.161 40.4604 148.504C40.4604 152.846 52.9388 156.366 68.3317 156.366Z" fill="#577F22"/>
<path d="M46.6597 165.514C46.6597 165.514 53.3125 181.075 60.1165 183.506C66.9205 185.938 75.2365 186.115 81.6751 180.029C85.7505 175.99 88.7594 171.002 90.4321 165.514C88.2428 164.231 85.7081 163.663 83.1809 163.889C80.6537 164.115 78.2598 165.123 76.3327 166.774C69.3649 172.607 68.2309 173.905 63.2035 170.554C58.1761 167.202 50.8681 162.754 46.6597 165.514Z" fill="#D68B13"/>
<path d="M46.0044 219.303C46.0044 219.303 59.2092 195.363 68.3316 196.799C77.454 198.236 90.4194 220.311 90.4194 220.311C90.4194 220.311 68.3316 229.106 46.0044 219.303Z" fill="#D68B13"/>
<path d="M359.001 105.084C359.001 105.084 370.782 139.243 370.253 139.671C369.724 140.099 363.688 135.248 363.146 135.513C361.72 137.235 360.403 139.044 359.203 140.931L348.241 107.239" fill="#E8601C"/>
<path d="M340.24 101.884L333.763 133.787C333.763 133.787 341.399 127.487 341.323 128.104C341.248 128.722 342.331 135.664 342.331 135.664L351.517 103.32" fill="#E8601C"/>
<path d="M352.721 114.193C361.303 113.235 367.266 103.544 366.038 92.5483C364.81 81.5521 356.858 73.4147 348.275 74.3728C339.693 75.3309 333.73 85.0218 334.958 96.018C336.185 107.014 344.138 115.152 352.721 114.193Z" fill="#EAB41B"/>
<path d="M350.679 114.419C359.262 113.46 365.224 103.77 363.997 92.7734C362.769 81.7772 354.816 73.6398 346.234 74.5979C337.651 75.556 331.689 85.2469 332.917 96.2431C334.144 107.239 342.097 115.377 350.679 114.419Z" fill="#FCCD35"/>
</g>
<defs>
<linearGradient id="paint0_linear" x1="138.161" y1="336.798" x2="157.212" y2="313.299" gradientUnits="userSpaceOnUse">
<stop offset="0.01" stop-color="white" stop-opacity="0"/>
<stop offset="1" stop-color="#00A99D"/>
</linearGradient>
<linearGradient id="paint1_linear" x1="36504.8" y1="19068.1" x2="37884.6" y2="15275.1" gradientUnits="userSpaceOnUse">
<stop offset="0.01" stop-color="white" stop-opacity="0"/>
<stop offset="1" stop-color="#00A99D"/>
</linearGradient>
<linearGradient id="paint2_linear" x1="4891.05" y1="11821.6" x2="5765.28" y2="9372.37" gradientUnits="userSpaceOnUse">
<stop offset="0.01" stop-color="white" stop-opacity="0"/>
<stop offset="1" stop-color="#00A99D"/>
</linearGradient>
<clipPath id="clip0">
<rect width="504" height="378" fill="white" transform="translate(-27)"/>
</clipPath>
</defs>
</svg>
