<svg width="187" height="176" viewBox="0 0 187 176" fill="none" xmlns="http://www.w3.org/2000/svg">
<path d="M37.4347 142.036C37.4729 145.96 35.1563 147.352 32.2823 147.38C32.2156 147.381 32.1491 147.381 32.083 147.38C31.9498 147.378 31.8179 147.374 31.6874 147.366C29.0918 147.207 27.0624 145.787 27.0268 142.137C26.99 138.361 31.7646 133.548 32.1227 133.192L32.1233 133.192C32.1369 133.178 32.1439 133.171 32.1439 133.171C32.1439 133.171 37.3965 138.112 37.4347 142.036Z" fill="#0C572C"/>
<path d="M119.591 141.815C119.629 145.739 117.313 147.132 114.439 147.16C114.372 147.16 114.306 147.16 114.24 147.159C114.106 147.158 113.974 147.153 113.844 147.145C111.248 146.986 109.219 145.566 109.183 141.917C109.147 138.14 113.921 133.327 114.279 132.971L114.28 132.971C114.293 132.957 114.3 132.951 114.3 132.951C114.3 132.951 119.553 137.891 119.591 141.815Z" fill="#0C572C"/>
<path d="M187 146.877H0V147.318H187V146.877Z" fill="#3F3D56"/>
<path d="M38.1048 73.211C58.298 73.211 74.6678 56.8222 74.6678 36.6055C74.6678 16.3888 58.298 0 38.1048 0C17.9116 0 1.54175 16.3888 1.54175 36.6055C1.54175 56.8222 17.9116 73.211 38.1048 73.211Z" fill="#0C572C"/>
<path d="M82.5973 114.227H82.5973C91.3598 114.227 99.7633 117.712 105.959 123.915C112.155 130.118 115.636 138.532 115.636 147.304V147.304H63.8752V132.971C63.8752 128 65.8477 123.232 69.3588 119.717C72.8699 116.202 77.6319 114.227 82.5973 114.227Z" fill="#3F3D56"/>
<path d="M154.38 70.5776C154.38 70.5776 155.887 90.194 153.777 90.7976C151.667 91.4011 144.131 95.928 132.073 94.7208C132.073 94.7208 120.317 101.058 122.125 95.0226C123.934 88.9868 132.073 90.4958 132.073 90.4958C132.073 90.4958 146.542 87.4779 147.145 85.3654C147.748 83.2528 145.336 74.5009 146.241 74.1991C147.145 73.8973 154.38 70.5776 154.38 70.5776Z" fill="#A0616A"/>
<path d="M136.324 104.779C136.324 104.779 137.499 133.119 139.307 137.344C140.814 140.864 141.693 152.34 141.945 156.075C141.995 156.825 142.02 157.262 142.02 157.262C142.02 157.262 146.843 157.262 147.145 156.055C147.446 154.848 148.351 141.569 147.145 137.344C145.939 133.119 148.683 103.874 148.683 103.874L136.324 104.779Z" fill="#2F2E41"/>
<path d="M143.226 155.753C143.226 155.753 140.212 156.659 139.609 157.866C139.006 159.073 129.058 161.186 132.073 162.695C135.087 164.204 144.13 161.487 144.13 161.487C144.13 161.487 148.953 161.186 148.652 159.375C148.351 157.564 147.253 155.333 147.253 155.333L143.226 155.753Z" fill="#2F2E41"/>
<path d="M151.667 159.002C151.667 159.002 148.652 159.908 148.049 161.115C147.446 162.322 137.499 164.435 140.513 165.944C143.528 167.452 152.571 164.736 152.571 164.736C152.571 164.736 157.394 164.435 157.092 162.624C156.791 160.813 155.693 158.582 155.693 158.582L151.667 159.002Z" fill="#2F2E41"/>
<path d="M139.006 104.076L143.226 111.319L150.269 136.502C150.269 136.502 149.557 159.606 150.461 159.606C151.365 159.606 156.188 161.115 156.49 159.606C156.744 158.331 160.12 146.121 158.438 137.994C157.343 132.858 156.639 127.645 156.331 122.402L155.585 108.301C155.585 108.301 158.6 102.869 155.284 101.964C151.968 101.058 139.006 104.076 139.006 104.076Z" fill="#2F2E41"/>
<path d="M142.925 57.6012C146.92 57.6012 150.159 54.3584 150.159 50.3582C150.159 46.358 146.92 43.1152 142.925 43.1152C138.929 43.1152 135.69 46.358 135.69 50.3582C135.69 54.3584 138.929 57.6012 142.925 57.6012Z" fill="#A0616A"/>
<path d="M142.021 55.1868C142.021 55.1868 143.226 64.8441 142.925 65.4477C142.623 66.0513 150.159 58.8083 150.159 58.8083C150.159 58.8083 147.446 54.5832 148.049 52.4707L142.021 55.1868Z" fill="#A0616A"/>
<path d="M158.901 64.844C158.901 64.844 150.461 58.8082 150.159 57.6011L143.829 63.0333L142.753 61.7514C142.753 61.7514 137.8 66.6548 137.8 68.7673C137.8 70.8798 137.499 77.2174 138.403 79.0282C139.307 80.8389 135.69 103.775 135.69 103.775C135.69 103.775 138.705 106.491 139.006 106.793C139.307 107.095 151.365 104.982 151.365 104.982C151.365 104.982 157.394 104.379 157.394 103.473C157.394 102.568 155.585 88.9872 156.188 85.3658C156.791 81.7443 158.901 64.844 158.901 64.844Z" fill="#575A89"/>
<path d="M160.71 73.2939C160.71 73.2939 162.217 92.9103 160.107 93.5139C157.997 94.1175 150.461 98.6443 138.403 97.4372C138.403 97.4372 126.647 103.775 128.456 97.739C130.264 91.7031 138.403 93.2121 138.403 93.2121C138.403 93.2121 152.872 90.1942 153.475 88.0817C154.078 85.9691 151.667 77.2172 152.571 76.9154C153.475 76.6137 160.71 73.2939 160.71 73.2939Z" fill="#A0616A"/>
<path d="M139.834 46.7396C140.823 46.3872 141.914 46.2063 142.923 46.4984C144.35 46.9118 145.338 48.1642 146.404 49.2001C147.47 50.236 148.965 51.154 150.369 50.6668C150.284 50.0577 150.444 49.4398 150.813 48.9482C150.996 48.7649 151.131 48.5393 151.207 48.2912C151.267 47.9033 150.941 47.5687 150.843 47.1886C150.672 46.5224 151.142 45.6104 150.564 45.237C150.412 45.1384 150.219 45.1159 150.071 45.0119C149.487 44.6037 150.135 43.5883 149.749 42.9893C149.634 42.8347 149.484 42.7093 149.311 42.6232C146.514 40.9892 143.093 40.9847 139.855 41.0259C139.404 41.0316 138.776 41.2558 138.904 41.6888C138.292 41.249 137.49 41.8666 136.997 42.4366L135.987 43.6033C135.513 44.1107 135.099 44.6714 134.753 45.2743C134.445 45.8648 134.377 46.7726 134.991 47.03C134.534 46.8386 133.981 49.5449 136.084 49.0996C137.307 48.8409 138.505 47.2133 139.834 46.7396Z" fill="#2F2E41"/>
<path d="M154.078 65.4473L158.901 64.8438C158.901 64.8438 163.724 74.1992 161.011 75.7082C158.298 77.2171 151.365 78.4243 151.365 77.8207C151.365 77.2171 154.078 65.4473 154.078 65.4473Z" fill="#575A89"/>
<path d="M87.9768 67.5004C87.9768 67.5004 89.4156 72.2332 88.5934 73.6737C87.7713 75.1141 90.0322 78.2007 93.7318 76.7603C97.4315 75.3199 97.6371 73.6737 97.6371 73.6737C97.6371 73.6737 96.1983 71.4101 95.7872 66.6772L87.9768 67.5004Z" fill="#FFB9B9"/>
<path d="M69.1701 113.903C69.1701 113.903 61.7707 117.607 65.0593 122.545C66.9709 125.416 70.6185 130.998 73.3381 135.17C75.6143 138.661 77.3599 142.471 78.5178 146.476L79.0359 148.267L81.0913 150.737L85.4075 145.798C85.4075 145.798 79.0359 134.069 79.0359 131.805C79.0359 129.542 73.8974 122.34 73.8974 122.34L79.0359 119.047C79.0359 119.047 73.2808 112.462 69.1701 113.903Z" fill="#FFB9B9"/>
<path d="M93.2181 126.661C93.2181 126.661 93.4236 132.423 93.6291 134.687C93.7987 136.554 92.1497 141.783 92.7214 147.6C93.0704 151.363 93.0286 155.153 92.5969 158.907L91.7793 166.376L97.9454 166.993L100.001 150.12C100.001 150.12 101.234 138.185 100.617 134.275L100.823 126.044C100.823 126.044 96.3011 124.398 93.2181 126.661Z" fill="#FFB9B9"/>
<path d="M82.2218 102.688C82.2218 102.688 67.8342 111.948 67.6287 114.829C67.6287 114.829 75.8502 114.006 76.0557 121.208C76.0557 121.208 80.9886 119.356 82.2218 118.944C83.4551 118.533 90.0323 114.211 90.0323 114.211C90.0323 114.211 92.7042 116.269 92.7042 119.562C92.7042 122.854 92.4987 128.616 92.7042 129.027C92.9098 129.439 97.6371 123.471 101.542 128.616L104.214 114.417C104.214 114.417 105.036 105.775 103.392 105.157L91.8821 100.836L82.2218 102.688Z" fill="#2F2E41"/>
<path d="M90.9571 70.0727C94.3626 70.0727 97.1233 67.3088 97.1233 63.8994C97.1233 60.4899 94.3626 57.7261 90.9571 57.7261C87.5517 57.7261 84.791 60.4899 84.791 63.8994C84.791 67.3088 87.5517 70.0727 90.9571 70.0727Z" fill="#FFB9B9"/>
<path d="M89.4156 74.7025C89.4156 74.7025 96.3707 76.5415 97.3122 73.0498C97.3122 73.0498 105.859 74.7025 107.297 80.2584C108.736 85.8144 103.803 99.1899 103.803 99.6014C103.803 100.013 107.914 102.482 106.064 103.717C104.214 104.952 102.57 103.511 103.392 105.157C104.214 106.804 105.653 107.215 104.42 107.627C103.187 108.038 95.7873 101.659 90.0323 103.305C84.2772 104.952 81.3997 103.717 81.3997 103.717L78.8191 81.3878C78.7184 80.5323 78.8332 79.6652 79.1532 78.8656C79.4732 78.066 79.988 77.3594 80.6509 76.8102C81.9389 75.7487 83.648 74.602 85.3049 74.2909C88.5935 73.6736 88.7301 73.3357 88.7301 73.3357L89.4156 74.7025Z" fill="#D0CDE1"/>
<path d="M82.8384 110.713C82.8384 110.713 84.6882 121.208 87.1547 119.768C89.6211 118.327 86.5381 110.713 86.5381 110.713H82.8384Z" fill="#FFB9B9"/>
<path d="M91.4246 112.071C91.4246 112.071 88.2194 122.233 91.0716 122.098C93.9238 121.962 94.7053 113.783 94.7053 113.783L91.4246 112.071Z" fill="#FFB9B9"/>
<path d="M80.0638 147.856C80.0638 147.856 78.625 146.21 77.8029 148.473C76.9807 150.737 74.7198 153.618 74.7198 153.618C74.7198 153.618 69.7869 159.173 73.2811 159.379C76.7752 159.585 81.7081 154.441 81.7081 154.441L87.4631 149.09C87.4631 149.09 85.5557 144.44 84.6596 144.399C83.7635 144.358 83.969 149.914 80.0638 147.856Z" fill="#2F2E41"/>
<path d="M93.4235 164.935C93.4235 164.935 91.975 165.359 92.0827 163.604C92.0827 163.604 86.8463 166.376 88.2851 168.433C89.7239 170.491 91.3682 172.549 91.3682 172.549C91.3682 172.549 98.973 176.87 99.5897 175.841C100.206 174.812 100.206 172.755 99.7952 171.932C99.3841 171.108 97.3288 169.668 97.9454 168.433C98.562 167.199 97.7398 163.906 96.7121 163.906C95.6844 163.906 93.4235 164.935 93.4235 164.935Z" fill="#2F2E41"/>
<path d="M85.5763 58.6685C85.5763 58.6685 87.5598 54.3658 91.3617 55.3587C95.1636 56.3517 97.3125 57.8411 97.4778 59.3305C97.6431 60.8199 97.3951 63.054 97.3951 63.054C97.3951 63.054 96.9819 59.9925 94.3371 60.6544C91.6923 61.3164 87.5598 60.8199 87.5598 60.8199L86.8986 66.7776C86.8986 66.7776 86.1548 65.7019 85.3283 66.3638C84.5018 67.0258 82.9315 59.9925 85.5763 58.6685Z" fill="#2F2E41"/>
<path d="M103.803 80.0531C103.803 80.0531 98.8704 93.4285 99.2815 95.0748C99.6925 96.721 99.2814 96.9267 98.6648 97.3383C98.0482 97.7498 96.4039 102.071 96.4039 102.071C96.4039 102.071 95.3762 104.54 94.5541 105.158C93.7319 105.775 93.7319 107.421 93.7319 107.421C93.7319 107.421 91.6766 109.479 92.0876 109.891C92.4987 110.302 92.4987 110.92 91.6766 111.537C90.8544 112.154 90.0323 112.977 90.4433 113.183C90.8544 113.389 93.7319 115.652 94.5541 115.447C95.3762 115.241 94.143 114.418 95.1707 114.006C96.1984 113.595 96.815 112.977 96.4039 112.772C95.9929 112.566 94.7596 112.566 95.9928 112.154C97.2261 111.743 101.542 109.068 102.981 105.775C104.42 102.483 111.313 82.5628 107.147 79.7646C107.147 79.7646 105.448 77.5838 103.803 80.0531Z" fill="#D0CDE1"/>
<path d="M80.9886 77.7891L80.9051 77.8239C80.1287 78.148 79.443 78.6567 78.9072 79.306C78.3714 79.9552 78.0017 80.7254 77.8302 81.5499C77.3814 83.7006 76.9398 86.8113 77.2889 89.7241C77.9055 94.8685 78.3166 97.132 79.1388 98.7783C79.9609 100.424 80.1665 99.8071 79.9609 101.042C79.7554 102.276 78.7277 101.248 79.7554 102.894C80.7831 104.54 81.3997 104.128 80.9886 104.952C80.5775 105.775 79.9609 105.775 80.7831 106.804C81.6052 107.832 81.6052 108.244 81.8108 108.656C82.0163 109.067 82.6329 112.154 82.6329 112.154C82.6329 112.154 85.9215 111.125 87.7714 111.536C87.7714 111.536 86.1271 108.656 86.5381 108.038C86.9492 107.421 87.5658 107.215 86.9492 106.598C86.3326 105.98 85.3049 106.186 86.3326 105.569C87.3603 104.952 85.5104 98.5725 85.5104 98.5725L80.9886 77.7891Z" fill="#D0CDE1"/>
<path d="M41.6289 146.863H34.1401L37.5542 31.0928L41.6289 146.863Z" fill="#3F3D56"/>
<path d="M38.215 53.034L46.2545 41.8979L38.1049 55.7904L37.2239 54.2468L38.215 53.034Z" fill="#3F3D56"/>
<path d="M37.3339 64.2801L29.2944 53.144L37.444 67.0365L38.3251 65.4929L37.3339 64.2801Z" fill="#3F3D56"/>
<path d="M41.4587 86.6448L37.8345 88.7397L38.9358 90.6495L42.56 88.5546L41.4587 86.6448Z" fill="#3F3D56"/>
</svg>
