<svg width="57" height="57" viewBox="0 0 57 57" fill="none" xmlns="http://www.w3.org/2000/svg">
<g filter="url(#filter0_d)">
<circle cx="28.1084" cy="24.1771" r="22" fill="#0FC662"/>
</g>
<path d="M22.1909 35.2507V19.5635H17.2892V35.2507H22.1909ZM19.7407 17.4204C21.45 17.4204 22.5139 16.2158 22.5139 14.7105C22.4821 13.1712 21.45 12 19.7731 12C18.0964 12 17 13.1712 17 14.7105C17 16.2159 18.0637 17.4204 19.7087 17.4204H19.7407ZM24.9039 35.2507H29.8056V26.4902C29.8056 26.0214 29.8374 25.553 29.9669 25.2178C30.3212 24.2811 31.1278 23.3109 32.4818 23.3109C34.2555 23.3109 34.9651 24.7495 34.9651 26.8583V35.2506H39.8665V26.2557C39.8665 21.4372 37.4482 19.1952 34.2232 19.1952C31.579 19.1952 30.418 20.7675 29.773 21.8383H29.8057V19.5632H24.904C24.9684 21.0352 24.9039 35.2507 24.9039 35.2507Z" fill="white"/>
<defs>
<filter id="filter0_d" x="0.108398" y="0.177124" width="56" height="56" filterUnits="userSpaceOnUse" color-interpolation-filters="sRGB">
<feFlood flood-opacity="0" result="BackgroundImageFix"/>
<feColorMatrix in="SourceAlpha" type="matrix" values="0 0 0 0 0 0 0 0 0 0 0 0 0 0 0 0 0 0 127 0"/>
<feOffset dy="4"/>
<feGaussianBlur stdDeviation="3"/>
<feColorMatrix type="matrix" values="0 0 0 0 0 0 0 0 0 0 0 0 0 0 0 0 0 0 0.2 0"/>
<feBlend mode="normal" in2="BackgroundImageFix" result="effect1_dropShadow"/>
<feBlend mode="normal" in="SourceGraphic" in2="effect1_dropShadow" result="shape"/>
</filter>
</defs>
</svg>
