<svg width="164" height="240" viewBox="0 0 164 240" fill="none" xmlns="http://www.w3.org/2000/svg">
<path d="M25.9104 6.53V14.84L20.4204 6.53H19.0554V17H20.4204V8.675L25.9104 17H27.2754V6.53H25.9104ZM37.4023 12.875C37.4023 10.28 35.5873 8.645 33.2473 8.645C30.9223 8.645 29.0923 10.28 29.0923 12.875C29.0923 15.485 30.8623 17.135 33.1873 17.135C35.5273 17.135 37.4023 15.485 37.4023 12.875ZM30.4873 12.875C30.4873 10.805 31.7923 9.83 33.2323 9.83C34.6423 9.83 36.0073 10.805 36.0073 12.875C36.0073 14.96 34.6123 15.935 33.1873 15.935C31.7623 15.935 30.4873 14.96 30.4873 12.875ZM55.061 17H56.411V12.155C56.411 9.8 54.956 8.63 53.081 8.63C51.821 8.63 50.651 9.275 50.171 10.46C49.631 9.23 48.506 8.63 47.156 8.63C46.076 8.63 45.101 9.095 44.561 9.965V8.78H43.196V17H44.561V12.47C44.561 10.7 45.506 9.815 46.886 9.815C48.236 9.815 49.136 10.67 49.136 12.35V17H50.486V12.47C50.486 10.7 51.431 9.815 52.811 9.815C54.161 9.815 55.061 10.67 55.061 12.35V17ZM62.1451 9.8C63.5551 9.8 64.7551 10.685 64.7401 12.29H59.5501C59.7001 10.685 60.8101 9.8 62.1451 9.8ZM65.9851 14.465H64.5151C64.2151 15.35 63.4351 15.98 62.2051 15.98C60.8101 15.98 59.6401 15.065 59.5351 13.4H66.1051C66.1351 13.115 66.1501 12.875 66.1501 12.575C66.1501 10.325 64.5901 8.645 62.2051 8.645C59.8051 8.645 58.1401 10.28 58.1401 12.875C58.1401 15.485 59.8651 17.135 62.2051 17.135C64.2451 17.135 65.5651 15.965 65.9851 14.465ZM73.8619 14.765C73.8019 11.825 69.0319 12.89 69.0319 10.94C69.0319 10.28 69.6319 9.8 70.6369 9.8C71.7319 9.8 72.3619 10.4 72.4219 11.225H73.7869C73.6969 9.62 72.4969 8.645 70.6819 8.645C68.8519 8.645 67.6669 9.68 67.6669 10.94C67.6669 14 72.5269 12.935 72.5269 14.765C72.5269 15.44 71.9269 15.98 70.8469 15.98C69.6919 15.98 68.9869 15.38 68.9119 14.585H67.5019C67.5919 16.085 68.9419 17.135 70.8619 17.135C72.6769 17.135 73.8619 16.115 73.8619 14.765ZM81.6988 14.765C81.6388 11.825 76.8688 12.89 76.8688 10.94C76.8688 10.28 77.4688 9.8 78.4738 9.8C79.5688 9.8 80.1988 10.4 80.2588 11.225H81.6238C81.5338 9.62 80.3338 8.645 78.5188 8.645C76.6888 8.645 75.5038 9.68 75.5038 10.94C75.5038 14 80.3638 12.935 80.3638 14.765C80.3638 15.44 79.7638 15.98 78.6838 15.98C77.5288 15.98 76.8238 15.38 76.7488 14.585H75.3388C75.4288 16.085 76.7788 17.135 78.6988 17.135C80.5138 17.135 81.6988 16.115 81.6988 14.765ZM83.1157 12.86C83.1157 15.41 84.8107 17.135 87.0007 17.135C88.5157 17.135 89.5807 16.355 90.0757 15.47V17H91.4557V8.78H90.0757V10.28C89.5957 9.425 88.5457 8.645 87.0157 8.645C84.8107 8.645 83.1157 10.295 83.1157 12.86ZM90.0757 12.875C90.0757 14.81 88.7857 15.935 87.2857 15.935C85.7857 15.935 84.5107 14.795 84.5107 12.86C84.5107 10.925 85.7857 9.83 87.2857 9.83C88.7857 9.83 90.0757 10.97 90.0757 12.875ZM93.2524 12.86C93.2524 15.41 94.9474 17.135 97.1524 17.135C98.6524 17.135 99.7174 16.34 100.212 15.455V17.18C100.212 18.935 99.1174 19.865 97.6624 19.865C96.3124 19.865 95.3374 19.19 95.0374 18.2H93.6874C93.9574 19.955 95.5024 21.05 97.6624 21.05C100.077 21.05 101.592 19.445 101.592 17.18V8.78H100.212V10.28C99.7324 9.395 98.6524 8.645 97.1524 8.645C94.9474 8.645 93.2524 10.295 93.2524 12.86ZM100.212 12.875C100.212 14.81 98.9224 15.935 97.4224 15.935C95.9224 15.935 94.6474 14.795 94.6474 12.86C94.6474 10.925 95.9224 9.83 97.4224 9.83C98.9224 9.83 100.212 10.97 100.212 12.875ZM107.394 9.8C108.804 9.8 110.004 10.685 109.989 12.29H104.799C104.949 10.685 106.059 9.8 107.394 9.8ZM111.234 14.465H109.764C109.464 15.35 108.684 15.98 107.454 15.98C106.059 15.98 104.889 15.065 104.784 13.4H111.354C111.384 13.115 111.399 12.875 111.399 12.575C111.399 10.325 109.839 8.645 107.454 8.645C105.054 8.645 103.389 10.28 103.389 12.875C103.389 15.485 105.114 17.135 107.454 17.135C109.494 17.135 110.814 15.965 111.234 14.465ZM119.111 14.765C119.051 11.825 114.281 12.89 114.281 10.94C114.281 10.28 114.881 9.8 115.886 9.8C116.981 9.8 117.611 10.4 117.671 11.225H119.036C118.946 9.62 117.746 8.645 115.931 8.645C114.101 8.645 112.916 9.68 112.916 10.94C112.916 14 117.776 12.935 117.776 14.765C117.776 15.44 117.176 15.98 116.096 15.98C114.941 15.98 114.236 15.38 114.161 14.585H112.751C112.841 16.085 114.191 17.135 116.111 17.135C117.926 17.135 119.111 16.115 119.111 14.765ZM128.157 15.44L125.577 8.78H124.062L127.377 16.91L125.757 20.87H127.167L132.117 8.78H130.707L128.157 15.44ZM136.984 9.8C138.394 9.8 139.594 10.685 139.579 12.29H134.389C134.539 10.685 135.649 9.8 136.984 9.8ZM140.824 14.465H139.354C139.054 15.35 138.274 15.98 137.044 15.98C135.649 15.98 134.479 15.065 134.374 13.4H140.944C140.974 13.115 140.989 12.875 140.989 12.575C140.989 10.325 139.429 8.645 137.044 8.645C134.644 8.645 132.979 10.28 132.979 12.875C132.979 15.485 134.704 17.135 137.044 17.135C139.084 17.135 140.404 15.965 140.824 14.465ZM143.091 14.75C143.091 16.4 143.916 17 145.371 17H146.601V15.845H145.596C144.756 15.845 144.456 15.56 144.456 14.75V9.905H146.601V8.78H144.456V6.71H143.091V8.78H142.026V9.905H143.091V14.75Z" fill="#808080"/>
<path d="M80.9272 116.509H80.0434V92.1425C80.0434 88.4023 78.5675 84.8153 75.9403 82.1706C73.3131 79.5258 69.7499 78.04 66.0346 78.04H14.7529C11.0376 78.04 7.47438 79.5258 4.84723 82.1706C2.22007 84.8153 0.744141 88.4023 0.744141 92.1425V225.821C0.744141 229.561 2.22007 233.148 4.84723 235.793C7.47438 238.437 11.0376 239.923 14.7529 239.923H66.0344C69.7497 239.923 73.3129 238.437 75.9401 235.793C78.5672 233.148 80.0432 229.561 80.0432 225.821V133.854H80.927L80.9272 116.509Z" fill="#3F3D56"/>
<path d="M66.6009 81.7085H59.907C60.215 82.4683 60.3326 83.2927 60.2495 84.1091C60.1664 84.9255 59.8851 85.7087 59.4304 86.3899C58.9757 87.071 58.3616 87.6291 57.6422 88.015C56.9227 88.4009 56.12 88.6027 55.3048 88.6027H25.9264C25.1113 88.6026 24.3087 88.4008 23.5894 88.0149C22.87 87.629 22.256 87.071 21.8014 86.3899C21.3467 85.7089 21.0654 84.9258 20.9823 84.1095C20.8991 83.2932 21.0166 82.4689 21.3245 81.7092H15.0713C12.2966 81.7092 9.6356 82.8188 7.6736 84.7939C5.7116 86.769 4.60938 89.4478 4.60938 92.2411V225.723C4.60938 228.516 5.7116 231.195 7.6736 233.17C9.6356 235.145 12.2966 236.254 15.0713 236.254H66.5989C69.3736 236.254 72.0347 235.145 73.9967 233.17C75.9587 231.195 77.0609 228.516 77.0609 225.723V92.2404C77.0609 89.4472 75.9587 86.7683 73.9967 84.7932C72.0347 82.8181 69.3736 81.7085 66.5989 81.7085H66.6009Z" fill="white"/>
<path d="M70.5063 107.955H11.1641V210.009H70.5063V107.955Z" fill="#E6E6E6"/>
<path d="M40.9246 228.795C44.0975 228.795 46.6696 226.206 46.6696 223.012C46.6696 219.818 44.0975 217.229 40.9246 217.229C37.7518 217.229 35.1797 219.818 35.1797 223.012C35.1797 226.206 37.7518 228.795 40.9246 228.795Z" fill="#E6E6E6"/>
<path d="M68.3867 220.933L67.7305 227.319L71.4495 226.879L71.887 221.593L68.3867 220.933Z" fill="#FFB9B9"/>
<path d="M58.5411 172.482C58.5411 172.482 39.5082 190.981 51.5405 196.707H55.2594C55.2594 196.707 63.3538 183.272 67.2917 183.494L68.3855 196.267L67.7292 222.034L72.5422 222.254C72.5422 222.254 75.3861 209.261 75.1674 201.993L80.199 175.125L58.5411 172.482Z" fill="#2F2E41"/>
<path d="M52.6348 195.827L55.26 196.708C55.26 196.708 65.5421 194.285 66.1974 194.506L68.2331 194.491L68.1668 189.22H59.4169L52.6348 195.827Z" fill="#2F2E41"/>
<path d="M71.885 225.998C71.885 225.998 67.9471 224.236 67.2909 225.998C66.6346 227.76 66.8534 232.826 66.8534 232.826C67.3782 233.841 67.533 235.01 67.2909 236.129C66.8534 237.891 69.0411 238.772 71.885 237.891C74.729 237.01 74.729 234.808 74.729 234.808L71.885 225.998Z" fill="#2F2E41"/>
<path d="M75.1664 188.778C75.1664 188.778 78.2291 187.016 78.0104 189.659C77.8288 191.404 77.3863 193.112 76.6977 194.724C76.6977 194.724 79.5416 202.212 76.6977 202.873C73.8537 203.533 71.666 201.992 71.666 200.891C71.666 199.789 75.1664 188.778 75.1664 188.778Z" fill="#2F2E41"/>
<path d="M65.541 128.436L65.9787 136.805L69.6977 140.108L73.8544 134.162V128.216L65.541 128.436Z" fill="#FFB9B9"/>
<path d="M68.3846 136.805L65.8803 134.931L64.2281 137.465L56.79 141.87L61.165 153.321L61.3837 164.553C61.3837 164.553 53.2894 172.922 58.1023 174.023C62.9152 175.125 79.9792 177.547 80.8542 175.565C81.7292 173.583 79.7604 153.101 79.7604 153.101L80.4167 135.703L73.8542 133.314L68.3846 136.805Z" fill="#0C572C"/>
<path d="M55.0405 150.753C55.0405 150.753 53.2902 163.232 56.5719 163.232C58.5208 163.239 60.4524 162.865 62.2598 162.131L59.6346 155.304L60.7284 150.679L55.0405 150.753Z" fill="#FFB9B9"/>
<path d="M60.0725 161.691L62.4789 162.131C62.4789 162.131 69.4796 157.727 69.9171 157.506C70.3546 157.286 62.9164 153.542 62.9164 153.542L57.8848 155.524L60.0725 161.691Z" fill="#FFB9B9"/>
<path opacity="0.1" d="M62.9159 153.542L59.7562 154.787L60.7284 150.679L55.0405 150.753C55.0405 150.753 53.2902 163.232 56.5719 163.232C58.5208 163.238 60.4524 162.864 62.2598 162.13L62.2433 162.087L62.4786 162.13C62.4786 162.13 69.4792 157.726 69.9167 157.506C70.3542 157.285 62.9159 153.542 62.9159 153.542Z" fill="black"/>
<path d="M70.6024 132.612C74.0525 132.612 76.8493 129.796 76.8493 126.323C76.8493 122.85 74.0525 120.034 70.6024 120.034C67.1523 120.034 64.3555 122.85 64.3555 126.323C64.3555 129.796 67.1523 132.612 70.6024 132.612Z" fill="#FFB9B9"/>
<path d="M65.081 119.228L63.8605 118.737C63.8605 118.737 66.4125 115.908 69.9631 116.154L68.9644 115.047C68.9644 115.047 71.4055 114.063 73.6246 116.646C74.7913 118.003 76.1409 119.599 76.9832 121.397H78.2904L77.7449 122.606L79.6537 123.816L77.6938 123.598C77.8795 124.642 77.8159 125.716 77.5084 126.73L77.561 127.687C77.561 127.687 75.2893 124.149 75.2893 123.657V124.887C75.2893 124.887 74.0688 123.78 74.0688 123.042L73.403 123.903L73.0691 122.548L68.9637 123.9L69.6295 122.794L67.0774 123.163L68.0761 121.81C68.0761 121.81 65.1913 123.409 65.0801 124.762C64.969 126.114 63.5268 127.836 63.5268 127.836L62.8611 126.606C62.8611 126.606 61.8632 121.073 65.081 119.228Z" fill="#2F2E41"/>
<path d="M76.0426 146.935C74.9384 148.308 74.3223 150.014 74.2923 151.78L62.6975 151.34C62.6975 151.34 59.6348 150.899 59.6348 153.102V155.304C59.6348 155.304 61.1662 154.643 62.0412 155.304C62.9162 155.965 72.3234 161.691 76.9176 159.488C81.5117 157.286 82.6055 148.697 82.6055 148.697C82.6055 148.697 78.449 145.173 76.0426 146.935Z" fill="#FFB9B9"/>
<path d="M78.6682 135.924L80.4185 135.704C80.4185 135.704 83.9187 136.144 83.4812 142.971C83.0437 149.799 82.8249 150.239 82.8249 150.239C82.8249 150.239 78.2307 146.054 74.9492 148.037L78.6682 135.924Z" fill="#0C572C"/>
<path d="M57.6662 141.871H56.7912C55.6575 143.312 55.0407 145.097 55.041 146.936C55.0209 148.905 54.7639 150.865 54.2754 152.772L61.1667 151.561L57.6662 141.871Z" fill="#0C572C"/>
<path d="M163.313 107.949H99.7891V120.574H163.313V107.949Z" fill="#E6E6E6"/>
<path d="M101.143 119.211H161.958V109.313H101.143V119.211Z" fill="white"/>
<path d="M106.467 110.408C107.208 110.408 107.932 110.629 108.548 111.044C109.165 111.458 109.645 112.047 109.928 112.736C110.212 113.425 110.286 114.184 110.141 114.915C109.997 115.647 109.64 116.319 109.116 116.846C108.592 117.374 107.925 117.733 107.198 117.879C106.471 118.024 105.718 117.949 105.033 117.664C104.349 117.378 103.764 116.895 103.352 116.275C102.94 115.655 102.721 114.926 102.721 114.18C102.721 113.179 103.115 112.22 103.818 111.513C104.521 110.806 105.473 110.408 106.467 110.408V110.408Z" fill="#0C572C"/>
<path d="M152.4 112.704H115.426V113.524H152.4V112.704Z" fill="#E6E6E6"/>
<path d="M152.4 114.835H115.426V115.655H152.4V114.835Z" fill="#E6E6E6"/>
<path d="M163.313 125.966H99.7891V138.592H163.313V125.966Z" fill="#E6E6E6"/>
<path d="M101.143 137.228H161.958V127.33H101.143V137.228Z" fill="white"/>
<path d="M106.467 135.969C108.536 135.969 110.213 134.28 110.213 132.197C110.213 130.114 108.536 128.426 106.467 128.426C104.398 128.426 102.721 130.114 102.721 132.197C102.721 134.28 104.398 135.969 106.467 135.969Z" fill="#0C572C"/>
<path d="M152.4 130.722H115.426V131.542H152.4V130.722Z" fill="#E6E6E6"/>
<path d="M152.4 132.853H115.426V133.673H152.4V132.853Z" fill="#E6E6E6"/>
<path d="M163.313 143.983H99.7891V156.609H163.313V143.983Z" fill="#E6E6E6"/>
<path d="M101.143 155.246H161.958V145.348H101.143V155.246Z" fill="white"/>
<path d="M106.467 153.986C108.536 153.986 110.213 152.298 110.213 150.215C110.213 148.132 108.536 146.443 106.467 146.443C104.398 146.443 102.721 148.132 102.721 150.215C102.721 152.298 104.398 153.986 106.467 153.986Z" fill="#0C572C"/>
<path d="M152.4 148.739H115.426V149.559H152.4V148.739Z" fill="#E6E6E6"/>
<path d="M152.4 150.87H115.426V151.69H152.4V150.87Z" fill="#E6E6E6"/>
</svg>
