<svg width="230" height="181" viewBox="0 0 230 181" fill="none" xmlns="http://www.w3.org/2000/svg">
<g clip-path="url(#clip0)">
<path d="M29.3865 162.945C32.1884 168.215 38.1352 170.477 38.1352 170.477C38.1352 170.477 39.539 164.195 36.7371 158.926C33.9351 153.656 27.9884 151.394 27.9884 151.394C27.9884 151.394 26.5845 157.676 29.3865 162.945Z" fill="#2F2E41"/>
<path d="M31.3121 161.211C36.3708 164.298 38.319 170.428 38.319 170.428C38.319 170.428 32.0656 171.554 27.0069 168.468C21.9483 165.382 20 159.252 20 159.252C20 159.252 26.2535 158.125 31.3121 161.211Z" fill="#0C572C"/>
<path d="M144.728 8.20923H113.166V8.66647H144.728V8.20923Z" fill="#F2F2F2"/>
<path d="M136.162 8.55225H135.711V12.7817H136.162V8.55225Z" fill="#F2F2F2"/>
<path d="M122.41 8.55225H121.959V12.7817H122.41V8.55225Z" fill="#F2F2F2"/>
<path d="M160.734 30.1567H129.172V30.614H160.734V30.1567Z" fill="#F2F2F2"/>
<path d="M138.191 26.0415H137.74V30.2709H138.191V26.0415Z" fill="#F2F2F2"/>
<path d="M151.943 26.0415H151.492V30.2709H151.943V26.0415Z" fill="#F2F2F2"/>
<path d="M202.668 40.4443H171.105V40.9016H202.668V40.4443Z" fill="#F2F2F2"/>
<path d="M180.123 36.3293H179.672V40.5588H180.123V36.3293Z" fill="#F2F2F2"/>
<path d="M193.877 36.3293H193.426V40.5588H193.877V36.3293Z" fill="#F2F2F2"/>
<path d="M199.512 146.523H167.949V146.981H199.512V146.523Z" fill="#F2F2F2"/>
<path d="M176.967 142.408H176.516V146.638H176.967V142.408Z" fill="#F2F2F2"/>
<path d="M190.72 142.408H190.27V146.638H190.72V142.408Z" fill="#F2F2F2"/>
<path d="M145.631 73.137H114.068V73.5942H145.631V73.137Z" fill="#F2F2F2"/>
<path d="M123.086 69.0217H122.635V73.2512H123.086V69.0217Z" fill="#F2F2F2"/>
<path d="M136.838 69.0217H136.387V73.2512H136.838V69.0217Z" fill="#F2F2F2"/>
<path d="M155.551 128.234H123.988V128.691H155.551V128.234Z" fill="#F2F2F2"/>
<path d="M133.006 124.119H132.555V128.348H133.006V124.119Z" fill="#F2F2F2"/>
<path d="M146.758 124.119H146.307V128.348H146.758V124.119Z" fill="#F2F2F2"/>
<path d="M206.051 111.545H174.488V112.002H206.051V111.545Z" fill="#F2F2F2"/>
<path d="M183.506 107.43H183.055V111.659H183.506V107.43Z" fill="#F2F2F2"/>
<path d="M197.258 107.43H196.807V111.659H197.258V107.43Z" fill="#F2F2F2"/>
<path d="M101.627 160.532H48.2441V160.143H101.243V141.255H52.7319L50.3753 136.276L50.7216 136.107L52.9736 140.865H101.627V160.532Z" fill="#2F2E41"/>
<path d="M55.347 170.074C57.574 170.074 59.3795 168.243 59.3795 165.984C59.3795 163.726 57.574 161.895 55.347 161.895C53.1199 161.895 51.3145 163.726 51.3145 165.984C51.3145 168.243 53.1199 170.074 55.347 170.074Z" fill="#3F3D56"/>
<path d="M95.0969 170.074C97.324 170.074 99.1294 168.243 99.1294 165.984C99.1294 163.726 97.324 161.895 95.0969 161.895C92.8699 161.895 91.0645 163.726 91.0645 165.984C91.0645 168.243 92.8699 170.074 95.0969 170.074Z" fill="#3F3D56"/>
<path d="M141.949 81.6683C143.328 81.6683 144.446 80.535 144.446 79.1369C144.446 77.7388 143.328 76.6055 141.949 76.6055C140.571 76.6055 139.453 77.7388 139.453 79.1369C139.453 80.535 140.571 81.6683 141.949 81.6683Z" fill="#3F3D56"/>
<path d="M107.335 134.828H47.3327L34.3496 91.7942H120.706L120.627 92.0474L107.335 134.828ZM47.6168 134.439H107.053L120.182 92.1836H34.8687L47.6168 134.439Z" fill="#2F2E41"/>
<path d="M102.651 132.589H49.9485L38.5449 94.4229H114.394L114.325 94.6476L102.651 132.589Z" fill="#F2F2F2"/>
<path d="M121.781 87.9494L121.41 87.8495L123.944 78.1631H138.686V78.5526H124.24L121.781 87.9494Z" fill="#2F2E41"/>
<path d="M116.39 104.841H38.5449V105.23H116.39V104.841Z" fill="#2F2E41"/>
<path d="M111.931 119.189H42.873V119.578H111.931V119.189Z" fill="#2F2E41"/>
<path d="M77.7181 91.9888H77.334V134.634H77.7181V91.9888Z" fill="#2F2E41"/>
<path d="M94.9131 91.9768L92.1562 134.621L92.5395 134.646L95.2964 92.0023L94.9131 91.9768Z" fill="#2F2E41"/>
<path d="M60.147 91.9761L59.7637 92.0015L62.5045 134.646L62.8878 134.621L60.147 91.9761Z" fill="#2F2E41"/>
<path d="M222 170.321H20V170.778H222V170.321Z" fill="#2F2E41"/>
<path d="M154.234 14.146C154.234 14.146 157.53 23.658 155.502 25.1213C153.474 26.5847 162.347 38.5356 162.347 38.5356L172.994 35.6089L167.164 25.6091C167.164 25.6091 166.403 15.6094 166.403 14.146C166.403 12.6826 154.234 14.146 154.234 14.146Z" fill="#A0616A"/>
<path opacity="0.1" d="M154.234 14.146C154.234 14.146 157.53 23.658 155.502 25.1213C153.474 26.5847 162.347 38.5356 162.347 38.5356L172.994 35.6089L167.164 25.6091C167.164 25.6091 166.403 15.6094 166.403 14.146C166.403 12.6826 154.234 14.146 154.234 14.146Z" fill="black"/>
<path d="M148.701 81.9492C148.701 81.9492 147.739 94.144 148.701 100.485C149.663 106.827 151.106 124.387 151.106 124.387C151.106 124.387 151.106 157.557 156.397 158.045C161.689 158.533 165.537 159.02 166.018 157.069C166.499 155.118 163.613 154.142 165.056 153.167C166.499 152.191 166.98 148.777 165.056 144.874C163.132 140.972 165.056 101.461 165.056 101.461L174.195 126.338C174.195 126.338 175.157 146.826 176.119 149.752C177.081 152.679 175.157 158.045 178.525 158.533C181.892 159.02 185.74 156.094 187.664 155.118C189.588 154.142 184.778 154.142 185.74 153.655C186.702 153.167 189.588 151.703 188.626 151.216C187.664 150.728 186.702 127.314 186.702 127.314C186.702 127.314 184.056 77.3151 180.689 75.364C177.322 73.4128 175.157 76.7736 175.157 76.7736L148.701 81.9492Z" fill="#2F2E41"/>
<path d="M157.36 156.094V159.996C157.36 159.996 153.03 170.604 157.36 170.604C161.689 170.604 165.056 171.703 165.056 170.24V157.069L157.36 156.094Z" fill="#2F2E41"/>
<path d="M185.739 156.087V159.989C185.739 159.989 190.069 170.597 185.739 170.597C181.41 170.597 178.043 171.696 178.043 170.233V157.062L185.739 156.087Z" fill="#2F2E41"/>
<path d="M160.967 21.219C165.749 21.219 169.626 17.2879 169.626 12.4387C169.626 7.58951 165.749 3.65845 160.967 3.65845C156.185 3.65845 152.309 7.58951 152.309 12.4387C152.309 17.2879 156.185 21.219 160.967 21.219Z" fill="#A0616A"/>
<path d="M158.321 28.7795C158.321 28.7795 160.727 36.0964 164.575 34.6331L168.423 33.1697L175.157 79.9978C175.157 79.9978 169.866 87.8025 162.17 82.9245C154.473 78.0466 158.321 28.7795 158.321 28.7795Z" fill="#0C572C"/>
<path d="M165.057 27.3164L167.221 22.6824C167.221 22.6824 179.968 28.7798 181.893 30.731C183.817 32.6821 183.817 35.6089 183.817 35.6089L180.449 47.8037C180.449 47.8037 181.411 74.6323 181.411 75.6079C181.411 76.5835 184.779 81.9492 182.374 79.998C179.968 78.0468 179.487 76.0957 177.563 79.0224C175.639 81.9492 171.31 85.3637 171.31 85.3637L165.057 27.3164Z" fill="#3F3D56"/>
<path d="M181.892 62.4375L180.449 76.0957C180.449 76.0957 171.79 83.9004 173.715 84.3882C175.639 84.876 176.601 82.9248 176.601 82.9248C176.601 82.9248 179.968 86.3393 181.892 84.3882C183.816 82.437 188.626 63.9009 188.626 63.9009L181.892 62.4375Z" fill="#A0616A"/>
<path d="M161.153 0.0296909C159.233 -0.0398937 157.179 -0.0743147 155.561 0.974618C154.816 1.50103 154.163 2.14936 153.628 2.89308C152.052 4.91371 150.69 7.45613 151.275 9.96318L151.955 9.69424C151.955 10.3634 151.809 11.0243 151.526 11.6289C151.622 11.3466 151.942 11.803 151.856 12.0887L151.107 14.5808C152.339 14.123 153.871 15.0499 154.058 16.3662C154.144 13.4716 154.44 10.1524 156.755 8.45753C157.923 7.6028 159.401 7.34187 160.823 7.11017C162.134 6.89641 163.51 6.69258 164.766 7.13048C166.022 7.56839 167.092 8.87141 166.808 10.1873C167.387 9.98495 168.035 10.3944 168.321 10.9437C168.607 11.4931 168.622 12.1411 168.631 12.7624C169.249 13.205 169.951 12.3261 170.203 11.603C170.794 9.9057 171.319 8.09892 171.001 6.32813C170.682 4.55734 169.259 2.86508 167.484 2.85908C167.7 2.6191 167.815 2.30356 167.805 1.97918L166.342 1.85383C166.713 1.8005 167.055 1.61788 167.308 1.33726C166.721 1.99269 162.103 0.0641231 161.153 0.0296909Z" fill="#2F2E41"/>
<path d="M160.727 25.8529C160.727 25.8529 156.811 21.9616 155.402 22.2C153.993 22.4383 152.068 25.8529 152.068 25.8529C152.068 25.8529 140.524 29.7552 141.005 33.6576C141.486 37.5599 146.777 56.5838 146.777 56.5838C146.777 56.5838 151.106 79.5101 147.258 81.949C143.41 84.388 165.537 90.7293 166.018 87.8025C166.499 84.8758 167.461 55.6082 166.018 51.2181C164.575 46.828 160.727 25.8529 160.727 25.8529Z" fill="#3F3D56"/>
<path d="M177.564 33.6577H183.512C183.512 33.6577 187.666 52.1938 188.147 54.145C188.628 56.0962 189.59 65.3642 189.109 65.3642C188.628 65.3642 179.008 63.4131 179.008 64.8764L177.564 33.6577Z" fill="#3F3D56"/>
<path d="M177.36 79.5591H154.59C152.368 69.1936 152.183 59.1786 154.59 49.6101H177.36C173.686 59.0065 173.456 68.9528 177.36 79.5591Z" fill="#F2F2F2"/>
<path d="M145.336 66.8276L152.07 69.7543C152.07 69.7543 165.058 71.7055 165.058 66.3398C165.058 60.9741 152.07 63.9008 152.07 63.9008L147.741 62.4971L145.336 66.8276Z" fill="#A0616A"/>
<path d="M146.779 30.731L141.007 32.1943L136.677 58.0474C136.677 58.0474 135.234 64.8765 137.639 65.3642C140.045 65.852 146.779 69.7544 146.779 69.7544C146.779 69.7544 147.741 62.4375 149.665 62.4375L144.855 58.5352L147.741 41.4624L146.779 30.731Z" fill="#3F3D56"/>
<path d="M65.1465 80.6812H33.584V81.1384H65.1465V80.6812Z" fill="#F2F2F2"/>
<path d="M42.6013 76.5662H42.1504V80.7956H42.6013V76.5662Z" fill="#F2F2F2"/>
<path d="M56.3532 76.5662H55.9023V80.7956H56.3532V76.5662Z" fill="#F2F2F2"/>
<path d="M76.1934 13.0103H44.6309V13.4675H76.1934V13.0103Z" fill="#F2F2F2"/>
<path d="M67.6267 13.3533H67.1758V17.5827H67.6267V13.3533Z" fill="#F2F2F2"/>
<path d="M53.8728 13.3533H53.4219V17.5827H53.8728V13.3533Z" fill="#F2F2F2"/>
<path d="M107.924 58.0691H76.3613V58.5263H107.924V58.0691Z" fill="#F2F2F2"/>
<path d="M99.4138 58.3909H98.9629V62.6203H99.4138V58.3909Z" fill="#F2F2F2"/>
<path d="M85.6618 58.3909H85.2109V62.6203H85.6618V58.3909Z" fill="#F2F2F2"/>
<path d="M54.3242 57.8193H22.7617V58.2766H54.3242V57.8193Z" fill="#F2F2F2"/>
<path d="M45.7575 58.1624H45.3066V62.3918H45.7575V58.1624Z" fill="#F2F2F2"/>
<path d="M32.0056 58.1624H31.5547V62.3918H32.0056V58.1624Z" fill="#F2F2F2"/>
<path d="M92.1992 34.9575H60.6367V35.4148H92.1992V34.9575Z" fill="#F2F2F2"/>
<path d="M69.654 30.8425H69.2031V35.072H69.654V30.8425Z" fill="#F2F2F2"/>
<path d="M83.4079 30.8425H82.957V35.072H83.4079V30.8425Z" fill="#F2F2F2"/>
</g>
<defs>
<clipPath id="clip0">
<rect width="202" height="171" fill="white" transform="translate(20)"/>
</clipPath>
</defs>
</svg>
