<svg width="28" height="30" viewBox="0 0 28 30" fill="none" xmlns="http://www.w3.org/2000/svg">
<path d="M7.29492 7.6247C7.29492 7.30239 7.41266 6.99328 7.62223 6.76537C7.8318 6.53746 8.11604 6.40942 8.41242 6.40942H19.5874C19.8838 6.40942 20.168 6.53746 20.3776 6.76537C20.5871 6.99328 20.7049 7.30239 20.7049 7.6247C20.7049 7.94701 20.5871 8.25612 20.3776 8.48403C20.168 8.71194 19.8838 8.83998 19.5874 8.83998H8.41242C8.11604 8.83998 7.8318 8.71194 7.62223 8.48403C7.41266 8.25612 7.29492 7.94701 7.29492 7.6247Z" fill="#0FC662"/>
<path d="M7.29492 12.486C7.29492 12.1637 7.41266 11.8546 7.62223 11.6267C7.8318 11.3988 8.11604 11.2708 8.41242 11.2708H19.5874C19.8838 11.2708 20.168 11.3988 20.3776 11.6267C20.5871 11.8546 20.7049 12.1637 20.7049 12.486C20.7049 12.8083 20.5871 13.1175 20.3776 13.3454C20.168 13.5733 19.8838 13.7013 19.5874 13.7013H8.41242C8.11604 13.7013 7.8318 13.5733 7.62223 13.3454C7.41266 13.1175 7.29492 12.8083 7.29492 12.486Z" fill="#0FC662"/>
<path d="M8.41242 16.1318C8.11604 16.1318 7.8318 16.2599 7.62223 16.4878C7.41266 16.7157 7.29492 17.0249 7.29492 17.3472C7.29492 17.6696 7.41266 17.9787 7.62223 18.2067C7.8318 18.4346 8.11604 18.5626 8.41242 18.5626H19.5874C19.8838 18.5626 20.168 18.4346 20.3776 18.2067C20.5871 17.9787 20.7049 17.6696 20.7049 17.3472C20.7049 17.0249 20.5871 16.7157 20.3776 16.4878C20.168 16.2599 19.8838 16.1318 19.5874 16.1318H8.41242Z" fill="#0FC662"/>
<path d="M7.29492 22.2082C7.29492 21.8859 7.41266 21.5768 7.62223 21.3489C7.8318 21.121 8.11604 20.9929 8.41242 20.9929H12.8824C13.1788 20.9929 13.463 21.121 13.6726 21.3489C13.8822 21.5768 13.9999 21.8859 13.9999 22.2082C13.9999 22.5305 13.8822 22.8396 13.6726 23.0675C13.463 23.2954 13.1788 23.4235 12.8824 23.4235H8.41242C8.11604 23.4235 7.8318 23.2954 7.62223 23.0675C7.41266 22.8396 7.29492 22.5305 7.29492 22.2082Z" fill="#0FC662"/>
<path fill-rule="evenodd" clip-rule="evenodd" d="M2.82422 5.19411C2.82422 4.22718 3.17743 3.29985 3.80614 2.61612C4.43485 1.93239 5.28757 1.54828 6.17671 1.54828H21.8217C22.7108 1.54828 23.5635 1.93239 24.1922 2.61612C24.8209 3.29985 25.1742 4.22718 25.1742 5.19411V24.6386C25.1742 25.6055 24.8209 26.5328 24.1922 27.2166C23.5635 27.9003 22.7108 28.2844 21.8217 28.2844H6.17671C5.28757 28.2844 4.43485 27.9003 3.80614 27.2166C3.17743 26.5328 2.82422 25.6055 2.82422 24.6386V5.19411ZM6.17671 3.97883H21.8217C22.118 3.97883 22.4023 4.10687 22.6119 4.33478C22.8214 4.56269 22.9392 4.8718 22.9392 5.19411V24.6386C22.9392 24.9609 22.8214 25.27 22.6119 25.4979C22.4023 25.7258 22.118 25.8538 21.8217 25.8538H6.17671C5.88033 25.8538 5.59609 25.7258 5.38652 25.4979C5.17695 25.27 5.05921 24.9609 5.05921 24.6386V5.19411C5.05921 4.8718 5.17695 4.56269 5.38652 4.33478C5.59609 4.10687 5.88033 3.97883 6.17671 3.97883Z" fill="#0FC662"/>
</svg>
